%TF.GenerationSoftware,KiCad,Pcbnew,7.0.1-0*%
%TF.CreationDate,2023-11-24T13:11:02+01:00*%
%TF.ProjectId,LoRa_Hat,4c6f5261-5f48-4617-942e-6b696361645f,rev?*%
%TF.SameCoordinates,Original*%
%TF.FileFunction,Legend,Bot*%
%TF.FilePolarity,Positive*%
%FSLAX46Y46*%
G04 Gerber Fmt 4.6, Leading zero omitted, Abs format (unit mm)*
G04 Created by KiCad (PCBNEW 7.0.1-0) date 2023-11-24 13:11:02*
%MOMM*%
%LPD*%
G01*
G04 APERTURE LIST*
%ADD10C,0.200000*%
%ADD11C,0.150000*%
%ADD12C,0.120000*%
G04 APERTURE END LIST*
D10*
X144541427Y-109203928D02*
X145398570Y-109203928D01*
X144969999Y-109203928D02*
X144969999Y-107703928D01*
X144969999Y-107703928D02*
X145112856Y-107918214D01*
X145112856Y-107918214D02*
X145255713Y-108061071D01*
X145255713Y-108061071D02*
X145398570Y-108132500D01*
D11*
%TO.C,J1*%
X143353333Y-79072619D02*
X143353333Y-79786904D01*
X143353333Y-79786904D02*
X143400952Y-79929761D01*
X143400952Y-79929761D02*
X143496190Y-80025000D01*
X143496190Y-80025000D02*
X143639047Y-80072619D01*
X143639047Y-80072619D02*
X143734285Y-80072619D01*
X142353333Y-80072619D02*
X142924761Y-80072619D01*
X142639047Y-80072619D02*
X142639047Y-79072619D01*
X142639047Y-79072619D02*
X142734285Y-79215476D01*
X142734285Y-79215476D02*
X142829523Y-79310714D01*
X142829523Y-79310714D02*
X142924761Y-79358333D01*
%TO.C,U1*%
X145332619Y-98848095D02*
X146142142Y-98848095D01*
X146142142Y-98848095D02*
X146237380Y-98895714D01*
X146237380Y-98895714D02*
X146285000Y-98943333D01*
X146285000Y-98943333D02*
X146332619Y-99038571D01*
X146332619Y-99038571D02*
X146332619Y-99229047D01*
X146332619Y-99229047D02*
X146285000Y-99324285D01*
X146285000Y-99324285D02*
X146237380Y-99371904D01*
X146237380Y-99371904D02*
X146142142Y-99419523D01*
X146142142Y-99419523D02*
X145332619Y-99419523D01*
X146332619Y-100419523D02*
X146332619Y-99848095D01*
X146332619Y-100133809D02*
X145332619Y-100133809D01*
X145332619Y-100133809D02*
X145475476Y-100038571D01*
X145475476Y-100038571D02*
X145570714Y-99943333D01*
X145570714Y-99943333D02*
X145618333Y-99848095D01*
%TO.C,J5*%
X113603333Y-93572619D02*
X113603333Y-94286904D01*
X113603333Y-94286904D02*
X113650952Y-94429761D01*
X113650952Y-94429761D02*
X113746190Y-94525000D01*
X113746190Y-94525000D02*
X113889047Y-94572619D01*
X113889047Y-94572619D02*
X113984285Y-94572619D01*
X112650952Y-93572619D02*
X113127142Y-93572619D01*
X113127142Y-93572619D02*
X113174761Y-94048809D01*
X113174761Y-94048809D02*
X113127142Y-94001190D01*
X113127142Y-94001190D02*
X113031904Y-93953571D01*
X113031904Y-93953571D02*
X112793809Y-93953571D01*
X112793809Y-93953571D02*
X112698571Y-94001190D01*
X112698571Y-94001190D02*
X112650952Y-94048809D01*
X112650952Y-94048809D02*
X112603333Y-94144047D01*
X112603333Y-94144047D02*
X112603333Y-94382142D01*
X112603333Y-94382142D02*
X112650952Y-94477380D01*
X112650952Y-94477380D02*
X112698571Y-94525000D01*
X112698571Y-94525000D02*
X112793809Y-94572619D01*
X112793809Y-94572619D02*
X113031904Y-94572619D01*
X113031904Y-94572619D02*
X113127142Y-94525000D01*
X113127142Y-94525000D02*
X113174761Y-94477380D01*
D12*
%TO.C,J1*%
X168360000Y-72900000D02*
X168360000Y-78100000D01*
X117440000Y-72900000D02*
X168360000Y-72900000D01*
X117440000Y-72900000D02*
X117440000Y-75500000D01*
X120040000Y-75500000D02*
X120040000Y-78100000D01*
X117440000Y-75500000D02*
X120040000Y-75500000D01*
X117440000Y-76770000D02*
X117440000Y-78100000D01*
X120040000Y-78100000D02*
X168360000Y-78100000D01*
X117440000Y-78100000D02*
X118770000Y-78100000D01*
%TO.C,U1*%
X128570000Y-107710000D02*
X128570000Y-91510000D01*
X128970000Y-107710000D02*
X128570000Y-107710000D01*
X144420000Y-107710000D02*
X144420000Y-108610000D01*
X144770000Y-107710000D02*
X144420000Y-107710000D01*
X144770000Y-107710000D02*
X144770000Y-91510000D01*
X128570000Y-91510000D02*
X128970000Y-91510000D01*
X144770000Y-91510000D02*
X144370000Y-91510000D01*
%TO.C,J5*%
X117070000Y-99610000D02*
X117570000Y-99860000D01*
X117570000Y-99360000D02*
X117070000Y-99610000D01*
X117570000Y-99860000D02*
X117570000Y-99360000D01*
%TD*%
M02*
