%TF.GenerationSoftware,KiCad,Pcbnew,7.0.1-0*%
%TF.CreationDate,2023-11-24T13:11:02+01:00*%
%TF.ProjectId,LoRa_Hat,4c6f5261-5f48-4617-942e-6b696361645f,rev?*%
%TF.SameCoordinates,Original*%
%TF.FileFunction,Copper,L1,Top*%
%TF.FilePolarity,Positive*%
%FSLAX46Y46*%
G04 Gerber Fmt 4.6, Leading zero omitted, Abs format (unit mm)*
G04 Created by KiCad (PCBNEW 7.0.1-0) date 2023-11-24 13:11:02*
%MOMM*%
%LPD*%
G01*
G04 APERTURE LIST*
G04 Aperture macros list*
%AMRoundRect*
0 Rectangle with rounded corners*
0 $1 Rounding radius*
0 $2 $3 $4 $5 $6 $7 $8 $9 X,Y pos of 4 corners*
0 Add a 4 corners polygon primitive as box body*
4,1,4,$2,$3,$4,$5,$6,$7,$8,$9,$2,$3,0*
0 Add four circle primitives for the rounded corners*
1,1,$1+$1,$2,$3*
1,1,$1+$1,$4,$5*
1,1,$1+$1,$6,$7*
1,1,$1+$1,$8,$9*
0 Add four rect primitives between the rounded corners*
20,1,$1+$1,$2,$3,$4,$5,0*
20,1,$1+$1,$4,$5,$6,$7,0*
20,1,$1+$1,$6,$7,$8,$9,0*
20,1,$1+$1,$8,$9,$2,$3,0*%
%AMFreePoly0*
4,1,19,0.550000,-0.750000,0.000000,-0.750000,0.000000,-0.744911,-0.071157,-0.744911,-0.207708,-0.704816,-0.327430,-0.627875,-0.420627,-0.520320,-0.479746,-0.390866,-0.500000,-0.250000,-0.500000,0.250000,-0.479746,0.390866,-0.420627,0.520320,-0.327430,0.627875,-0.207708,0.704816,-0.071157,0.744911,0.000000,0.744911,0.000000,0.750000,0.550000,0.750000,0.550000,-0.750000,0.550000,-0.750000,
$1*%
%AMFreePoly1*
4,1,19,0.000000,0.744911,0.071157,0.744911,0.207708,0.704816,0.327430,0.627875,0.420627,0.520320,0.479746,0.390866,0.500000,0.250000,0.500000,-0.250000,0.479746,-0.390866,0.420627,-0.520320,0.327430,-0.627875,0.207708,-0.704816,0.071157,-0.744911,0.000000,-0.744911,0.000000,-0.750000,-0.550000,-0.750000,-0.550000,0.750000,0.000000,0.750000,0.000000,0.744911,0.000000,0.744911,
$1*%
G04 Aperture macros list end*
%TA.AperFunction,ComponentPad*%
%ADD10O,1.308000X2.616000*%
%TD*%
%TA.AperFunction,ComponentPad*%
%ADD11R,3.200000X3.200000*%
%TD*%
%TA.AperFunction,ComponentPad*%
%ADD12O,3.200000X3.200000*%
%TD*%
%TA.AperFunction,ComponentPad*%
%ADD13C,1.600000*%
%TD*%
%TA.AperFunction,ComponentPad*%
%ADD14O,1.600000X1.600000*%
%TD*%
%TA.AperFunction,SMDPad,CuDef*%
%ADD15FreePoly0,90.000000*%
%TD*%
%TA.AperFunction,SMDPad,CuDef*%
%ADD16R,1.500000X1.000000*%
%TD*%
%TA.AperFunction,SMDPad,CuDef*%
%ADD17FreePoly1,90.000000*%
%TD*%
%TA.AperFunction,ComponentPad*%
%ADD18C,2.000000*%
%TD*%
%TA.AperFunction,ComponentPad*%
%ADD19R,1.700000X1.700000*%
%TD*%
%TA.AperFunction,ComponentPad*%
%ADD20O,1.700000X1.700000*%
%TD*%
%TA.AperFunction,ComponentPad*%
%ADD21C,3.500000*%
%TD*%
%TA.AperFunction,ComponentPad*%
%ADD22RoundRect,0.468750X1.031250X1.031250X-1.031250X1.031250X-1.031250X-1.031250X1.031250X-1.031250X0*%
%TD*%
%TA.AperFunction,ComponentPad*%
%ADD23R,1.800000X1.800000*%
%TD*%
%TA.AperFunction,ComponentPad*%
%ADD24C,1.800000*%
%TD*%
%TA.AperFunction,SMDPad,CuDef*%
%ADD25R,5.080000X2.500000*%
%TD*%
%TA.AperFunction,ViaPad*%
%ADD26C,0.800000*%
%TD*%
%TA.AperFunction,Conductor*%
%ADD27C,1.000000*%
%TD*%
%TA.AperFunction,Conductor*%
%ADD28C,0.500000*%
%TD*%
%TA.AperFunction,Conductor*%
%ADD29C,1.500000*%
%TD*%
%TA.AperFunction,Conductor*%
%ADD30C,2.500000*%
%TD*%
%TA.AperFunction,Conductor*%
%ADD31C,0.250000*%
%TD*%
G04 APERTURE END LIST*
D10*
%TO.P,J6,1*%
%TO.N,+5V*%
X121770000Y-119912500D03*
%TO.P,J6,2*%
%TO.N,GND*%
X123770000Y-119912500D03*
%TO.P,J6,3*%
X119770000Y-119912500D03*
%TD*%
D11*
%TO.P,D1,1,K*%
%TO.N,+5V*%
X134020000Y-123110000D03*
D12*
%TO.P,D1,2,A*%
%TO.N,GND*%
X149260000Y-123110000D03*
%TD*%
D13*
%TO.P,R5,1*%
%TO.N,SW5*%
X164570000Y-82210000D03*
D14*
%TO.P,R5,2*%
%TO.N,GND*%
X164570000Y-89830000D03*
%TD*%
D15*
%TO.P,JP2,1,A*%
%TO.N,GND*%
X122770000Y-98910000D03*
D16*
%TO.P,JP2,2,C*%
%TO.N,DP2*%
X122770000Y-97610000D03*
D17*
%TO.P,JP2,3,B*%
%TO.N,+3V3*%
X122770000Y-96310000D03*
%TD*%
D18*
%TO.P,SW5,1,1*%
%TO.N,+3V3*%
X167770000Y-89250000D03*
X167770000Y-82750000D03*
%TO.P,SW5,2,2*%
%TO.N,SW5*%
X172270000Y-89250000D03*
X172270000Y-82750000D03*
%TD*%
D13*
%TO.P,C1,1*%
%TO.N,+3V3*%
X136270000Y-84110000D03*
%TO.P,C1,2*%
%TO.N,GND*%
X136270000Y-81610000D03*
%TD*%
%TO.P,R4,1*%
%TO.N,SW4*%
X164540000Y-96200000D03*
D14*
%TO.P,R4,2*%
%TO.N,GND*%
X164540000Y-103820000D03*
%TD*%
D13*
%TO.P,R2,1*%
%TO.N,SW2*%
X153370000Y-82190000D03*
D14*
%TO.P,R2,2*%
%TO.N,GND*%
X153370000Y-89810000D03*
%TD*%
D19*
%TO.P,J2,1,Pin_1*%
%TO.N,DP1*%
X126020000Y-103820000D03*
D20*
%TO.P,J2,2,Pin_2*%
%TO.N,DP2*%
X126020000Y-101280000D03*
%TO.P,J2,3,Pin_3*%
%TO.N,SCL*%
X126020000Y-98740000D03*
%TO.P,J2,4,Pin_4*%
%TO.N,SDA*%
X126020000Y-96200000D03*
D21*
%TO.P,J2,5*%
%TO.N,N/C*%
X126420000Y-88850000D03*
X126420000Y-110360000D03*
X149620000Y-88850000D03*
X149620000Y-110360000D03*
%TD*%
D18*
%TO.P,SW1,1,1*%
%TO.N,+3V3*%
X156520000Y-117250000D03*
X156520000Y-110750000D03*
%TO.P,SW1,2,2*%
%TO.N,SW1*%
X161020000Y-117250000D03*
X161020000Y-110750000D03*
%TD*%
D13*
%TO.P,R7,1*%
%TO.N,+3V3*%
X156520000Y-103370000D03*
D14*
%TO.P,R7,2*%
%TO.N,SCL*%
X156520000Y-95750000D03*
%TD*%
D15*
%TO.P,JP1,1,A*%
%TO.N,+3V3*%
X122770000Y-103810000D03*
D16*
%TO.P,JP1,2,C*%
%TO.N,DP1*%
X122770000Y-102510000D03*
D17*
%TO.P,JP1,3,B*%
%TO.N,GND*%
X122770000Y-101210000D03*
%TD*%
D22*
%TO.P,J8,1,Pin_1*%
%TO.N,GND*%
X158927745Y-123110000D03*
%TD*%
D18*
%TO.P,SW2,1,1*%
%TO.N,+3V3*%
X156520000Y-89250000D03*
X156520000Y-82750000D03*
%TO.P,SW2,2,2*%
%TO.N,SW2*%
X161020000Y-89250000D03*
X161020000Y-82750000D03*
%TD*%
D22*
%TO.P,J7,1,Pin_1*%
%TO.N,+5V*%
X154477745Y-123110000D03*
%TD*%
D13*
%TO.P,R1,1*%
%TO.N,SW1*%
X153290000Y-110200000D03*
D14*
%TO.P,R1,2*%
%TO.N,GND*%
X153290000Y-117820000D03*
%TD*%
D13*
%TO.P,R6,1*%
%TO.N,+3V3*%
X153370000Y-103370000D03*
D14*
%TO.P,R6,2*%
%TO.N,SDA*%
X153370000Y-95750000D03*
%TD*%
D19*
%TO.P,J4,1,Pin_1*%
%TO.N,GND*%
X114545000Y-118410000D03*
D20*
%TO.P,J4,2,Pin_2*%
%TO.N,RX*%
X114545000Y-115870000D03*
%TO.P,J4,3,Pin_3*%
%TO.N,TX*%
X114545000Y-113330000D03*
%TO.P,J4,4,Pin_4*%
%TO.N,+3V3*%
X114545000Y-110790000D03*
%TD*%
D13*
%TO.P,R8,1*%
%TO.N,GND*%
X149670000Y-81610000D03*
D14*
%TO.P,R8,2*%
%TO.N,Net-(D2-K)*%
X142050000Y-81610000D03*
%TD*%
D23*
%TO.P,D2,1,K*%
%TO.N,Net-(D2-K)*%
X128270000Y-81570000D03*
D24*
%TO.P,D2,2,A*%
%TO.N,+3V3*%
X128270000Y-84110000D03*
%TD*%
D18*
%TO.P,SW4,1,1*%
%TO.N,+3V3*%
X167770000Y-103250000D03*
X167770000Y-96750000D03*
%TO.P,SW4,2,2*%
%TO.N,SW4*%
X172270000Y-103250000D03*
X172270000Y-96750000D03*
%TD*%
D19*
%TO.P,J3,1,Pin_1*%
%TO.N,GND*%
X114520000Y-89360000D03*
D20*
%TO.P,J3,2,Pin_2*%
%TO.N,SCL*%
X114520000Y-86820000D03*
%TO.P,J3,3,Pin_3*%
%TO.N,SDA*%
X114520000Y-84280000D03*
%TO.P,J3,4,Pin_4*%
%TO.N,+3V3*%
X114520000Y-81740000D03*
%TD*%
D13*
%TO.P,R3,1*%
%TO.N,SW3*%
X164540000Y-110200000D03*
D14*
%TO.P,R3,2*%
%TO.N,GND*%
X164540000Y-117820000D03*
%TD*%
D18*
%TO.P,SW3,1,1*%
%TO.N,+3V3*%
X167770000Y-117250000D03*
X167770000Y-110750000D03*
%TO.P,SW3,2,2*%
%TO.N,SW3*%
X172270000Y-117250000D03*
X172270000Y-110750000D03*
%TD*%
D19*
%TO.P,J1,1,3.3V*%
%TO.N,+3V3*%
X118770000Y-76770000D03*
D20*
%TO.P,J1,2,5V*%
%TO.N,+5V*%
X118770000Y-74230000D03*
%TO.P,J1,3,BCM2_SDA*%
%TO.N,SDA*%
X121310000Y-76770000D03*
%TO.P,J1,4,5V*%
%TO.N,+5V*%
X121310000Y-74230000D03*
%TO.P,J1,5,BCM3_SCL*%
%TO.N,SCL*%
X123850000Y-76770000D03*
%TO.P,J1,6,GND*%
%TO.N,GND*%
X123850000Y-74230000D03*
%TO.P,J1,7,BCM4_GPCLK0*%
%TO.N,unconnected-(J1-BCM4_GPCLK0-Pad7)*%
X126390000Y-76770000D03*
%TO.P,J1,8,BCM14_TXD*%
%TO.N,TX*%
X126390000Y-74230000D03*
%TO.P,J1,9,GND*%
%TO.N,unconnected-(J1-GND-Pad9)*%
X128930000Y-76770000D03*
%TO.P,J1,10,BCM15_RXD*%
%TO.N,RX*%
X128930000Y-74230000D03*
%TO.P,J1,11,BCM17*%
%TO.N,DID0*%
X131470000Y-76770000D03*
%TO.P,J1,12,BCM18_PCM_C*%
%TO.N,unconnected-(J1-BCM18_PCM_C-Pad12)*%
X131470000Y-74230000D03*
%TO.P,J1,13,BCM27*%
%TO.N,unconnected-(J1-BCM27-Pad13)*%
X134010000Y-76770000D03*
%TO.P,J1,14,GND*%
%TO.N,GND*%
X134010000Y-74230000D03*
%TO.P,J1,15,BCM22*%
%TO.N,unconnected-(J1-BCM22-Pad15)*%
X136550000Y-76770000D03*
%TO.P,J1,16,BCM23*%
%TO.N,unconnected-(J1-BCM23-Pad16)*%
X136550000Y-74230000D03*
%TO.P,J1,17,3.3V*%
%TO.N,+3V3*%
X139090000Y-76770000D03*
%TO.P,J1,18,BCM24*%
%TO.N,unconnected-(J1-BCM24-Pad18)*%
X139090000Y-74230000D03*
%TO.P,J1,19,BCM10_MOSI*%
%TO.N,MOSI*%
X141630000Y-76770000D03*
%TO.P,J1,20,GND*%
%TO.N,GND*%
X141630000Y-74230000D03*
%TO.P,J1,21,BCM9_MISO*%
%TO.N,MISO*%
X144170000Y-76770000D03*
%TO.P,J1,22,BCM25*%
%TO.N,unconnected-(J1-BCM25-Pad22)*%
X144170000Y-74230000D03*
%TO.P,J1,23,BCM11_SCLK*%
%TO.N,SCK*%
X146710000Y-76770000D03*
%TO.P,J1,24,BCM8_CE0*%
%TO.N,CS*%
X146710000Y-74230000D03*
%TO.P,J1,25,GND*%
%TO.N,GND*%
X149250000Y-76770000D03*
%TO.P,J1,26,BCM7_CE1*%
%TO.N,unconnected-(J1-BCM7_CE1-Pad26)*%
X149250000Y-74230000D03*
%TO.P,J1,27,BCM0_ID_SD*%
%TO.N,unconnected-(J1-BCM0_ID_SD-Pad27)*%
X151790000Y-76770000D03*
%TO.P,J1,28,BCM1_ID_SC*%
%TO.N,unconnected-(J1-BCM1_ID_SC-Pad28)*%
X151790000Y-74230000D03*
%TO.P,J1,29,BCM5*%
%TO.N,DID1*%
X154330000Y-76770000D03*
%TO.P,J1,30,GND*%
%TO.N,GND*%
X154330000Y-74230000D03*
%TO.P,J1,31,BCM6*%
%TO.N,RESET*%
X156870000Y-76770000D03*
%TO.P,J1,32,BCM12_PWM0*%
%TO.N,unconnected-(J1-BCM12_PWM0-Pad32)*%
X156870000Y-74230000D03*
%TO.P,J1,33,BCM13_PWM1*%
%TO.N,unconnected-(J1-BCM13_PWM1-Pad33)*%
X159410000Y-76770000D03*
%TO.P,J1,34,GND*%
%TO.N,GND*%
X159410000Y-74230000D03*
%TO.P,J1,35,BCM19_MISO_PCM_FS*%
%TO.N,SW4*%
X161950000Y-76770000D03*
%TO.P,J1,36,BCM16*%
%TO.N,SW3*%
X161950000Y-74230000D03*
%TO.P,J1,37,BCM26*%
%TO.N,SW5*%
X164490000Y-76770000D03*
%TO.P,J1,38,BCM20_MOSI_PCM_DI*%
%TO.N,SW2*%
X164490000Y-74230000D03*
%TO.P,J1,39,GND*%
%TO.N,GND*%
X167030000Y-76770000D03*
%TO.P,J1,40,BCM21_SCLK_PCM_DO*%
%TO.N,SW1*%
X167030000Y-74230000D03*
%TD*%
D25*
%TO.P,J5,2,Ext*%
%TO.N,GND*%
X113350000Y-96910000D03*
X113350000Y-102310000D03*
%TD*%
D26*
%TO.N,+3V3*%
X156520000Y-106110000D03*
X122770000Y-113860000D03*
X167770000Y-106110000D03*
X135270000Y-111360000D03*
%TO.N,SDA*%
X131020000Y-80360000D03*
X122770000Y-79910000D03*
X122770000Y-84310000D03*
%TO.N,SCL*%
X123870000Y-86810000D03*
X132020000Y-80360000D03*
X123850000Y-79130000D03*
%TO.N,GND*%
X117270000Y-105110000D03*
X166270000Y-107610000D03*
X111270000Y-91610000D03*
X121770000Y-95110000D03*
X121770000Y-110610000D03*
X121270000Y-106610000D03*
X124770000Y-95110000D03*
X145770000Y-97360000D03*
X158270000Y-104610000D03*
X142520000Y-111360000D03*
X139270000Y-87110000D03*
X161770000Y-91610000D03*
X164770000Y-94110000D03*
X151270000Y-107610000D03*
X141770000Y-87110000D03*
X170270000Y-94610000D03*
X121770000Y-122610000D03*
X174270000Y-108610000D03*
X115270000Y-105110000D03*
X113270000Y-105110000D03*
X162270000Y-107610000D03*
X111270000Y-108110000D03*
X151270000Y-99610000D03*
X115270000Y-108610000D03*
X154770000Y-105110000D03*
X145770000Y-94610000D03*
X154770000Y-107610000D03*
X161770000Y-121110000D03*
X162270000Y-103610000D03*
X174270000Y-105610000D03*
X121770000Y-85610000D03*
X118770000Y-123610000D03*
X149270000Y-126610000D03*
X168770000Y-119610000D03*
X127770000Y-107610000D03*
X127770000Y-91610000D03*
X170270000Y-105610000D03*
X151270000Y-105110000D03*
X117770000Y-118110000D03*
X174270000Y-91610000D03*
X122770000Y-123610000D03*
X161770000Y-125110000D03*
X145770000Y-103610000D03*
X151270000Y-94610000D03*
X120770000Y-123610000D03*
X136770000Y-111360000D03*
X111770000Y-120610000D03*
X145770000Y-111360000D03*
X134270000Y-126610000D03*
X161270000Y-95860000D03*
X145770000Y-107610000D03*
X158270000Y-107610000D03*
X161270000Y-101360000D03*
X117770000Y-122610000D03*
X129270000Y-88610000D03*
X124770000Y-123610000D03*
X113270000Y-94110000D03*
X117770000Y-120610000D03*
X115270000Y-91610000D03*
X115770000Y-120610000D03*
X111270000Y-105110000D03*
X129770000Y-109610000D03*
X161770000Y-123110000D03*
X151270000Y-97360000D03*
X124770000Y-91610000D03*
X130270000Y-86110000D03*
X121270000Y-80110000D03*
X174270000Y-94610000D03*
X121770000Y-88110000D03*
X170270000Y-108610000D03*
X111270000Y-94110000D03*
X127770000Y-95110000D03*
X119770000Y-122610000D03*
X115270000Y-94110000D03*
X127770000Y-105610000D03*
X121770000Y-91610000D03*
X142270000Y-126610000D03*
X153270000Y-91860000D03*
X123770000Y-122610000D03*
X117270000Y-94110000D03*
X145770000Y-99610000D03*
X168770000Y-127110000D03*
X127770000Y-86110000D03*
X145770000Y-91610000D03*
X139770000Y-111360000D03*
X141770000Y-89610000D03*
X174270000Y-119610000D03*
X117270000Y-89110000D03*
X170270000Y-91610000D03*
%TO.N,TX*%
X130270000Y-116360000D03*
%TO.N,RX*%
X131520000Y-116360000D03*
%TO.N,DID0*%
X140470000Y-78510000D03*
X139770000Y-88610000D03*
%TO.N,SW3*%
X160070000Y-108610000D03*
%TO.N,MOSI*%
X139670000Y-109410000D03*
%TO.N,MISO*%
X141670000Y-109410000D03*
%TO.N,SCK*%
X143370000Y-110510000D03*
%TO.N,CS*%
X136770000Y-109410000D03*
X144520000Y-86110000D03*
X138020000Y-86110000D03*
%TO.N,DID1*%
X154770000Y-93360000D03*
%TO.N,RESET*%
X134770000Y-79310000D03*
X133670000Y-109410000D03*
%TD*%
D27*
%TO.N,+3V3*%
X156520000Y-110750000D02*
X156520000Y-117250000D01*
X167770000Y-82750000D02*
X167770000Y-89250000D01*
D28*
X121920978Y-96310000D02*
X121270000Y-96960978D01*
D29*
X137770000Y-84110000D02*
X139090000Y-82790000D01*
D27*
X167770000Y-103250000D02*
X167770000Y-110750000D01*
D28*
X121270000Y-103110000D02*
X121970000Y-103810000D01*
D29*
X139090000Y-82790000D02*
X139090000Y-76770000D01*
D27*
X158020000Y-103360000D02*
X156520000Y-103360000D01*
X156520000Y-106110000D02*
X156520000Y-103360000D01*
X167770000Y-110750000D02*
X167770000Y-117250000D01*
D28*
X121270000Y-96960978D02*
X121270000Y-103110000D01*
X122770000Y-103810000D02*
X122770000Y-113860000D01*
D27*
X156520000Y-89250000D02*
X156520000Y-91860000D01*
D28*
X122770000Y-96310000D02*
X121920978Y-96310000D01*
D27*
X167770000Y-89250000D02*
X167770000Y-96750000D01*
D28*
X121970000Y-103810000D02*
X122770000Y-103810000D01*
D29*
X136270000Y-101610000D02*
X135270000Y-102610000D01*
D27*
X156520000Y-110750000D02*
X156520000Y-106110000D01*
X159020000Y-102360000D02*
X158020000Y-103360000D01*
D29*
X135270000Y-111360000D02*
X135270000Y-102610000D01*
D27*
X156520000Y-91860000D02*
X159020000Y-94360000D01*
X156520000Y-103360000D02*
X153370000Y-103360000D01*
D29*
X136270000Y-84110000D02*
X136270000Y-101610000D01*
D27*
X159020000Y-94360000D02*
X159020000Y-102360000D01*
X167770000Y-96750000D02*
X167770000Y-103250000D01*
D29*
X137770000Y-84110000D02*
X136270000Y-84110000D01*
D27*
X156520000Y-82750000D02*
X156520000Y-89250000D01*
D30*
%TO.N,+5V*%
X141270000Y-123110000D02*
X144770000Y-119610000D01*
X144770000Y-119610000D02*
X150977745Y-119610000D01*
X121470000Y-116860000D02*
X126020000Y-116860000D01*
X119170000Y-114560000D02*
X121470000Y-116860000D01*
D29*
X121770000Y-117160000D02*
X121470000Y-116860000D01*
D30*
X126020000Y-116860000D02*
X132270000Y-123110000D01*
D29*
X121770000Y-119912500D02*
X121770000Y-117160000D01*
D30*
X132270000Y-123110000D02*
X134020000Y-123110000D01*
X150977745Y-119610000D02*
X154477745Y-123110000D01*
X119170000Y-80010000D02*
X119170000Y-114560000D01*
X134020000Y-123110000D02*
X141270000Y-123110000D01*
D31*
%TO.N,SDA*%
X132770000Y-84610000D02*
X132770000Y-95360000D01*
X122770000Y-79910000D02*
X122770000Y-84110000D01*
X131020000Y-80360000D02*
X131020000Y-82860000D01*
X131020000Y-82860000D02*
X132770000Y-84610000D01*
X121310000Y-77900000D02*
X122770000Y-79360000D01*
X122770000Y-79360000D02*
X122770000Y-79910000D01*
X121310000Y-76770000D02*
X121310000Y-77900000D01*
X131930000Y-96200000D02*
X126020000Y-96200000D01*
X132770000Y-95360000D02*
X131930000Y-96200000D01*
%TO.N,SCL*%
X132020000Y-83110000D02*
X133270000Y-84360000D01*
X123850000Y-86790000D02*
X123870000Y-86810000D01*
X123850000Y-76770000D02*
X123850000Y-79130000D01*
X123850000Y-79130000D02*
X123850000Y-86790000D01*
X132390000Y-98740000D02*
X126020000Y-98740000D01*
X133270000Y-84360000D02*
X133270000Y-97860000D01*
X133270000Y-97860000D02*
X132390000Y-98740000D01*
X132020000Y-80360000D02*
X132020000Y-83110000D01*
%TO.N,TX*%
X128270000Y-78610000D02*
X129770000Y-78610000D01*
X132520000Y-101360000D02*
X133770000Y-100110000D01*
X127660000Y-75500000D02*
X127660000Y-77750000D01*
X130270000Y-115610000D02*
X130770000Y-115110000D01*
X130770000Y-109610000D02*
X132520000Y-107860000D01*
X127660000Y-77750000D02*
X127660000Y-78000000D01*
X133770000Y-100110000D02*
X133770000Y-80610000D01*
X127660000Y-78000000D02*
X128270000Y-78610000D01*
X130770000Y-115110000D02*
X130770000Y-109610000D01*
X133770000Y-80610000D02*
X132270000Y-79110000D01*
X130270000Y-116360000D02*
X130270000Y-115610000D01*
X130270000Y-79110000D02*
X132270000Y-79110000D01*
X126390000Y-74230000D02*
X127660000Y-75500000D01*
X132520000Y-107860000D02*
X132520000Y-101360000D01*
X129770000Y-78610000D02*
X130270000Y-79110000D01*
%TO.N,SW4*%
X161950000Y-78680000D02*
X159020000Y-81610000D01*
X159020000Y-90840000D02*
X161360000Y-93180000D01*
X172270000Y-96750000D02*
X172270000Y-103250000D01*
X162960000Y-96200000D02*
X164540000Y-96200000D01*
X159020000Y-90840000D02*
X159020000Y-81610000D01*
X161360000Y-93180000D02*
X161360000Y-94600000D01*
X161950000Y-76770000D02*
X161950000Y-78680000D01*
X161360000Y-94600000D02*
X162960000Y-96200000D01*
%TO.N,RX*%
X132770000Y-78610000D02*
X134270000Y-80110000D01*
X134270000Y-100610000D02*
X133020000Y-101860000D01*
X134270000Y-80110000D02*
X134270000Y-100610000D01*
X133020000Y-108110000D02*
X131520000Y-109610000D01*
X133020000Y-101860000D02*
X133020000Y-108110000D01*
X131520000Y-109610000D02*
X131520000Y-116360000D01*
X130200000Y-75500000D02*
X128930000Y-74230000D01*
X130200000Y-78040000D02*
X130770000Y-78610000D01*
X130200000Y-78040000D02*
X130200000Y-75500000D01*
X130770000Y-78610000D02*
X132770000Y-78610000D01*
%TO.N,DID0*%
X139770000Y-88010000D02*
X139770000Y-88610000D01*
X140470000Y-78310000D02*
X140470000Y-80260000D01*
X140220000Y-80510000D02*
X140220000Y-87560000D01*
X140220000Y-87560000D02*
X139770000Y-88010000D01*
X140470000Y-80260000D02*
X140220000Y-80510000D01*
%TO.N,SW3*%
X158270000Y-80860000D02*
X158270000Y-91210000D01*
X160370000Y-106210000D02*
X159970000Y-106610000D01*
X159970000Y-108510000D02*
X160070000Y-108610000D01*
X160370000Y-93310000D02*
X160370000Y-106210000D01*
X160690000Y-75490000D02*
X160690000Y-78440000D01*
X159970000Y-106610000D02*
X159970000Y-108510000D01*
X158270000Y-91210000D02*
X160370000Y-93310000D01*
X161950000Y-74230000D02*
X160690000Y-75490000D01*
X160690000Y-78440000D02*
X158270000Y-80860000D01*
X172270000Y-110750000D02*
X172270000Y-117250000D01*
%TO.N,SW5*%
X164490000Y-79590000D02*
X164570000Y-79670000D01*
X164490000Y-76770000D02*
X164490000Y-79590000D01*
X172270000Y-82750000D02*
X172270000Y-89250000D01*
X164570000Y-79670000D02*
X164570000Y-82210000D01*
%TO.N,MOSI*%
X139670000Y-104460000D02*
X139670000Y-109410000D01*
X141630000Y-79850000D02*
X140670000Y-80810000D01*
X141630000Y-76770000D02*
X141630000Y-79850000D01*
X140670000Y-103460000D02*
X140520000Y-103610000D01*
X140520000Y-103610000D02*
X139670000Y-104460000D01*
X140670000Y-80810000D02*
X140670000Y-103460000D01*
%TO.N,SW2*%
X161020000Y-82750000D02*
X161020000Y-89250000D01*
X163220000Y-78780000D02*
X161020000Y-80980000D01*
X164490000Y-74230000D02*
X163220000Y-75500000D01*
X161020000Y-80980000D02*
X161020000Y-82750000D01*
X163220000Y-75500000D02*
X163220000Y-78780000D01*
%TO.N,MISO*%
X142470000Y-90910000D02*
X141670000Y-91710000D01*
X141670000Y-92010000D02*
X141670000Y-109410000D01*
X143520000Y-89860000D02*
X142470000Y-90910000D01*
X143520000Y-79610000D02*
X143520000Y-89860000D01*
X144170000Y-78960000D02*
X143520000Y-79610000D01*
X141670000Y-91710000D02*
X141670000Y-92010000D01*
X144170000Y-76770000D02*
X144170000Y-78960000D01*
%TO.N,SCK*%
X143370000Y-91510000D02*
X143370000Y-110510000D01*
X145270000Y-89610000D02*
X143370000Y-91510000D01*
X146710000Y-76770000D02*
X146710000Y-78970000D01*
X146710000Y-78970000D02*
X145270000Y-80410000D01*
X145270000Y-80410000D02*
X145270000Y-89610000D01*
%TO.N,CS*%
X144520000Y-86110000D02*
X144520000Y-79610000D01*
X137520000Y-87360000D02*
X137520000Y-102110000D01*
X144520000Y-79610000D02*
X145430000Y-78700000D01*
X138020000Y-86110000D02*
X138020000Y-86860000D01*
X146710000Y-74230000D02*
X145430000Y-75510000D01*
X137520000Y-102110000D02*
X136770000Y-102860000D01*
X136770000Y-109410000D02*
X136770000Y-102860000D01*
X138020000Y-86860000D02*
X137520000Y-87360000D01*
X145430000Y-75510000D02*
X145430000Y-77500000D01*
X145430000Y-77500000D02*
X145430000Y-78700000D01*
%TO.N,SW1*%
X165760000Y-78850000D02*
X166020000Y-79110000D01*
X165760000Y-75500000D02*
X165760000Y-78850000D01*
X166020000Y-97860000D02*
X161020000Y-102860000D01*
X166020000Y-79110000D02*
X166020000Y-97860000D01*
X161020000Y-110750000D02*
X161020000Y-117250000D01*
X161020000Y-102860000D02*
X161020000Y-110750000D01*
X167030000Y-74230000D02*
X165760000Y-75500000D01*
%TO.N,DID1*%
X154770000Y-93360000D02*
X154770000Y-92860000D01*
X154330000Y-80050000D02*
X154890000Y-80610000D01*
X154330000Y-76770000D02*
X154330000Y-80050000D01*
X154890000Y-80610000D02*
X154890000Y-92740000D01*
X154770000Y-92860000D02*
X154890000Y-92740000D01*
%TO.N,RESET*%
X134770000Y-101110000D02*
X133670000Y-102210000D01*
X134770000Y-79110000D02*
X134770000Y-101110000D01*
X133670000Y-102210000D02*
X133670000Y-109410000D01*
D28*
%TO.N,DP1*%
X124270000Y-103360000D02*
X124770000Y-103860000D01*
X124270000Y-102860000D02*
X124270000Y-103360000D01*
X124770000Y-103860000D02*
X125980000Y-103860000D01*
X123920000Y-102510000D02*
X124270000Y-102860000D01*
X122770000Y-102510000D02*
X123920000Y-102510000D01*
X125980000Y-103860000D02*
X126020000Y-103820000D01*
%TO.N,DP2*%
X124520000Y-98360000D02*
X124520000Y-100860000D01*
X123770000Y-97610000D02*
X124520000Y-98360000D01*
X122770000Y-97610000D02*
X123770000Y-97610000D01*
X124940000Y-101280000D02*
X126020000Y-101280000D01*
X124520000Y-100860000D02*
X124940000Y-101280000D01*
%TD*%
%TA.AperFunction,Conductor*%
%TO.N,+5V*%
G36*
X122719054Y-72023960D02*
G01*
X122755341Y-72060681D01*
X122768208Y-72110677D01*
X122726635Y-75608647D01*
X122712657Y-75658199D01*
X122675686Y-75694031D01*
X122625720Y-75706451D01*
X120425387Y-75663734D01*
X120425386Y-75663735D01*
X120424883Y-76172752D01*
X120413193Y-76219322D01*
X120334767Y-76366044D01*
X120274699Y-76564066D01*
X120254416Y-76770000D01*
X120274699Y-76975933D01*
X120334767Y-77173952D01*
X120412013Y-77318468D01*
X120423703Y-77365235D01*
X120420098Y-81011098D01*
X120406802Y-81060557D01*
X120370570Y-81096753D01*
X120321098Y-81110000D01*
X117119000Y-81110000D01*
X117069500Y-81096737D01*
X117033263Y-81060500D01*
X117020000Y-81011000D01*
X117020000Y-77639747D01*
X117719500Y-77639747D01*
X117731133Y-77698231D01*
X117775447Y-77764552D01*
X117819762Y-77794162D01*
X117841769Y-77808867D01*
X117900252Y-77820500D01*
X119639747Y-77820500D01*
X119639748Y-77820500D01*
X119698231Y-77808867D01*
X119764552Y-77764552D01*
X119808867Y-77698231D01*
X119820500Y-77639748D01*
X119820500Y-75900252D01*
X119808867Y-75841769D01*
X119794162Y-75819761D01*
X119764552Y-75775447D01*
X119698231Y-75731133D01*
X119639748Y-75719500D01*
X117900252Y-75719500D01*
X117871010Y-75725316D01*
X117841768Y-75731133D01*
X117775447Y-75775447D01*
X117731133Y-75841768D01*
X117719500Y-75900253D01*
X117719500Y-77639747D01*
X117020000Y-77639747D01*
X117020000Y-74730000D01*
X117846672Y-74730000D01*
X117892730Y-74816171D01*
X118023945Y-74976054D01*
X118183828Y-75107269D01*
X118269999Y-75153328D01*
X118270000Y-75153328D01*
X119270000Y-75153328D01*
X119356171Y-75107269D01*
X119516054Y-74976054D01*
X119647269Y-74816171D01*
X119693328Y-74730000D01*
X120386672Y-74730000D01*
X120432730Y-74816171D01*
X120563945Y-74976054D01*
X120723828Y-75107269D01*
X120809999Y-75153328D01*
X120810000Y-75153328D01*
X121810000Y-75153328D01*
X121896171Y-75107269D01*
X122056054Y-74976054D01*
X122187269Y-74816171D01*
X122233328Y-74730000D01*
X121810001Y-74730000D01*
X121810000Y-74730001D01*
X121810000Y-75153328D01*
X120810000Y-75153328D01*
X120810000Y-74730001D01*
X120809999Y-74730000D01*
X120386672Y-74730000D01*
X119693328Y-74730000D01*
X119270001Y-74730000D01*
X119270000Y-74730001D01*
X119270000Y-75153328D01*
X118270000Y-75153328D01*
X118270000Y-74730001D01*
X118269999Y-74730000D01*
X117846672Y-74730000D01*
X117020000Y-74730000D01*
X117020000Y-73729999D01*
X117846671Y-73729999D01*
X117846672Y-73730000D01*
X118269999Y-73730000D01*
X118270000Y-73729999D01*
X118270000Y-73306672D01*
X118269999Y-73306671D01*
X119270000Y-73306671D01*
X119270000Y-73729999D01*
X119270001Y-73730000D01*
X119693328Y-73730000D01*
X119693328Y-73729999D01*
X120386671Y-73729999D01*
X120386672Y-73730000D01*
X120809999Y-73730000D01*
X120810000Y-73729999D01*
X120810000Y-73306672D01*
X120809999Y-73306671D01*
X121810000Y-73306671D01*
X121810000Y-73729999D01*
X121810001Y-73730000D01*
X122233328Y-73730000D01*
X122233328Y-73729999D01*
X122187269Y-73643828D01*
X122056054Y-73483945D01*
X121896171Y-73352730D01*
X121810000Y-73306671D01*
X120809999Y-73306671D01*
X120723828Y-73352730D01*
X120563945Y-73483945D01*
X120432730Y-73643828D01*
X120386671Y-73729999D01*
X119693328Y-73729999D01*
X119647269Y-73643828D01*
X119516054Y-73483945D01*
X119356171Y-73352730D01*
X119270000Y-73306671D01*
X118269999Y-73306671D01*
X118183828Y-73352730D01*
X118023945Y-73483945D01*
X117892730Y-73643828D01*
X117846671Y-73729999D01*
X117020000Y-73729999D01*
X117020000Y-72109500D01*
X117033263Y-72060000D01*
X117069500Y-72023763D01*
X117119000Y-72010500D01*
X122669215Y-72010500D01*
X122719054Y-72023960D01*
G37*
%TD.AperFunction*%
%TD*%
%TA.AperFunction,Conductor*%
%TO.N,GND*%
G36*
X160911560Y-93191886D02*
G01*
X160998181Y-93278507D01*
X161025061Y-93318735D01*
X161034500Y-93366188D01*
X161034500Y-94580372D01*
X161034028Y-94591180D01*
X161030735Y-94628807D01*
X161040512Y-94665296D01*
X161042853Y-94675852D01*
X161049599Y-94714107D01*
X161059829Y-94738803D01*
X161060446Y-94739684D01*
X161082112Y-94770627D01*
X161087915Y-94779736D01*
X161106806Y-94812455D01*
X161135742Y-94836735D01*
X161143718Y-94844044D01*
X162715950Y-96416276D01*
X162723258Y-96424250D01*
X162747545Y-96453194D01*
X162760861Y-96460882D01*
X162780256Y-96472080D01*
X162789379Y-96477892D01*
X162820316Y-96499554D01*
X162820317Y-96499554D01*
X162821198Y-96500171D01*
X162845891Y-96510400D01*
X162846954Y-96510587D01*
X162846955Y-96510588D01*
X162884143Y-96517145D01*
X162894701Y-96519485D01*
X162931193Y-96529264D01*
X162968823Y-96525971D01*
X162979630Y-96525500D01*
X163505205Y-96525500D01*
X163568954Y-96543142D01*
X163614563Y-96591046D01*
X163681102Y-96715530D01*
X163704090Y-96758538D01*
X163829117Y-96910883D01*
X163981462Y-97035910D01*
X164155273Y-97128814D01*
X164343868Y-97186024D01*
X164540000Y-97205341D01*
X164736132Y-97186024D01*
X164924727Y-97128814D01*
X165098538Y-97035910D01*
X165250883Y-96910883D01*
X165375910Y-96758538D01*
X165461142Y-96599079D01*
X165505710Y-96551806D01*
X165568065Y-96533557D01*
X165631089Y-96549343D01*
X165677479Y-96594831D01*
X165694500Y-96657533D01*
X165694500Y-97673812D01*
X165685061Y-97721265D01*
X165658181Y-97761493D01*
X160907181Y-102512492D01*
X160857818Y-102542742D01*
X160800102Y-102547284D01*
X160746615Y-102525129D01*
X160709015Y-102481106D01*
X160695500Y-102424811D01*
X160695500Y-93329616D01*
X160695972Y-93318808D01*
X160700351Y-93268759D01*
X160725503Y-93204080D01*
X160781469Y-93163045D01*
X160850718Y-93158506D01*
X160911560Y-93191886D01*
G37*
%TD.AperFunction*%
%TA.AperFunction,Conductor*%
G36*
X163748164Y-77520164D02*
G01*
X163764674Y-77533713D01*
X163903550Y-77647685D01*
X164039647Y-77720431D01*
X164096818Y-77750990D01*
X164095730Y-77753024D01*
X164122260Y-77767769D01*
X164153447Y-77809821D01*
X164164500Y-77860996D01*
X164164500Y-79570372D01*
X164164028Y-79581180D01*
X164160735Y-79618807D01*
X164170512Y-79655296D01*
X164172853Y-79665852D01*
X164179599Y-79704107D01*
X164189829Y-79728803D01*
X164190446Y-79729684D01*
X164212112Y-79760627D01*
X164217916Y-79769737D01*
X164227887Y-79787007D01*
X164244500Y-79849008D01*
X164244500Y-81175205D01*
X164226858Y-81238954D01*
X164178954Y-81284563D01*
X164011461Y-81374090D01*
X163859117Y-81499117D01*
X163734089Y-81651463D01*
X163641185Y-81825273D01*
X163583976Y-82013866D01*
X163564659Y-82209999D01*
X163583976Y-82406133D01*
X163641185Y-82594726D01*
X163683458Y-82673812D01*
X163734090Y-82768538D01*
X163859117Y-82920883D01*
X164011462Y-83045910D01*
X164185273Y-83138814D01*
X164373868Y-83196024D01*
X164570000Y-83215341D01*
X164766132Y-83196024D01*
X164954727Y-83138814D01*
X165128538Y-83045910D01*
X165280883Y-82920883D01*
X165405910Y-82768538D01*
X165461142Y-82665205D01*
X165505710Y-82617932D01*
X165568065Y-82599683D01*
X165631089Y-82615469D01*
X165677479Y-82660957D01*
X165694500Y-82723659D01*
X165694500Y-88957856D01*
X165679382Y-89017191D01*
X165637715Y-89062058D01*
X165579658Y-89081517D01*
X165519369Y-89070823D01*
X165471547Y-89032584D01*
X165460610Y-89018101D01*
X165296262Y-88868278D01*
X165107174Y-88751199D01*
X165070000Y-88736798D01*
X165070000Y-90923201D01*
X165107174Y-90908800D01*
X165296262Y-90791721D01*
X165460610Y-90641898D01*
X165471547Y-90627416D01*
X165519369Y-90589177D01*
X165579658Y-90578483D01*
X165637715Y-90597942D01*
X165679382Y-90642809D01*
X165694500Y-90702144D01*
X165694500Y-95742467D01*
X165677479Y-95805169D01*
X165631089Y-95850657D01*
X165568065Y-95866443D01*
X165505710Y-95848194D01*
X165461142Y-95800920D01*
X165454169Y-95787875D01*
X165375910Y-95641462D01*
X165250883Y-95489117D01*
X165098538Y-95364090D01*
X165076091Y-95352092D01*
X164924726Y-95271185D01*
X164736133Y-95213976D01*
X164540000Y-95194659D01*
X164343866Y-95213976D01*
X164155273Y-95271185D01*
X163981463Y-95364089D01*
X163829117Y-95489117D01*
X163704090Y-95641461D01*
X163614563Y-95808954D01*
X163568954Y-95856858D01*
X163505205Y-95874500D01*
X163146188Y-95874500D01*
X163098735Y-95865061D01*
X163058507Y-95838181D01*
X161721819Y-94501493D01*
X161694939Y-94461265D01*
X161685500Y-94413812D01*
X161685500Y-93199627D01*
X161685972Y-93188819D01*
X161689264Y-93151192D01*
X161679487Y-93114706D01*
X161677145Y-93104143D01*
X161675982Y-93097545D01*
X161670588Y-93066955D01*
X161670587Y-93066954D01*
X161670400Y-93065891D01*
X161660171Y-93041198D01*
X161659554Y-93040317D01*
X161659554Y-93040316D01*
X161637892Y-93009379D01*
X161632080Y-93000256D01*
X161613194Y-92967544D01*
X161584255Y-92943262D01*
X161576280Y-92935954D01*
X159381819Y-90741493D01*
X159354939Y-90701265D01*
X159345500Y-90653812D01*
X159345500Y-81796188D01*
X159354939Y-81748735D01*
X159381819Y-81708507D01*
X160048688Y-81041638D01*
X162166290Y-78924034D01*
X162174258Y-78916734D01*
X162178331Y-78913317D01*
X162197129Y-78897544D01*
X162203192Y-78892457D01*
X162203192Y-78892456D01*
X162203194Y-78892455D01*
X162222091Y-78859722D01*
X162227887Y-78850625D01*
X162249554Y-78819684D01*
X162249554Y-78819682D01*
X162250173Y-78818799D01*
X162260399Y-78794112D01*
X162260586Y-78793047D01*
X162260588Y-78793045D01*
X162267149Y-78755830D01*
X162269478Y-78745324D01*
X162279264Y-78708807D01*
X162275971Y-78671176D01*
X162275500Y-78660370D01*
X162275500Y-77860996D01*
X162286553Y-77809821D01*
X162317740Y-77767769D01*
X162344269Y-77753024D01*
X162343182Y-77750990D01*
X162398306Y-77721525D01*
X162536450Y-77647685D01*
X162675326Y-77533713D01*
X162691836Y-77520164D01*
X162755321Y-77492950D01*
X162823517Y-77503923D01*
X162875262Y-77549678D01*
X162894500Y-77616018D01*
X162894500Y-78593812D01*
X162885061Y-78641265D01*
X162858181Y-78681493D01*
X160803714Y-80735958D01*
X160795741Y-80743264D01*
X160766806Y-80767544D01*
X160747914Y-80800264D01*
X160742106Y-80809380D01*
X160719831Y-80841193D01*
X160709597Y-80865899D01*
X160702852Y-80904148D01*
X160700512Y-80914704D01*
X160690735Y-80951192D01*
X160694028Y-80988820D01*
X160694500Y-80999628D01*
X160694500Y-81503720D01*
X160684692Y-81552053D01*
X160656821Y-81592741D01*
X160615295Y-81619345D01*
X160532395Y-81651462D01*
X160482596Y-81670754D01*
X160293437Y-81787875D01*
X160129019Y-81937762D01*
X159994941Y-82115311D01*
X159895769Y-82314473D01*
X159834885Y-82528462D01*
X159814357Y-82749999D01*
X159834885Y-82971537D01*
X159895769Y-83185526D01*
X159994941Y-83384688D01*
X160129019Y-83562237D01*
X160293437Y-83712124D01*
X160424935Y-83793543D01*
X160482599Y-83829247D01*
X160615295Y-83880654D01*
X160656821Y-83907259D01*
X160684692Y-83947947D01*
X160694500Y-83996280D01*
X160694500Y-88003720D01*
X160684692Y-88052053D01*
X160656821Y-88092741D01*
X160615295Y-88119345D01*
X160561783Y-88140077D01*
X160482596Y-88170754D01*
X160293437Y-88287875D01*
X160129019Y-88437762D01*
X159994941Y-88615311D01*
X159895769Y-88814473D01*
X159834885Y-89028462D01*
X159814357Y-89249999D01*
X159834885Y-89471537D01*
X159895769Y-89685526D01*
X159994941Y-89884688D01*
X160129019Y-90062237D01*
X160293437Y-90212124D01*
X160482595Y-90329245D01*
X160482597Y-90329245D01*
X160482599Y-90329247D01*
X160690060Y-90409618D01*
X160908757Y-90450500D01*
X161131241Y-90450500D01*
X161131243Y-90450500D01*
X161349940Y-90409618D01*
X161555457Y-90330000D01*
X163478432Y-90330000D01*
X163545368Y-90464424D01*
X163679390Y-90641899D01*
X163843737Y-90791721D01*
X164032825Y-90908800D01*
X164069999Y-90923201D01*
X164070000Y-90923201D01*
X164070000Y-90330000D01*
X163478432Y-90330000D01*
X161555457Y-90330000D01*
X161557401Y-90329247D01*
X161746562Y-90212124D01*
X161910981Y-90062236D01*
X162045058Y-89884689D01*
X162144229Y-89685528D01*
X162145653Y-89680525D01*
X162193746Y-89511493D01*
X162205115Y-89471536D01*
X162218230Y-89330000D01*
X163478432Y-89330000D01*
X164070000Y-89330000D01*
X164070000Y-88736799D01*
X164069999Y-88736798D01*
X164032825Y-88751199D01*
X163843737Y-88868278D01*
X163679390Y-89018100D01*
X163545368Y-89195575D01*
X163478432Y-89330000D01*
X162218230Y-89330000D01*
X162225643Y-89250000D01*
X162205115Y-89028464D01*
X162182227Y-88948021D01*
X162144230Y-88814473D01*
X162045058Y-88615311D01*
X161910980Y-88437762D01*
X161746562Y-88287875D01*
X161557403Y-88170754D01*
X161557401Y-88170753D01*
X161424704Y-88119345D01*
X161383179Y-88092741D01*
X161355308Y-88052053D01*
X161345500Y-88003720D01*
X161345500Y-83996280D01*
X161355308Y-83947947D01*
X161383179Y-83907259D01*
X161424704Y-83880654D01*
X161557401Y-83829247D01*
X161746562Y-83712124D01*
X161910981Y-83562236D01*
X162045058Y-83384689D01*
X162144229Y-83185528D01*
X162145465Y-83181186D01*
X162183650Y-83046976D01*
X162205115Y-82971536D01*
X162225643Y-82750000D01*
X162205115Y-82528464D01*
X162181626Y-82445910D01*
X162144230Y-82314473D01*
X162045058Y-82115311D01*
X161910980Y-81937762D01*
X161746562Y-81787875D01*
X161557403Y-81670754D01*
X161557401Y-81670753D01*
X161424704Y-81619345D01*
X161383179Y-81592741D01*
X161355308Y-81552053D01*
X161345500Y-81503720D01*
X161345500Y-81166188D01*
X161354939Y-81118735D01*
X161381819Y-81078507D01*
X161879134Y-80581192D01*
X163436290Y-79024034D01*
X163444258Y-79016734D01*
X163473192Y-78992457D01*
X163473192Y-78992456D01*
X163473194Y-78992455D01*
X163492091Y-78959722D01*
X163497887Y-78950625D01*
X163519554Y-78919684D01*
X163519554Y-78919682D01*
X163520173Y-78918799D01*
X163530399Y-78894112D01*
X163530586Y-78893047D01*
X163530588Y-78893045D01*
X163537149Y-78855830D01*
X163539478Y-78845324D01*
X163549264Y-78808807D01*
X163545971Y-78771176D01*
X163545500Y-78760370D01*
X163545500Y-77616018D01*
X163564738Y-77549678D01*
X163616483Y-77503923D01*
X163684679Y-77492950D01*
X163748164Y-77520164D01*
G37*
%TD.AperFunction*%
%TA.AperFunction,Conductor*%
G36*
X116752500Y-72027113D02*
G01*
X116797887Y-72072500D01*
X116814500Y-72134500D01*
X116814500Y-73883301D01*
X116798122Y-73944892D01*
X116753316Y-73990213D01*
X116691917Y-74007293D01*
X116630143Y-73991620D01*
X116584313Y-73947334D01*
X116463559Y-73747087D01*
X116463558Y-73747085D01*
X116247030Y-73466287D01*
X116234195Y-73453080D01*
X115999908Y-73212004D01*
X115725406Y-72987545D01*
X115427112Y-72795842D01*
X115108903Y-72639390D01*
X115006013Y-72602679D01*
X114774940Y-72520232D01*
X114429569Y-72439920D01*
X114077294Y-72399500D01*
X113811425Y-72399500D01*
X113609999Y-72411018D01*
X113545992Y-72414678D01*
X113196599Y-72475143D01*
X112856377Y-72575040D01*
X112529764Y-72713069D01*
X112221004Y-72887433D01*
X112083213Y-72987545D01*
X111934140Y-73095853D01*
X111934138Y-73095854D01*
X111934135Y-73095857D01*
X111672905Y-73335610D01*
X111440693Y-73603597D01*
X111240556Y-73896287D01*
X111075077Y-74209906D01*
X110946432Y-74540327D01*
X110856291Y-74883261D01*
X110805827Y-75234245D01*
X110795701Y-75588680D01*
X110826046Y-75941969D01*
X110896463Y-76289490D01*
X111006038Y-76626727D01*
X111153335Y-76949264D01*
X111334781Y-77250158D01*
X111336444Y-77252915D01*
X111542524Y-77520164D01*
X111552973Y-77533714D01*
X111800093Y-77787995D01*
X111938895Y-77901493D01*
X112074596Y-78012455D01*
X112372892Y-78204159D01*
X112691097Y-78360609D01*
X113025062Y-78479768D01*
X113370433Y-78560080D01*
X113722708Y-78600500D01*
X113988573Y-78600500D01*
X113988577Y-78600500D01*
X114254009Y-78585322D01*
X114603401Y-78524857D01*
X114943624Y-78424959D01*
X115270242Y-78286929D01*
X115578996Y-78112568D01*
X115865862Y-77904147D01*
X116087542Y-77700691D01*
X116127096Y-77664389D01*
X116127097Y-77664387D01*
X116127100Y-77664385D01*
X116359305Y-77396407D01*
X116559449Y-77103706D01*
X116580830Y-77063183D01*
X116625258Y-77015602D01*
X116687667Y-76997083D01*
X116750857Y-77012732D01*
X116797412Y-77058235D01*
X116814500Y-77121051D01*
X116814500Y-81011000D01*
X116821502Y-81064186D01*
X116834763Y-81113681D01*
X116855295Y-81163251D01*
X116887952Y-81205810D01*
X116924189Y-81242047D01*
X116966748Y-81274704D01*
X116966751Y-81274706D01*
X117016315Y-81295235D01*
X117016316Y-81295235D01*
X117016318Y-81295236D01*
X117031023Y-81299175D01*
X117065815Y-81308498D01*
X117119000Y-81315500D01*
X117595500Y-81315500D01*
X117657500Y-81332113D01*
X117702887Y-81377500D01*
X117719500Y-81439500D01*
X117719500Y-114462244D01*
X117718548Y-114477582D01*
X117715771Y-114499854D01*
X117719394Y-114587422D01*
X117719500Y-114592547D01*
X117719500Y-114619989D01*
X117721766Y-114647348D01*
X117722083Y-114652457D01*
X117725706Y-114740029D01*
X117730312Y-114761999D01*
X117732526Y-114777200D01*
X117734379Y-114799560D01*
X117755893Y-114884520D01*
X117757048Y-114889511D01*
X117758151Y-114894769D01*
X117774190Y-114971265D01*
X117775037Y-114975302D01*
X117783192Y-114996201D01*
X117787880Y-115010834D01*
X117793390Y-115032592D01*
X117828595Y-115112853D01*
X117830556Y-115117587D01*
X117862414Y-115199233D01*
X117862417Y-115199238D01*
X117873908Y-115218523D01*
X117880933Y-115232171D01*
X117889951Y-115252728D01*
X117889953Y-115252731D01*
X117937882Y-115326091D01*
X117940596Y-115330439D01*
X117980583Y-115397544D01*
X117985467Y-115405740D01*
X117996454Y-115418713D01*
X117999967Y-115422861D01*
X118009149Y-115435175D01*
X118021428Y-115453969D01*
X118080792Y-115518456D01*
X118084182Y-115522295D01*
X118101919Y-115543236D01*
X118121318Y-115562635D01*
X118124867Y-115566333D01*
X118184236Y-115630825D01*
X118201947Y-115644610D01*
X118213465Y-115654782D01*
X120375217Y-117816534D01*
X120385383Y-117828044D01*
X120399175Y-117845764D01*
X120441458Y-117884688D01*
X120463665Y-117905131D01*
X120467362Y-117908679D01*
X120486761Y-117928078D01*
X120507716Y-117945826D01*
X120511521Y-117949186D01*
X120576031Y-118008571D01*
X120594823Y-118020849D01*
X120607135Y-118030030D01*
X120624259Y-118044533D01*
X120699551Y-118089397D01*
X120703884Y-118092101D01*
X120727784Y-118107717D01*
X120763324Y-118130937D01*
X120804555Y-118175728D01*
X120819500Y-118234744D01*
X120819500Y-118529333D01*
X120804858Y-118587786D01*
X120764390Y-118632435D01*
X120707653Y-118652736D01*
X120648046Y-118643894D01*
X120599646Y-118607997D01*
X120518897Y-118509602D01*
X120358404Y-118377891D01*
X120269999Y-118330637D01*
X120270000Y-118330638D01*
X120270000Y-121494361D01*
X120358404Y-121447108D01*
X120518897Y-121315397D01*
X120650608Y-121154904D01*
X120748481Y-120971798D01*
X120757480Y-120942132D01*
X120789647Y-120889272D01*
X120843353Y-120858537D01*
X120905224Y-120857583D01*
X120959852Y-120886645D01*
X120980032Y-120917612D01*
X120982952Y-120915856D01*
X120989903Y-120927409D01*
X120989904Y-120927411D01*
X121016610Y-120971797D01*
X121085727Y-121086672D01*
X121150361Y-121154904D01*
X121213546Y-121221608D01*
X121367385Y-121325913D01*
X121540049Y-121394709D01*
X121723465Y-121424778D01*
X121909058Y-121414716D01*
X122088148Y-121364992D01*
X122252362Y-121277931D01*
X122394021Y-121157605D01*
X122506502Y-121009639D01*
X122548885Y-120918029D01*
X122585914Y-120871740D01*
X122640202Y-120847927D01*
X122699341Y-120852038D01*
X122749813Y-120883132D01*
X122780083Y-120934102D01*
X122791518Y-120971797D01*
X122889391Y-121154904D01*
X123021102Y-121315397D01*
X123181595Y-121447108D01*
X123270000Y-121494362D01*
X123270000Y-120412500D01*
X124270000Y-120412500D01*
X124270000Y-121494361D01*
X124358404Y-121447108D01*
X124518897Y-121315397D01*
X124650608Y-121154904D01*
X124748480Y-120971800D01*
X124808750Y-120773118D01*
X124824000Y-120618282D01*
X124824000Y-120412500D01*
X124270000Y-120412500D01*
X123270000Y-120412500D01*
X123270000Y-119536500D01*
X123286613Y-119474500D01*
X123332000Y-119429113D01*
X123394000Y-119412500D01*
X124824000Y-119412500D01*
X124824000Y-119206718D01*
X124808750Y-119051881D01*
X124748480Y-118853199D01*
X124650608Y-118670095D01*
X124521820Y-118513164D01*
X124494606Y-118449678D01*
X124505580Y-118381483D01*
X124551334Y-118329738D01*
X124617674Y-118310500D01*
X125367821Y-118310500D01*
X125415274Y-118319939D01*
X125455502Y-118346819D01*
X131175217Y-124066534D01*
X131185383Y-124078044D01*
X131199175Y-124095764D01*
X131263664Y-124155130D01*
X131263665Y-124155131D01*
X131267363Y-124158680D01*
X131286761Y-124178078D01*
X131307143Y-124195341D01*
X131307716Y-124195826D01*
X131311521Y-124199186D01*
X131376031Y-124258571D01*
X131394823Y-124270849D01*
X131407135Y-124280030D01*
X131424258Y-124294532D01*
X131424260Y-124294533D01*
X131499533Y-124339386D01*
X131499547Y-124339394D01*
X131503873Y-124342094D01*
X131577272Y-124390049D01*
X131597822Y-124399063D01*
X131611479Y-124406092D01*
X131630762Y-124417583D01*
X131630766Y-124417584D01*
X131630767Y-124417585D01*
X131712419Y-124449446D01*
X131717133Y-124451397D01*
X131797409Y-124486610D01*
X131819166Y-124492119D01*
X131833788Y-124496803D01*
X131854702Y-124504964D01*
X131940496Y-124522953D01*
X131945474Y-124524104D01*
X132030437Y-124545620D01*
X132052810Y-124547473D01*
X132068000Y-124549687D01*
X132089969Y-124554294D01*
X132100624Y-124554734D01*
X132160434Y-124572989D01*
X132203731Y-124618113D01*
X132219500Y-124678628D01*
X132219500Y-124729749D01*
X132231132Y-124788230D01*
X132275447Y-124854552D01*
X132341769Y-124898867D01*
X132400251Y-124910500D01*
X132400252Y-124910500D01*
X135639748Y-124910500D01*
X135639749Y-124910500D01*
X135668989Y-124904683D01*
X135698231Y-124898867D01*
X135764552Y-124854552D01*
X135808867Y-124788231D01*
X135820500Y-124729748D01*
X135820500Y-124684500D01*
X135837113Y-124622500D01*
X135882500Y-124577113D01*
X135944500Y-124560500D01*
X141172244Y-124560500D01*
X141187582Y-124561452D01*
X141209853Y-124564228D01*
X141209853Y-124564227D01*
X141209854Y-124564228D01*
X141276969Y-124561452D01*
X141297424Y-124560605D01*
X141302547Y-124560500D01*
X141329990Y-124560500D01*
X141357353Y-124558232D01*
X141362430Y-124557916D01*
X141450031Y-124554294D01*
X141472003Y-124549686D01*
X141487189Y-124547473D01*
X141509563Y-124545620D01*
X141594558Y-124524095D01*
X141599480Y-124522957D01*
X141685299Y-124504964D01*
X141706218Y-124496800D01*
X141720833Y-124492118D01*
X141742591Y-124486610D01*
X141822913Y-124451376D01*
X141827546Y-124449458D01*
X141895178Y-124423069D01*
X141909236Y-124417584D01*
X141919749Y-124411319D01*
X141928514Y-124406095D01*
X141942169Y-124399066D01*
X141962728Y-124390049D01*
X142036139Y-124342085D01*
X142040408Y-124339420D01*
X142115740Y-124294533D01*
X142132869Y-124280025D01*
X142145182Y-124270845D01*
X142163969Y-124258571D01*
X142219517Y-124207435D01*
X142228462Y-124199201D01*
X142232283Y-124195826D01*
X142253239Y-124178078D01*
X142272657Y-124158658D01*
X142276307Y-124155155D01*
X142340825Y-124095764D01*
X142354615Y-124078044D01*
X142364773Y-124066542D01*
X142821315Y-123610000D01*
X147321992Y-123610000D01*
X147336111Y-123674902D01*
X147436088Y-123942952D01*
X147573193Y-124194041D01*
X147744642Y-124423069D01*
X147946930Y-124625357D01*
X148175958Y-124796806D01*
X148427047Y-124933911D01*
X148695097Y-125033888D01*
X148759999Y-125048007D01*
X148760000Y-125048007D01*
X148760000Y-123610000D01*
X149760000Y-123610000D01*
X149760000Y-125048007D01*
X149824902Y-125033888D01*
X150092952Y-124933911D01*
X150344041Y-124796806D01*
X150573069Y-124625357D01*
X150775357Y-124423069D01*
X150946806Y-124194041D01*
X151083911Y-123942952D01*
X151183888Y-123674902D01*
X151198007Y-123610000D01*
X149760000Y-123610000D01*
X148760000Y-123610000D01*
X147321992Y-123610000D01*
X142821315Y-123610000D01*
X145334497Y-121096819D01*
X145374725Y-121069939D01*
X145422178Y-121060500D01*
X148354355Y-121060500D01*
X148416865Y-121077409D01*
X148462328Y-121123525D01*
X148478342Y-121186271D01*
X148460542Y-121248533D01*
X148413782Y-121293332D01*
X148175958Y-121423193D01*
X147946930Y-121594642D01*
X147744642Y-121796930D01*
X147573193Y-122025958D01*
X147436088Y-122277047D01*
X147336111Y-122545097D01*
X147321992Y-122609999D01*
X147321993Y-122610000D01*
X151198007Y-122610000D01*
X151198007Y-122609999D01*
X151183888Y-122545097D01*
X151083911Y-122277047D01*
X150946806Y-122025957D01*
X150807929Y-121840440D01*
X150784458Y-121783776D01*
X150791014Y-121722796D01*
X150825993Y-121672416D01*
X150880838Y-121644963D01*
X150942131Y-121647152D01*
X150994875Y-121678446D01*
X151593476Y-122277047D01*
X152740926Y-123424497D01*
X152767806Y-123464725D01*
X152777245Y-123512178D01*
X152777245Y-124195341D01*
X152783372Y-124262770D01*
X152831614Y-124417585D01*
X152831724Y-124417936D01*
X152850775Y-124449450D01*
X152915804Y-124557022D01*
X153030722Y-124671940D01*
X153169811Y-124756022D01*
X153201043Y-124765754D01*
X153324973Y-124804372D01*
X153392408Y-124810500D01*
X155563081Y-124810499D01*
X155563086Y-124810499D01*
X155611249Y-124806122D01*
X155630517Y-124804372D01*
X155785681Y-124756021D01*
X155924765Y-124671942D01*
X156039687Y-124557020D01*
X156123766Y-124417936D01*
X156172117Y-124262772D01*
X156178245Y-124195337D01*
X156178245Y-123610000D01*
X157027746Y-123610000D01*
X157027746Y-124216798D01*
X157030621Y-124259220D01*
X157076226Y-124442603D01*
X157160186Y-124611891D01*
X157278573Y-124759171D01*
X157425853Y-124877558D01*
X157595141Y-124961518D01*
X157778522Y-125007123D01*
X157820948Y-125010000D01*
X158427745Y-125010000D01*
X158427745Y-123610000D01*
X159427745Y-123610000D01*
X159427745Y-125009999D01*
X160034543Y-125009999D01*
X160076965Y-125007123D01*
X160260348Y-124961518D01*
X160429636Y-124877558D01*
X160576916Y-124759171D01*
X160695303Y-124611891D01*
X160706815Y-124588680D01*
X168795701Y-124588680D01*
X168826046Y-124941969D01*
X168896463Y-125289490D01*
X169006038Y-125626727D01*
X169153335Y-125949264D01*
X169336442Y-126252912D01*
X169336444Y-126252915D01*
X169541141Y-126518370D01*
X169552973Y-126533714D01*
X169800093Y-126787995D01*
X169830673Y-126813000D01*
X170074596Y-127012455D01*
X170372892Y-127204159D01*
X170691097Y-127360609D01*
X171025062Y-127479768D01*
X171370433Y-127560080D01*
X171722708Y-127600500D01*
X171988573Y-127600500D01*
X171988577Y-127600500D01*
X172254009Y-127585322D01*
X172603401Y-127524857D01*
X172943624Y-127424959D01*
X173270242Y-127286929D01*
X173578996Y-127112568D01*
X173865862Y-126904147D01*
X174127100Y-126664385D01*
X174359305Y-126396407D01*
X174559449Y-126103706D01*
X174724922Y-125790098D01*
X174853569Y-125459672D01*
X174943711Y-125116736D01*
X174994174Y-124765759D01*
X175004300Y-124411317D01*
X174973956Y-124058032D01*
X174903538Y-123710508D01*
X174793965Y-123373277D01*
X174793963Y-123373272D01*
X174646666Y-123050735D01*
X174463559Y-122747087D01*
X174463558Y-122747085D01*
X174247030Y-122466287D01*
X174234195Y-122453080D01*
X173999908Y-122212004D01*
X173725406Y-121987545D01*
X173427112Y-121795842D01*
X173108903Y-121639390D01*
X172928549Y-121575040D01*
X172774940Y-121520232D01*
X172429569Y-121439920D01*
X172077294Y-121399500D01*
X171811425Y-121399500D01*
X171636546Y-121409500D01*
X171545992Y-121414678D01*
X171196599Y-121475143D01*
X170856377Y-121575040D01*
X170529764Y-121713069D01*
X170529761Y-121713070D01*
X170529760Y-121713071D01*
X170372172Y-121802065D01*
X170221004Y-121887433D01*
X170120053Y-121960779D01*
X169934140Y-122095853D01*
X169934138Y-122095854D01*
X169934135Y-122095857D01*
X169672905Y-122335610D01*
X169440693Y-122603597D01*
X169240556Y-122896287D01*
X169075077Y-123209906D01*
X168946432Y-123540327D01*
X168856291Y-123883261D01*
X168805827Y-124234245D01*
X168795701Y-124588680D01*
X160706815Y-124588680D01*
X160779263Y-124442603D01*
X160824868Y-124259222D01*
X160827745Y-124216797D01*
X160827745Y-123610000D01*
X159427745Y-123610000D01*
X158427745Y-123610000D01*
X157027746Y-123610000D01*
X156178245Y-123610000D01*
X156178244Y-122610000D01*
X157027745Y-122610000D01*
X158427745Y-122610000D01*
X158427745Y-121210001D01*
X157820947Y-121210001D01*
X157778524Y-121212876D01*
X157595141Y-121258481D01*
X157425853Y-121342441D01*
X157278573Y-121460828D01*
X157160186Y-121608108D01*
X157076226Y-121777396D01*
X157030621Y-121960777D01*
X157027745Y-122003203D01*
X157027745Y-122610000D01*
X156178244Y-122610000D01*
X156178244Y-122024664D01*
X156178244Y-122024658D01*
X156172117Y-121957229D01*
X156150367Y-121887432D01*
X156123766Y-121802064D01*
X156039687Y-121662980D01*
X156039686Y-121662979D01*
X156039685Y-121662977D01*
X155924767Y-121548059D01*
X155785678Y-121463977D01*
X155630518Y-121415628D01*
X155563084Y-121409500D01*
X155563082Y-121409500D01*
X154879923Y-121409500D01*
X154832470Y-121400061D01*
X154792242Y-121373181D01*
X154629061Y-121210000D01*
X159427745Y-121210000D01*
X159427745Y-122610000D01*
X160827744Y-122610000D01*
X160827744Y-122003202D01*
X160824868Y-121960779D01*
X160779263Y-121777396D01*
X160695303Y-121608108D01*
X160576916Y-121460828D01*
X160429636Y-121342441D01*
X160260348Y-121258481D01*
X160076967Y-121212876D01*
X160034542Y-121210000D01*
X159427745Y-121210000D01*
X154629061Y-121210000D01*
X152252016Y-118832954D01*
X152237108Y-118807361D01*
X152210864Y-118791802D01*
X152072527Y-118653465D01*
X152062355Y-118641947D01*
X152048570Y-118624236D01*
X151984078Y-118564867D01*
X151980380Y-118561318D01*
X151960981Y-118541919D01*
X151940040Y-118524182D01*
X151936201Y-118520792D01*
X151871714Y-118461428D01*
X151852920Y-118449149D01*
X151840606Y-118439967D01*
X151836458Y-118436454D01*
X151823485Y-118425467D01*
X151823482Y-118425465D01*
X151748184Y-118380596D01*
X151743836Y-118377882D01*
X151687936Y-118341360D01*
X151670473Y-118329951D01*
X151649912Y-118320932D01*
X151648102Y-118320000D01*
X152198432Y-118320000D01*
X152265368Y-118454424D01*
X152397499Y-118629394D01*
X152403288Y-118643219D01*
X152423235Y-118653636D01*
X152563737Y-118781721D01*
X152752825Y-118898800D01*
X152789999Y-118913201D01*
X152790000Y-118913201D01*
X152790000Y-118320000D01*
X153790000Y-118320000D01*
X153790000Y-118913201D01*
X153827174Y-118898800D01*
X154016262Y-118781721D01*
X154180609Y-118631899D01*
X154314631Y-118454424D01*
X154381568Y-118320000D01*
X153790000Y-118320000D01*
X152790000Y-118320000D01*
X152198432Y-118320000D01*
X151648102Y-118320000D01*
X151636268Y-118313908D01*
X151616983Y-118302417D01*
X151616978Y-118302414D01*
X151535332Y-118270556D01*
X151530598Y-118268595D01*
X151450337Y-118233390D01*
X151428579Y-118227880D01*
X151413946Y-118223192D01*
X151393047Y-118215037D01*
X151393046Y-118215036D01*
X151393044Y-118215036D01*
X151344719Y-118204903D01*
X151307256Y-118197048D01*
X151302265Y-118195893D01*
X151217305Y-118174379D01*
X151194945Y-118172526D01*
X151179746Y-118170312D01*
X151157776Y-118165706D01*
X151127013Y-118164433D01*
X151070202Y-118162083D01*
X151065093Y-118161766D01*
X151043122Y-118159946D01*
X151037735Y-118159500D01*
X151037734Y-118159500D01*
X151010292Y-118159500D01*
X151005169Y-118159394D01*
X151001165Y-118159228D01*
X150917599Y-118155771D01*
X150895327Y-118158548D01*
X150879989Y-118159500D01*
X144867756Y-118159500D01*
X144852418Y-118158548D01*
X144830145Y-118155771D01*
X144746432Y-118159234D01*
X144742575Y-118159394D01*
X144737453Y-118159500D01*
X144710010Y-118159500D01*
X144705571Y-118159867D01*
X144682650Y-118161766D01*
X144677541Y-118162083D01*
X144605273Y-118165072D01*
X144589969Y-118165706D01*
X144567995Y-118170312D01*
X144552800Y-118172526D01*
X144530439Y-118174379D01*
X144445484Y-118195892D01*
X144440492Y-118197047D01*
X144354700Y-118215035D01*
X144333790Y-118223194D01*
X144319168Y-118227878D01*
X144297412Y-118233388D01*
X144217156Y-118268591D01*
X144212425Y-118270550D01*
X144130762Y-118302417D01*
X144111486Y-118313903D01*
X144097830Y-118320932D01*
X144077272Y-118329949D01*
X144003886Y-118377895D01*
X143999541Y-118380607D01*
X143924260Y-118425466D01*
X143907136Y-118439969D01*
X143894826Y-118449148D01*
X143876033Y-118461426D01*
X143811542Y-118520794D01*
X143807707Y-118524181D01*
X143786755Y-118541928D01*
X143767371Y-118561311D01*
X143763678Y-118564854D01*
X143699172Y-118624237D01*
X143685381Y-118641955D01*
X143675213Y-118653469D01*
X140705502Y-121623181D01*
X140665274Y-121650061D01*
X140617821Y-121659500D01*
X135944500Y-121659500D01*
X135882500Y-121642887D01*
X135837113Y-121597500D01*
X135820500Y-121535500D01*
X135820500Y-121490251D01*
X135808867Y-121431769D01*
X135764552Y-121365447D01*
X135698230Y-121321132D01*
X135639749Y-121309500D01*
X135639748Y-121309500D01*
X132572179Y-121309500D01*
X132524726Y-121300061D01*
X132484498Y-121273181D01*
X128531317Y-117320000D01*
X152198432Y-117320000D01*
X152790000Y-117320000D01*
X152790000Y-116726799D01*
X152789999Y-116726798D01*
X153790000Y-116726798D01*
X153790000Y-117320000D01*
X154381567Y-117320000D01*
X154314631Y-117185575D01*
X154180609Y-117008100D01*
X154016262Y-116858278D01*
X153827174Y-116741199D01*
X153790000Y-116726798D01*
X152789999Y-116726798D01*
X152752825Y-116741199D01*
X152563737Y-116858278D01*
X152399390Y-117008100D01*
X152265368Y-117185575D01*
X152198432Y-117320000D01*
X128531317Y-117320000D01*
X127114782Y-115903465D01*
X127104610Y-115891947D01*
X127090825Y-115874236D01*
X127026333Y-115814867D01*
X127022635Y-115811318D01*
X127003236Y-115791919D01*
X126982295Y-115774182D01*
X126978456Y-115770792D01*
X126913969Y-115711428D01*
X126895175Y-115699149D01*
X126882861Y-115689967D01*
X126878713Y-115686454D01*
X126865740Y-115675467D01*
X126865737Y-115675465D01*
X126790439Y-115630596D01*
X126786091Y-115627882D01*
X126712731Y-115579953D01*
X126712728Y-115579951D01*
X126692171Y-115570933D01*
X126678523Y-115563908D01*
X126659238Y-115552417D01*
X126659233Y-115552414D01*
X126577587Y-115520556D01*
X126572853Y-115518595D01*
X126492592Y-115483390D01*
X126470834Y-115477880D01*
X126456201Y-115473192D01*
X126435302Y-115465037D01*
X126435301Y-115465036D01*
X126435299Y-115465036D01*
X126382518Y-115453969D01*
X126349511Y-115447048D01*
X126344520Y-115445893D01*
X126259560Y-115424379D01*
X126237200Y-115422526D01*
X126222001Y-115420312D01*
X126200031Y-115415706D01*
X126169268Y-115414433D01*
X126112457Y-115412083D01*
X126107348Y-115411766D01*
X126085377Y-115409946D01*
X126079990Y-115409500D01*
X126079989Y-115409500D01*
X126052547Y-115409500D01*
X126047424Y-115409394D01*
X126043420Y-115409228D01*
X125959854Y-115405771D01*
X125937582Y-115408548D01*
X125922244Y-115409500D01*
X122122179Y-115409500D01*
X122074726Y-115400061D01*
X122034498Y-115373181D01*
X120656819Y-113995502D01*
X120629939Y-113955274D01*
X120620500Y-113907821D01*
X120620500Y-103345192D01*
X120637580Y-103282390D01*
X120684114Y-103236889D01*
X120747284Y-103221223D01*
X120809686Y-103239709D01*
X120854131Y-103287253D01*
X120866688Y-103311013D01*
X120868777Y-103315150D01*
X120896184Y-103372060D01*
X120899183Y-103376287D01*
X120943847Y-103420951D01*
X120947064Y-103424291D01*
X120990040Y-103470608D01*
X121004930Y-103482034D01*
X121628634Y-104105738D01*
X121637900Y-104116106D01*
X121660121Y-104143970D01*
X121707336Y-104176161D01*
X121711117Y-104178843D01*
X121761968Y-104216372D01*
X121766576Y-104218698D01*
X121772326Y-104220471D01*
X121772327Y-104220472D01*
X121827001Y-104237336D01*
X121831337Y-104238763D01*
X121885300Y-104257646D01*
X121885302Y-104257646D01*
X121890989Y-104259636D01*
X121896070Y-104260500D01*
X121902098Y-104260500D01*
X121917963Y-104260500D01*
X121961296Y-104268318D01*
X121999165Y-104290787D01*
X122113025Y-104389446D01*
X122113027Y-104389447D01*
X122113029Y-104389449D01*
X122161977Y-104420906D01*
X122161980Y-104420907D01*
X122161981Y-104420908D01*
X122247011Y-104459740D01*
X122285243Y-104486964D01*
X122310618Y-104526448D01*
X122319500Y-104572534D01*
X122319500Y-113418581D01*
X122312919Y-113458440D01*
X122293877Y-113494064D01*
X122263598Y-113533525D01*
X122245462Y-113557161D01*
X122184956Y-113703237D01*
X122164317Y-113860000D01*
X122184956Y-114016762D01*
X122245463Y-114162840D01*
X122341717Y-114288282D01*
X122442090Y-114365300D01*
X122467159Y-114384536D01*
X122613238Y-114445044D01*
X122770000Y-114465682D01*
X122926762Y-114445044D01*
X123072841Y-114384536D01*
X123198282Y-114288282D01*
X123294536Y-114162841D01*
X123355044Y-114016762D01*
X123375682Y-113860000D01*
X123355044Y-113703238D01*
X123294536Y-113557159D01*
X123246122Y-113494064D01*
X123227081Y-113458440D01*
X123220500Y-113418581D01*
X123220500Y-110360000D01*
X124464517Y-110360000D01*
X124484422Y-110638294D01*
X124543727Y-110910918D01*
X124543729Y-110910923D01*
X124641231Y-111172337D01*
X124641233Y-111172340D01*
X124774942Y-111417211D01*
X124858544Y-111528890D01*
X124942145Y-111640568D01*
X125139432Y-111837855D01*
X125286498Y-111947947D01*
X125362788Y-112005057D01*
X125449615Y-112052468D01*
X125607663Y-112138769D01*
X125869077Y-112236271D01*
X125869080Y-112236271D01*
X125869081Y-112236272D01*
X125907883Y-112244712D01*
X126141706Y-112295578D01*
X126420000Y-112315482D01*
X126698294Y-112295578D01*
X126970923Y-112236271D01*
X127232337Y-112138769D01*
X127477213Y-112005056D01*
X127700568Y-111837855D01*
X127897855Y-111640568D01*
X128065056Y-111417213D01*
X128198769Y-111172337D01*
X128296271Y-110910923D01*
X128355578Y-110638294D01*
X128375482Y-110360000D01*
X128355578Y-110081706D01*
X128296271Y-109809077D01*
X128198769Y-109547663D01*
X128065056Y-109302787D01*
X127897855Y-109079432D01*
X127700568Y-108882145D01*
X127546434Y-108766762D01*
X127477211Y-108714942D01*
X127285023Y-108610000D01*
X127232337Y-108581231D01*
X126970923Y-108483729D01*
X126970918Y-108483727D01*
X126698294Y-108424422D01*
X126420000Y-108404517D01*
X126141705Y-108424422D01*
X125869081Y-108483727D01*
X125738370Y-108532479D01*
X125607663Y-108581231D01*
X125607660Y-108581232D01*
X125607659Y-108581233D01*
X125362788Y-108714942D01*
X125139429Y-108882147D01*
X124942147Y-109079429D01*
X124774942Y-109302788D01*
X124642847Y-109544704D01*
X124641231Y-109547663D01*
X124612679Y-109624214D01*
X124543727Y-109809081D01*
X124484422Y-110081705D01*
X124464517Y-110360000D01*
X123220500Y-110360000D01*
X123220500Y-104572534D01*
X123229382Y-104526448D01*
X123254757Y-104486964D01*
X123292989Y-104459740D01*
X123304629Y-104454424D01*
X123378023Y-104420906D01*
X123426971Y-104389449D01*
X123535632Y-104295295D01*
X123573737Y-104251320D01*
X123651469Y-104130366D01*
X123675640Y-104077438D01*
X123716147Y-103939483D01*
X123724428Y-103881889D01*
X123724428Y-103750894D01*
X123737943Y-103694599D01*
X123775543Y-103650576D01*
X123829030Y-103628421D01*
X123886746Y-103632963D01*
X123936109Y-103663213D01*
X123943846Y-103670950D01*
X123947063Y-103674289D01*
X123990043Y-103720611D01*
X124004930Y-103732034D01*
X124428630Y-104155733D01*
X124437896Y-104166101D01*
X124448057Y-104178843D01*
X124460121Y-104193970D01*
X124477634Y-104205910D01*
X124507364Y-104226180D01*
X124511141Y-104228860D01*
X124554672Y-104260988D01*
X124561973Y-104266376D01*
X124566568Y-104268695D01*
X124572325Y-104270470D01*
X124572327Y-104270472D01*
X124597351Y-104278190D01*
X124626980Y-104287330D01*
X124631371Y-104288774D01*
X124685301Y-104307646D01*
X124685303Y-104307646D01*
X124690990Y-104309636D01*
X124696071Y-104310500D01*
X124702098Y-104310500D01*
X124759246Y-104310500D01*
X124763883Y-104310586D01*
X124821010Y-104312725D01*
X124821010Y-104312724D01*
X124839688Y-104313424D01*
X124839670Y-104313902D01*
X124869692Y-104312920D01*
X124920987Y-104336161D01*
X124956712Y-104379693D01*
X124969500Y-104434537D01*
X124969500Y-104689749D01*
X124981132Y-104748230D01*
X125025447Y-104814552D01*
X125091769Y-104858867D01*
X125150251Y-104870500D01*
X125150252Y-104870500D01*
X126889748Y-104870500D01*
X126889749Y-104870500D01*
X126918989Y-104864683D01*
X126948231Y-104858867D01*
X127014552Y-104814552D01*
X127058867Y-104748231D01*
X127070500Y-104689748D01*
X127070500Y-102950252D01*
X127058867Y-102891769D01*
X127046291Y-102872948D01*
X127014552Y-102825447D01*
X126948230Y-102781132D01*
X126889749Y-102769500D01*
X126889748Y-102769500D01*
X125150252Y-102769500D01*
X125150251Y-102769500D01*
X125091769Y-102781132D01*
X125025447Y-102825447D01*
X124981132Y-102891769D01*
X124969500Y-102950251D01*
X124969500Y-103123035D01*
X124955985Y-103179330D01*
X124918385Y-103223353D01*
X124864898Y-103245508D01*
X124807182Y-103240966D01*
X124757819Y-103210716D01*
X124756819Y-103209716D01*
X124729939Y-103169488D01*
X124720500Y-103122035D01*
X124720500Y-102892262D01*
X124721280Y-102878378D01*
X124725270Y-102842965D01*
X124722425Y-102827929D01*
X124714635Y-102786761D01*
X124713864Y-102782217D01*
X124713700Y-102781132D01*
X124705348Y-102725713D01*
X124704450Y-102719752D01*
X124702839Y-102714856D01*
X124700024Y-102709529D01*
X124673294Y-102658956D01*
X124671215Y-102654835D01*
X124643815Y-102597937D01*
X124640820Y-102593717D01*
X124596164Y-102549061D01*
X124592946Y-102545721D01*
X124582153Y-102534089D01*
X124554055Y-102503806D01*
X124554053Y-102503805D01*
X124549958Y-102499391D01*
X124535067Y-102487964D01*
X124261368Y-102214265D01*
X124252102Y-102203897D01*
X124239828Y-102188506D01*
X124229879Y-102176030D01*
X124182608Y-102143800D01*
X124178870Y-102141148D01*
X124128035Y-102103629D01*
X124123424Y-102101302D01*
X124105567Y-102095794D01*
X124063045Y-102082677D01*
X124058644Y-102081230D01*
X124026104Y-102069844D01*
X124004699Y-102062354D01*
X124004698Y-102062353D01*
X123999023Y-102060368D01*
X123993914Y-102059500D01*
X123987902Y-102059500D01*
X123930738Y-102059500D01*
X123926101Y-102059413D01*
X123862970Y-102057050D01*
X123844365Y-102059500D01*
X123836038Y-102059500D01*
X123781194Y-102046712D01*
X123737662Y-102010986D01*
X123714421Y-101959691D01*
X123708867Y-101931769D01*
X123664552Y-101865447D01*
X123598230Y-101821132D01*
X123539749Y-101809500D01*
X123539748Y-101809500D01*
X122000252Y-101809500D01*
X122000251Y-101809500D01*
X121941769Y-101821132D01*
X121913391Y-101840095D01*
X121850585Y-101860844D01*
X121786047Y-101846351D01*
X121738142Y-101800742D01*
X121720500Y-101736993D01*
X121720500Y-98383007D01*
X121738142Y-98319258D01*
X121786047Y-98273649D01*
X121850585Y-98259156D01*
X121913390Y-98279904D01*
X121941768Y-98298866D01*
X121941769Y-98298867D01*
X122000251Y-98310500D01*
X122000252Y-98310500D01*
X123539748Y-98310500D01*
X123539749Y-98310500D01*
X123568989Y-98304683D01*
X123598231Y-98298867D01*
X123647615Y-98265868D01*
X123700320Y-98246032D01*
X123756364Y-98251552D01*
X123804187Y-98281290D01*
X124033181Y-98510284D01*
X124060061Y-98550512D01*
X124069500Y-98597965D01*
X124069500Y-100827738D01*
X124068720Y-100841622D01*
X124064729Y-100877034D01*
X124075356Y-100933194D01*
X124076133Y-100937766D01*
X124085550Y-101000248D01*
X124087163Y-101005148D01*
X124116687Y-101061010D01*
X124118777Y-101065150D01*
X124146184Y-101122062D01*
X124149180Y-101126283D01*
X124153432Y-101130535D01*
X124153434Y-101130538D01*
X124193871Y-101170974D01*
X124197064Y-101174289D01*
X124240043Y-101220611D01*
X124254931Y-101232035D01*
X124598630Y-101575733D01*
X124607896Y-101586101D01*
X124630120Y-101613969D01*
X124677364Y-101646180D01*
X124681145Y-101648863D01*
X124731973Y-101686376D01*
X124736568Y-101688695D01*
X124742325Y-101690470D01*
X124742327Y-101690472D01*
X124767351Y-101698190D01*
X124796980Y-101707330D01*
X124801371Y-101708774D01*
X124855301Y-101727646D01*
X124855303Y-101727646D01*
X124860990Y-101729636D01*
X124866071Y-101730500D01*
X124872098Y-101730500D01*
X124929246Y-101730500D01*
X124933883Y-101730587D01*
X124936663Y-101730691D01*
X124991010Y-101732725D01*
X124991011Y-101732724D01*
X125001311Y-101733110D01*
X125062400Y-101751875D01*
X125106032Y-101798570D01*
X125112142Y-101810000D01*
X125142315Y-101866450D01*
X125166576Y-101896012D01*
X125273589Y-102026410D01*
X125327090Y-102070316D01*
X125433550Y-102157685D01*
X125616046Y-102255232D01*
X125814066Y-102315300D01*
X126020000Y-102335583D01*
X126225934Y-102315300D01*
X126423954Y-102255232D01*
X126606450Y-102157685D01*
X126766410Y-102026410D01*
X126897685Y-101866450D01*
X126995232Y-101683954D01*
X127055300Y-101485934D01*
X127075583Y-101280000D01*
X127055300Y-101074066D01*
X126995232Y-100876046D01*
X126897685Y-100693550D01*
X126785088Y-100556349D01*
X126766410Y-100533589D01*
X126668952Y-100453609D01*
X126606450Y-100402315D01*
X126423954Y-100304768D01*
X126324944Y-100274734D01*
X126225932Y-100244699D01*
X126020000Y-100224417D01*
X125814067Y-100244699D01*
X125616043Y-100304769D01*
X125433551Y-100402314D01*
X125273589Y-100533589D01*
X125190354Y-100635013D01*
X125141953Y-100670910D01*
X125082346Y-100679752D01*
X125025609Y-100659451D01*
X124985142Y-100614802D01*
X124970500Y-100556349D01*
X124970500Y-99463650D01*
X124985142Y-99405197D01*
X125025610Y-99360548D01*
X125082346Y-99340247D01*
X125141953Y-99349089D01*
X125190354Y-99384986D01*
X125273589Y-99486410D01*
X125353569Y-99552047D01*
X125433550Y-99617685D01*
X125616046Y-99715232D01*
X125814066Y-99775300D01*
X126020000Y-99795583D01*
X126225934Y-99775300D01*
X126423954Y-99715232D01*
X126606450Y-99617685D01*
X126766410Y-99486410D01*
X126897685Y-99326450D01*
X126995232Y-99143954D01*
X126995231Y-99143954D01*
X127000990Y-99133182D01*
X127003024Y-99134269D01*
X127017769Y-99107740D01*
X127059821Y-99076553D01*
X127110996Y-99065500D01*
X132370373Y-99065500D01*
X132381180Y-99065971D01*
X132418807Y-99069264D01*
X132455324Y-99059478D01*
X132465830Y-99057149D01*
X132503045Y-99050588D01*
X132503047Y-99050586D01*
X132504112Y-99050399D01*
X132528799Y-99040173D01*
X132529682Y-99039554D01*
X132529684Y-99039554D01*
X132560625Y-99017887D01*
X132569722Y-99012091D01*
X132602455Y-98993194D01*
X132626748Y-98964241D01*
X132634035Y-98956289D01*
X133232818Y-98357507D01*
X133282182Y-98327257D01*
X133339898Y-98322715D01*
X133393385Y-98344870D01*
X133430985Y-98388893D01*
X133444500Y-98445188D01*
X133444500Y-99923812D01*
X133435061Y-99971265D01*
X133408181Y-100011493D01*
X132303714Y-101115958D01*
X132295741Y-101123264D01*
X132266806Y-101147544D01*
X132247914Y-101180264D01*
X132242106Y-101189380D01*
X132219831Y-101221193D01*
X132209597Y-101245899D01*
X132202852Y-101284148D01*
X132200512Y-101294704D01*
X132190735Y-101331192D01*
X132194028Y-101368820D01*
X132194500Y-101379628D01*
X132194500Y-107673812D01*
X132185061Y-107721265D01*
X132158181Y-107761493D01*
X130553714Y-109365958D01*
X130545741Y-109373264D01*
X130516806Y-109397544D01*
X130497914Y-109430264D01*
X130492106Y-109439380D01*
X130469831Y-109471193D01*
X130459597Y-109495899D01*
X130452852Y-109534148D01*
X130450512Y-109544704D01*
X130440735Y-109581192D01*
X130444028Y-109618820D01*
X130444500Y-109629628D01*
X130444500Y-114923812D01*
X130435061Y-114971265D01*
X130408181Y-115011493D01*
X130053714Y-115365958D01*
X130045741Y-115373264D01*
X130016806Y-115397544D01*
X129997914Y-115430264D01*
X129992106Y-115439380D01*
X129969831Y-115471193D01*
X129959597Y-115495899D01*
X129952852Y-115534148D01*
X129950512Y-115544704D01*
X129940735Y-115581192D01*
X129944028Y-115618820D01*
X129944500Y-115629628D01*
X129944500Y-115791701D01*
X129931712Y-115846545D01*
X129895986Y-115890076D01*
X129890375Y-115894382D01*
X129841717Y-115931718D01*
X129745463Y-116057159D01*
X129684956Y-116203237D01*
X129664317Y-116359999D01*
X129684956Y-116516762D01*
X129745463Y-116662840D01*
X129841717Y-116788282D01*
X129932939Y-116858278D01*
X129967159Y-116884536D01*
X130113238Y-116945044D01*
X130270000Y-116965682D01*
X130426762Y-116945044D01*
X130572841Y-116884536D01*
X130698282Y-116788282D01*
X130794536Y-116662841D01*
X130794535Y-116662841D01*
X130796624Y-116660120D01*
X130840156Y-116624394D01*
X130895000Y-116611606D01*
X130949844Y-116624394D01*
X130993376Y-116660120D01*
X131091717Y-116788282D01*
X131182939Y-116858278D01*
X131217159Y-116884536D01*
X131363238Y-116945044D01*
X131520000Y-116965682D01*
X131676762Y-116945044D01*
X131822841Y-116884536D01*
X131948282Y-116788282D01*
X132044536Y-116662841D01*
X132105044Y-116516762D01*
X132125682Y-116360000D01*
X132105044Y-116203238D01*
X132044536Y-116057159D01*
X131948282Y-115931718D01*
X131894013Y-115890076D01*
X131858288Y-115846545D01*
X131845500Y-115791701D01*
X131845500Y-109796188D01*
X131854939Y-109748735D01*
X131881819Y-109708507D01*
X133132819Y-108457507D01*
X133182182Y-108427257D01*
X133239898Y-108422715D01*
X133293385Y-108444870D01*
X133330985Y-108488893D01*
X133344500Y-108545188D01*
X133344500Y-108841701D01*
X133331712Y-108896545D01*
X133295986Y-108940077D01*
X133241717Y-108981718D01*
X133145463Y-109107159D01*
X133084956Y-109253237D01*
X133064317Y-109410000D01*
X133084956Y-109566762D01*
X133145463Y-109712840D01*
X133241717Y-109838282D01*
X133338200Y-109912315D01*
X133367159Y-109934536D01*
X133513238Y-109995044D01*
X133670000Y-110015682D01*
X133826762Y-109995044D01*
X133972841Y-109934536D01*
X134098282Y-109838282D01*
X134098281Y-109838282D01*
X134111234Y-109828344D01*
X134111388Y-109828545D01*
X134145066Y-109801998D01*
X134205230Y-109791660D01*
X134263036Y-109811283D01*
X134304473Y-109856111D01*
X134319500Y-109915278D01*
X134319500Y-111408204D01*
X134334155Y-111552323D01*
X134363551Y-111646012D01*
X134392026Y-111736768D01*
X134485841Y-111905791D01*
X134611760Y-112052468D01*
X134611763Y-112052470D01*
X134764624Y-112170795D01*
X134848050Y-112211717D01*
X134938184Y-112255930D01*
X135125326Y-112304385D01*
X135318390Y-112314176D01*
X135318390Y-112314175D01*
X135318391Y-112314176D01*
X135509474Y-112284903D01*
X135537787Y-112274417D01*
X135690753Y-112217764D01*
X135854807Y-112115509D01*
X135994919Y-111982323D01*
X136105353Y-111823658D01*
X136181587Y-111646012D01*
X136220500Y-111456656D01*
X136220500Y-109996715D01*
X136239199Y-109931235D01*
X136289656Y-109885503D01*
X136356654Y-109873312D01*
X136419984Y-109898338D01*
X136467159Y-109934536D01*
X136613238Y-109995044D01*
X136770000Y-110015682D01*
X136926762Y-109995044D01*
X137072841Y-109934536D01*
X137198282Y-109838282D01*
X137294536Y-109712841D01*
X137355044Y-109566762D01*
X137375682Y-109410000D01*
X137355044Y-109253238D01*
X137294536Y-109107159D01*
X137198282Y-108981718D01*
X137144013Y-108940076D01*
X137108288Y-108896545D01*
X137095500Y-108841701D01*
X137095500Y-103046188D01*
X137104939Y-102998735D01*
X137131819Y-102958507D01*
X137433400Y-102656926D01*
X137736296Y-102354029D01*
X137744249Y-102346741D01*
X137773194Y-102322455D01*
X137792082Y-102289738D01*
X137797881Y-102280635D01*
X137819554Y-102249684D01*
X137819554Y-102249682D01*
X137820173Y-102248799D01*
X137830398Y-102224112D01*
X137830585Y-102223049D01*
X137830588Y-102223045D01*
X137837150Y-102185822D01*
X137839479Y-102175316D01*
X137849263Y-102138807D01*
X137845971Y-102101188D01*
X137845500Y-102090382D01*
X137845500Y-87546188D01*
X137854939Y-87498735D01*
X137881819Y-87458507D01*
X137968181Y-87372145D01*
X138236291Y-87104033D01*
X138244258Y-87096734D01*
X138273192Y-87072457D01*
X138273192Y-87072456D01*
X138273194Y-87072455D01*
X138292091Y-87039722D01*
X138297887Y-87030625D01*
X138319554Y-86999684D01*
X138319554Y-86999682D01*
X138320173Y-86998799D01*
X138330399Y-86974112D01*
X138330586Y-86973047D01*
X138330588Y-86973045D01*
X138337149Y-86935830D01*
X138339478Y-86925324D01*
X138349264Y-86888807D01*
X138345971Y-86851176D01*
X138345500Y-86840370D01*
X138345500Y-86678299D01*
X138358288Y-86623455D01*
X138394014Y-86579923D01*
X138396554Y-86577974D01*
X138448282Y-86538282D01*
X138544536Y-86412841D01*
X138605044Y-86266762D01*
X138625682Y-86110000D01*
X138605044Y-85953238D01*
X138544536Y-85807159D01*
X138511739Y-85764417D01*
X138448282Y-85681717D01*
X138322840Y-85585463D01*
X138176762Y-85524956D01*
X138020000Y-85504317D01*
X137863237Y-85524956D01*
X137717159Y-85585463D01*
X137591717Y-85681717D01*
X137495463Y-85807159D01*
X137459061Y-85895043D01*
X137417386Y-85947909D01*
X137354229Y-85971209D01*
X137288205Y-85958076D01*
X137238773Y-85912381D01*
X137220500Y-85847591D01*
X137220500Y-85184500D01*
X137237113Y-85122500D01*
X137282500Y-85077113D01*
X137344500Y-85060500D01*
X137756374Y-85060500D01*
X137759516Y-85060540D01*
X137842542Y-85062644D01*
X137842542Y-85062643D01*
X137842546Y-85062644D01*
X137897497Y-85052794D01*
X137906788Y-85051491D01*
X137962321Y-85045845D01*
X137989535Y-85037305D01*
X138004760Y-85033569D01*
X138032828Y-85028539D01*
X138084658Y-85007834D01*
X138093515Y-85004682D01*
X138108853Y-84999869D01*
X138146768Y-84987974D01*
X138171701Y-84974134D01*
X138185868Y-84967406D01*
X138212348Y-84956830D01*
X138258951Y-84926114D01*
X138266995Y-84921242D01*
X138315789Y-84894160D01*
X138315788Y-84894160D01*
X138315791Y-84894159D01*
X138337423Y-84875586D01*
X138349952Y-84866139D01*
X138373759Y-84850451D01*
X138413215Y-84810994D01*
X138420127Y-84804588D01*
X138429912Y-84796188D01*
X138462468Y-84768240D01*
X138479923Y-84745688D01*
X138490285Y-84733923D01*
X139682819Y-83541390D01*
X139732182Y-83511140D01*
X139789898Y-83506598D01*
X139843385Y-83528753D01*
X139880985Y-83572776D01*
X139894500Y-83629071D01*
X139894500Y-87373812D01*
X139885061Y-87421265D01*
X139858183Y-87461490D01*
X139773486Y-87546188D01*
X139553714Y-87765959D01*
X139545741Y-87773264D01*
X139516806Y-87797544D01*
X139497914Y-87830264D01*
X139492106Y-87839380D01*
X139469831Y-87871193D01*
X139459597Y-87895899D01*
X139452852Y-87934148D01*
X139450512Y-87944704D01*
X139440735Y-87981192D01*
X139444028Y-88018820D01*
X139444500Y-88029628D01*
X139444500Y-88041701D01*
X139431712Y-88096545D01*
X139395986Y-88140077D01*
X139341717Y-88181718D01*
X139245463Y-88307159D01*
X139184956Y-88453237D01*
X139164317Y-88610000D01*
X139184956Y-88766762D01*
X139245463Y-88912840D01*
X139341717Y-89038282D01*
X139419334Y-89097839D01*
X139467159Y-89134536D01*
X139613238Y-89195044D01*
X139770000Y-89215682D01*
X139926762Y-89195044D01*
X140072841Y-89134536D01*
X140145013Y-89079156D01*
X140208346Y-89054129D01*
X140275344Y-89066320D01*
X140325801Y-89112052D01*
X140344500Y-89177532D01*
X140344500Y-103273810D01*
X140335061Y-103321263D01*
X140308181Y-103361491D01*
X140292532Y-103377140D01*
X140292530Y-103377143D01*
X139453714Y-104215958D01*
X139445741Y-104223264D01*
X139416806Y-104247544D01*
X139397914Y-104280264D01*
X139392106Y-104289380D01*
X139369831Y-104321193D01*
X139359597Y-104345899D01*
X139352852Y-104384148D01*
X139350512Y-104394704D01*
X139340735Y-104431192D01*
X139344028Y-104468820D01*
X139344500Y-104479628D01*
X139344500Y-108841701D01*
X139331712Y-108896545D01*
X139295986Y-108940077D01*
X139241717Y-108981718D01*
X139145463Y-109107159D01*
X139084956Y-109253237D01*
X139064317Y-109410000D01*
X139084956Y-109566762D01*
X139145463Y-109712840D01*
X139241717Y-109838282D01*
X139338200Y-109912315D01*
X139367159Y-109934536D01*
X139513238Y-109995044D01*
X139670000Y-110015682D01*
X139826762Y-109995044D01*
X139972841Y-109934536D01*
X140098282Y-109838282D01*
X140194536Y-109712841D01*
X140255044Y-109566762D01*
X140275682Y-109410000D01*
X140255044Y-109253238D01*
X140194536Y-109107159D01*
X140098282Y-108981718D01*
X140044013Y-108940076D01*
X140008288Y-108896545D01*
X139995500Y-108841701D01*
X139995500Y-104646188D01*
X140004939Y-104598735D01*
X140031819Y-104558507D01*
X140405826Y-104184500D01*
X140770298Y-103820028D01*
X140770298Y-103820027D01*
X140886290Y-103704034D01*
X140894258Y-103696734D01*
X140923192Y-103672457D01*
X140923192Y-103672456D01*
X140923194Y-103672455D01*
X140942091Y-103639722D01*
X140947887Y-103630625D01*
X140969554Y-103599684D01*
X140969554Y-103599682D01*
X140970173Y-103598799D01*
X140980399Y-103574112D01*
X140980586Y-103573047D01*
X140980588Y-103573045D01*
X140987149Y-103535830D01*
X140989478Y-103525324D01*
X140999264Y-103488807D01*
X140995971Y-103451180D01*
X140995500Y-103440373D01*
X140995500Y-82248742D01*
X141010142Y-82190289D01*
X141050609Y-82145640D01*
X141107345Y-82125339D01*
X141166952Y-82134181D01*
X141215353Y-82170077D01*
X141339117Y-82320883D01*
X141491462Y-82445910D01*
X141665273Y-82538814D01*
X141853868Y-82596024D01*
X142050000Y-82615341D01*
X142246132Y-82596024D01*
X142434727Y-82538814D01*
X142608538Y-82445910D01*
X142760883Y-82320883D01*
X142885910Y-82168538D01*
X142961141Y-82027789D01*
X143005710Y-81980515D01*
X143068065Y-81962266D01*
X143131089Y-81978052D01*
X143177479Y-82023540D01*
X143194500Y-82086242D01*
X143194500Y-89673811D01*
X143185061Y-89721264D01*
X143158181Y-89761492D01*
X142201386Y-90718285D01*
X142201384Y-90718289D01*
X141453714Y-91465958D01*
X141445741Y-91473264D01*
X141416806Y-91497544D01*
X141397914Y-91530264D01*
X141392106Y-91539380D01*
X141369831Y-91571193D01*
X141359597Y-91595899D01*
X141352852Y-91634148D01*
X141350512Y-91644704D01*
X141340735Y-91681192D01*
X141344028Y-91718820D01*
X141344500Y-91729628D01*
X141344500Y-108841701D01*
X141331712Y-108896545D01*
X141295986Y-108940077D01*
X141241717Y-108981718D01*
X141145463Y-109107159D01*
X141084956Y-109253237D01*
X141064317Y-109410000D01*
X141084956Y-109566762D01*
X141145463Y-109712840D01*
X141241717Y-109838282D01*
X141338200Y-109912315D01*
X141367159Y-109934536D01*
X141513238Y-109995044D01*
X141670000Y-110015682D01*
X141826762Y-109995044D01*
X141972841Y-109934536D01*
X142098282Y-109838282D01*
X142194536Y-109712841D01*
X142255044Y-109566762D01*
X142275682Y-109410000D01*
X142255044Y-109253238D01*
X142194536Y-109107159D01*
X142098282Y-108981718D01*
X142044013Y-108940076D01*
X142008288Y-108896545D01*
X141995500Y-108841701D01*
X141995500Y-91896188D01*
X142004939Y-91848735D01*
X142031819Y-91808507D01*
X142778878Y-91061448D01*
X142778880Y-91061444D01*
X143736296Y-90104029D01*
X143744249Y-90096741D01*
X143773194Y-90072455D01*
X143792082Y-90039738D01*
X143797881Y-90030635D01*
X143819554Y-89999684D01*
X143819554Y-89999682D01*
X143820173Y-89998799D01*
X143830398Y-89974112D01*
X143830585Y-89973049D01*
X143830588Y-89973045D01*
X143837150Y-89935822D01*
X143839479Y-89925316D01*
X143849263Y-89888807D01*
X143845971Y-89851188D01*
X143845500Y-89840382D01*
X143845500Y-86582697D01*
X143860527Y-86523529D01*
X143901965Y-86478702D01*
X143959771Y-86459079D01*
X144019935Y-86469417D01*
X144067876Y-86507211D01*
X144091717Y-86538282D01*
X144190482Y-86614066D01*
X144217159Y-86634536D01*
X144363238Y-86695044D01*
X144520000Y-86715682D01*
X144676762Y-86695044D01*
X144773048Y-86655160D01*
X144832654Y-86646319D01*
X144889391Y-86666620D01*
X144929858Y-86711269D01*
X144944500Y-86769722D01*
X144944500Y-89423812D01*
X144935061Y-89471265D01*
X144908181Y-89511493D01*
X143153714Y-91265958D01*
X143145741Y-91273264D01*
X143116806Y-91297544D01*
X143097914Y-91330264D01*
X143092106Y-91339380D01*
X143069831Y-91371193D01*
X143059597Y-91395899D01*
X143052852Y-91434148D01*
X143050512Y-91444704D01*
X143040735Y-91481192D01*
X143044028Y-91518820D01*
X143044500Y-91529628D01*
X143044500Y-109941701D01*
X143031712Y-109996545D01*
X142995986Y-110040077D01*
X142941717Y-110081718D01*
X142845463Y-110207159D01*
X142784956Y-110353237D01*
X142764317Y-110510000D01*
X142784956Y-110666762D01*
X142845463Y-110812840D01*
X142941717Y-110938282D01*
X143067158Y-111034535D01*
X143067159Y-111034536D01*
X143213238Y-111095044D01*
X143370000Y-111115682D01*
X143526762Y-111095044D01*
X143672841Y-111034536D01*
X143798282Y-110938282D01*
X143894536Y-110812841D01*
X143955044Y-110666762D01*
X143975682Y-110510000D01*
X143955934Y-110360000D01*
X147664517Y-110360000D01*
X147684422Y-110638294D01*
X147743727Y-110910918D01*
X147743729Y-110910923D01*
X147841231Y-111172337D01*
X147841233Y-111172340D01*
X147974942Y-111417211D01*
X148058544Y-111528890D01*
X148142145Y-111640568D01*
X148339432Y-111837855D01*
X148486498Y-111947947D01*
X148562788Y-112005057D01*
X148649615Y-112052468D01*
X148807663Y-112138769D01*
X149069077Y-112236271D01*
X149069080Y-112236271D01*
X149069081Y-112236272D01*
X149107883Y-112244712D01*
X149341706Y-112295578D01*
X149620000Y-112315482D01*
X149898294Y-112295578D01*
X150170923Y-112236271D01*
X150432337Y-112138769D01*
X150677213Y-112005056D01*
X150900568Y-111837855D01*
X151097855Y-111640568D01*
X151265056Y-111417213D01*
X151398769Y-111172337D01*
X151496271Y-110910923D01*
X151555578Y-110638294D01*
X151575482Y-110360000D01*
X151564039Y-110200000D01*
X152284659Y-110200000D01*
X152303976Y-110396133D01*
X152361185Y-110584726D01*
X152442092Y-110736091D01*
X152454090Y-110758538D01*
X152579117Y-110910883D01*
X152731462Y-111035910D01*
X152905273Y-111128814D01*
X153093868Y-111186024D01*
X153290000Y-111205341D01*
X153486132Y-111186024D01*
X153674727Y-111128814D01*
X153848538Y-111035910D01*
X154000883Y-110910883D01*
X154125910Y-110758538D01*
X154218814Y-110584727D01*
X154276024Y-110396132D01*
X154295341Y-110200000D01*
X154276024Y-110003868D01*
X154218814Y-109815273D01*
X154125910Y-109641462D01*
X154000883Y-109489117D01*
X153848538Y-109364090D01*
X153826091Y-109352092D01*
X153674726Y-109271185D01*
X153486133Y-109213976D01*
X153290000Y-109194659D01*
X153093866Y-109213976D01*
X152905273Y-109271185D01*
X152731463Y-109364089D01*
X152579117Y-109489117D01*
X152454089Y-109641463D01*
X152361185Y-109815273D01*
X152303976Y-110003866D01*
X152284659Y-110200000D01*
X151564039Y-110200000D01*
X151555578Y-110081706D01*
X151496271Y-109809077D01*
X151398769Y-109547663D01*
X151265056Y-109302787D01*
X151097855Y-109079432D01*
X150900568Y-108882145D01*
X150746434Y-108766762D01*
X150677211Y-108714942D01*
X150485023Y-108610000D01*
X150432337Y-108581231D01*
X150170923Y-108483729D01*
X150170918Y-108483727D01*
X149898294Y-108424422D01*
X149620000Y-108404517D01*
X149341705Y-108424422D01*
X149069081Y-108483727D01*
X148938370Y-108532479D01*
X148807663Y-108581231D01*
X148807660Y-108581232D01*
X148807659Y-108581233D01*
X148562788Y-108714942D01*
X148339429Y-108882147D01*
X148142147Y-109079429D01*
X147974942Y-109302788D01*
X147842847Y-109544704D01*
X147841231Y-109547663D01*
X147812679Y-109624214D01*
X147743727Y-109809081D01*
X147684422Y-110081705D01*
X147664517Y-110360000D01*
X143955934Y-110360000D01*
X143955044Y-110353238D01*
X143894536Y-110207159D01*
X143798282Y-110081718D01*
X143744013Y-110040076D01*
X143708288Y-109996545D01*
X143695500Y-109941701D01*
X143695500Y-103370000D01*
X152364659Y-103370000D01*
X152374133Y-103466194D01*
X152383976Y-103566133D01*
X152441185Y-103754726D01*
X152510189Y-103883822D01*
X152534090Y-103928538D01*
X152659117Y-104080883D01*
X152811462Y-104205910D01*
X152985273Y-104298814D01*
X153173868Y-104356024D01*
X153370000Y-104375341D01*
X153566132Y-104356024D01*
X153754727Y-104298814D01*
X153928538Y-104205910D01*
X154071423Y-104088645D01*
X154108312Y-104067749D01*
X154150087Y-104060500D01*
X155695500Y-104060500D01*
X155757500Y-104077113D01*
X155802887Y-104122500D01*
X155819500Y-104184500D01*
X155819500Y-109709366D01*
X155808934Y-109759452D01*
X155779038Y-109801003D01*
X155629019Y-109937762D01*
X155494941Y-110115311D01*
X155395769Y-110314473D01*
X155334885Y-110528462D01*
X155324708Y-110638294D01*
X155314357Y-110750000D01*
X155320180Y-110812840D01*
X155334885Y-110971537D01*
X155395769Y-111185526D01*
X155494941Y-111384688D01*
X155629019Y-111562237D01*
X155779038Y-111698997D01*
X155808934Y-111740548D01*
X155819500Y-111790634D01*
X155819500Y-116209366D01*
X155808934Y-116259452D01*
X155779038Y-116301003D01*
X155629019Y-116437762D01*
X155494941Y-116615311D01*
X155395769Y-116814473D01*
X155334885Y-117028462D01*
X155314357Y-117250000D01*
X155334885Y-117471537D01*
X155395769Y-117685526D01*
X155494941Y-117884688D01*
X155629019Y-118062237D01*
X155793437Y-118212124D01*
X155982595Y-118329245D01*
X155982597Y-118329245D01*
X155982599Y-118329247D01*
X156190060Y-118409618D01*
X156408757Y-118450500D01*
X156631241Y-118450500D01*
X156631243Y-118450500D01*
X156849940Y-118409618D01*
X157057401Y-118329247D01*
X157246562Y-118212124D01*
X157290695Y-118171891D01*
X157410980Y-118062237D01*
X157410981Y-118062236D01*
X157545058Y-117884689D01*
X157644229Y-117685528D01*
X157705115Y-117471536D01*
X157725643Y-117250000D01*
X157705115Y-117028464D01*
X157681380Y-116945043D01*
X157644230Y-116814473D01*
X157545058Y-116615311D01*
X157410980Y-116437762D01*
X157260962Y-116301003D01*
X157231066Y-116259452D01*
X157220500Y-116209366D01*
X157220500Y-111790634D01*
X157231066Y-111740548D01*
X157260962Y-111698997D01*
X157410980Y-111562237D01*
X157490711Y-111456656D01*
X157545058Y-111384689D01*
X157644229Y-111185528D01*
X157647982Y-111172340D01*
X157698173Y-110995934D01*
X157705115Y-110971536D01*
X157725643Y-110750000D01*
X157705115Y-110528464D01*
X157667464Y-110396133D01*
X157644230Y-110314473D01*
X157545058Y-110115311D01*
X157410980Y-109937762D01*
X157260962Y-109801003D01*
X157231066Y-109759452D01*
X157220500Y-109709366D01*
X157220500Y-104184500D01*
X157237113Y-104122500D01*
X157282500Y-104077113D01*
X157344500Y-104060500D01*
X157995079Y-104060500D01*
X158002566Y-104060726D01*
X158005706Y-104060915D01*
X158062606Y-104064358D01*
X158121782Y-104053513D01*
X158129181Y-104052387D01*
X158188872Y-104045140D01*
X158198335Y-104041550D01*
X158219958Y-104035522D01*
X158229932Y-104033695D01*
X158284808Y-104008996D01*
X158291673Y-104006152D01*
X158347930Y-103984818D01*
X158356270Y-103979060D01*
X158375819Y-103968035D01*
X158385057Y-103963878D01*
X158432413Y-103926775D01*
X158438420Y-103922355D01*
X158487929Y-103888183D01*
X158527823Y-103843150D01*
X158532924Y-103837731D01*
X159497723Y-102872931D01*
X159503142Y-102867829D01*
X159548183Y-102827929D01*
X159582361Y-102778410D01*
X159586790Y-102772394D01*
X159623875Y-102725060D01*
X159623875Y-102725059D01*
X159623878Y-102725056D01*
X159628037Y-102715814D01*
X159639061Y-102696268D01*
X159644818Y-102687930D01*
X159666152Y-102631674D01*
X159668994Y-102624811D01*
X159693695Y-102569931D01*
X159695522Y-102559956D01*
X159701549Y-102538339D01*
X159705140Y-102528872D01*
X159712387Y-102469179D01*
X159713514Y-102461777D01*
X159724358Y-102402606D01*
X159720726Y-102342566D01*
X159720500Y-102335079D01*
X159720500Y-94384921D01*
X159720726Y-94377434D01*
X159720927Y-94374102D01*
X159724358Y-94317394D01*
X159713507Y-94258185D01*
X159712390Y-94250841D01*
X159705140Y-94191128D01*
X159701547Y-94181656D01*
X159695522Y-94160044D01*
X159693695Y-94150069D01*
X159669007Y-94095217D01*
X159666147Y-94088313D01*
X159644818Y-94032070D01*
X159639061Y-94023730D01*
X159628035Y-94004181D01*
X159623877Y-93994941D01*
X159586785Y-93947597D01*
X159582355Y-93941577D01*
X159548183Y-93892071D01*
X159503153Y-93852178D01*
X159497715Y-93847058D01*
X157256819Y-91606162D01*
X157229939Y-91565934D01*
X157220500Y-91518481D01*
X157220500Y-90290634D01*
X157231066Y-90240548D01*
X157260962Y-90198997D01*
X157410980Y-90062237D01*
X157427959Y-90039753D01*
X157545058Y-89884689D01*
X157644229Y-89685528D01*
X157644230Y-89685526D01*
X157701234Y-89485178D01*
X157730160Y-89434173D01*
X157779288Y-89402161D01*
X157837631Y-89396301D01*
X157892144Y-89417904D01*
X157930636Y-89462138D01*
X157944500Y-89519112D01*
X157944500Y-91190372D01*
X157944028Y-91201180D01*
X157940735Y-91238807D01*
X157950512Y-91275296D01*
X157952853Y-91285852D01*
X157959599Y-91324107D01*
X157969829Y-91348803D01*
X157970446Y-91349684D01*
X157992112Y-91380627D01*
X157997915Y-91389736D01*
X158002083Y-91396955D01*
X158016806Y-91422455D01*
X158043321Y-91444704D01*
X158045742Y-91446735D01*
X158053718Y-91454044D01*
X160008181Y-93408508D01*
X160035061Y-93448736D01*
X160044500Y-93496189D01*
X160044500Y-106023811D01*
X160035061Y-106071264D01*
X160008181Y-106111492D01*
X159753714Y-106365958D01*
X159745741Y-106373264D01*
X159716806Y-106397544D01*
X159697914Y-106430264D01*
X159692106Y-106439380D01*
X159669831Y-106471193D01*
X159659597Y-106495899D01*
X159652852Y-106534148D01*
X159650512Y-106544704D01*
X159640735Y-106581192D01*
X159644028Y-106618820D01*
X159644500Y-106629628D01*
X159644500Y-108136001D01*
X159637919Y-108175860D01*
X159618878Y-108211482D01*
X159565244Y-108281380D01*
X159545462Y-108307161D01*
X159484956Y-108453237D01*
X159464317Y-108610000D01*
X159484956Y-108766762D01*
X159545463Y-108912840D01*
X159641717Y-109038282D01*
X159767158Y-109134535D01*
X159767159Y-109134536D01*
X159913238Y-109195044D01*
X160070000Y-109215682D01*
X160226762Y-109195044D01*
X160372841Y-109134536D01*
X160495012Y-109040790D01*
X160558346Y-109015763D01*
X160625344Y-109027954D01*
X160675801Y-109073686D01*
X160694500Y-109139166D01*
X160694500Y-109503720D01*
X160684692Y-109552053D01*
X160656821Y-109592741D01*
X160615295Y-109619345D01*
X160588755Y-109629628D01*
X160482596Y-109670754D01*
X160293437Y-109787875D01*
X160129019Y-109937762D01*
X159994941Y-110115311D01*
X159895769Y-110314473D01*
X159834885Y-110528462D01*
X159824708Y-110638294D01*
X159814357Y-110750000D01*
X159820180Y-110812840D01*
X159834885Y-110971537D01*
X159895769Y-111185526D01*
X159994941Y-111384688D01*
X160129019Y-111562237D01*
X160293437Y-111712124D01*
X160447209Y-111807334D01*
X160482599Y-111829247D01*
X160615295Y-111880654D01*
X160656821Y-111907259D01*
X160684692Y-111947947D01*
X160694500Y-111996280D01*
X160694500Y-116003720D01*
X160684692Y-116052053D01*
X160656821Y-116092741D01*
X160615295Y-116119345D01*
X160518803Y-116156727D01*
X160482596Y-116170754D01*
X160293437Y-116287875D01*
X160129019Y-116437762D01*
X159994941Y-116615311D01*
X159895769Y-116814473D01*
X159834885Y-117028462D01*
X159814357Y-117250000D01*
X159834885Y-117471537D01*
X159895769Y-117685526D01*
X159994941Y-117884688D01*
X160129019Y-118062237D01*
X160293437Y-118212124D01*
X160482595Y-118329245D01*
X160482597Y-118329245D01*
X160482599Y-118329247D01*
X160690060Y-118409618D01*
X160908757Y-118450500D01*
X161131241Y-118450500D01*
X161131243Y-118450500D01*
X161349940Y-118409618D01*
X161557401Y-118329247D01*
X161572335Y-118320000D01*
X163448432Y-118320000D01*
X163515368Y-118454424D01*
X163649390Y-118631899D01*
X163813737Y-118781721D01*
X164002825Y-118898800D01*
X164039999Y-118913201D01*
X164040000Y-118913201D01*
X164040000Y-118320000D01*
X165040000Y-118320000D01*
X165040000Y-118913201D01*
X165077174Y-118898800D01*
X165266262Y-118781721D01*
X165430609Y-118631899D01*
X165564631Y-118454424D01*
X165631568Y-118320000D01*
X165040000Y-118320000D01*
X164040000Y-118320000D01*
X163448432Y-118320000D01*
X161572335Y-118320000D01*
X161746562Y-118212124D01*
X161790695Y-118171891D01*
X161910980Y-118062237D01*
X161910981Y-118062236D01*
X162045058Y-117884689D01*
X162144229Y-117685528D01*
X162205115Y-117471536D01*
X162219157Y-117320000D01*
X163448432Y-117320000D01*
X164040000Y-117320000D01*
X164040000Y-116726799D01*
X164039999Y-116726798D01*
X165040000Y-116726798D01*
X165040000Y-117320000D01*
X165631567Y-117320000D01*
X165564631Y-117185575D01*
X165430609Y-117008100D01*
X165266262Y-116858278D01*
X165077174Y-116741199D01*
X165040000Y-116726798D01*
X164039999Y-116726798D01*
X164002825Y-116741199D01*
X163813737Y-116858278D01*
X163649390Y-117008100D01*
X163515368Y-117185575D01*
X163448432Y-117320000D01*
X162219157Y-117320000D01*
X162225643Y-117250000D01*
X162205115Y-117028464D01*
X162181380Y-116945043D01*
X162144230Y-116814473D01*
X162045058Y-116615311D01*
X161910980Y-116437762D01*
X161746562Y-116287875D01*
X161557403Y-116170754D01*
X161557401Y-116170753D01*
X161424704Y-116119345D01*
X161383179Y-116092741D01*
X161355308Y-116052053D01*
X161345500Y-116003720D01*
X161345500Y-111996280D01*
X161355308Y-111947947D01*
X161383179Y-111907259D01*
X161424704Y-111880654D01*
X161557401Y-111829247D01*
X161746562Y-111712124D01*
X161910981Y-111562236D01*
X162045058Y-111384689D01*
X162144229Y-111185528D01*
X162147982Y-111172340D01*
X162198173Y-110995934D01*
X162205115Y-110971536D01*
X162225643Y-110750000D01*
X162205115Y-110528464D01*
X162167464Y-110396133D01*
X162144230Y-110314473D01*
X162087229Y-110200000D01*
X163534659Y-110200000D01*
X163553976Y-110396133D01*
X163611185Y-110584726D01*
X163692092Y-110736091D01*
X163704090Y-110758538D01*
X163829117Y-110910883D01*
X163981462Y-111035910D01*
X164155273Y-111128814D01*
X164343868Y-111186024D01*
X164540000Y-111205341D01*
X164736132Y-111186024D01*
X164924727Y-111128814D01*
X165098538Y-111035910D01*
X165250883Y-110910883D01*
X165375910Y-110758538D01*
X165468814Y-110584727D01*
X165526024Y-110396132D01*
X165545341Y-110200000D01*
X165526024Y-110003868D01*
X165468814Y-109815273D01*
X165375910Y-109641462D01*
X165250883Y-109489117D01*
X165098538Y-109364090D01*
X165076091Y-109352092D01*
X164924726Y-109271185D01*
X164736133Y-109213976D01*
X164540000Y-109194659D01*
X164343866Y-109213976D01*
X164155273Y-109271185D01*
X163981463Y-109364089D01*
X163829117Y-109489117D01*
X163704089Y-109641463D01*
X163611185Y-109815273D01*
X163553976Y-110003866D01*
X163534659Y-110200000D01*
X162087229Y-110200000D01*
X162045058Y-110115311D01*
X161910980Y-109937762D01*
X161746562Y-109787875D01*
X161557403Y-109670754D01*
X161557401Y-109670753D01*
X161424704Y-109619345D01*
X161383179Y-109592741D01*
X161355308Y-109552053D01*
X161345500Y-109503720D01*
X161345500Y-104320000D01*
X163448432Y-104320000D01*
X163515368Y-104454424D01*
X163649390Y-104631899D01*
X163813737Y-104781721D01*
X164002825Y-104898800D01*
X164039999Y-104913201D01*
X164040000Y-104913201D01*
X164040000Y-104320000D01*
X165040000Y-104320000D01*
X165040000Y-104913201D01*
X165077174Y-104898800D01*
X165266262Y-104781721D01*
X165430609Y-104631899D01*
X165564631Y-104454424D01*
X165631568Y-104320000D01*
X165040000Y-104320000D01*
X164040000Y-104320000D01*
X163448432Y-104320000D01*
X161345500Y-104320000D01*
X161345500Y-103320000D01*
X163448432Y-103320000D01*
X164040000Y-103320000D01*
X164040000Y-102726799D01*
X164039999Y-102726798D01*
X165040000Y-102726798D01*
X165040000Y-103320000D01*
X165631567Y-103320000D01*
X165564631Y-103185575D01*
X165430609Y-103008100D01*
X165266262Y-102858278D01*
X165077174Y-102741199D01*
X165040000Y-102726798D01*
X164039999Y-102726798D01*
X164002825Y-102741199D01*
X163813737Y-102858278D01*
X163649390Y-103008100D01*
X163515368Y-103185575D01*
X163448432Y-103320000D01*
X161345500Y-103320000D01*
X161345500Y-103046188D01*
X161354939Y-102998735D01*
X161381819Y-102958507D01*
X162588451Y-101751875D01*
X166236290Y-98104034D01*
X166244258Y-98096734D01*
X166273192Y-98072457D01*
X166273192Y-98072456D01*
X166273194Y-98072455D01*
X166292091Y-98039722D01*
X166297887Y-98030625D01*
X166319554Y-97999684D01*
X166319554Y-97999682D01*
X166320173Y-97998799D01*
X166330399Y-97974112D01*
X166330586Y-97973047D01*
X166330588Y-97973045D01*
X166337149Y-97935830D01*
X166339478Y-97925324D01*
X166349264Y-97888807D01*
X166345971Y-97851176D01*
X166345500Y-97840370D01*
X166345500Y-97019112D01*
X166359364Y-96962138D01*
X166397856Y-96917904D01*
X166452369Y-96896301D01*
X166510712Y-96902161D01*
X166559840Y-96934173D01*
X166588766Y-96985178D01*
X166645769Y-97185526D01*
X166744941Y-97384688D01*
X166879019Y-97562237D01*
X167029038Y-97698997D01*
X167058934Y-97740548D01*
X167069500Y-97790634D01*
X167069500Y-102209366D01*
X167058934Y-102259452D01*
X167029038Y-102301003D01*
X166879019Y-102437762D01*
X166744941Y-102615311D01*
X166645769Y-102814473D01*
X166584885Y-103028462D01*
X166564357Y-103249999D01*
X166584885Y-103471537D01*
X166645769Y-103685526D01*
X166744941Y-103884688D01*
X166879019Y-104062237D01*
X167029038Y-104198997D01*
X167058934Y-104240548D01*
X167069500Y-104290634D01*
X167069500Y-109709366D01*
X167058934Y-109759452D01*
X167029038Y-109801003D01*
X166879019Y-109937762D01*
X166744941Y-110115311D01*
X166645769Y-110314473D01*
X166584885Y-110528462D01*
X166574708Y-110638294D01*
X166564357Y-110750000D01*
X166570180Y-110812840D01*
X166584885Y-110971537D01*
X166645769Y-111185526D01*
X166744941Y-111384688D01*
X166879019Y-111562237D01*
X167029038Y-111698997D01*
X167058934Y-111740548D01*
X167069500Y-111790634D01*
X167069500Y-116209366D01*
X167058934Y-116259452D01*
X167029038Y-116301003D01*
X166879019Y-116437762D01*
X166744941Y-116615311D01*
X166645769Y-116814473D01*
X166584885Y-117028462D01*
X166564357Y-117250000D01*
X166584885Y-117471537D01*
X166645769Y-117685526D01*
X166744941Y-117884688D01*
X166879019Y-118062237D01*
X167043437Y-118212124D01*
X167232595Y-118329245D01*
X167232597Y-118329245D01*
X167232599Y-118329247D01*
X167440060Y-118409618D01*
X167658757Y-118450500D01*
X167881241Y-118450500D01*
X167881243Y-118450500D01*
X168099940Y-118409618D01*
X168307401Y-118329247D01*
X168496562Y-118212124D01*
X168540695Y-118171891D01*
X168660980Y-118062237D01*
X168660981Y-118062236D01*
X168795058Y-117884689D01*
X168894229Y-117685528D01*
X168955115Y-117471536D01*
X168975643Y-117250000D01*
X171064357Y-117250000D01*
X171084885Y-117471537D01*
X171145769Y-117685526D01*
X171244941Y-117884688D01*
X171379019Y-118062237D01*
X171543437Y-118212124D01*
X171732595Y-118329245D01*
X171732597Y-118329245D01*
X171732599Y-118329247D01*
X171940060Y-118409618D01*
X172158757Y-118450500D01*
X172381241Y-118450500D01*
X172381243Y-118450500D01*
X172599940Y-118409618D01*
X172807401Y-118329247D01*
X172996562Y-118212124D01*
X173040695Y-118171891D01*
X173160980Y-118062237D01*
X173160981Y-118062236D01*
X173295058Y-117884689D01*
X173394229Y-117685528D01*
X173455115Y-117471536D01*
X173475643Y-117250000D01*
X173455115Y-117028464D01*
X173431380Y-116945043D01*
X173394230Y-116814473D01*
X173295058Y-116615311D01*
X173160980Y-116437762D01*
X172996562Y-116287875D01*
X172807403Y-116170754D01*
X172807401Y-116170753D01*
X172674704Y-116119345D01*
X172633179Y-116092741D01*
X172605308Y-116052053D01*
X172595500Y-116003720D01*
X172595500Y-111996280D01*
X172605308Y-111947947D01*
X172633179Y-111907259D01*
X172674704Y-111880654D01*
X172807401Y-111829247D01*
X172996562Y-111712124D01*
X173160981Y-111562236D01*
X173295058Y-111384689D01*
X173394229Y-111185528D01*
X173397982Y-111172340D01*
X173448173Y-110995934D01*
X173455115Y-110971536D01*
X173475643Y-110750000D01*
X173455115Y-110528464D01*
X173417464Y-110396133D01*
X173394230Y-110314473D01*
X173295058Y-110115311D01*
X173160980Y-109937762D01*
X172996562Y-109787875D01*
X172807404Y-109670754D01*
X172674707Y-109619347D01*
X172599940Y-109590382D01*
X172381243Y-109549500D01*
X172158757Y-109549500D01*
X171944500Y-109589552D01*
X171940060Y-109590382D01*
X171732595Y-109670754D01*
X171543437Y-109787875D01*
X171379019Y-109937762D01*
X171244941Y-110115311D01*
X171145769Y-110314473D01*
X171084885Y-110528462D01*
X171074708Y-110638294D01*
X171064357Y-110750000D01*
X171070180Y-110812840D01*
X171084885Y-110971537D01*
X171145769Y-111185526D01*
X171244941Y-111384688D01*
X171379019Y-111562237D01*
X171543437Y-111712124D01*
X171697209Y-111807334D01*
X171732599Y-111829247D01*
X171865295Y-111880654D01*
X171906821Y-111907259D01*
X171934692Y-111947947D01*
X171944500Y-111996280D01*
X171944500Y-116003720D01*
X171934692Y-116052053D01*
X171906821Y-116092741D01*
X171865295Y-116119345D01*
X171768803Y-116156727D01*
X171732596Y-116170754D01*
X171543437Y-116287875D01*
X171379019Y-116437762D01*
X171244941Y-116615311D01*
X171145769Y-116814473D01*
X171084885Y-117028462D01*
X171064357Y-117250000D01*
X168975643Y-117250000D01*
X168955115Y-117028464D01*
X168931380Y-116945043D01*
X168894230Y-116814473D01*
X168795058Y-116615311D01*
X168660980Y-116437762D01*
X168510962Y-116301003D01*
X168481066Y-116259452D01*
X168470500Y-116209366D01*
X168470500Y-111790634D01*
X168481066Y-111740548D01*
X168510962Y-111698997D01*
X168660980Y-111562237D01*
X168740711Y-111456656D01*
X168795058Y-111384689D01*
X168894229Y-111185528D01*
X168897982Y-111172340D01*
X168948173Y-110995934D01*
X168955115Y-110971536D01*
X168975643Y-110750000D01*
X168955115Y-110528464D01*
X168917464Y-110396133D01*
X168894230Y-110314473D01*
X168795058Y-110115311D01*
X168660980Y-109937762D01*
X168510962Y-109801003D01*
X168481066Y-109759452D01*
X168470500Y-109709366D01*
X168470500Y-104290634D01*
X168481066Y-104240548D01*
X168510962Y-104198997D01*
X168660980Y-104062237D01*
X168662292Y-104060500D01*
X168795058Y-103884689D01*
X168894229Y-103685528D01*
X168955115Y-103471536D01*
X168975643Y-103250000D01*
X168975643Y-103249999D01*
X171064357Y-103249999D01*
X171084885Y-103471537D01*
X171145769Y-103685526D01*
X171244941Y-103884688D01*
X171379019Y-104062237D01*
X171543437Y-104212124D01*
X171732595Y-104329245D01*
X171732597Y-104329245D01*
X171732599Y-104329247D01*
X171940060Y-104409618D01*
X172158757Y-104450500D01*
X172381241Y-104450500D01*
X172381243Y-104450500D01*
X172599940Y-104409618D01*
X172807401Y-104329247D01*
X172996562Y-104212124D01*
X173160981Y-104062236D01*
X173295058Y-103884689D01*
X173394229Y-103685528D01*
X173455115Y-103471536D01*
X173475643Y-103250000D01*
X173455115Y-103028464D01*
X173406693Y-102858278D01*
X173394230Y-102814473D01*
X173295058Y-102615311D01*
X173160980Y-102437762D01*
X172996562Y-102287875D01*
X172807403Y-102170754D01*
X172807401Y-102170753D01*
X172674704Y-102119345D01*
X172633179Y-102092741D01*
X172605308Y-102052053D01*
X172595500Y-102003720D01*
X172595500Y-97996280D01*
X172605308Y-97947947D01*
X172633179Y-97907259D01*
X172674704Y-97880654D01*
X172807401Y-97829247D01*
X172996562Y-97712124D01*
X173160981Y-97562236D01*
X173295058Y-97384689D01*
X173394229Y-97185528D01*
X173397159Y-97175232D01*
X173424913Y-97077685D01*
X173455115Y-96971536D01*
X173475643Y-96750000D01*
X173455115Y-96528464D01*
X173420252Y-96405932D01*
X173394230Y-96314473D01*
X173295058Y-96115311D01*
X173160980Y-95937762D01*
X172996562Y-95787875D01*
X172807404Y-95670754D01*
X172698390Y-95628522D01*
X172599940Y-95590382D01*
X172381243Y-95549500D01*
X172158757Y-95549500D01*
X171940060Y-95590381D01*
X171940060Y-95590382D01*
X171732595Y-95670754D01*
X171543437Y-95787875D01*
X171379019Y-95937762D01*
X171244941Y-96115311D01*
X171145769Y-96314473D01*
X171084885Y-96528462D01*
X171064357Y-96750000D01*
X171084885Y-96971537D01*
X171145769Y-97185526D01*
X171244941Y-97384688D01*
X171379019Y-97562237D01*
X171543437Y-97712124D01*
X171697209Y-97807334D01*
X171732599Y-97829247D01*
X171865295Y-97880654D01*
X171906821Y-97907259D01*
X171934692Y-97947947D01*
X171944500Y-97996280D01*
X171944500Y-102003720D01*
X171934692Y-102052053D01*
X171906821Y-102092741D01*
X171865295Y-102119345D01*
X171784656Y-102150586D01*
X171732596Y-102170754D01*
X171543437Y-102287875D01*
X171379019Y-102437762D01*
X171244941Y-102615311D01*
X171145769Y-102814473D01*
X171084885Y-103028462D01*
X171064357Y-103249999D01*
X168975643Y-103249999D01*
X168955115Y-103028464D01*
X168906693Y-102858278D01*
X168894230Y-102814473D01*
X168795058Y-102615311D01*
X168660980Y-102437762D01*
X168510962Y-102301003D01*
X168481066Y-102259452D01*
X168470500Y-102209366D01*
X168470500Y-97790634D01*
X168481066Y-97740548D01*
X168510962Y-97698997D01*
X168660980Y-97562237D01*
X168660981Y-97562236D01*
X168795058Y-97384689D01*
X168894229Y-97185528D01*
X168897159Y-97175232D01*
X168924913Y-97077685D01*
X168955115Y-96971536D01*
X168975643Y-96750000D01*
X168955115Y-96528464D01*
X168920252Y-96405932D01*
X168894230Y-96314473D01*
X168795058Y-96115311D01*
X168660980Y-95937762D01*
X168510962Y-95801003D01*
X168481066Y-95759452D01*
X168470500Y-95709366D01*
X168470500Y-90290634D01*
X168481066Y-90240548D01*
X168510962Y-90198997D01*
X168660980Y-90062237D01*
X168677959Y-90039753D01*
X168795058Y-89884689D01*
X168894229Y-89685528D01*
X168895653Y-89680525D01*
X168943746Y-89511493D01*
X168955115Y-89471536D01*
X168975643Y-89250000D01*
X168975643Y-89249999D01*
X171064357Y-89249999D01*
X171084885Y-89471537D01*
X171145769Y-89685526D01*
X171244941Y-89884688D01*
X171379019Y-90062237D01*
X171543437Y-90212124D01*
X171732595Y-90329245D01*
X171732597Y-90329245D01*
X171732599Y-90329247D01*
X171940060Y-90409618D01*
X172158757Y-90450500D01*
X172381241Y-90450500D01*
X172381243Y-90450500D01*
X172599940Y-90409618D01*
X172807401Y-90329247D01*
X172996562Y-90212124D01*
X173160981Y-90062236D01*
X173295058Y-89884689D01*
X173394229Y-89685528D01*
X173395653Y-89680525D01*
X173443746Y-89511493D01*
X173455115Y-89471536D01*
X173475643Y-89250000D01*
X173455115Y-89028464D01*
X173432227Y-88948021D01*
X173394230Y-88814473D01*
X173295058Y-88615311D01*
X173160980Y-88437762D01*
X172996562Y-88287875D01*
X172807403Y-88170754D01*
X172807401Y-88170753D01*
X172674704Y-88119345D01*
X172633179Y-88092741D01*
X172605308Y-88052053D01*
X172595500Y-88003720D01*
X172595500Y-83996280D01*
X172605308Y-83947947D01*
X172633179Y-83907259D01*
X172674704Y-83880654D01*
X172807401Y-83829247D01*
X172996562Y-83712124D01*
X173160981Y-83562236D01*
X173295058Y-83384689D01*
X173394229Y-83185528D01*
X173395465Y-83181186D01*
X173433650Y-83046976D01*
X173455115Y-82971536D01*
X173475643Y-82750000D01*
X173455115Y-82528464D01*
X173431626Y-82445910D01*
X173394230Y-82314473D01*
X173295058Y-82115311D01*
X173160980Y-81937762D01*
X172996562Y-81787875D01*
X172807404Y-81670754D01*
X172650582Y-81610001D01*
X172599940Y-81590382D01*
X172381243Y-81549500D01*
X172158757Y-81549500D01*
X171944500Y-81589552D01*
X171940060Y-81590382D01*
X171732595Y-81670754D01*
X171543437Y-81787875D01*
X171379019Y-81937762D01*
X171244941Y-82115311D01*
X171145769Y-82314473D01*
X171084885Y-82528462D01*
X171064357Y-82749999D01*
X171084885Y-82971537D01*
X171145769Y-83185526D01*
X171244941Y-83384688D01*
X171379019Y-83562237D01*
X171543437Y-83712124D01*
X171674935Y-83793543D01*
X171732599Y-83829247D01*
X171865295Y-83880654D01*
X171906821Y-83907259D01*
X171934692Y-83947947D01*
X171944500Y-83996280D01*
X171944500Y-88003720D01*
X171934692Y-88052053D01*
X171906821Y-88092741D01*
X171865295Y-88119345D01*
X171811783Y-88140077D01*
X171732596Y-88170754D01*
X171543437Y-88287875D01*
X171379019Y-88437762D01*
X171244941Y-88615311D01*
X171145769Y-88814473D01*
X171084885Y-89028462D01*
X171064357Y-89249999D01*
X168975643Y-89249999D01*
X168955115Y-89028464D01*
X168932227Y-88948021D01*
X168894230Y-88814473D01*
X168795058Y-88615311D01*
X168660980Y-88437762D01*
X168510962Y-88301003D01*
X168481066Y-88259452D01*
X168470500Y-88209366D01*
X168470500Y-83790634D01*
X168481066Y-83740548D01*
X168510962Y-83698997D01*
X168660980Y-83562237D01*
X168686698Y-83528181D01*
X168795058Y-83384689D01*
X168894229Y-83185528D01*
X168895465Y-83181186D01*
X168933650Y-83046976D01*
X168955115Y-82971536D01*
X168975643Y-82750000D01*
X168955115Y-82528464D01*
X168931626Y-82445910D01*
X168894230Y-82314473D01*
X168795058Y-82115311D01*
X168660980Y-81937762D01*
X168496562Y-81787875D01*
X168307404Y-81670754D01*
X168150582Y-81610001D01*
X168099940Y-81590382D01*
X167881243Y-81549500D01*
X167658757Y-81549500D01*
X167444500Y-81589552D01*
X167440060Y-81590382D01*
X167232595Y-81670754D01*
X167043437Y-81787875D01*
X166879019Y-81937762D01*
X166744941Y-82115311D01*
X166645769Y-82314473D01*
X166588766Y-82514822D01*
X166559840Y-82565827D01*
X166510712Y-82597839D01*
X166452369Y-82603699D01*
X166397856Y-82582096D01*
X166359364Y-82537862D01*
X166345500Y-82480888D01*
X166345500Y-79129628D01*
X166345972Y-79118820D01*
X166348000Y-79095637D01*
X166349264Y-79081194D01*
X166339478Y-79044676D01*
X166337147Y-79034161D01*
X166330588Y-78996955D01*
X166330587Y-78996953D01*
X166330400Y-78995891D01*
X166320174Y-78971201D01*
X166297892Y-78939379D01*
X166292080Y-78930256D01*
X166273194Y-78897544D01*
X166244255Y-78873262D01*
X166236280Y-78865954D01*
X166121819Y-78751493D01*
X166094939Y-78711265D01*
X166085500Y-78663812D01*
X166085500Y-77872824D01*
X166103491Y-77808496D01*
X166152243Y-77762835D01*
X166217610Y-77749090D01*
X166280624Y-77771249D01*
X166402614Y-77856667D01*
X166529999Y-77916068D01*
X166530000Y-77916069D01*
X166530000Y-77270000D01*
X167530000Y-77270000D01*
X167530000Y-77916068D01*
X167657385Y-77856667D01*
X167836557Y-77731209D01*
X167991209Y-77576557D01*
X168116667Y-77397385D01*
X168176068Y-77270000D01*
X167530000Y-77270000D01*
X166530000Y-77270000D01*
X166530000Y-75623932D01*
X166529999Y-75623931D01*
X167530000Y-75623931D01*
X167530000Y-76270000D01*
X168176069Y-76270000D01*
X168176068Y-76269999D01*
X168116667Y-76142615D01*
X167991209Y-75963442D01*
X167836557Y-75808790D01*
X167657385Y-75683332D01*
X167530000Y-75623931D01*
X166529999Y-75623931D01*
X166402611Y-75683333D01*
X166344038Y-75724347D01*
X166287310Y-75745934D01*
X166227133Y-75738011D01*
X166177925Y-75702477D01*
X166151477Y-75647847D01*
X166154060Y-75588680D01*
X168795701Y-75588680D01*
X168826046Y-75941969D01*
X168896463Y-76289490D01*
X169006038Y-76626727D01*
X169153335Y-76949264D01*
X169334781Y-77250158D01*
X169336444Y-77252915D01*
X169542524Y-77520164D01*
X169552973Y-77533714D01*
X169800093Y-77787995D01*
X169938895Y-77901493D01*
X170074596Y-78012455D01*
X170372892Y-78204159D01*
X170691097Y-78360609D01*
X171025062Y-78479768D01*
X171370433Y-78560080D01*
X171722708Y-78600500D01*
X171988573Y-78600500D01*
X171988577Y-78600500D01*
X172254009Y-78585322D01*
X172603401Y-78524857D01*
X172943624Y-78424959D01*
X173270242Y-78286929D01*
X173578996Y-78112568D01*
X173865862Y-77904147D01*
X174087542Y-77700691D01*
X174127096Y-77664389D01*
X174127097Y-77664387D01*
X174127100Y-77664385D01*
X174359305Y-77396407D01*
X174559449Y-77103706D01*
X174724922Y-76790098D01*
X174853569Y-76459672D01*
X174943711Y-76116736D01*
X174994174Y-75765759D01*
X175004300Y-75411317D01*
X174973956Y-75058032D01*
X174903538Y-74710508D01*
X174793965Y-74373277D01*
X174793462Y-74372176D01*
X174646666Y-74050735D01*
X174463559Y-73747087D01*
X174463558Y-73747085D01*
X174247030Y-73466287D01*
X174234195Y-73453080D01*
X173999908Y-73212004D01*
X173725406Y-72987545D01*
X173427112Y-72795842D01*
X173108903Y-72639390D01*
X173006013Y-72602679D01*
X172774940Y-72520232D01*
X172429569Y-72439920D01*
X172077294Y-72399500D01*
X171811425Y-72399500D01*
X171609999Y-72411018D01*
X171545992Y-72414678D01*
X171196599Y-72475143D01*
X170856377Y-72575040D01*
X170529764Y-72713069D01*
X170221004Y-72887433D01*
X170083213Y-72987545D01*
X169934140Y-73095853D01*
X169934138Y-73095854D01*
X169934135Y-73095857D01*
X169672905Y-73335610D01*
X169440693Y-73603597D01*
X169240556Y-73896287D01*
X169075077Y-74209906D01*
X168946432Y-74540327D01*
X168856291Y-74883261D01*
X168805827Y-75234245D01*
X168795701Y-75588680D01*
X166154060Y-75588680D01*
X166154124Y-75587208D01*
X166185232Y-75535093D01*
X166488714Y-75231611D01*
X166532714Y-75203242D01*
X166584503Y-75195560D01*
X166613688Y-75203893D01*
X166614358Y-75201686D01*
X166626043Y-75205230D01*
X166626046Y-75205232D01*
X166824066Y-75265300D01*
X167030000Y-75285583D01*
X167235934Y-75265300D01*
X167433954Y-75205232D01*
X167616450Y-75107685D01*
X167776410Y-74976410D01*
X167907685Y-74816450D01*
X168005232Y-74633954D01*
X168065300Y-74435934D01*
X168085583Y-74230000D01*
X168065300Y-74024066D01*
X168005232Y-73826046D01*
X167907685Y-73643550D01*
X167842047Y-73563570D01*
X167776410Y-73483589D01*
X167623517Y-73358115D01*
X167616450Y-73352315D01*
X167433954Y-73254768D01*
X167334943Y-73224733D01*
X167235932Y-73194699D01*
X167030000Y-73174417D01*
X166824067Y-73194699D01*
X166626043Y-73254769D01*
X166443551Y-73352314D01*
X166283589Y-73483589D01*
X166152314Y-73643551D01*
X166054769Y-73826043D01*
X165994699Y-74024067D01*
X165974417Y-74229999D01*
X165994699Y-74435932D01*
X166015165Y-74503399D01*
X166054768Y-74633954D01*
X166054769Y-74633956D01*
X166058314Y-74645641D01*
X166056105Y-74646310D01*
X166064439Y-74675491D01*
X166056758Y-74727282D01*
X166028386Y-74771285D01*
X165543714Y-75255958D01*
X165535741Y-75263264D01*
X165506806Y-75287544D01*
X165487914Y-75320264D01*
X165482106Y-75329380D01*
X165459831Y-75361193D01*
X165449597Y-75385899D01*
X165442852Y-75424148D01*
X165440512Y-75434704D01*
X165430735Y-75471192D01*
X165434028Y-75508820D01*
X165434500Y-75519628D01*
X165434500Y-75923982D01*
X165415262Y-75990322D01*
X165363517Y-76036077D01*
X165295321Y-76047050D01*
X165231836Y-76019836D01*
X165136954Y-75941969D01*
X165076450Y-75892315D01*
X164893954Y-75794768D01*
X164790876Y-75763500D01*
X164695932Y-75734699D01*
X164490000Y-75714417D01*
X164284067Y-75734699D01*
X164086043Y-75794769D01*
X163903551Y-75892314D01*
X163748164Y-76019836D01*
X163684679Y-76047050D01*
X163616483Y-76036077D01*
X163564738Y-75990322D01*
X163545500Y-75923982D01*
X163545500Y-75686188D01*
X163554939Y-75638735D01*
X163581819Y-75598507D01*
X163760852Y-75419474D01*
X163948714Y-75231611D01*
X163992714Y-75203242D01*
X164044503Y-75195560D01*
X164073688Y-75203893D01*
X164074358Y-75201686D01*
X164086043Y-75205230D01*
X164086046Y-75205232D01*
X164284066Y-75265300D01*
X164490000Y-75285583D01*
X164695934Y-75265300D01*
X164893954Y-75205232D01*
X165076450Y-75107685D01*
X165236410Y-74976410D01*
X165367685Y-74816450D01*
X165465232Y-74633954D01*
X165525300Y-74435934D01*
X165545583Y-74230000D01*
X165525300Y-74024066D01*
X165465232Y-73826046D01*
X165367685Y-73643550D01*
X165302047Y-73563570D01*
X165236410Y-73483589D01*
X165083517Y-73358115D01*
X165076450Y-73352315D01*
X164893954Y-73254768D01*
X164794943Y-73224733D01*
X164695932Y-73194699D01*
X164490000Y-73174417D01*
X164284067Y-73194699D01*
X164086043Y-73254769D01*
X163903551Y-73352314D01*
X163743589Y-73483589D01*
X163612314Y-73643551D01*
X163514769Y-73826043D01*
X163454699Y-74024067D01*
X163434417Y-74229999D01*
X163454699Y-74435932D01*
X163475165Y-74503399D01*
X163514768Y-74633954D01*
X163514769Y-74633956D01*
X163518314Y-74645641D01*
X163516105Y-74646310D01*
X163524439Y-74675491D01*
X163516758Y-74727282D01*
X163488386Y-74771285D01*
X163003714Y-75255958D01*
X162995741Y-75263264D01*
X162966806Y-75287544D01*
X162947914Y-75320264D01*
X162942106Y-75329380D01*
X162919831Y-75361193D01*
X162909597Y-75385899D01*
X162902852Y-75424148D01*
X162900512Y-75434704D01*
X162890735Y-75471192D01*
X162894028Y-75508820D01*
X162894500Y-75519628D01*
X162894500Y-75923982D01*
X162875262Y-75990322D01*
X162823517Y-76036077D01*
X162755321Y-76047050D01*
X162691836Y-76019836D01*
X162596954Y-75941969D01*
X162536450Y-75892315D01*
X162353954Y-75794768D01*
X162250876Y-75763500D01*
X162155932Y-75734699D01*
X161950000Y-75714417D01*
X161744067Y-75734699D01*
X161546043Y-75794769D01*
X161363551Y-75892314D01*
X161218164Y-76011629D01*
X161154678Y-76038843D01*
X161086483Y-76027870D01*
X161034738Y-75982115D01*
X161015500Y-75915775D01*
X161015500Y-75676188D01*
X161024939Y-75628735D01*
X161051819Y-75588507D01*
X161136112Y-75504214D01*
X161408715Y-75231609D01*
X161452721Y-75203238D01*
X161504518Y-75195560D01*
X161533688Y-75203894D01*
X161534359Y-75201686D01*
X161546042Y-75205230D01*
X161546046Y-75205232D01*
X161744066Y-75265300D01*
X161950000Y-75285583D01*
X162155934Y-75265300D01*
X162353954Y-75205232D01*
X162536450Y-75107685D01*
X162696410Y-74976410D01*
X162827685Y-74816450D01*
X162925232Y-74633954D01*
X162985300Y-74435934D01*
X163005583Y-74230000D01*
X162985300Y-74024066D01*
X162925232Y-73826046D01*
X162827685Y-73643550D01*
X162762047Y-73563570D01*
X162696410Y-73483589D01*
X162543517Y-73358115D01*
X162536450Y-73352315D01*
X162353954Y-73254768D01*
X162254943Y-73224733D01*
X162155932Y-73194699D01*
X161950000Y-73174417D01*
X161744067Y-73194699D01*
X161546043Y-73254769D01*
X161363551Y-73352314D01*
X161203589Y-73483589D01*
X161072314Y-73643551D01*
X160974769Y-73826043D01*
X160914699Y-74024067D01*
X160894417Y-74229999D01*
X160914699Y-74435932D01*
X160978313Y-74645641D01*
X160976107Y-74646310D01*
X160984441Y-74675528D01*
X160976751Y-74727300D01*
X160948385Y-74771287D01*
X160644912Y-75074760D01*
X160592794Y-75105870D01*
X160532156Y-75108517D01*
X160477525Y-75082068D01*
X160441992Y-75032860D01*
X160434070Y-74972682D01*
X160455657Y-74915954D01*
X160496667Y-74857386D01*
X160556068Y-74730000D01*
X159910000Y-74730000D01*
X159910000Y-75376068D01*
X160037389Y-75316665D01*
X160204009Y-75199996D01*
X160260021Y-75178494D01*
X160319571Y-75185806D01*
X160368718Y-75220219D01*
X160395955Y-75273677D01*
X160394907Y-75333665D01*
X160390906Y-75348596D01*
X160379597Y-75375899D01*
X160372852Y-75414148D01*
X160370512Y-75424704D01*
X160360735Y-75461192D01*
X160364028Y-75498820D01*
X160364500Y-75509628D01*
X160364500Y-75932188D01*
X160345262Y-75998528D01*
X160293517Y-76044282D01*
X160225322Y-76055256D01*
X160161836Y-76028042D01*
X160056953Y-75941968D01*
X159996450Y-75892315D01*
X159813954Y-75794768D01*
X159710876Y-75763500D01*
X159615932Y-75734699D01*
X159410000Y-75714417D01*
X159204067Y-75734699D01*
X159006043Y-75794769D01*
X158823551Y-75892314D01*
X158663589Y-76023589D01*
X158532314Y-76183551D01*
X158434769Y-76366043D01*
X158374699Y-76564067D01*
X158354417Y-76769999D01*
X158374699Y-76975932D01*
X158374700Y-76975934D01*
X158434768Y-77173954D01*
X158532315Y-77356450D01*
X158583608Y-77418952D01*
X158663589Y-77516410D01*
X158736880Y-77576557D01*
X158823550Y-77647685D01*
X159006046Y-77745232D01*
X159204066Y-77805300D01*
X159410000Y-77825583D01*
X159615934Y-77805300D01*
X159813954Y-77745232D01*
X159996450Y-77647685D01*
X160125872Y-77541472D01*
X160161836Y-77511958D01*
X160225322Y-77484744D01*
X160293517Y-77495718D01*
X160345262Y-77541472D01*
X160364500Y-77607812D01*
X160364500Y-78253812D01*
X160355061Y-78301265D01*
X160328181Y-78341493D01*
X158053714Y-80615958D01*
X158045741Y-80623264D01*
X158016806Y-80647544D01*
X157997914Y-80680264D01*
X157992106Y-80689380D01*
X157969831Y-80721193D01*
X157959597Y-80745899D01*
X157952852Y-80784148D01*
X157950512Y-80794704D01*
X157940735Y-80831192D01*
X157944028Y-80868820D01*
X157944500Y-80879628D01*
X157944500Y-82480888D01*
X157930636Y-82537862D01*
X157892144Y-82582096D01*
X157837631Y-82603699D01*
X157779288Y-82597839D01*
X157730160Y-82565827D01*
X157701234Y-82514822D01*
X157644230Y-82314473D01*
X157545058Y-82115311D01*
X157410980Y-81937762D01*
X157246562Y-81787875D01*
X157057404Y-81670754D01*
X156900582Y-81610001D01*
X156849940Y-81590382D01*
X156631243Y-81549500D01*
X156408757Y-81549500D01*
X156194500Y-81589552D01*
X156190060Y-81590382D01*
X155982595Y-81670754D01*
X155793437Y-81787875D01*
X155629019Y-81937762D01*
X155494941Y-82115311D01*
X155450500Y-82204561D01*
X155406714Y-82253492D01*
X155344082Y-82273204D01*
X155280164Y-82258171D01*
X155232885Y-82212607D01*
X155215500Y-82149289D01*
X155215500Y-80629627D01*
X155215972Y-80618819D01*
X155219264Y-80581192D01*
X155209487Y-80544706D01*
X155207145Y-80534143D01*
X155200400Y-80495891D01*
X155190171Y-80471198D01*
X155189554Y-80470317D01*
X155189554Y-80470316D01*
X155167892Y-80439379D01*
X155162080Y-80430256D01*
X155143194Y-80397544D01*
X155114255Y-80373262D01*
X155106280Y-80365954D01*
X154691819Y-79951493D01*
X154664939Y-79911265D01*
X154655500Y-79863812D01*
X154655500Y-77860996D01*
X154666553Y-77809821D01*
X154697740Y-77767769D01*
X154724269Y-77753024D01*
X154723182Y-77750990D01*
X154778306Y-77721525D01*
X154916450Y-77647685D01*
X155076410Y-77516410D01*
X155207685Y-77356450D01*
X155305232Y-77173954D01*
X155365300Y-76975934D01*
X155385583Y-76770000D01*
X155385583Y-76769999D01*
X155814417Y-76769999D01*
X155834699Y-76975932D01*
X155834700Y-76975934D01*
X155894768Y-77173954D01*
X155992315Y-77356450D01*
X156043608Y-77418952D01*
X156123589Y-77516410D01*
X156196880Y-77576557D01*
X156283550Y-77647685D01*
X156466046Y-77745232D01*
X156664066Y-77805300D01*
X156870000Y-77825583D01*
X157075934Y-77805300D01*
X157273954Y-77745232D01*
X157456450Y-77647685D01*
X157616410Y-77516410D01*
X157747685Y-77356450D01*
X157845232Y-77173954D01*
X157905300Y-76975934D01*
X157925583Y-76770000D01*
X157905300Y-76564066D01*
X157845232Y-76366046D01*
X157747685Y-76183550D01*
X157682047Y-76103570D01*
X157616410Y-76023589D01*
X157505036Y-75932188D01*
X157456450Y-75892315D01*
X157273954Y-75794768D01*
X157170876Y-75763500D01*
X157075932Y-75734699D01*
X156870000Y-75714417D01*
X156664067Y-75734699D01*
X156466043Y-75794769D01*
X156283551Y-75892314D01*
X156123589Y-76023589D01*
X155992314Y-76183551D01*
X155894769Y-76366043D01*
X155834699Y-76564067D01*
X155814417Y-76769999D01*
X155385583Y-76769999D01*
X155365300Y-76564066D01*
X155305232Y-76366046D01*
X155207685Y-76183550D01*
X155142047Y-76103570D01*
X155076410Y-76023589D01*
X154965036Y-75932188D01*
X154916450Y-75892315D01*
X154733954Y-75794768D01*
X154630876Y-75763500D01*
X154535932Y-75734699D01*
X154330000Y-75714417D01*
X154124067Y-75734699D01*
X153926043Y-75794769D01*
X153743551Y-75892314D01*
X153583589Y-76023589D01*
X153452314Y-76183551D01*
X153354769Y-76366043D01*
X153294699Y-76564067D01*
X153274417Y-76769999D01*
X153294699Y-76975932D01*
X153294700Y-76975934D01*
X153354768Y-77173954D01*
X153452315Y-77356450D01*
X153503608Y-77418952D01*
X153583589Y-77516410D01*
X153694964Y-77607812D01*
X153743550Y-77647685D01*
X153879647Y-77720431D01*
X153936818Y-77750990D01*
X153935730Y-77753024D01*
X153962260Y-77767769D01*
X153993447Y-77809821D01*
X154004500Y-77860996D01*
X154004500Y-80030372D01*
X154004028Y-80041180D01*
X154000735Y-80078807D01*
X154010512Y-80115296D01*
X154012853Y-80125852D01*
X154019599Y-80164107D01*
X154029829Y-80188803D01*
X154030446Y-80189684D01*
X154052112Y-80220627D01*
X154057915Y-80229736D01*
X154076806Y-80262455D01*
X154105742Y-80286735D01*
X154113718Y-80294044D01*
X154528181Y-80708507D01*
X154555061Y-80748735D01*
X154564500Y-80796188D01*
X154564500Y-81845183D01*
X154544935Y-81912036D01*
X154492414Y-81957793D01*
X154423511Y-81968014D01*
X154359969Y-81939474D01*
X154321840Y-81881181D01*
X154298814Y-81805273D01*
X154205910Y-81631462D01*
X154080883Y-81479117D01*
X153928538Y-81354090D01*
X153894780Y-81336046D01*
X153754726Y-81261185D01*
X153566133Y-81203976D01*
X153370000Y-81184659D01*
X153173866Y-81203976D01*
X152985273Y-81261185D01*
X152811463Y-81354089D01*
X152659117Y-81479117D01*
X152534089Y-81631463D01*
X152441185Y-81805273D01*
X152383976Y-81993866D01*
X152366773Y-82168536D01*
X152364659Y-82190000D01*
X152370912Y-82253492D01*
X152383976Y-82386133D01*
X152441185Y-82574726D01*
X152486160Y-82658867D01*
X152534090Y-82748538D01*
X152659117Y-82900883D01*
X152811462Y-83025910D01*
X152985273Y-83118814D01*
X153173868Y-83176024D01*
X153370000Y-83195341D01*
X153566132Y-83176024D01*
X153754727Y-83118814D01*
X153928538Y-83025910D01*
X154080883Y-82900883D01*
X154205910Y-82748538D01*
X154298814Y-82574727D01*
X154321840Y-82498818D01*
X154359969Y-82440526D01*
X154423511Y-82411986D01*
X154492414Y-82422207D01*
X154544935Y-82467964D01*
X154564500Y-82534817D01*
X154564500Y-89030551D01*
X154549382Y-89089886D01*
X154507715Y-89134754D01*
X154449658Y-89154212D01*
X154389368Y-89143518D01*
X154341546Y-89105278D01*
X154260609Y-88998100D01*
X154096262Y-88848278D01*
X153907174Y-88731199D01*
X153870000Y-88716798D01*
X153870000Y-90903201D01*
X153907174Y-90888800D01*
X154096262Y-90771721D01*
X154260609Y-90621899D01*
X154341546Y-90514722D01*
X154389368Y-90476482D01*
X154449658Y-90465788D01*
X154507715Y-90485246D01*
X154549382Y-90530114D01*
X154564500Y-90589449D01*
X154564500Y-92549703D01*
X154552883Y-92602106D01*
X154520209Y-92644689D01*
X154516806Y-92647545D01*
X154516805Y-92647546D01*
X154497914Y-92680264D01*
X154492106Y-92689380D01*
X154469831Y-92721193D01*
X154459599Y-92745895D01*
X154452853Y-92784149D01*
X154450512Y-92794706D01*
X154443351Y-92821432D01*
X154426679Y-92858228D01*
X154399064Y-92887713D01*
X154341721Y-92931715D01*
X154341719Y-92931716D01*
X154341718Y-92931718D01*
X154317908Y-92962748D01*
X154245462Y-93057161D01*
X154184956Y-93203237D01*
X154164317Y-93360000D01*
X154184956Y-93516762D01*
X154245463Y-93662840D01*
X154341717Y-93788282D01*
X154467159Y-93884536D01*
X154613238Y-93945044D01*
X154770000Y-93965682D01*
X154926762Y-93945044D01*
X155072841Y-93884536D01*
X155198282Y-93788282D01*
X155294536Y-93662841D01*
X155355044Y-93516762D01*
X155375682Y-93360000D01*
X155355044Y-93203238D01*
X155294536Y-93057159D01*
X155222089Y-92962744D01*
X155200021Y-92916735D01*
X155198351Y-92865730D01*
X155200588Y-92853045D01*
X155207147Y-92815842D01*
X155209478Y-92805324D01*
X155219264Y-92768807D01*
X155215971Y-92731176D01*
X155215500Y-92720370D01*
X155215500Y-89850711D01*
X155232885Y-89787393D01*
X155280164Y-89741829D01*
X155344082Y-89726796D01*
X155406714Y-89746508D01*
X155450500Y-89795439D01*
X155494941Y-89884688D01*
X155629019Y-90062237D01*
X155779038Y-90198997D01*
X155808934Y-90240548D01*
X155819500Y-90290634D01*
X155819500Y-91835079D01*
X155819274Y-91842566D01*
X155815641Y-91902607D01*
X155826483Y-91961771D01*
X155827610Y-91969172D01*
X155834860Y-92028873D01*
X155838450Y-92038339D01*
X155844475Y-92059952D01*
X155846303Y-92069929D01*
X155870991Y-92124783D01*
X155873856Y-92131701D01*
X155895180Y-92187926D01*
X155895182Y-92187930D01*
X155900941Y-92196273D01*
X155911961Y-92215813D01*
X155916120Y-92225054D01*
X155953216Y-92272405D01*
X155957651Y-92278432D01*
X155991817Y-92327929D01*
X156036847Y-92367822D01*
X156042283Y-92372940D01*
X158283181Y-94613838D01*
X158310061Y-94654066D01*
X158319500Y-94701519D01*
X158319500Y-102018482D01*
X158310061Y-102065935D01*
X158283181Y-102106163D01*
X157766162Y-102623181D01*
X157725934Y-102650061D01*
X157678481Y-102659500D01*
X157275718Y-102659500D01*
X157233944Y-102652251D01*
X157197053Y-102631353D01*
X157078537Y-102534089D01*
X156904726Y-102441185D01*
X156716133Y-102383976D01*
X156520000Y-102364659D01*
X156323866Y-102383976D01*
X156135273Y-102441185D01*
X155961462Y-102534089D01*
X155842947Y-102631353D01*
X155806056Y-102652251D01*
X155764282Y-102659500D01*
X154125718Y-102659500D01*
X154083944Y-102652251D01*
X154047053Y-102631353D01*
X153928537Y-102534089D01*
X153754726Y-102441185D01*
X153566133Y-102383976D01*
X153370000Y-102364659D01*
X153173866Y-102383976D01*
X152985273Y-102441185D01*
X152811463Y-102534089D01*
X152659117Y-102659117D01*
X152534089Y-102811463D01*
X152441185Y-102985273D01*
X152383976Y-103173866D01*
X152370266Y-103313072D01*
X152364659Y-103370000D01*
X143695500Y-103370000D01*
X143695500Y-95749999D01*
X152364659Y-95749999D01*
X152383976Y-95946133D01*
X152441185Y-96134726D01*
X152476075Y-96200000D01*
X152534090Y-96308538D01*
X152659117Y-96460883D01*
X152811462Y-96585910D01*
X152985273Y-96678814D01*
X153173868Y-96736024D01*
X153370000Y-96755341D01*
X153566132Y-96736024D01*
X153754727Y-96678814D01*
X153928538Y-96585910D01*
X154080883Y-96460883D01*
X154205910Y-96308538D01*
X154298814Y-96134727D01*
X154356024Y-95946132D01*
X154375341Y-95750000D01*
X154375341Y-95749999D01*
X155514659Y-95749999D01*
X155533976Y-95946133D01*
X155591185Y-96134726D01*
X155626075Y-96200000D01*
X155684090Y-96308538D01*
X155809117Y-96460883D01*
X155961462Y-96585910D01*
X156135273Y-96678814D01*
X156323868Y-96736024D01*
X156520000Y-96755341D01*
X156716132Y-96736024D01*
X156904727Y-96678814D01*
X157078538Y-96585910D01*
X157230883Y-96460883D01*
X157355910Y-96308538D01*
X157448814Y-96134727D01*
X157506024Y-95946132D01*
X157525341Y-95750000D01*
X157506024Y-95553868D01*
X157448814Y-95365273D01*
X157355910Y-95191462D01*
X157230883Y-95039117D01*
X157078538Y-94914090D01*
X157056091Y-94902091D01*
X156904726Y-94821185D01*
X156716133Y-94763976D01*
X156520000Y-94744659D01*
X156323866Y-94763976D01*
X156135273Y-94821185D01*
X155961463Y-94914089D01*
X155809117Y-95039117D01*
X155684089Y-95191463D01*
X155591185Y-95365273D01*
X155533976Y-95553866D01*
X155514659Y-95749999D01*
X154375341Y-95749999D01*
X154356024Y-95553868D01*
X154298814Y-95365273D01*
X154205910Y-95191462D01*
X154080883Y-95039117D01*
X153928538Y-94914090D01*
X153906091Y-94902091D01*
X153754726Y-94821185D01*
X153566133Y-94763976D01*
X153370000Y-94744659D01*
X153173866Y-94763976D01*
X152985273Y-94821185D01*
X152811463Y-94914089D01*
X152659117Y-95039117D01*
X152534089Y-95191463D01*
X152441185Y-95365273D01*
X152383976Y-95553866D01*
X152364659Y-95749999D01*
X143695500Y-95749999D01*
X143695500Y-91696188D01*
X143704939Y-91648735D01*
X143731819Y-91608507D01*
X144149954Y-91190372D01*
X145486290Y-89854034D01*
X145494258Y-89846734D01*
X145495379Y-89845794D01*
X145523194Y-89822455D01*
X145542091Y-89789722D01*
X145547887Y-89780625D01*
X145569554Y-89749684D01*
X145569554Y-89749682D01*
X145570173Y-89748799D01*
X145580399Y-89724112D01*
X145580586Y-89723047D01*
X145580588Y-89723045D01*
X145587149Y-89685830D01*
X145589478Y-89675324D01*
X145599264Y-89638807D01*
X145595971Y-89601176D01*
X145595500Y-89590370D01*
X145595500Y-88849999D01*
X147664517Y-88849999D01*
X147684422Y-89128294D01*
X147743727Y-89400918D01*
X147752266Y-89423812D01*
X147841231Y-89662337D01*
X147854076Y-89685860D01*
X147974942Y-89907211D01*
X148024225Y-89973045D01*
X148142145Y-90130568D01*
X148339432Y-90327855D01*
X148499989Y-90448046D01*
X148562788Y-90495057D01*
X148640773Y-90537640D01*
X148807663Y-90628769D01*
X149069077Y-90726271D01*
X149069080Y-90726271D01*
X149069081Y-90726272D01*
X149107883Y-90734712D01*
X149341706Y-90785578D01*
X149620000Y-90805482D01*
X149898294Y-90785578D01*
X150170923Y-90726271D01*
X150432337Y-90628769D01*
X150677213Y-90495056D01*
X150900568Y-90327855D01*
X150918423Y-90310000D01*
X152278432Y-90310000D01*
X152345368Y-90444424D01*
X152479390Y-90621899D01*
X152643737Y-90771721D01*
X152832825Y-90888800D01*
X152869999Y-90903201D01*
X152870000Y-90903201D01*
X152870000Y-90310000D01*
X152278432Y-90310000D01*
X150918423Y-90310000D01*
X151097855Y-90130568D01*
X151265056Y-89907213D01*
X151398769Y-89662337D01*
X151496271Y-89400923D01*
X151516050Y-89310000D01*
X152278432Y-89310000D01*
X152870000Y-89310000D01*
X152870000Y-88716799D01*
X152869999Y-88716798D01*
X152832825Y-88731199D01*
X152643737Y-88848278D01*
X152479390Y-88998100D01*
X152345368Y-89175575D01*
X152278432Y-89310000D01*
X151516050Y-89310000D01*
X151555578Y-89128294D01*
X151575482Y-88850000D01*
X151555578Y-88571706D01*
X151496271Y-88299077D01*
X151398769Y-88037663D01*
X151285520Y-87830264D01*
X151265057Y-87792788D01*
X151193864Y-87697685D01*
X151097855Y-87569432D01*
X150900568Y-87372145D01*
X150788890Y-87288544D01*
X150677211Y-87204942D01*
X150434582Y-87072457D01*
X150432337Y-87071231D01*
X150170923Y-86973729D01*
X150170918Y-86973727D01*
X149898294Y-86914422D01*
X149620000Y-86894517D01*
X149341705Y-86914422D01*
X149069081Y-86973727D01*
X148951073Y-87017742D01*
X148807663Y-87071231D01*
X148807660Y-87071232D01*
X148807659Y-87071233D01*
X148562788Y-87204942D01*
X148339429Y-87372147D01*
X148142147Y-87569429D01*
X147974942Y-87792788D01*
X147845618Y-88029628D01*
X147841231Y-88037663D01*
X147816917Y-88102851D01*
X147743727Y-88299081D01*
X147684422Y-88571705D01*
X147664517Y-88849999D01*
X145595500Y-88849999D01*
X145595500Y-82735005D01*
X149252099Y-82735005D01*
X149340195Y-82769134D01*
X149558806Y-82810000D01*
X149781194Y-82810000D01*
X149999804Y-82769134D01*
X150087898Y-82735005D01*
X150087899Y-82735005D01*
X149670001Y-82317107D01*
X149670000Y-82317107D01*
X149252099Y-82735005D01*
X145595500Y-82735005D01*
X145595500Y-81609999D01*
X148464859Y-81609999D01*
X148485378Y-81831440D01*
X148542098Y-82030793D01*
X148962893Y-81610001D01*
X148962893Y-81610000D01*
X150377107Y-81610000D01*
X150797900Y-82030794D01*
X150797901Y-82030794D01*
X150854621Y-81831446D01*
X150875140Y-81610000D01*
X150854621Y-81388553D01*
X150797901Y-81189204D01*
X150797900Y-81189204D01*
X150377107Y-81610000D01*
X148962893Y-81610000D01*
X148542098Y-81189205D01*
X148485378Y-81388559D01*
X148464859Y-81609999D01*
X145595500Y-81609999D01*
X145595500Y-80596188D01*
X145604939Y-80548735D01*
X145631819Y-80508507D01*
X145655333Y-80484993D01*
X149252100Y-80484993D01*
X149670000Y-80902893D01*
X149670001Y-80902893D01*
X150087899Y-80484993D01*
X149999801Y-80450864D01*
X149781194Y-80410000D01*
X149558806Y-80410000D01*
X149340196Y-80450865D01*
X149252100Y-80484993D01*
X145655333Y-80484993D01*
X145951523Y-80188803D01*
X146926290Y-79214034D01*
X146934258Y-79206734D01*
X146963192Y-79182457D01*
X146963192Y-79182456D01*
X146963194Y-79182455D01*
X146982091Y-79149722D01*
X146987887Y-79140625D01*
X147009554Y-79109684D01*
X147009554Y-79109682D01*
X147010173Y-79108799D01*
X147020400Y-79084108D01*
X147020587Y-79083046D01*
X147020588Y-79083045D01*
X147027146Y-79045851D01*
X147029483Y-79035303D01*
X147039264Y-78998806D01*
X147038733Y-78992742D01*
X147035972Y-78961176D01*
X147035500Y-78950369D01*
X147035500Y-77860996D01*
X147046553Y-77809821D01*
X147077740Y-77767769D01*
X147104269Y-77753024D01*
X147103182Y-77750990D01*
X147158306Y-77721525D01*
X147296450Y-77647685D01*
X147456410Y-77516410D01*
X147587685Y-77356450D01*
X147633894Y-77270000D01*
X148103931Y-77270000D01*
X148163332Y-77397385D01*
X148288790Y-77576557D01*
X148443442Y-77731209D01*
X148622614Y-77856667D01*
X148749999Y-77916068D01*
X148750000Y-77916069D01*
X148750000Y-77270000D01*
X149750000Y-77270000D01*
X149750000Y-77916068D01*
X149877385Y-77856667D01*
X150056557Y-77731209D01*
X150211209Y-77576557D01*
X150336667Y-77397385D01*
X150396068Y-77270000D01*
X149750000Y-77270000D01*
X148750000Y-77270000D01*
X148103931Y-77270000D01*
X147633894Y-77270000D01*
X147685232Y-77173954D01*
X147745300Y-76975934D01*
X147765583Y-76770000D01*
X147765583Y-76769999D01*
X150734417Y-76769999D01*
X150754699Y-76975932D01*
X150754700Y-76975934D01*
X150814768Y-77173954D01*
X150912315Y-77356450D01*
X150963608Y-77418952D01*
X151043589Y-77516410D01*
X151116880Y-77576557D01*
X151203550Y-77647685D01*
X151386046Y-77745232D01*
X151584066Y-77805300D01*
X151790000Y-77825583D01*
X151995934Y-77805300D01*
X152193954Y-77745232D01*
X152376450Y-77647685D01*
X152536410Y-77516410D01*
X152667685Y-77356450D01*
X152765232Y-77173954D01*
X152825300Y-76975934D01*
X152845583Y-76770000D01*
X152825300Y-76564066D01*
X152765232Y-76366046D01*
X152667685Y-76183550D01*
X152602047Y-76103570D01*
X152536410Y-76023589D01*
X152425036Y-75932188D01*
X152376450Y-75892315D01*
X152193954Y-75794768D01*
X152090876Y-75763500D01*
X151995932Y-75734699D01*
X151790000Y-75714417D01*
X151584067Y-75734699D01*
X151386043Y-75794769D01*
X151203551Y-75892314D01*
X151043589Y-76023589D01*
X150912314Y-76183551D01*
X150814769Y-76366043D01*
X150754699Y-76564067D01*
X150734417Y-76769999D01*
X147765583Y-76769999D01*
X147745300Y-76564066D01*
X147685232Y-76366046D01*
X147633894Y-76270000D01*
X148103931Y-76270000D01*
X148750000Y-76270000D01*
X148750000Y-75623932D01*
X148749999Y-75623931D01*
X149750000Y-75623931D01*
X149750000Y-76270000D01*
X150396069Y-76270000D01*
X150396068Y-76269999D01*
X150336667Y-76142615D01*
X150211209Y-75963442D01*
X150056557Y-75808790D01*
X149877385Y-75683332D01*
X149750000Y-75623931D01*
X148749999Y-75623931D01*
X148622615Y-75683332D01*
X148443442Y-75808790D01*
X148288790Y-75963442D01*
X148163332Y-76142615D01*
X148103931Y-76269999D01*
X148103931Y-76270000D01*
X147633894Y-76270000D01*
X147587685Y-76183550D01*
X147522047Y-76103570D01*
X147456410Y-76023589D01*
X147345036Y-75932188D01*
X147296450Y-75892315D01*
X147113954Y-75794768D01*
X147010876Y-75763500D01*
X146915932Y-75734699D01*
X146710000Y-75714417D01*
X146504067Y-75734699D01*
X146306043Y-75794769D01*
X146123551Y-75892314D01*
X145958164Y-76028042D01*
X145894678Y-76055256D01*
X145826483Y-76044282D01*
X145774738Y-75998528D01*
X145755500Y-75932188D01*
X145755500Y-75696188D01*
X145764939Y-75648735D01*
X145791819Y-75608507D01*
X145976186Y-75424140D01*
X146168714Y-75231611D01*
X146212714Y-75203242D01*
X146264503Y-75195560D01*
X146293688Y-75203893D01*
X146294358Y-75201686D01*
X146306043Y-75205230D01*
X146306046Y-75205232D01*
X146504066Y-75265300D01*
X146710000Y-75285583D01*
X146915934Y-75265300D01*
X147113954Y-75205232D01*
X147296450Y-75107685D01*
X147456410Y-74976410D01*
X147587685Y-74816450D01*
X147685232Y-74633954D01*
X147745300Y-74435934D01*
X147765583Y-74230000D01*
X147765583Y-74229999D01*
X148194417Y-74229999D01*
X148214699Y-74435932D01*
X148274769Y-74633956D01*
X148296954Y-74675460D01*
X148372315Y-74816450D01*
X148405910Y-74857386D01*
X148503589Y-74976410D01*
X148572375Y-75032860D01*
X148663550Y-75107685D01*
X148846046Y-75205232D01*
X149044066Y-75265300D01*
X149250000Y-75285583D01*
X149455934Y-75265300D01*
X149653954Y-75205232D01*
X149836450Y-75107685D01*
X149996410Y-74976410D01*
X150127685Y-74816450D01*
X150225232Y-74633954D01*
X150285300Y-74435934D01*
X150305583Y-74230000D01*
X150305583Y-74229999D01*
X150734417Y-74229999D01*
X150754699Y-74435932D01*
X150814769Y-74633956D01*
X150836954Y-74675460D01*
X150912315Y-74816450D01*
X150945910Y-74857386D01*
X151043589Y-74976410D01*
X151112375Y-75032860D01*
X151203550Y-75107685D01*
X151386046Y-75205232D01*
X151584066Y-75265300D01*
X151790000Y-75285583D01*
X151995934Y-75265300D01*
X152193954Y-75205232D01*
X152376450Y-75107685D01*
X152536410Y-74976410D01*
X152667685Y-74816450D01*
X152713894Y-74730000D01*
X153183931Y-74730000D01*
X153243332Y-74857385D01*
X153368790Y-75036557D01*
X153523442Y-75191209D01*
X153702614Y-75316667D01*
X153829999Y-75376068D01*
X153830000Y-75376069D01*
X153830000Y-74730000D01*
X154830000Y-74730000D01*
X154830000Y-75376068D01*
X154957385Y-75316667D01*
X155136557Y-75191209D01*
X155291209Y-75036557D01*
X155416667Y-74857385D01*
X155476068Y-74730000D01*
X154830000Y-74730000D01*
X153830000Y-74730000D01*
X153183931Y-74730000D01*
X152713894Y-74730000D01*
X152765232Y-74633954D01*
X152825300Y-74435934D01*
X152845583Y-74230000D01*
X152845583Y-74229999D01*
X155814417Y-74229999D01*
X155834699Y-74435932D01*
X155894769Y-74633956D01*
X155916954Y-74675460D01*
X155992315Y-74816450D01*
X156025910Y-74857386D01*
X156123589Y-74976410D01*
X156192375Y-75032860D01*
X156283550Y-75107685D01*
X156466046Y-75205232D01*
X156664066Y-75265300D01*
X156870000Y-75285583D01*
X157075934Y-75265300D01*
X157273954Y-75205232D01*
X157456450Y-75107685D01*
X157616410Y-74976410D01*
X157747685Y-74816450D01*
X157793894Y-74730000D01*
X158263931Y-74730000D01*
X158323332Y-74857385D01*
X158448790Y-75036557D01*
X158603442Y-75191209D01*
X158782614Y-75316667D01*
X158909999Y-75376068D01*
X158910000Y-75376068D01*
X158910000Y-74730000D01*
X158263931Y-74730000D01*
X157793894Y-74730000D01*
X157845232Y-74633954D01*
X157905300Y-74435934D01*
X157925583Y-74230000D01*
X157905300Y-74024066D01*
X157845232Y-73826046D01*
X157793894Y-73730000D01*
X158263931Y-73730000D01*
X158910000Y-73730000D01*
X158910000Y-73083932D01*
X158909999Y-73083931D01*
X159910000Y-73083931D01*
X159910000Y-73730000D01*
X160556069Y-73730000D01*
X160556068Y-73729999D01*
X160496667Y-73602615D01*
X160371209Y-73423442D01*
X160216557Y-73268790D01*
X160037385Y-73143332D01*
X159910000Y-73083931D01*
X158909999Y-73083931D01*
X158782615Y-73143332D01*
X158603442Y-73268790D01*
X158448790Y-73423442D01*
X158323332Y-73602615D01*
X158263931Y-73729999D01*
X158263931Y-73730000D01*
X157793894Y-73730000D01*
X157747685Y-73643550D01*
X157682047Y-73563570D01*
X157616410Y-73483589D01*
X157463517Y-73358115D01*
X157456450Y-73352315D01*
X157273954Y-73254768D01*
X157174943Y-73224733D01*
X157075932Y-73194699D01*
X156870000Y-73174417D01*
X156664067Y-73194699D01*
X156466043Y-73254769D01*
X156283551Y-73352314D01*
X156123589Y-73483589D01*
X155992314Y-73643551D01*
X155894769Y-73826043D01*
X155834699Y-74024067D01*
X155814417Y-74229999D01*
X152845583Y-74229999D01*
X152825300Y-74024066D01*
X152765232Y-73826046D01*
X152713894Y-73730000D01*
X153183931Y-73730000D01*
X153830000Y-73730000D01*
X153830000Y-73083932D01*
X153829999Y-73083931D01*
X154830000Y-73083931D01*
X154830000Y-73730000D01*
X155476069Y-73730000D01*
X155476068Y-73729999D01*
X155416667Y-73602615D01*
X155291209Y-73423442D01*
X155136557Y-73268790D01*
X154957385Y-73143332D01*
X154830000Y-73083931D01*
X153829999Y-73083931D01*
X153702615Y-73143332D01*
X153523442Y-73268790D01*
X153368790Y-73423442D01*
X153243332Y-73602615D01*
X153183931Y-73729999D01*
X153183931Y-73730000D01*
X152713894Y-73730000D01*
X152667685Y-73643550D01*
X152602047Y-73563570D01*
X152536410Y-73483589D01*
X152383517Y-73358115D01*
X152376450Y-73352315D01*
X152193954Y-73254768D01*
X152094943Y-73224733D01*
X151995932Y-73194699D01*
X151790000Y-73174417D01*
X151584067Y-73194699D01*
X151386043Y-73254769D01*
X151203551Y-73352314D01*
X151043589Y-73483589D01*
X150912314Y-73643551D01*
X150814769Y-73826043D01*
X150754699Y-74024067D01*
X150734417Y-74229999D01*
X150305583Y-74229999D01*
X150285300Y-74024066D01*
X150225232Y-73826046D01*
X150127685Y-73643550D01*
X150062047Y-73563570D01*
X149996410Y-73483589D01*
X149843517Y-73358115D01*
X149836450Y-73352315D01*
X149653954Y-73254768D01*
X149554943Y-73224733D01*
X149455932Y-73194699D01*
X149250000Y-73174417D01*
X149044067Y-73194699D01*
X148846043Y-73254769D01*
X148663551Y-73352314D01*
X148503589Y-73483589D01*
X148372314Y-73643551D01*
X148274769Y-73826043D01*
X148214699Y-74024067D01*
X148194417Y-74229999D01*
X147765583Y-74229999D01*
X147745300Y-74024066D01*
X147685232Y-73826046D01*
X147587685Y-73643550D01*
X147522047Y-73563570D01*
X147456410Y-73483589D01*
X147303517Y-73358115D01*
X147296450Y-73352315D01*
X147113954Y-73254768D01*
X147014943Y-73224733D01*
X146915932Y-73194699D01*
X146710000Y-73174417D01*
X146504067Y-73194699D01*
X146306043Y-73254769D01*
X146123551Y-73352314D01*
X145963589Y-73483589D01*
X145832314Y-73643551D01*
X145734769Y-73826043D01*
X145674699Y-74024067D01*
X145654417Y-74229999D01*
X145674699Y-74435932D01*
X145695165Y-74503399D01*
X145734768Y-74633954D01*
X145734769Y-74633956D01*
X145738314Y-74645641D01*
X145736105Y-74646310D01*
X145744439Y-74675491D01*
X145736758Y-74727282D01*
X145708386Y-74771285D01*
X145213714Y-75265958D01*
X145205741Y-75273264D01*
X145176806Y-75297544D01*
X145157914Y-75330264D01*
X145152106Y-75339380D01*
X145129831Y-75371193D01*
X145119597Y-75395899D01*
X145112852Y-75434148D01*
X145110512Y-75444704D01*
X145100735Y-75481192D01*
X145104028Y-75518820D01*
X145104500Y-75529628D01*
X145104500Y-75915775D01*
X145085262Y-75982115D01*
X145033517Y-76027870D01*
X144965322Y-76038843D01*
X144901836Y-76011629D01*
X144816953Y-75941968D01*
X144756450Y-75892315D01*
X144573954Y-75794768D01*
X144470876Y-75763500D01*
X144375932Y-75734699D01*
X144170000Y-75714417D01*
X143964067Y-75734699D01*
X143766043Y-75794769D01*
X143583551Y-75892314D01*
X143423589Y-76023589D01*
X143292314Y-76183551D01*
X143194769Y-76366043D01*
X143134699Y-76564067D01*
X143114417Y-76769999D01*
X143134699Y-76975932D01*
X143134700Y-76975934D01*
X143194768Y-77173954D01*
X143292315Y-77356450D01*
X143343608Y-77418952D01*
X143423589Y-77516410D01*
X143534964Y-77607812D01*
X143583550Y-77647685D01*
X143719647Y-77720431D01*
X143776818Y-77750990D01*
X143775730Y-77753024D01*
X143802260Y-77767769D01*
X143833447Y-77809821D01*
X143844500Y-77860996D01*
X143844500Y-78773812D01*
X143835061Y-78821265D01*
X143808181Y-78861493D01*
X143303714Y-79365958D01*
X143295741Y-79373264D01*
X143266806Y-79397544D01*
X143247914Y-79430264D01*
X143242106Y-79439380D01*
X143219831Y-79471193D01*
X143209597Y-79495899D01*
X143202852Y-79534148D01*
X143200512Y-79544704D01*
X143190735Y-79581192D01*
X143194028Y-79618820D01*
X143194500Y-79629628D01*
X143194500Y-81133758D01*
X143177479Y-81196460D01*
X143131089Y-81241948D01*
X143068065Y-81257734D01*
X143005710Y-81239485D01*
X142961142Y-81192211D01*
X142947232Y-81166188D01*
X142885910Y-81051462D01*
X142760883Y-80899117D01*
X142608538Y-80774090D01*
X142557772Y-80746955D01*
X142434726Y-80681185D01*
X142246133Y-80623976D01*
X142050000Y-80604659D01*
X141853866Y-80623976D01*
X141665273Y-80681185D01*
X141530016Y-80753482D01*
X141461834Y-80767742D01*
X141396722Y-80742992D01*
X141355227Y-80687042D01*
X141350444Y-80617550D01*
X141383881Y-80556444D01*
X141846290Y-80094034D01*
X141854258Y-80086734D01*
X141883192Y-80062457D01*
X141883192Y-80062456D01*
X141883194Y-80062455D01*
X141902091Y-80029722D01*
X141907887Y-80020625D01*
X141929554Y-79989684D01*
X141929554Y-79989682D01*
X141930173Y-79988799D01*
X141940399Y-79964112D01*
X141940586Y-79963047D01*
X141940588Y-79963045D01*
X141947149Y-79925830D01*
X141949478Y-79915324D01*
X141959264Y-79878807D01*
X141955971Y-79841180D01*
X141955500Y-79830373D01*
X141955500Y-77860996D01*
X141966553Y-77809821D01*
X141997740Y-77767769D01*
X142024269Y-77753024D01*
X142023182Y-77750990D01*
X142078306Y-77721525D01*
X142216450Y-77647685D01*
X142376410Y-77516410D01*
X142507685Y-77356450D01*
X142605232Y-77173954D01*
X142665300Y-76975934D01*
X142685583Y-76770000D01*
X142665300Y-76564066D01*
X142605232Y-76366046D01*
X142507685Y-76183550D01*
X142442047Y-76103570D01*
X142376410Y-76023589D01*
X142265036Y-75932188D01*
X142216450Y-75892315D01*
X142033954Y-75794768D01*
X141930876Y-75763500D01*
X141835932Y-75734699D01*
X141630000Y-75714417D01*
X141424067Y-75734699D01*
X141226043Y-75794769D01*
X141043551Y-75892314D01*
X140883589Y-76023589D01*
X140752314Y-76183551D01*
X140654769Y-76366043D01*
X140594699Y-76564067D01*
X140574417Y-76769999D01*
X140594699Y-76975932D01*
X140594700Y-76975934D01*
X140654768Y-77173954D01*
X140752315Y-77356450D01*
X140803608Y-77418952D01*
X140883589Y-77516410D01*
X140994964Y-77607812D01*
X141043550Y-77647685D01*
X141179647Y-77720431D01*
X141236818Y-77750990D01*
X141235730Y-77753024D01*
X141262260Y-77767769D01*
X141293447Y-77809821D01*
X141304500Y-77860996D01*
X141304500Y-78356173D01*
X141289214Y-78415816D01*
X141247125Y-78460754D01*
X141188610Y-78479908D01*
X141128095Y-78468555D01*
X141080501Y-78429495D01*
X141057561Y-78372358D01*
X141056014Y-78360609D01*
X141055044Y-78353238D01*
X140994536Y-78207159D01*
X140992234Y-78204159D01*
X140898282Y-78081717D01*
X140772840Y-77985463D01*
X140626762Y-77924956D01*
X140470000Y-77904317D01*
X140331475Y-77922554D01*
X140313238Y-77924956D01*
X140211951Y-77966910D01*
X140152346Y-77975752D01*
X140095609Y-77955451D01*
X140055142Y-77910802D01*
X140040500Y-77852349D01*
X140040500Y-77251284D01*
X140055140Y-77192834D01*
X140065232Y-77173954D01*
X140125300Y-76975934D01*
X140145583Y-76770000D01*
X140125300Y-76564066D01*
X140065232Y-76366046D01*
X139967685Y-76183550D01*
X139902047Y-76103570D01*
X139836410Y-76023589D01*
X139725036Y-75932188D01*
X139676450Y-75892315D01*
X139493954Y-75794768D01*
X139390876Y-75763500D01*
X139295932Y-75734699D01*
X139090000Y-75714417D01*
X138884067Y-75734699D01*
X138686043Y-75794769D01*
X138503551Y-75892314D01*
X138343589Y-76023589D01*
X138212314Y-76183551D01*
X138114769Y-76366043D01*
X138054699Y-76564067D01*
X138034417Y-76769999D01*
X138054699Y-76975932D01*
X138054700Y-76975934D01*
X138114768Y-77173954D01*
X138124859Y-77192834D01*
X138139500Y-77251284D01*
X138139500Y-82344928D01*
X138130061Y-82392381D01*
X138103181Y-82432609D01*
X137412609Y-83123181D01*
X137372381Y-83150061D01*
X137324928Y-83159500D01*
X136601634Y-83159500D01*
X136565639Y-83154161D01*
X136466130Y-83123975D01*
X136270000Y-83104659D01*
X136073866Y-83123976D01*
X135885273Y-83181185D01*
X135711463Y-83274089D01*
X135559117Y-83399117D01*
X135434089Y-83551463D01*
X135341185Y-83725273D01*
X135338160Y-83735248D01*
X135300031Y-83793543D01*
X135236489Y-83822083D01*
X135167586Y-83811862D01*
X135115065Y-83766105D01*
X135095500Y-83699252D01*
X135095500Y-82735005D01*
X135852099Y-82735005D01*
X135940195Y-82769134D01*
X136158806Y-82810000D01*
X136381194Y-82810000D01*
X136599804Y-82769134D01*
X136687898Y-82735005D01*
X136687899Y-82735005D01*
X136270001Y-82317107D01*
X136270000Y-82317107D01*
X135852099Y-82735005D01*
X135095500Y-82735005D01*
X135095500Y-82128754D01*
X135104939Y-82081301D01*
X135131819Y-82041073D01*
X135562893Y-81610001D01*
X135562893Y-81610000D01*
X136977107Y-81610000D01*
X137397900Y-82030794D01*
X137397901Y-82030794D01*
X137454621Y-81831446D01*
X137475140Y-81610000D01*
X137454621Y-81388553D01*
X137397901Y-81189204D01*
X137397900Y-81189204D01*
X136977107Y-81610000D01*
X135562893Y-81610000D01*
X135131819Y-81178926D01*
X135104939Y-81138698D01*
X135095500Y-81091245D01*
X135095500Y-80484993D01*
X135852100Y-80484993D01*
X136270000Y-80902893D01*
X136270001Y-80902893D01*
X136687899Y-80484993D01*
X136599801Y-80450864D01*
X136381194Y-80410000D01*
X136158806Y-80410000D01*
X135940196Y-80450865D01*
X135852100Y-80484993D01*
X135095500Y-80484993D01*
X135095500Y-79878299D01*
X135108288Y-79823455D01*
X135144014Y-79779923D01*
X135153771Y-79772436D01*
X135198282Y-79738282D01*
X135294536Y-79612841D01*
X135355044Y-79466762D01*
X135375682Y-79310000D01*
X135355044Y-79153238D01*
X135294536Y-79007159D01*
X135285890Y-78995891D01*
X135198282Y-78881717D01*
X135072840Y-78785463D01*
X134926762Y-78724956D01*
X134770000Y-78704317D01*
X134613237Y-78724956D01*
X134467159Y-78785463D01*
X134341717Y-78881717D01*
X134245463Y-79007159D01*
X134184956Y-79153237D01*
X134169916Y-79267474D01*
X134142830Y-79329953D01*
X134086835Y-79368707D01*
X134018819Y-79372049D01*
X133959296Y-79338969D01*
X133014043Y-78393717D01*
X133006734Y-78385741D01*
X132982455Y-78356806D01*
X132982454Y-78356805D01*
X132949736Y-78337915D01*
X132940627Y-78332112D01*
X132909684Y-78310446D01*
X132908803Y-78309829D01*
X132884107Y-78299599D01*
X132845852Y-78292853D01*
X132835296Y-78290512D01*
X132798807Y-78280735D01*
X132761180Y-78284028D01*
X132750372Y-78284500D01*
X130956188Y-78284500D01*
X130908735Y-78275061D01*
X130868507Y-78248181D01*
X130561819Y-77941493D01*
X130534939Y-77901265D01*
X130525500Y-77853812D01*
X130525500Y-77616018D01*
X130544738Y-77549678D01*
X130596483Y-77503923D01*
X130664679Y-77492950D01*
X130728164Y-77520164D01*
X130744674Y-77533713D01*
X130883550Y-77647685D01*
X131066046Y-77745232D01*
X131264066Y-77805300D01*
X131470000Y-77825583D01*
X131675934Y-77805300D01*
X131873954Y-77745232D01*
X132056450Y-77647685D01*
X132216410Y-77516410D01*
X132347685Y-77356450D01*
X132445232Y-77173954D01*
X132505300Y-76975934D01*
X132525583Y-76770000D01*
X132525583Y-76769999D01*
X132954417Y-76769999D01*
X132974699Y-76975932D01*
X132974700Y-76975934D01*
X133034768Y-77173954D01*
X133132315Y-77356450D01*
X133183608Y-77418952D01*
X133263589Y-77516410D01*
X133336880Y-77576557D01*
X133423550Y-77647685D01*
X133606046Y-77745232D01*
X133804066Y-77805300D01*
X134010000Y-77825583D01*
X134215934Y-77805300D01*
X134413954Y-77745232D01*
X134596450Y-77647685D01*
X134756410Y-77516410D01*
X134887685Y-77356450D01*
X134985232Y-77173954D01*
X135045300Y-76975934D01*
X135065583Y-76770000D01*
X135065583Y-76769999D01*
X135494417Y-76769999D01*
X135514699Y-76975932D01*
X135514700Y-76975934D01*
X135574768Y-77173954D01*
X135672315Y-77356450D01*
X135723608Y-77418952D01*
X135803589Y-77516410D01*
X135876880Y-77576557D01*
X135963550Y-77647685D01*
X136146046Y-77745232D01*
X136344066Y-77805300D01*
X136550000Y-77825583D01*
X136755934Y-77805300D01*
X136953954Y-77745232D01*
X137136450Y-77647685D01*
X137296410Y-77516410D01*
X137427685Y-77356450D01*
X137525232Y-77173954D01*
X137585300Y-76975934D01*
X137605583Y-76770000D01*
X137585300Y-76564066D01*
X137525232Y-76366046D01*
X137427685Y-76183550D01*
X137362047Y-76103570D01*
X137296410Y-76023589D01*
X137185036Y-75932188D01*
X137136450Y-75892315D01*
X136953954Y-75794768D01*
X136850876Y-75763500D01*
X136755932Y-75734699D01*
X136550000Y-75714417D01*
X136344067Y-75734699D01*
X136146043Y-75794769D01*
X135963551Y-75892314D01*
X135803589Y-76023589D01*
X135672314Y-76183551D01*
X135574769Y-76366043D01*
X135514699Y-76564067D01*
X135494417Y-76769999D01*
X135065583Y-76769999D01*
X135045300Y-76564066D01*
X134985232Y-76366046D01*
X134887685Y-76183550D01*
X134822047Y-76103570D01*
X134756410Y-76023589D01*
X134645036Y-75932188D01*
X134596450Y-75892315D01*
X134413954Y-75794768D01*
X134310876Y-75763500D01*
X134215932Y-75734699D01*
X134010000Y-75714417D01*
X133804067Y-75734699D01*
X133606043Y-75794769D01*
X133423551Y-75892314D01*
X133263589Y-76023589D01*
X133132314Y-76183551D01*
X133034769Y-76366043D01*
X132974699Y-76564067D01*
X132954417Y-76769999D01*
X132525583Y-76769999D01*
X132505300Y-76564066D01*
X132445232Y-76366046D01*
X132347685Y-76183550D01*
X132282047Y-76103570D01*
X132216410Y-76023589D01*
X132105036Y-75932188D01*
X132056450Y-75892315D01*
X131873954Y-75794768D01*
X131770876Y-75763500D01*
X131675932Y-75734699D01*
X131470000Y-75714417D01*
X131264067Y-75734699D01*
X131066043Y-75794769D01*
X130883551Y-75892314D01*
X130728164Y-76019836D01*
X130664679Y-76047050D01*
X130596483Y-76036077D01*
X130544738Y-75990322D01*
X130525500Y-75923982D01*
X130525500Y-75519619D01*
X130525972Y-75508812D01*
X130529263Y-75471191D01*
X130519486Y-75434704D01*
X130517144Y-75424140D01*
X130510588Y-75386955D01*
X130510587Y-75386954D01*
X130510400Y-75385891D01*
X130500173Y-75361201D01*
X130499554Y-75360317D01*
X130499554Y-75360316D01*
X130477878Y-75329360D01*
X130472084Y-75320264D01*
X130453194Y-75287545D01*
X130424261Y-75263267D01*
X130416286Y-75255959D01*
X129931613Y-74771286D01*
X129903235Y-74727267D01*
X129895562Y-74675460D01*
X129903896Y-74646312D01*
X129901686Y-74645642D01*
X129905230Y-74633956D01*
X129905232Y-74633954D01*
X129965300Y-74435934D01*
X129985583Y-74230000D01*
X129985583Y-74229999D01*
X130414417Y-74229999D01*
X130434699Y-74435932D01*
X130494769Y-74633956D01*
X130516954Y-74675460D01*
X130592315Y-74816450D01*
X130625910Y-74857386D01*
X130723589Y-74976410D01*
X130792375Y-75032860D01*
X130883550Y-75107685D01*
X131066046Y-75205232D01*
X131264066Y-75265300D01*
X131470000Y-75285583D01*
X131675934Y-75265300D01*
X131873954Y-75205232D01*
X132056450Y-75107685D01*
X132216410Y-74976410D01*
X132347685Y-74816450D01*
X132393894Y-74730000D01*
X132863931Y-74730000D01*
X132923332Y-74857385D01*
X133048790Y-75036557D01*
X133203442Y-75191209D01*
X133382614Y-75316667D01*
X133510000Y-75376069D01*
X133510000Y-74730000D01*
X134510000Y-74730000D01*
X134510000Y-75376068D01*
X134637385Y-75316667D01*
X134816557Y-75191209D01*
X134971209Y-75036557D01*
X135096667Y-74857385D01*
X135156068Y-74730000D01*
X134510000Y-74730000D01*
X133510000Y-74730000D01*
X132863931Y-74730000D01*
X132393894Y-74730000D01*
X132445232Y-74633954D01*
X132505300Y-74435934D01*
X132525583Y-74230000D01*
X132525583Y-74229999D01*
X135494417Y-74229999D01*
X135514699Y-74435932D01*
X135574769Y-74633956D01*
X135596954Y-74675460D01*
X135672315Y-74816450D01*
X135705910Y-74857386D01*
X135803589Y-74976410D01*
X135872375Y-75032860D01*
X135963550Y-75107685D01*
X136146046Y-75205232D01*
X136344066Y-75265300D01*
X136550000Y-75285583D01*
X136755934Y-75265300D01*
X136953954Y-75205232D01*
X137136450Y-75107685D01*
X137296410Y-74976410D01*
X137427685Y-74816450D01*
X137525232Y-74633954D01*
X137585300Y-74435934D01*
X137605583Y-74230000D01*
X137605583Y-74229999D01*
X138034417Y-74229999D01*
X138054699Y-74435932D01*
X138114769Y-74633956D01*
X138136954Y-74675460D01*
X138212315Y-74816450D01*
X138245910Y-74857386D01*
X138343589Y-74976410D01*
X138412375Y-75032860D01*
X138503550Y-75107685D01*
X138686046Y-75205232D01*
X138884066Y-75265300D01*
X139090000Y-75285583D01*
X139295934Y-75265300D01*
X139493954Y-75205232D01*
X139676450Y-75107685D01*
X139836410Y-74976410D01*
X139967685Y-74816450D01*
X140013894Y-74730000D01*
X140483931Y-74730000D01*
X140543332Y-74857385D01*
X140668790Y-75036557D01*
X140823442Y-75191209D01*
X141002614Y-75316667D01*
X141129999Y-75376068D01*
X141130000Y-75376068D01*
X141130000Y-74730000D01*
X142130000Y-74730000D01*
X142130000Y-75376068D01*
X142257385Y-75316667D01*
X142436557Y-75191209D01*
X142591209Y-75036557D01*
X142716667Y-74857385D01*
X142776068Y-74730000D01*
X142130000Y-74730000D01*
X141130000Y-74730000D01*
X140483931Y-74730000D01*
X140013894Y-74730000D01*
X140065232Y-74633954D01*
X140125300Y-74435934D01*
X140145583Y-74230000D01*
X140145583Y-74229999D01*
X143114417Y-74229999D01*
X143134699Y-74435932D01*
X143194769Y-74633956D01*
X143216954Y-74675460D01*
X143292315Y-74816450D01*
X143325910Y-74857386D01*
X143423589Y-74976410D01*
X143492375Y-75032860D01*
X143583550Y-75107685D01*
X143766046Y-75205232D01*
X143964066Y-75265300D01*
X144170000Y-75285583D01*
X144375934Y-75265300D01*
X144573954Y-75205232D01*
X144756450Y-75107685D01*
X144916410Y-74976410D01*
X145047685Y-74816450D01*
X145145232Y-74633954D01*
X145205300Y-74435934D01*
X145225583Y-74230000D01*
X145205300Y-74024066D01*
X145145232Y-73826046D01*
X145047685Y-73643550D01*
X144982047Y-73563570D01*
X144916410Y-73483589D01*
X144763517Y-73358115D01*
X144756450Y-73352315D01*
X144573954Y-73254768D01*
X144474943Y-73224733D01*
X144375932Y-73194699D01*
X144170000Y-73174417D01*
X143964067Y-73194699D01*
X143766043Y-73254769D01*
X143583551Y-73352314D01*
X143423589Y-73483589D01*
X143292314Y-73643551D01*
X143194769Y-73826043D01*
X143134699Y-74024067D01*
X143114417Y-74229999D01*
X140145583Y-74229999D01*
X140125300Y-74024066D01*
X140065232Y-73826046D01*
X140013894Y-73730000D01*
X140483931Y-73730000D01*
X141130000Y-73730000D01*
X141130000Y-73083932D01*
X141129999Y-73083931D01*
X142130000Y-73083931D01*
X142130000Y-73730000D01*
X142776069Y-73730000D01*
X142776068Y-73729999D01*
X142716667Y-73602615D01*
X142591209Y-73423442D01*
X142436557Y-73268790D01*
X142257385Y-73143332D01*
X142130000Y-73083931D01*
X141129999Y-73083931D01*
X141002615Y-73143332D01*
X140823442Y-73268790D01*
X140668790Y-73423442D01*
X140543332Y-73602615D01*
X140483931Y-73729999D01*
X140483931Y-73730000D01*
X140013894Y-73730000D01*
X139967685Y-73643550D01*
X139902047Y-73563570D01*
X139836410Y-73483589D01*
X139683517Y-73358115D01*
X139676450Y-73352315D01*
X139493954Y-73254768D01*
X139394943Y-73224733D01*
X139295932Y-73194699D01*
X139090000Y-73174417D01*
X138884067Y-73194699D01*
X138686043Y-73254769D01*
X138503551Y-73352314D01*
X138343589Y-73483589D01*
X138212314Y-73643551D01*
X138114769Y-73826043D01*
X138054699Y-74024067D01*
X138034417Y-74229999D01*
X137605583Y-74229999D01*
X137585300Y-74024066D01*
X137525232Y-73826046D01*
X137427685Y-73643550D01*
X137362047Y-73563570D01*
X137296410Y-73483589D01*
X137143517Y-73358115D01*
X137136450Y-73352315D01*
X136953954Y-73254768D01*
X136854943Y-73224733D01*
X136755932Y-73194699D01*
X136550000Y-73174417D01*
X136344067Y-73194699D01*
X136146043Y-73254769D01*
X135963551Y-73352314D01*
X135803589Y-73483589D01*
X135672314Y-73643551D01*
X135574769Y-73826043D01*
X135514699Y-74024067D01*
X135494417Y-74229999D01*
X132525583Y-74229999D01*
X132505300Y-74024066D01*
X132445232Y-73826046D01*
X132393894Y-73730000D01*
X132863931Y-73730000D01*
X133510000Y-73730000D01*
X133510000Y-73083932D01*
X133509999Y-73083931D01*
X134510000Y-73083931D01*
X134510000Y-73730000D01*
X135156069Y-73730000D01*
X135156068Y-73729999D01*
X135096667Y-73602615D01*
X134971209Y-73423442D01*
X134816557Y-73268790D01*
X134637385Y-73143332D01*
X134510000Y-73083931D01*
X133509999Y-73083931D01*
X133382615Y-73143332D01*
X133203442Y-73268790D01*
X133048790Y-73423442D01*
X132923332Y-73602615D01*
X132863931Y-73729999D01*
X132863931Y-73730000D01*
X132393894Y-73730000D01*
X132347685Y-73643550D01*
X132282047Y-73563570D01*
X132216410Y-73483589D01*
X132063517Y-73358115D01*
X132056450Y-73352315D01*
X131873954Y-73254768D01*
X131774943Y-73224733D01*
X131675932Y-73194699D01*
X131470000Y-73174417D01*
X131264067Y-73194699D01*
X131066043Y-73254769D01*
X130883551Y-73352314D01*
X130723589Y-73483589D01*
X130592314Y-73643551D01*
X130494769Y-73826043D01*
X130434699Y-74024067D01*
X130414417Y-74229999D01*
X129985583Y-74229999D01*
X129965300Y-74024066D01*
X129905232Y-73826046D01*
X129807685Y-73643550D01*
X129742047Y-73563570D01*
X129676410Y-73483589D01*
X129523517Y-73358115D01*
X129516450Y-73352315D01*
X129333954Y-73254768D01*
X129234943Y-73224733D01*
X129135932Y-73194699D01*
X128930000Y-73174417D01*
X128724067Y-73194699D01*
X128526043Y-73254769D01*
X128343551Y-73352314D01*
X128183589Y-73483589D01*
X128052314Y-73643551D01*
X127954769Y-73826043D01*
X127894699Y-74024067D01*
X127874417Y-74229999D01*
X127894699Y-74435932D01*
X127954769Y-74633956D01*
X127976954Y-74675460D01*
X128052315Y-74816450D01*
X128085910Y-74857386D01*
X128183589Y-74976410D01*
X128252375Y-75032860D01*
X128343550Y-75107685D01*
X128526046Y-75205232D01*
X128724066Y-75265300D01*
X128930000Y-75285583D01*
X129135934Y-75265300D01*
X129333954Y-75205232D01*
X129333956Y-75205230D01*
X129345642Y-75201686D01*
X129346312Y-75203896D01*
X129375460Y-75195562D01*
X129427267Y-75203235D01*
X129471286Y-75231613D01*
X129838181Y-75598508D01*
X129865061Y-75638736D01*
X129874500Y-75686189D01*
X129874500Y-75923982D01*
X129855262Y-75990322D01*
X129803517Y-76036077D01*
X129735321Y-76047050D01*
X129671836Y-76019836D01*
X129576954Y-75941969D01*
X129516450Y-75892315D01*
X129333954Y-75794768D01*
X129230876Y-75763500D01*
X129135932Y-75734699D01*
X128930000Y-75714417D01*
X128724067Y-75734699D01*
X128526043Y-75794769D01*
X128343551Y-75892314D01*
X128188164Y-76019836D01*
X128124679Y-76047050D01*
X128056483Y-76036077D01*
X128004738Y-75990322D01*
X127985500Y-75923982D01*
X127985500Y-75519619D01*
X127985972Y-75508812D01*
X127989263Y-75471191D01*
X127979486Y-75434704D01*
X127977144Y-75424140D01*
X127970588Y-75386955D01*
X127970587Y-75386954D01*
X127970400Y-75385891D01*
X127960173Y-75361201D01*
X127959554Y-75360317D01*
X127959554Y-75360316D01*
X127937878Y-75329360D01*
X127932084Y-75320264D01*
X127913194Y-75287545D01*
X127884261Y-75263267D01*
X127876286Y-75255959D01*
X127391613Y-74771286D01*
X127363235Y-74727267D01*
X127355562Y-74675460D01*
X127363896Y-74646312D01*
X127361686Y-74645642D01*
X127365230Y-74633956D01*
X127365232Y-74633954D01*
X127425300Y-74435934D01*
X127445583Y-74230000D01*
X127425300Y-74024066D01*
X127365232Y-73826046D01*
X127267685Y-73643550D01*
X127202047Y-73563569D01*
X127136410Y-73483589D01*
X126983517Y-73358115D01*
X126976450Y-73352315D01*
X126793954Y-73254768D01*
X126694943Y-73224733D01*
X126595932Y-73194699D01*
X126390000Y-73174417D01*
X126184067Y-73194699D01*
X125986043Y-73254769D01*
X125803551Y-73352314D01*
X125643589Y-73483589D01*
X125512314Y-73643551D01*
X125414769Y-73826043D01*
X125354699Y-74024067D01*
X125334417Y-74230000D01*
X125354699Y-74435932D01*
X125414769Y-74633956D01*
X125436954Y-74675460D01*
X125512315Y-74816450D01*
X125545910Y-74857386D01*
X125643589Y-74976410D01*
X125712375Y-75032860D01*
X125803550Y-75107685D01*
X125986046Y-75205232D01*
X126184066Y-75265300D01*
X126390000Y-75285583D01*
X126595934Y-75265300D01*
X126793954Y-75205232D01*
X126793956Y-75205230D01*
X126805642Y-75201686D01*
X126806312Y-75203896D01*
X126835460Y-75195562D01*
X126887267Y-75203235D01*
X126931286Y-75231613D01*
X127298181Y-75598508D01*
X127325061Y-75638736D01*
X127334500Y-75686189D01*
X127334500Y-75923982D01*
X127315262Y-75990322D01*
X127263517Y-76036077D01*
X127195321Y-76047050D01*
X127131836Y-76019836D01*
X127036954Y-75941969D01*
X126976450Y-75892315D01*
X126793954Y-75794768D01*
X126690876Y-75763500D01*
X126595932Y-75734699D01*
X126390000Y-75714417D01*
X126184067Y-75734699D01*
X125986043Y-75794769D01*
X125803551Y-75892314D01*
X125643589Y-76023589D01*
X125512314Y-76183551D01*
X125414769Y-76366043D01*
X125354699Y-76564067D01*
X125334417Y-76769999D01*
X125354699Y-76975932D01*
X125354700Y-76975934D01*
X125414768Y-77173954D01*
X125512315Y-77356450D01*
X125563608Y-77418952D01*
X125643589Y-77516410D01*
X125716880Y-77576557D01*
X125803550Y-77647685D01*
X125986046Y-77745232D01*
X126184066Y-77805300D01*
X126390000Y-77825583D01*
X126595934Y-77805300D01*
X126793954Y-77745232D01*
X126976450Y-77647685D01*
X127115326Y-77533713D01*
X127131836Y-77520164D01*
X127195321Y-77492950D01*
X127263517Y-77503923D01*
X127315262Y-77549678D01*
X127334500Y-77616018D01*
X127334500Y-77980372D01*
X127334028Y-77991180D01*
X127330735Y-78028807D01*
X127340512Y-78065296D01*
X127342853Y-78075852D01*
X127349599Y-78114107D01*
X127359829Y-78138803D01*
X127360446Y-78139684D01*
X127382112Y-78170627D01*
X127387915Y-78179736D01*
X127406806Y-78212455D01*
X127435742Y-78236735D01*
X127443718Y-78244044D01*
X128025955Y-78826282D01*
X128033263Y-78834256D01*
X128046914Y-78850525D01*
X128057545Y-78863194D01*
X128090266Y-78882085D01*
X128099360Y-78887878D01*
X128130316Y-78909554D01*
X128130317Y-78909554D01*
X128131201Y-78910173D01*
X128155891Y-78920400D01*
X128156954Y-78920587D01*
X128156955Y-78920588D01*
X128194146Y-78927145D01*
X128204704Y-78929486D01*
X128241191Y-78939263D01*
X128241192Y-78939262D01*
X128241193Y-78939263D01*
X128278811Y-78935971D01*
X128289618Y-78935500D01*
X129583812Y-78935500D01*
X129631265Y-78944939D01*
X129671493Y-78971819D01*
X130025950Y-79326276D01*
X130033258Y-79334250D01*
X130057545Y-79363194D01*
X130074987Y-79373264D01*
X130090256Y-79382080D01*
X130099379Y-79387892D01*
X130130316Y-79409554D01*
X130130317Y-79409554D01*
X130131198Y-79410171D01*
X130155891Y-79420400D01*
X130156954Y-79420587D01*
X130156955Y-79420588D01*
X130194143Y-79427145D01*
X130204701Y-79429485D01*
X130241193Y-79439264D01*
X130278823Y-79435971D01*
X130289630Y-79435500D01*
X132083812Y-79435500D01*
X132131265Y-79444939D01*
X132171493Y-79471819D01*
X132261490Y-79561816D01*
X132292703Y-79614279D01*
X132295099Y-79675278D01*
X132268099Y-79730028D01*
X132218247Y-79765261D01*
X132157624Y-79772436D01*
X132020000Y-79754317D01*
X131863237Y-79774956D01*
X131717159Y-79835463D01*
X131595485Y-79928826D01*
X131546837Y-79951511D01*
X131493160Y-79951511D01*
X131444513Y-79928826D01*
X131322840Y-79835463D01*
X131176762Y-79774956D01*
X131020000Y-79754317D01*
X130863237Y-79774956D01*
X130717159Y-79835463D01*
X130591717Y-79931717D01*
X130495463Y-80057159D01*
X130434956Y-80203237D01*
X130414317Y-80360000D01*
X130434956Y-80516762D01*
X130495463Y-80662840D01*
X130576529Y-80768488D01*
X130591718Y-80788282D01*
X130613434Y-80804945D01*
X130645986Y-80829923D01*
X130681712Y-80873455D01*
X130694500Y-80928299D01*
X130694500Y-82840372D01*
X130694028Y-82851180D01*
X130690735Y-82888807D01*
X130700512Y-82925296D01*
X130702853Y-82935852D01*
X130709599Y-82974107D01*
X130719829Y-82998803D01*
X130720446Y-82999684D01*
X130742112Y-83030627D01*
X130747915Y-83039736D01*
X130766806Y-83072455D01*
X130795742Y-83096735D01*
X130803718Y-83104044D01*
X132408181Y-84708507D01*
X132435061Y-84748735D01*
X132444500Y-84796188D01*
X132444500Y-95173811D01*
X132435061Y-95221264D01*
X132408181Y-95261492D01*
X131831493Y-95838181D01*
X131791265Y-95865061D01*
X131743812Y-95874500D01*
X127110996Y-95874500D01*
X127059821Y-95863447D01*
X127017769Y-95832260D01*
X127003024Y-95805730D01*
X127000990Y-95806818D01*
X126948900Y-95709366D01*
X126897685Y-95613550D01*
X126833098Y-95534850D01*
X126766410Y-95453589D01*
X126623342Y-95336178D01*
X126606450Y-95322315D01*
X126423954Y-95224768D01*
X126314158Y-95191462D01*
X126225932Y-95164699D01*
X126020000Y-95144417D01*
X125814067Y-95164699D01*
X125616043Y-95224769D01*
X125433551Y-95322314D01*
X125273589Y-95453589D01*
X125142314Y-95613551D01*
X125044769Y-95796043D01*
X124984699Y-95994067D01*
X124964417Y-96199999D01*
X124984699Y-96405932D01*
X125007437Y-96480888D01*
X125044768Y-96603954D01*
X125142315Y-96786450D01*
X125184956Y-96838408D01*
X125273589Y-96946410D01*
X125320612Y-96985000D01*
X125433550Y-97077685D01*
X125616046Y-97175232D01*
X125814066Y-97235300D01*
X126020000Y-97255583D01*
X126225934Y-97235300D01*
X126423954Y-97175232D01*
X126606450Y-97077685D01*
X126766410Y-96946410D01*
X126897685Y-96786450D01*
X126995232Y-96603954D01*
X126995231Y-96603954D01*
X127000990Y-96593182D01*
X127003024Y-96594269D01*
X127017769Y-96567740D01*
X127059821Y-96536553D01*
X127110996Y-96525500D01*
X131910373Y-96525500D01*
X131921180Y-96525971D01*
X131958807Y-96529264D01*
X131995324Y-96519478D01*
X132005830Y-96517149D01*
X132043045Y-96510588D01*
X132043047Y-96510586D01*
X132044112Y-96510399D01*
X132068799Y-96500173D01*
X132069682Y-96499554D01*
X132069684Y-96499554D01*
X132100625Y-96477887D01*
X132109722Y-96472091D01*
X132142455Y-96453194D01*
X132166748Y-96424241D01*
X132174035Y-96416289D01*
X132732820Y-95857506D01*
X132782182Y-95827257D01*
X132839898Y-95822715D01*
X132893385Y-95844870D01*
X132930985Y-95888893D01*
X132944500Y-95945188D01*
X132944500Y-97673812D01*
X132935061Y-97721265D01*
X132908181Y-97761493D01*
X132291493Y-98378181D01*
X132251265Y-98405061D01*
X132203812Y-98414500D01*
X127110996Y-98414500D01*
X127059821Y-98403447D01*
X127017769Y-98372260D01*
X127003024Y-98345730D01*
X127000990Y-98346818D01*
X126951672Y-98254552D01*
X126897685Y-98153550D01*
X126852036Y-98097926D01*
X126766410Y-97993589D01*
X126661215Y-97907259D01*
X126606450Y-97862315D01*
X126515202Y-97813541D01*
X126423956Y-97764769D01*
X126423955Y-97764768D01*
X126423954Y-97764768D01*
X126293429Y-97725174D01*
X126225932Y-97704699D01*
X126042497Y-97686632D01*
X126020000Y-97684417D01*
X126019999Y-97684417D01*
X125814067Y-97704699D01*
X125638692Y-97757898D01*
X125626843Y-97761493D01*
X125616043Y-97764769D01*
X125433551Y-97862314D01*
X125273589Y-97993589D01*
X125142314Y-98153550D01*
X125140798Y-98156388D01*
X125135278Y-98162124D01*
X125134568Y-98162990D01*
X125134499Y-98162933D01*
X125094065Y-98204956D01*
X125028831Y-98221905D01*
X124964367Y-98202225D01*
X124919721Y-98151733D01*
X124893809Y-98097926D01*
X124890827Y-98093723D01*
X124846165Y-98049062D01*
X124842946Y-98045721D01*
X124837400Y-98039744D01*
X124804055Y-98003806D01*
X124804053Y-98003805D01*
X124799958Y-97999391D01*
X124785067Y-97987964D01*
X124111368Y-97314265D01*
X124102102Y-97303897D01*
X124079879Y-97276030D01*
X124032608Y-97243800D01*
X124028870Y-97241148D01*
X124020946Y-97235300D01*
X124015437Y-97231233D01*
X123978035Y-97203629D01*
X123973424Y-97201302D01*
X123923893Y-97186024D01*
X123913045Y-97182677D01*
X123908644Y-97181230D01*
X123891502Y-97175232D01*
X123854699Y-97162354D01*
X123854698Y-97162353D01*
X123849023Y-97160368D01*
X123843914Y-97159500D01*
X123837902Y-97159500D01*
X123836038Y-97159500D01*
X123781194Y-97146712D01*
X123737662Y-97110986D01*
X123714421Y-97059695D01*
X123708867Y-97031769D01*
X123708865Y-97031767D01*
X123704375Y-97009190D01*
X123704376Y-96960807D01*
X123724428Y-96860001D01*
X123724428Y-96238112D01*
X123718948Y-96199999D01*
X123716147Y-96180517D01*
X123675640Y-96042562D01*
X123651469Y-95989634D01*
X123573737Y-95868680D01*
X123535632Y-95824705D01*
X123502554Y-95796043D01*
X123426970Y-95730550D01*
X123378021Y-95699092D01*
X123247236Y-95639364D01*
X123191411Y-95622973D01*
X123084671Y-95607626D01*
X123049093Y-95602511D01*
X122990907Y-95602511D01*
X122978395Y-95604310D01*
X122960748Y-95605572D01*
X122579252Y-95605572D01*
X122561605Y-95604310D01*
X122549093Y-95602511D01*
X122490907Y-95602511D01*
X122462444Y-95606603D01*
X122348588Y-95622973D01*
X122292763Y-95639364D01*
X122161978Y-95699092D01*
X122113025Y-95730553D01*
X122003222Y-95825696D01*
X121958771Y-95850411D01*
X121908137Y-95855202D01*
X121903943Y-95854729D01*
X121847762Y-95865358D01*
X121843197Y-95866134D01*
X121780739Y-95875549D01*
X121775812Y-95877170D01*
X121719942Y-95906699D01*
X121715803Y-95908789D01*
X121658927Y-95936179D01*
X121654686Y-95939188D01*
X121610024Y-95983849D01*
X121606687Y-95987063D01*
X121560372Y-96030037D01*
X121548946Y-96044926D01*
X120974264Y-96619609D01*
X120963898Y-96628873D01*
X120936031Y-96651096D01*
X120903824Y-96698334D01*
X120901144Y-96702110D01*
X120863633Y-96752937D01*
X120855183Y-96769678D01*
X120849007Y-96778739D01*
X120846514Y-96777039D01*
X120824679Y-96810120D01*
X120761146Y-96838408D01*
X120692376Y-96828043D01*
X120640003Y-96782286D01*
X120620500Y-96715530D01*
X120620500Y-88850000D01*
X124464517Y-88850000D01*
X124484422Y-89128294D01*
X124543727Y-89400918D01*
X124552266Y-89423812D01*
X124641231Y-89662337D01*
X124654076Y-89685860D01*
X124774942Y-89907211D01*
X124824225Y-89973045D01*
X124942145Y-90130568D01*
X125139432Y-90327855D01*
X125299989Y-90448046D01*
X125362788Y-90495057D01*
X125440773Y-90537640D01*
X125607663Y-90628769D01*
X125869077Y-90726271D01*
X125869080Y-90726271D01*
X125869081Y-90726272D01*
X125907883Y-90734712D01*
X126141706Y-90785578D01*
X126420000Y-90805482D01*
X126698294Y-90785578D01*
X126970923Y-90726271D01*
X127232337Y-90628769D01*
X127477213Y-90495056D01*
X127700568Y-90327855D01*
X127897855Y-90130568D01*
X128065056Y-89907213D01*
X128198769Y-89662337D01*
X128296271Y-89400923D01*
X128355578Y-89128294D01*
X128375482Y-88850000D01*
X128355578Y-88571706D01*
X128296271Y-88299077D01*
X128198769Y-88037663D01*
X128085520Y-87830264D01*
X128065057Y-87792788D01*
X127993864Y-87697685D01*
X127897855Y-87569432D01*
X127700568Y-87372145D01*
X127588890Y-87288544D01*
X127477211Y-87204942D01*
X127234582Y-87072457D01*
X127232337Y-87071231D01*
X126970923Y-86973729D01*
X126970918Y-86973727D01*
X126698294Y-86914422D01*
X126420000Y-86894517D01*
X126141705Y-86914422D01*
X125869081Y-86973727D01*
X125751073Y-87017742D01*
X125607663Y-87071231D01*
X125607660Y-87071232D01*
X125607659Y-87071233D01*
X125362788Y-87204942D01*
X125139429Y-87372147D01*
X124942147Y-87569429D01*
X124774942Y-87792788D01*
X124645618Y-88029628D01*
X124641231Y-88037663D01*
X124616917Y-88102851D01*
X124543727Y-88299081D01*
X124484422Y-88571705D01*
X124464517Y-88850000D01*
X120620500Y-88850000D01*
X120620500Y-81057936D01*
X120621576Y-81041638D01*
X120625598Y-81011302D01*
X120625728Y-80879628D01*
X120628768Y-77803778D01*
X120644923Y-77742706D01*
X120689072Y-77697515D01*
X120749756Y-77679942D01*
X120811222Y-77694547D01*
X120916818Y-77750990D01*
X120915730Y-77753024D01*
X120942260Y-77767769D01*
X120973447Y-77809821D01*
X120984500Y-77860996D01*
X120984500Y-77880372D01*
X120984028Y-77891180D01*
X120980735Y-77928807D01*
X120990512Y-77965296D01*
X120992853Y-77975852D01*
X120999599Y-78014107D01*
X121009829Y-78038803D01*
X121010446Y-78039684D01*
X121032112Y-78070627D01*
X121037915Y-78079736D01*
X121056806Y-78112455D01*
X121085742Y-78136735D01*
X121093718Y-78144044D01*
X122303757Y-79354083D01*
X122334337Y-79404476D01*
X122338192Y-79463296D01*
X122314452Y-79517250D01*
X122245463Y-79607159D01*
X122184956Y-79753237D01*
X122164317Y-79910000D01*
X122184956Y-80066762D01*
X122245463Y-80212840D01*
X122302164Y-80286735D01*
X122341718Y-80338282D01*
X122387305Y-80373262D01*
X122395986Y-80379923D01*
X122431712Y-80423455D01*
X122444500Y-80478299D01*
X122444500Y-83741701D01*
X122431712Y-83796545D01*
X122395986Y-83840077D01*
X122341717Y-83881718D01*
X122245463Y-84007159D01*
X122184956Y-84153237D01*
X122164317Y-84309999D01*
X122184956Y-84466762D01*
X122245463Y-84612840D01*
X122341717Y-84738282D01*
X122467158Y-84834535D01*
X122467159Y-84834536D01*
X122613238Y-84895044D01*
X122770000Y-84915682D01*
X122926762Y-84895044D01*
X123072841Y-84834536D01*
X123198282Y-84738282D01*
X123239968Y-84683956D01*
X123302124Y-84602953D01*
X123350065Y-84565159D01*
X123410229Y-84554821D01*
X123468035Y-84574444D01*
X123509473Y-84619271D01*
X123524500Y-84678439D01*
X123524500Y-86257047D01*
X123511712Y-86311891D01*
X123475986Y-86355423D01*
X123441717Y-86381717D01*
X123345463Y-86507159D01*
X123284956Y-86653237D01*
X123264317Y-86810000D01*
X123284956Y-86966762D01*
X123345463Y-87112840D01*
X123441717Y-87238282D01*
X123567159Y-87334536D01*
X123713238Y-87395044D01*
X123870000Y-87415682D01*
X124026762Y-87395044D01*
X124172841Y-87334536D01*
X124298282Y-87238282D01*
X124394536Y-87112841D01*
X124455044Y-86966762D01*
X124475682Y-86810000D01*
X124455044Y-86653238D01*
X124394536Y-86507159D01*
X124324623Y-86416046D01*
X124298282Y-86381717D01*
X124224014Y-86324730D01*
X124188288Y-86281198D01*
X124175500Y-86226354D01*
X124175500Y-84110000D01*
X127164785Y-84110000D01*
X127183602Y-84313083D01*
X127239418Y-84509251D01*
X127330324Y-84691818D01*
X127453236Y-84854580D01*
X127603958Y-84991981D01*
X127741452Y-85077113D01*
X127777363Y-85099348D01*
X127967544Y-85173024D01*
X128168024Y-85210500D01*
X128371974Y-85210500D01*
X128371976Y-85210500D01*
X128572456Y-85173024D01*
X128762637Y-85099348D01*
X128936041Y-84991981D01*
X128974600Y-84956830D01*
X129086763Y-84854580D01*
X129151964Y-84768240D01*
X129209673Y-84691821D01*
X129209673Y-84691819D01*
X129209675Y-84691818D01*
X129277890Y-84554821D01*
X129300582Y-84509250D01*
X129356397Y-84313083D01*
X129375215Y-84110000D01*
X129356397Y-83906917D01*
X129353656Y-83897285D01*
X129300581Y-83710748D01*
X129209675Y-83528181D01*
X129086763Y-83365419D01*
X128936041Y-83228018D01*
X128762638Y-83120652D01*
X128572457Y-83046976D01*
X128505629Y-83034483D01*
X128371976Y-83009500D01*
X128168024Y-83009500D01*
X128080238Y-83025910D01*
X127967542Y-83046976D01*
X127777361Y-83120652D01*
X127603958Y-83228018D01*
X127453236Y-83365419D01*
X127330324Y-83528181D01*
X127239418Y-83710748D01*
X127183602Y-83906916D01*
X127164785Y-84110000D01*
X124175500Y-84110000D01*
X124175500Y-82489749D01*
X127169500Y-82489749D01*
X127181132Y-82548230D01*
X127225447Y-82614552D01*
X127291769Y-82658867D01*
X127350251Y-82670500D01*
X127350252Y-82670500D01*
X129189748Y-82670500D01*
X129189749Y-82670500D01*
X129218989Y-82664683D01*
X129248231Y-82658867D01*
X129314552Y-82614552D01*
X129358867Y-82548231D01*
X129370500Y-82489748D01*
X129370500Y-80650252D01*
X129369961Y-80647544D01*
X129358867Y-80591769D01*
X129314552Y-80525447D01*
X129248230Y-80481132D01*
X129189749Y-80469500D01*
X129189748Y-80469500D01*
X127350252Y-80469500D01*
X127350251Y-80469500D01*
X127291769Y-80481132D01*
X127225447Y-80525447D01*
X127181132Y-80591769D01*
X127169500Y-80650251D01*
X127169500Y-82489749D01*
X124175500Y-82489749D01*
X124175500Y-79698299D01*
X124188288Y-79643455D01*
X124224014Y-79599923D01*
X124231547Y-79594143D01*
X124278282Y-79558282D01*
X124374536Y-79432841D01*
X124435044Y-79286762D01*
X124455682Y-79130000D01*
X124435044Y-78973238D01*
X124374536Y-78827159D01*
X124278282Y-78701718D01*
X124224013Y-78660076D01*
X124188288Y-78616545D01*
X124175500Y-78561701D01*
X124175500Y-77860996D01*
X124186553Y-77809821D01*
X124217740Y-77767769D01*
X124244269Y-77753024D01*
X124243182Y-77750990D01*
X124298306Y-77721525D01*
X124436450Y-77647685D01*
X124596410Y-77516410D01*
X124727685Y-77356450D01*
X124825232Y-77173954D01*
X124885300Y-76975934D01*
X124905583Y-76770000D01*
X124885300Y-76564066D01*
X124825232Y-76366046D01*
X124727685Y-76183550D01*
X124662047Y-76103570D01*
X124596410Y-76023589D01*
X124485036Y-75932188D01*
X124436450Y-75892315D01*
X124253954Y-75794768D01*
X124150876Y-75763500D01*
X124055932Y-75734699D01*
X123850000Y-75714417D01*
X123644067Y-75734699D01*
X123446043Y-75794769D01*
X123263551Y-75892314D01*
X123103589Y-76023589D01*
X122972314Y-76183551D01*
X122874769Y-76366043D01*
X122814699Y-76564067D01*
X122794417Y-76769999D01*
X122814699Y-76975932D01*
X122814700Y-76975934D01*
X122874768Y-77173954D01*
X122972315Y-77356450D01*
X123023608Y-77418952D01*
X123103589Y-77516410D01*
X123214964Y-77607812D01*
X123263550Y-77647685D01*
X123399647Y-77720431D01*
X123456818Y-77750990D01*
X123455730Y-77753024D01*
X123482260Y-77767769D01*
X123513447Y-77809821D01*
X123524500Y-77860996D01*
X123524500Y-78561701D01*
X123511712Y-78616545D01*
X123475986Y-78660077D01*
X123421717Y-78701718D01*
X123325463Y-78827159D01*
X123264956Y-78973237D01*
X123249057Y-79094001D01*
X123226436Y-79150701D01*
X123179500Y-79189736D01*
X123119627Y-79201645D01*
X123061327Y-79183542D01*
X123039947Y-79161594D01*
X123039943Y-79161599D01*
X122994255Y-79123262D01*
X122986280Y-79115954D01*
X121768056Y-77897730D01*
X121737996Y-77848946D01*
X121733079Y-77791855D01*
X121754356Y-77738649D01*
X121797282Y-77700691D01*
X121896450Y-77647685D01*
X122056410Y-77516410D01*
X122187685Y-77356450D01*
X122285232Y-77173954D01*
X122345300Y-76975934D01*
X122365583Y-76770000D01*
X122345300Y-76564066D01*
X122285232Y-76366046D01*
X122187685Y-76183550D01*
X122124707Y-76106811D01*
X122097421Y-76042728D01*
X122108986Y-75974045D01*
X122155753Y-75922430D01*
X122222966Y-75904170D01*
X122621731Y-75911912D01*
X122675292Y-75905882D01*
X122725258Y-75893462D01*
X122775413Y-75873711D01*
X122818706Y-75841597D01*
X122855677Y-75805765D01*
X122889128Y-75763500D01*
X122910439Y-75713991D01*
X122924417Y-75664439D01*
X122932120Y-75611089D01*
X122935197Y-75352136D01*
X122953756Y-75288342D01*
X123002586Y-75243284D01*
X123067666Y-75229902D01*
X123130312Y-75252037D01*
X123222614Y-75316667D01*
X123349999Y-75376068D01*
X123350000Y-75376069D01*
X123350000Y-74730000D01*
X124350000Y-74730000D01*
X124350000Y-75376068D01*
X124477385Y-75316667D01*
X124656557Y-75191209D01*
X124811209Y-75036557D01*
X124936667Y-74857385D01*
X124996068Y-74730000D01*
X124350000Y-74730000D01*
X123350000Y-74730000D01*
X123350000Y-73083932D01*
X123349999Y-73083931D01*
X124350000Y-73083931D01*
X124350000Y-73730000D01*
X124996069Y-73730000D01*
X124996068Y-73729999D01*
X124936667Y-73602615D01*
X124811209Y-73423442D01*
X124656557Y-73268790D01*
X124477385Y-73143332D01*
X124350000Y-73083931D01*
X123349999Y-73083931D01*
X123222611Y-73143333D01*
X123157243Y-73189105D01*
X123093862Y-73211288D01*
X123028210Y-73197177D01*
X122979542Y-73150910D01*
X122962129Y-73086058D01*
X122968448Y-72554409D01*
X122973457Y-72133026D01*
X122990555Y-72071651D01*
X123035874Y-72026868D01*
X123097448Y-72010500D01*
X172396589Y-72010500D01*
X172396755Y-72010500D01*
X172403244Y-72010669D01*
X172706002Y-72026537D01*
X172718910Y-72027894D01*
X173015134Y-72074811D01*
X173027818Y-72077506D01*
X173317537Y-72155136D01*
X173329875Y-72159146D01*
X173609876Y-72266628D01*
X173621719Y-72271900D01*
X173888965Y-72408068D01*
X173900196Y-72414553D01*
X174151739Y-72577908D01*
X174162231Y-72585531D01*
X174228743Y-72639391D01*
X174395319Y-72774282D01*
X174404964Y-72782967D01*
X174617033Y-72995036D01*
X174625718Y-73004681D01*
X174699552Y-73095857D01*
X174814474Y-73237774D01*
X174822093Y-73248262D01*
X174835425Y-73268790D01*
X174985440Y-73499795D01*
X174991930Y-73511035D01*
X175128094Y-73778271D01*
X175133372Y-73790126D01*
X175147161Y-73826046D01*
X175240855Y-74070127D01*
X175244866Y-74082472D01*
X175322491Y-74372174D01*
X175325189Y-74384869D01*
X175372105Y-74681090D01*
X175373462Y-74693998D01*
X175389331Y-74996777D01*
X175389501Y-75003267D01*
X175389501Y-124996754D01*
X175389331Y-125003244D01*
X175373463Y-125306001D01*
X175372106Y-125318909D01*
X175325190Y-125615127D01*
X175322492Y-125627823D01*
X175244865Y-125917530D01*
X175240854Y-125929873D01*
X175133374Y-126209870D01*
X175128095Y-126221728D01*
X174991932Y-126488964D01*
X174985442Y-126500204D01*
X174822098Y-126751731D01*
X174814469Y-126762232D01*
X174625719Y-126995319D01*
X174617034Y-127004964D01*
X174404965Y-127217033D01*
X174395320Y-127225718D01*
X174162233Y-127414469D01*
X174151732Y-127422098D01*
X173900205Y-127585441D01*
X173888965Y-127591931D01*
X173621729Y-127728095D01*
X173609871Y-127733374D01*
X173329874Y-127840854D01*
X173317531Y-127844865D01*
X173027824Y-127922492D01*
X173015128Y-127925190D01*
X172718910Y-127972106D01*
X172706002Y-127973463D01*
X172403264Y-127989330D01*
X172396774Y-127989500D01*
X113403247Y-127989500D01*
X113396757Y-127989330D01*
X113093999Y-127973462D01*
X113081091Y-127972105D01*
X112784870Y-127925189D01*
X112772175Y-127922491D01*
X112482472Y-127844866D01*
X112470127Y-127840855D01*
X112190128Y-127733373D01*
X112178271Y-127728094D01*
X111911036Y-127591930D01*
X111899802Y-127585444D01*
X111648249Y-127422085D01*
X111637774Y-127414474D01*
X111549219Y-127342763D01*
X111404681Y-127225718D01*
X111395036Y-127217033D01*
X111182967Y-127004964D01*
X111174282Y-126995319D01*
X110985531Y-126762231D01*
X110977909Y-126751741D01*
X110814545Y-126500183D01*
X110808075Y-126488977D01*
X110671900Y-126221718D01*
X110666626Y-126209870D01*
X110659882Y-126192302D01*
X110559146Y-125929873D01*
X110555135Y-125917530D01*
X110528426Y-125817852D01*
X110477506Y-125627817D01*
X110474810Y-125615127D01*
X110452076Y-125471592D01*
X110427894Y-125318909D01*
X110426537Y-125306001D01*
X110410671Y-125003263D01*
X110410501Y-124996773D01*
X110410501Y-124588680D01*
X110795701Y-124588680D01*
X110826046Y-124941969D01*
X110896463Y-125289490D01*
X111006038Y-125626727D01*
X111153335Y-125949264D01*
X111336442Y-126252912D01*
X111336444Y-126252915D01*
X111541141Y-126518370D01*
X111552973Y-126533714D01*
X111800093Y-126787995D01*
X111830673Y-126813000D01*
X112074596Y-127012455D01*
X112372892Y-127204159D01*
X112691097Y-127360609D01*
X113025062Y-127479768D01*
X113370433Y-127560080D01*
X113722708Y-127600500D01*
X113988573Y-127600500D01*
X113988577Y-127600500D01*
X114254009Y-127585322D01*
X114603401Y-127524857D01*
X114943624Y-127424959D01*
X115270242Y-127286929D01*
X115578996Y-127112568D01*
X115865862Y-126904147D01*
X116127100Y-126664385D01*
X116359305Y-126396407D01*
X116559449Y-126103706D01*
X116610397Y-126007148D01*
X118869500Y-126007148D01*
X118908855Y-126192302D01*
X118985848Y-126365230D01*
X119097110Y-126518370D01*
X119237783Y-126645033D01*
X119401715Y-126739679D01*
X119488363Y-126767832D01*
X119581744Y-126798174D01*
X119722808Y-126813000D01*
X119817189Y-126813000D01*
X119817192Y-126813000D01*
X119958256Y-126798174D01*
X120138284Y-126739679D01*
X120302216Y-126645033D01*
X120442888Y-126518371D01*
X120456087Y-126500205D01*
X120554151Y-126365230D01*
X120620620Y-126215939D01*
X120631144Y-126192303D01*
X120644262Y-126130583D01*
X120670500Y-126007148D01*
X122869500Y-126007148D01*
X122908855Y-126192302D01*
X122985848Y-126365230D01*
X123097110Y-126518370D01*
X123237783Y-126645033D01*
X123401715Y-126739679D01*
X123488363Y-126767832D01*
X123581744Y-126798174D01*
X123722808Y-126813000D01*
X123817189Y-126813000D01*
X123817192Y-126813000D01*
X123958256Y-126798174D01*
X124138284Y-126739679D01*
X124302216Y-126645033D01*
X124442888Y-126518371D01*
X124456087Y-126500205D01*
X124554151Y-126365230D01*
X124620620Y-126215939D01*
X124631144Y-126192303D01*
X124644262Y-126130583D01*
X124670500Y-126007148D01*
X124670500Y-125817852D01*
X124631144Y-125632697D01*
X124554151Y-125459769D01*
X124442889Y-125306629D01*
X124302216Y-125179966D01*
X124138284Y-125085320D01*
X123958257Y-125026826D01*
X123922989Y-125023119D01*
X123817192Y-125012000D01*
X123722808Y-125012000D01*
X123638169Y-125020895D01*
X123581742Y-125026826D01*
X123401715Y-125085320D01*
X123237783Y-125179966D01*
X123097110Y-125306629D01*
X122985848Y-125459769D01*
X122908855Y-125632697D01*
X122869500Y-125817852D01*
X122869500Y-126007148D01*
X120670500Y-126007148D01*
X120670500Y-125817852D01*
X120631144Y-125632697D01*
X120554151Y-125459769D01*
X120442889Y-125306629D01*
X120302216Y-125179966D01*
X120138284Y-125085320D01*
X119958257Y-125026826D01*
X119922989Y-125023119D01*
X119817192Y-125012000D01*
X119722808Y-125012000D01*
X119638169Y-125020895D01*
X119581742Y-125026826D01*
X119401715Y-125085320D01*
X119237783Y-125179966D01*
X119097110Y-125306629D01*
X118985848Y-125459769D01*
X118908855Y-125632697D01*
X118869500Y-125817852D01*
X118869500Y-126007148D01*
X116610397Y-126007148D01*
X116724922Y-125790098D01*
X116853569Y-125459672D01*
X116943711Y-125116736D01*
X116994174Y-124765759D01*
X117004300Y-124411317D01*
X116973956Y-124058032D01*
X116903538Y-123710508D01*
X116793965Y-123373277D01*
X116793963Y-123373272D01*
X116646666Y-123050735D01*
X116463559Y-122747087D01*
X116463558Y-122747085D01*
X116247030Y-122466287D01*
X116234195Y-122453080D01*
X115999908Y-122212004D01*
X115725406Y-121987545D01*
X115427112Y-121795842D01*
X115108903Y-121639390D01*
X114928549Y-121575040D01*
X114774940Y-121520232D01*
X114429569Y-121439920D01*
X114077294Y-121399500D01*
X113811425Y-121399500D01*
X113636546Y-121409500D01*
X113545992Y-121414678D01*
X113196599Y-121475143D01*
X112856377Y-121575040D01*
X112529764Y-121713069D01*
X112529761Y-121713070D01*
X112529760Y-121713071D01*
X112372172Y-121802065D01*
X112221004Y-121887433D01*
X112120053Y-121960779D01*
X111934140Y-122095853D01*
X111934138Y-122095854D01*
X111934135Y-122095857D01*
X111672905Y-122335610D01*
X111440693Y-122603597D01*
X111240556Y-122896287D01*
X111075077Y-123209906D01*
X110946432Y-123540327D01*
X110856291Y-123883261D01*
X110805827Y-124234245D01*
X110795701Y-124588680D01*
X110410501Y-124588680D01*
X110410501Y-120412500D01*
X118716000Y-120412500D01*
X118716000Y-120618282D01*
X118731249Y-120773118D01*
X118791519Y-120971800D01*
X118889391Y-121154904D01*
X119021102Y-121315397D01*
X119181595Y-121447108D01*
X119270000Y-121494362D01*
X119270000Y-120412500D01*
X118716000Y-120412500D01*
X110410501Y-120412500D01*
X110410501Y-118910000D01*
X113295001Y-118910000D01*
X113295001Y-119291478D01*
X113309836Y-119385149D01*
X113367358Y-119498045D01*
X113456953Y-119587640D01*
X113569853Y-119645165D01*
X113663516Y-119660000D01*
X114045000Y-119660000D01*
X114045000Y-118910000D01*
X115045000Y-118910000D01*
X115045000Y-119659999D01*
X115426478Y-119659999D01*
X115520149Y-119645163D01*
X115633045Y-119587641D01*
X115722640Y-119498046D01*
X115766228Y-119412500D01*
X118716000Y-119412500D01*
X119270000Y-119412500D01*
X119270000Y-118330637D01*
X119181595Y-118377891D01*
X119021102Y-118509602D01*
X118889391Y-118670095D01*
X118791519Y-118853199D01*
X118731249Y-119051881D01*
X118716000Y-119206718D01*
X118716000Y-119412500D01*
X115766228Y-119412500D01*
X115780165Y-119385146D01*
X115795000Y-119291484D01*
X115795000Y-118910000D01*
X115045000Y-118910000D01*
X114045000Y-118910000D01*
X113295001Y-118910000D01*
X110410501Y-118910000D01*
X110410501Y-117910000D01*
X113295000Y-117910000D01*
X115794999Y-117910000D01*
X115794999Y-117528522D01*
X115780163Y-117434850D01*
X115722641Y-117321954D01*
X115633046Y-117232359D01*
X115520146Y-117174834D01*
X115426484Y-117160000D01*
X114688997Y-117160000D01*
X114628762Y-117144387D01*
X114583696Y-117101480D01*
X114565146Y-117042084D01*
X114577785Y-116981156D01*
X114618429Y-116934038D01*
X114676841Y-116912597D01*
X114750934Y-116905300D01*
X114948954Y-116845232D01*
X115131450Y-116747685D01*
X115291410Y-116616410D01*
X115422685Y-116456450D01*
X115520232Y-116273954D01*
X115580300Y-116075934D01*
X115600583Y-115870000D01*
X115580300Y-115664066D01*
X115520232Y-115466046D01*
X115422685Y-115283550D01*
X115338135Y-115180525D01*
X115291410Y-115123589D01*
X115180527Y-115032591D01*
X115131450Y-114992315D01*
X114948954Y-114894768D01*
X114849944Y-114864734D01*
X114750932Y-114834699D01*
X114545000Y-114814417D01*
X114339067Y-114834699D01*
X114141043Y-114894769D01*
X113958551Y-114992314D01*
X113798589Y-115123589D01*
X113667314Y-115283551D01*
X113569769Y-115466043D01*
X113509699Y-115664067D01*
X113489417Y-115870000D01*
X113509699Y-116075932D01*
X113514798Y-116092741D01*
X113548316Y-116203237D01*
X113569769Y-116273956D01*
X113584226Y-116301003D01*
X113667315Y-116456450D01*
X113718609Y-116518952D01*
X113798589Y-116616410D01*
X113878570Y-116682047D01*
X113958550Y-116747685D01*
X114141046Y-116845232D01*
X114339066Y-116905300D01*
X114413158Y-116912597D01*
X114471572Y-116934038D01*
X114512216Y-116981156D01*
X114524855Y-117042084D01*
X114506305Y-117101480D01*
X114461239Y-117144387D01*
X114401004Y-117160000D01*
X113663522Y-117160000D01*
X113569850Y-117174836D01*
X113456954Y-117232358D01*
X113367359Y-117321953D01*
X113309834Y-117434853D01*
X113295000Y-117528516D01*
X113295000Y-117910000D01*
X110410501Y-117910000D01*
X110410501Y-113329999D01*
X113489417Y-113329999D01*
X113509699Y-113535932D01*
X113509700Y-113535934D01*
X113569768Y-113733954D01*
X113667315Y-113916450D01*
X113699177Y-113955274D01*
X113798589Y-114076410D01*
X113878570Y-114142047D01*
X113958550Y-114207685D01*
X114141046Y-114305232D01*
X114339066Y-114365300D01*
X114545000Y-114385583D01*
X114750934Y-114365300D01*
X114948954Y-114305232D01*
X115131450Y-114207685D01*
X115291410Y-114076410D01*
X115422685Y-113916450D01*
X115520232Y-113733954D01*
X115580300Y-113535934D01*
X115600583Y-113330000D01*
X115580300Y-113124066D01*
X115520232Y-112926046D01*
X115422685Y-112743550D01*
X115357047Y-112663569D01*
X115291410Y-112583589D01*
X115193952Y-112503609D01*
X115131450Y-112452315D01*
X114948954Y-112354768D01*
X114782862Y-112304385D01*
X114750932Y-112294699D01*
X114545000Y-112274417D01*
X114339067Y-112294699D01*
X114141043Y-112354769D01*
X113958551Y-112452314D01*
X113798589Y-112583589D01*
X113667314Y-112743551D01*
X113569769Y-112926043D01*
X113509699Y-113124067D01*
X113489417Y-113329999D01*
X110410501Y-113329999D01*
X110410501Y-110790000D01*
X113489417Y-110790000D01*
X113509699Y-110995932D01*
X113521826Y-111035910D01*
X113567362Y-111186024D01*
X113569769Y-111193956D01*
X113618541Y-111285202D01*
X113667315Y-111376450D01*
X113700768Y-111417213D01*
X113798589Y-111536410D01*
X113830059Y-111562236D01*
X113958550Y-111667685D01*
X114141046Y-111765232D01*
X114339066Y-111825300D01*
X114545000Y-111845583D01*
X114750934Y-111825300D01*
X114948954Y-111765232D01*
X115131450Y-111667685D01*
X115291410Y-111536410D01*
X115422685Y-111376450D01*
X115520232Y-111193954D01*
X115580300Y-110995934D01*
X115600583Y-110790000D01*
X115580300Y-110584066D01*
X115520232Y-110386046D01*
X115422685Y-110203550D01*
X115322690Y-110081705D01*
X115291410Y-110043589D01*
X115167257Y-109941701D01*
X115131450Y-109912315D01*
X114948954Y-109814768D01*
X114807105Y-109771739D01*
X114750932Y-109754699D01*
X114545000Y-109734417D01*
X114339067Y-109754699D01*
X114141043Y-109814769D01*
X113958551Y-109912314D01*
X113798589Y-110043589D01*
X113667314Y-110203551D01*
X113569769Y-110386043D01*
X113569768Y-110386045D01*
X113569768Y-110386046D01*
X113566708Y-110396133D01*
X113509699Y-110584067D01*
X113489417Y-110790000D01*
X110410501Y-110790000D01*
X110410501Y-104007726D01*
X110426311Y-103947137D01*
X110469711Y-103901999D01*
X110529633Y-103883822D01*
X110590796Y-103897241D01*
X110684853Y-103945165D01*
X110778516Y-103960000D01*
X112850000Y-103960000D01*
X112850000Y-102810000D01*
X113850000Y-102810000D01*
X113850000Y-103959999D01*
X115921478Y-103959999D01*
X116015149Y-103945163D01*
X116128045Y-103887641D01*
X116217640Y-103798046D01*
X116275165Y-103685146D01*
X116290000Y-103591484D01*
X116290000Y-102810000D01*
X113850000Y-102810000D01*
X112850000Y-102810000D01*
X112850000Y-100660001D01*
X110778522Y-100660001D01*
X110684850Y-100674836D01*
X110590795Y-100722759D01*
X110529632Y-100736178D01*
X110469711Y-100718001D01*
X110426311Y-100672863D01*
X110422955Y-100660000D01*
X113850000Y-100660000D01*
X113850000Y-101810000D01*
X116289999Y-101810000D01*
X116289999Y-101028522D01*
X116275163Y-100934850D01*
X116217641Y-100821954D01*
X116128046Y-100732359D01*
X116015146Y-100674834D01*
X115921484Y-100660000D01*
X113850000Y-100660000D01*
X110422955Y-100660000D01*
X110410501Y-100612274D01*
X110410501Y-98607726D01*
X110426311Y-98547137D01*
X110469711Y-98501999D01*
X110529633Y-98483822D01*
X110590796Y-98497241D01*
X110684853Y-98545165D01*
X110778516Y-98560000D01*
X112850000Y-98560000D01*
X112850000Y-97410000D01*
X113850000Y-97410000D01*
X113850000Y-98559999D01*
X115921478Y-98559999D01*
X116015149Y-98545163D01*
X116128045Y-98487641D01*
X116217640Y-98398046D01*
X116275165Y-98285146D01*
X116290000Y-98191484D01*
X116290000Y-97410000D01*
X113850000Y-97410000D01*
X112850000Y-97410000D01*
X112850000Y-95260001D01*
X110778522Y-95260001D01*
X110684850Y-95274836D01*
X110590795Y-95322759D01*
X110529632Y-95336178D01*
X110469711Y-95318001D01*
X110426311Y-95272863D01*
X110422955Y-95260000D01*
X113850000Y-95260000D01*
X113850000Y-96410000D01*
X116289999Y-96410000D01*
X116289999Y-95628522D01*
X116275163Y-95534850D01*
X116217641Y-95421954D01*
X116128046Y-95332359D01*
X116015146Y-95274834D01*
X115921484Y-95260000D01*
X113850000Y-95260000D01*
X110422955Y-95260000D01*
X110410501Y-95212274D01*
X110410501Y-89860000D01*
X113270001Y-89860000D01*
X113270001Y-90241478D01*
X113284836Y-90335149D01*
X113342358Y-90448045D01*
X113431953Y-90537640D01*
X113544853Y-90595165D01*
X113638516Y-90610000D01*
X114020000Y-90610000D01*
X114020000Y-89860000D01*
X115020000Y-89860000D01*
X115020000Y-90609999D01*
X115401478Y-90609999D01*
X115495149Y-90595163D01*
X115608045Y-90537641D01*
X115697640Y-90448046D01*
X115755165Y-90335146D01*
X115770000Y-90241484D01*
X115770000Y-89860000D01*
X115020000Y-89860000D01*
X114020000Y-89860000D01*
X113270001Y-89860000D01*
X110410501Y-89860000D01*
X110410501Y-88860000D01*
X113270000Y-88860000D01*
X115769999Y-88860000D01*
X115769999Y-88478522D01*
X115755163Y-88384850D01*
X115697641Y-88271954D01*
X115608046Y-88182359D01*
X115495146Y-88124834D01*
X115401484Y-88110000D01*
X114663997Y-88110000D01*
X114603762Y-88094387D01*
X114558696Y-88051480D01*
X114540146Y-87992084D01*
X114552785Y-87931156D01*
X114593429Y-87884038D01*
X114651841Y-87862597D01*
X114725934Y-87855300D01*
X114923954Y-87795232D01*
X115106450Y-87697685D01*
X115266410Y-87566410D01*
X115397685Y-87406450D01*
X115495232Y-87223954D01*
X115555300Y-87025934D01*
X115575583Y-86820000D01*
X115555300Y-86614066D01*
X115495232Y-86416046D01*
X115397685Y-86233550D01*
X115296291Y-86110000D01*
X115266410Y-86073589D01*
X115168952Y-85993609D01*
X115106450Y-85942315D01*
X115015202Y-85893541D01*
X114923956Y-85844769D01*
X114923955Y-85844768D01*
X114923954Y-85844768D01*
X114824943Y-85814733D01*
X114725932Y-85784699D01*
X114520000Y-85764417D01*
X114314067Y-85784699D01*
X114116043Y-85844769D01*
X113933551Y-85942314D01*
X113773589Y-86073589D01*
X113642314Y-86233551D01*
X113544769Y-86416043D01*
X113484699Y-86614067D01*
X113464417Y-86820000D01*
X113484699Y-87025932D01*
X113498441Y-87071233D01*
X113539001Y-87204944D01*
X113544769Y-87223956D01*
X113593541Y-87315202D01*
X113642315Y-87406450D01*
X113685037Y-87458507D01*
X113773589Y-87566410D01*
X113853569Y-87632047D01*
X113933550Y-87697685D01*
X114116046Y-87795232D01*
X114314066Y-87855300D01*
X114388158Y-87862597D01*
X114446572Y-87884038D01*
X114487216Y-87931156D01*
X114499855Y-87992084D01*
X114481305Y-88051480D01*
X114436239Y-88094387D01*
X114376004Y-88110000D01*
X113638522Y-88110000D01*
X113544850Y-88124836D01*
X113431954Y-88182358D01*
X113342359Y-88271953D01*
X113284834Y-88384853D01*
X113270000Y-88478516D01*
X113270000Y-88860000D01*
X110410501Y-88860000D01*
X110410501Y-84279999D01*
X113464417Y-84279999D01*
X113484699Y-84485932D01*
X113544769Y-84683956D01*
X113577305Y-84744826D01*
X113642315Y-84866450D01*
X113687281Y-84921242D01*
X113773589Y-85026410D01*
X113835372Y-85077113D01*
X113933550Y-85157685D01*
X114116046Y-85255232D01*
X114314066Y-85315300D01*
X114520000Y-85335583D01*
X114725934Y-85315300D01*
X114923954Y-85255232D01*
X115106450Y-85157685D01*
X115266410Y-85026410D01*
X115397685Y-84866450D01*
X115495232Y-84683954D01*
X115555300Y-84485934D01*
X115575583Y-84280000D01*
X115555300Y-84074066D01*
X115495232Y-83876046D01*
X115397685Y-83693550D01*
X115289920Y-83562237D01*
X115266410Y-83533589D01*
X115168952Y-83453608D01*
X115106450Y-83402315D01*
X114923954Y-83304768D01*
X114822818Y-83274089D01*
X114725932Y-83244699D01*
X114520000Y-83224417D01*
X114314067Y-83244699D01*
X114173324Y-83287393D01*
X114122541Y-83302798D01*
X114116043Y-83304769D01*
X113933551Y-83402314D01*
X113773589Y-83533589D01*
X113642314Y-83693551D01*
X113544769Y-83876043D01*
X113544768Y-83876045D01*
X113544768Y-83876046D01*
X113539703Y-83892743D01*
X113484699Y-84074067D01*
X113464417Y-84279999D01*
X110410501Y-84279999D01*
X110410501Y-81740000D01*
X113464417Y-81740000D01*
X113484699Y-81945932D01*
X113484700Y-81945934D01*
X113541803Y-82134181D01*
X113544769Y-82143956D01*
X113558731Y-82170077D01*
X113642315Y-82326450D01*
X113691294Y-82386132D01*
X113773589Y-82486410D01*
X113853570Y-82552047D01*
X113933550Y-82617685D01*
X114116046Y-82715232D01*
X114314066Y-82775300D01*
X114520000Y-82795583D01*
X114725934Y-82775300D01*
X114923954Y-82715232D01*
X115106450Y-82617685D01*
X115266410Y-82486410D01*
X115397685Y-82326450D01*
X115495232Y-82143954D01*
X115555300Y-81945934D01*
X115575583Y-81740000D01*
X115555300Y-81534066D01*
X115495232Y-81336046D01*
X115397685Y-81153550D01*
X115324346Y-81064186D01*
X115266410Y-80993589D01*
X115155895Y-80902893D01*
X115106450Y-80862315D01*
X114929149Y-80767545D01*
X114923956Y-80764769D01*
X114923955Y-80764768D01*
X114923954Y-80764768D01*
X114777414Y-80720316D01*
X114725932Y-80704699D01*
X114520000Y-80684417D01*
X114314067Y-80704699D01*
X114116043Y-80764769D01*
X113933551Y-80862314D01*
X113773589Y-80993589D01*
X113642314Y-81153551D01*
X113544769Y-81336043D01*
X113484699Y-81534067D01*
X113464417Y-81740000D01*
X110410501Y-81740000D01*
X110410501Y-75003246D01*
X110410671Y-74996756D01*
X110422487Y-74771287D01*
X110426538Y-74693996D01*
X110427895Y-74681090D01*
X110433404Y-74646310D01*
X110474813Y-74384862D01*
X110477506Y-74372186D01*
X110555139Y-74082458D01*
X110559147Y-74070126D01*
X110666632Y-73790117D01*
X110671898Y-73778288D01*
X110808080Y-73511014D01*
X110814541Y-73499824D01*
X110977916Y-73248249D01*
X110985525Y-73237777D01*
X111174291Y-73004670D01*
X111182958Y-72995045D01*
X111395046Y-72782957D01*
X111404671Y-72774290D01*
X111637787Y-72585517D01*
X111648250Y-72577915D01*
X111899816Y-72414546D01*
X111911015Y-72408080D01*
X112178290Y-72271896D01*
X112190118Y-72266631D01*
X112470137Y-72159142D01*
X112482458Y-72155138D01*
X112772194Y-72077504D01*
X112784851Y-72074814D01*
X113081093Y-72027894D01*
X113093997Y-72026538D01*
X113237534Y-72019015D01*
X113396778Y-72010670D01*
X113403268Y-72010500D01*
X113403413Y-72010500D01*
X116690500Y-72010500D01*
X116752500Y-72027113D01*
G37*
%TD.AperFunction*%
%TD*%
M02*
