%TF.GenerationSoftware,KiCad,Pcbnew,7.0.1-0*%
%TF.CreationDate,2023-11-24T13:11:02+01:00*%
%TF.ProjectId,LoRa_Hat,4c6f5261-5f48-4617-942e-6b696361645f,rev?*%
%TF.SameCoordinates,Original*%
%TF.FileFunction,Soldermask,Top*%
%TF.FilePolarity,Negative*%
%FSLAX46Y46*%
G04 Gerber Fmt 4.6, Leading zero omitted, Abs format (unit mm)*
G04 Created by KiCad (PCBNEW 7.0.1-0) date 2023-11-24 13:11:02*
%MOMM*%
%LPD*%
G01*
G04 APERTURE LIST*
G04 Aperture macros list*
%AMRoundRect*
0 Rectangle with rounded corners*
0 $1 Rounding radius*
0 $2 $3 $4 $5 $6 $7 $8 $9 X,Y pos of 4 corners*
0 Add a 4 corners polygon primitive as box body*
4,1,4,$2,$3,$4,$5,$6,$7,$8,$9,$2,$3,0*
0 Add four circle primitives for the rounded corners*
1,1,$1+$1,$2,$3*
1,1,$1+$1,$4,$5*
1,1,$1+$1,$6,$7*
1,1,$1+$1,$8,$9*
0 Add four rect primitives between the rounded corners*
20,1,$1+$1,$2,$3,$4,$5,0*
20,1,$1+$1,$4,$5,$6,$7,0*
20,1,$1+$1,$6,$7,$8,$9,0*
20,1,$1+$1,$8,$9,$2,$3,0*%
%AMFreePoly0*
4,1,19,0.550000,-0.750000,0.000000,-0.750000,0.000000,-0.744911,-0.071157,-0.744911,-0.207708,-0.704816,-0.327430,-0.627875,-0.420627,-0.520320,-0.479746,-0.390866,-0.500000,-0.250000,-0.500000,0.250000,-0.479746,0.390866,-0.420627,0.520320,-0.327430,0.627875,-0.207708,0.704816,-0.071157,0.744911,0.000000,0.744911,0.000000,0.750000,0.550000,0.750000,0.550000,-0.750000,0.550000,-0.750000,
$1*%
%AMFreePoly1*
4,1,19,0.000000,0.744911,0.071157,0.744911,0.207708,0.704816,0.327430,0.627875,0.420627,0.520320,0.479746,0.390866,0.500000,0.250000,0.500000,-0.250000,0.479746,-0.390866,0.420627,-0.520320,0.327430,-0.627875,0.207708,-0.704816,0.071157,-0.744911,0.000000,-0.744911,0.000000,-0.750000,-0.550000,-0.750000,-0.550000,0.750000,0.000000,0.750000,0.000000,0.744911,0.000000,0.744911,
$1*%
G04 Aperture macros list end*
%ADD10C,6.200000*%
%ADD11C,1.300000*%
%ADD12O,1.308000X2.616000*%
%ADD13R,3.200000X3.200000*%
%ADD14O,3.200000X3.200000*%
%ADD15C,1.600000*%
%ADD16O,1.600000X1.600000*%
%ADD17FreePoly0,90.000000*%
%ADD18R,1.500000X1.000000*%
%ADD19FreePoly1,90.000000*%
%ADD20C,2.000000*%
%ADD21R,1.700000X1.700000*%
%ADD22O,1.700000X1.700000*%
%ADD23C,3.500000*%
%ADD24RoundRect,0.468750X1.031250X1.031250X-1.031250X1.031250X-1.031250X-1.031250X1.031250X-1.031250X0*%
%ADD25R,1.800000X1.800000*%
%ADD26C,1.800000*%
%ADD27R,5.080000X2.500000*%
G04 APERTURE END LIST*
D10*
%TO.C,*%
X171900001Y-75500000D03*
%TD*%
%TO.C,*%
X113900001Y-75500000D03*
%TD*%
%TO.C,*%
X113900001Y-124500000D03*
%TD*%
%TO.C,*%
X171900001Y-124500000D03*
%TD*%
D11*
%TO.C,J6*%
X119770000Y-125912500D03*
X123770000Y-125912500D03*
D12*
X121770000Y-119912500D03*
X123770000Y-119912500D03*
X119770000Y-119912500D03*
%TD*%
D13*
%TO.C,D1*%
X134020000Y-123110000D03*
D14*
X149260000Y-123110000D03*
%TD*%
D15*
%TO.C,R5*%
X164570000Y-82210000D03*
D16*
X164570000Y-89830000D03*
%TD*%
D17*
%TO.C,JP2*%
X122770000Y-98910000D03*
D18*
X122770000Y-97610000D03*
D19*
X122770000Y-96310000D03*
%TD*%
D20*
%TO.C,SW5*%
X167770000Y-89250000D03*
X167770000Y-82750000D03*
X172270000Y-89250000D03*
X172270000Y-82750000D03*
%TD*%
D15*
%TO.C,C1*%
X136270000Y-84110000D03*
X136270000Y-81610000D03*
%TD*%
%TO.C,R4*%
X164540000Y-96200000D03*
D16*
X164540000Y-103820000D03*
%TD*%
D15*
%TO.C,R2*%
X153370000Y-82190000D03*
D16*
X153370000Y-89810000D03*
%TD*%
D21*
%TO.C,J2*%
X126020000Y-103820000D03*
D22*
X126020000Y-101280000D03*
X126020000Y-98740000D03*
X126020000Y-96200000D03*
D23*
X126420000Y-88850000D03*
X126420000Y-110360000D03*
X149620000Y-88850000D03*
X149620000Y-110360000D03*
%TD*%
D20*
%TO.C,SW1*%
X156520000Y-117250000D03*
X156520000Y-110750000D03*
X161020000Y-117250000D03*
X161020000Y-110750000D03*
%TD*%
D15*
%TO.C,R7*%
X156520000Y-103370000D03*
D16*
X156520000Y-95750000D03*
%TD*%
D17*
%TO.C,JP1*%
X122770000Y-103810000D03*
D18*
X122770000Y-102510000D03*
D19*
X122770000Y-101210000D03*
%TD*%
D24*
%TO.C,J8*%
X158927745Y-123110000D03*
%TD*%
D20*
%TO.C,SW2*%
X156520000Y-89250000D03*
X156520000Y-82750000D03*
X161020000Y-89250000D03*
X161020000Y-82750000D03*
%TD*%
D24*
%TO.C,J7*%
X154477745Y-123110000D03*
%TD*%
D15*
%TO.C,R1*%
X153290000Y-110200000D03*
D16*
X153290000Y-117820000D03*
%TD*%
D15*
%TO.C,R6*%
X153370000Y-103370000D03*
D16*
X153370000Y-95750000D03*
%TD*%
D21*
%TO.C,J4*%
X114545000Y-118410000D03*
D22*
X114545000Y-115870000D03*
X114545000Y-113330000D03*
X114545000Y-110790000D03*
%TD*%
D15*
%TO.C,R8*%
X149670000Y-81610000D03*
D16*
X142050000Y-81610000D03*
%TD*%
D25*
%TO.C,D2*%
X128270000Y-81570000D03*
D26*
X128270000Y-84110000D03*
%TD*%
D20*
%TO.C,SW4*%
X167770000Y-103250000D03*
X167770000Y-96750000D03*
X172270000Y-103250000D03*
X172270000Y-96750000D03*
%TD*%
D21*
%TO.C,J3*%
X114520000Y-89360000D03*
D22*
X114520000Y-86820000D03*
X114520000Y-84280000D03*
X114520000Y-81740000D03*
%TD*%
D15*
%TO.C,R3*%
X164540000Y-110200000D03*
D16*
X164540000Y-117820000D03*
%TD*%
D20*
%TO.C,SW3*%
X167770000Y-117250000D03*
X167770000Y-110750000D03*
X172270000Y-117250000D03*
X172270000Y-110750000D03*
%TD*%
D21*
%TO.C,J1*%
X118770000Y-76770000D03*
D22*
X118770000Y-74230000D03*
X121310000Y-76770000D03*
X121310000Y-74230000D03*
X123850000Y-76770000D03*
X123850000Y-74230000D03*
X126390000Y-76770000D03*
X126390000Y-74230000D03*
X128930000Y-76770000D03*
X128930000Y-74230000D03*
X131470000Y-76770000D03*
X131470000Y-74230000D03*
X134010000Y-76770000D03*
X134010000Y-74230000D03*
X136550000Y-76770000D03*
X136550000Y-74230000D03*
X139090000Y-76770000D03*
X139090000Y-74230000D03*
X141630000Y-76770000D03*
X141630000Y-74230000D03*
X144170000Y-76770000D03*
X144170000Y-74230000D03*
X146710000Y-76770000D03*
X146710000Y-74230000D03*
X149250000Y-76770000D03*
X149250000Y-74230000D03*
X151790000Y-76770000D03*
X151790000Y-74230000D03*
X154330000Y-76770000D03*
X154330000Y-74230000D03*
X156870000Y-76770000D03*
X156870000Y-74230000D03*
X159410000Y-76770000D03*
X159410000Y-74230000D03*
X161950000Y-76770000D03*
X161950000Y-74230000D03*
X164490000Y-76770000D03*
X164490000Y-74230000D03*
X167030000Y-76770000D03*
X167030000Y-74230000D03*
%TD*%
D27*
%TO.C,J5*%
X113350000Y-96910000D03*
X113350000Y-102310000D03*
%TD*%
M02*
