M48
; DRILL file {KiCad 7.0.1-0} date 2023 November 24, Friday 13:11:11
; FORMAT={-:-/ absolute / metric / decimal}
; #@! TF.CreationDate,2023-11-24T13:11:11+01:00
; #@! TF.GenerationSoftware,Kicad,Pcbnew,7.0.1-0
; #@! TF.FileFunction,Plated,1,2,PTH
FMAT,2
METRIC
; #@! TA.AperFunction,Plated,PTH,ViaDrill
T1C0.400
; #@! TA.AperFunction,Plated,PTH,ComponentDrill
T2C0.800
; #@! TA.AperFunction,Plated,PTH,ComponentDrill
T3C0.900
; #@! TA.AperFunction,Plated,PTH,ComponentDrill
T4C1.000
; #@! TA.AperFunction,Plated,PTH,ComponentDrill
T5C1.100
; #@! TA.AperFunction,Plated,PTH,ComponentDrill
T6C1.500
; #@! TA.AperFunction,Plated,PTH,ComponentDrill
T7C1.600
; #@! TA.AperFunction,Plated,PTH,ComponentDrill
T8C2.500
%
G90
G05
T1
X111.27Y-91.61
X111.27Y-94.11
X111.27Y-105.11
X111.27Y-108.11
X111.77Y-120.61
X113.27Y-94.11
X113.27Y-105.11
X115.27Y-91.61
X115.27Y-94.11
X115.27Y-105.11
X115.27Y-108.61
X115.77Y-120.61
X117.27Y-89.11
X117.27Y-94.11
X117.27Y-105.11
X117.77Y-118.11
X117.77Y-120.61
X117.77Y-122.61
X118.77Y-123.61
X119.77Y-122.61
X120.77Y-123.61
X121.27Y-80.11
X121.27Y-106.61
X121.77Y-85.61
X121.77Y-88.11
X121.77Y-91.61
X121.77Y-95.11
X121.77Y-110.61
X121.77Y-122.61
X122.77Y-79.91
X122.77Y-84.31
X122.77Y-113.86
X122.77Y-123.61
X123.77Y-122.61
X123.85Y-79.13
X123.87Y-86.81
X124.77Y-91.61
X124.77Y-95.11
X124.77Y-123.61
X127.77Y-86.11
X127.77Y-91.61
X127.77Y-95.11
X127.77Y-105.61
X127.77Y-107.61
X129.27Y-88.61
X129.77Y-109.61
X130.27Y-86.11
X130.27Y-116.36
X131.02Y-80.36
X131.52Y-116.36
X132.02Y-80.36
X133.67Y-109.41
X134.27Y-126.61
X134.77Y-79.31
X135.27Y-111.36
X136.77Y-109.41
X136.77Y-111.36
X138.02Y-86.11
X139.27Y-87.11
X139.67Y-109.41
X139.77Y-88.61
X139.77Y-111.36
X140.47Y-78.51
X141.67Y-109.41
X141.77Y-87.11
X141.77Y-89.61
X142.27Y-126.61
X142.52Y-111.36
X143.37Y-110.51
X144.52Y-86.11
X145.77Y-91.61
X145.77Y-94.61
X145.77Y-97.36
X145.77Y-99.61
X145.77Y-103.61
X145.77Y-107.61
X145.77Y-111.36
X149.27Y-126.61
X151.27Y-94.61
X151.27Y-97.36
X151.27Y-99.61
X151.27Y-105.11
X151.27Y-107.61
X153.27Y-91.86
X154.77Y-93.36
X154.77Y-105.11
X154.77Y-107.61
X156.52Y-106.11
X158.27Y-104.61
X158.27Y-107.61
X160.07Y-108.61
X161.27Y-95.86
X161.27Y-101.36
X161.77Y-91.61
X161.77Y-121.11
X161.77Y-123.11
X161.77Y-125.11
X162.27Y-103.61
X162.27Y-107.61
X164.77Y-94.11
X166.27Y-107.61
X167.77Y-106.11
X168.77Y-119.61
X168.77Y-127.11
X170.27Y-91.61
X170.27Y-94.61
X170.27Y-105.61
X170.27Y-108.61
X174.27Y-91.61
X174.27Y-94.61
X174.27Y-105.61
X174.27Y-108.61
X174.27Y-119.61
T2
X136.27Y-81.61
X136.27Y-84.11
X142.05Y-81.61
X149.67Y-81.61
X153.29Y-110.2
X153.29Y-117.82
X153.37Y-82.19
X153.37Y-89.81
X153.37Y-95.75
X153.37Y-103.37
X156.52Y-95.75
X156.52Y-103.37
X164.54Y-96.2
X164.54Y-103.82
X164.54Y-110.2
X164.54Y-117.82
X164.57Y-82.21
X164.57Y-89.83
T3
X128.27Y-81.57
X128.27Y-84.11
T4
X114.52Y-81.74
X114.52Y-84.28
X114.52Y-86.82
X114.52Y-89.36
X114.545Y-110.79
X114.545Y-113.33
X114.545Y-115.87
X114.545Y-118.41
X118.77Y-74.23
X118.77Y-76.77
X121.31Y-74.23
X121.31Y-76.77
X123.85Y-74.23
X123.85Y-76.77
X126.02Y-96.2
X126.02Y-98.74
X126.02Y-101.28
X126.02Y-103.82
X126.39Y-74.23
X126.39Y-76.77
X128.93Y-74.23
X128.93Y-76.77
X131.47Y-74.23
X131.47Y-76.77
X134.01Y-74.23
X134.01Y-76.77
X136.55Y-74.23
X136.55Y-76.77
X139.09Y-74.23
X139.09Y-76.77
X141.63Y-74.23
X141.63Y-76.77
X144.17Y-74.23
X144.17Y-76.77
X146.71Y-74.23
X146.71Y-76.77
X149.25Y-74.23
X149.25Y-76.77
X151.79Y-74.23
X151.79Y-76.77
X154.33Y-74.23
X154.33Y-76.77
X156.87Y-74.23
X156.87Y-76.77
X159.41Y-74.23
X159.41Y-76.77
X161.95Y-74.23
X161.95Y-76.77
X164.49Y-74.23
X164.49Y-76.77
X167.03Y-74.23
X167.03Y-76.77
T5
X156.52Y-82.75
X156.52Y-89.25
X156.52Y-110.75
X156.52Y-117.25
X161.02Y-82.75
X161.02Y-89.25
X161.02Y-110.75
X161.02Y-117.25
X167.77Y-82.75
X167.77Y-89.25
X167.77Y-96.75
X167.77Y-103.25
X167.77Y-110.75
X167.77Y-117.25
X172.27Y-82.75
X172.27Y-89.25
X172.27Y-96.75
X172.27Y-103.25
X172.27Y-110.75
X172.27Y-117.25
T6
X154.478Y-123.11
X158.928Y-123.11
T7
X134.02Y-123.11
X149.26Y-123.11
T8
X126.42Y-88.85
X126.42Y-110.36
X149.62Y-88.85
X149.62Y-110.36
T2
G00X119.77Y-120.112
M15
G01X119.77Y-119.712
M16
G05
G00X121.77Y-120.112
M15
G01X121.77Y-119.712
M16
G05
G00X123.77Y-120.112
M15
G01X123.77Y-119.712
M16
G05
T0
M30
