%TF.GenerationSoftware,KiCad,Pcbnew,7.0.1-0*%
%TF.CreationDate,2023-11-24T13:11:02+01:00*%
%TF.ProjectId,LoRa_Hat,4c6f5261-5f48-4617-942e-6b696361645f,rev?*%
%TF.SameCoordinates,Original*%
%TF.FileFunction,Legend,Top*%
%TF.FilePolarity,Positive*%
%FSLAX46Y46*%
G04 Gerber Fmt 4.6, Leading zero omitted, Abs format (unit mm)*
G04 Created by KiCad (PCBNEW 7.0.1-0) date 2023-11-24 13:11:02*
%MOMM*%
%LPD*%
G01*
G04 APERTURE LIST*
%ADD10C,0.120000*%
%ADD11C,0.300000*%
%ADD12C,0.100000*%
%ADD13C,0.200000*%
%ADD14C,0.150000*%
%ADD15C,0.127000*%
%ADD16C,0.400000*%
G04 APERTURE END LIST*
D10*
X127770000Y-105810000D02*
G75*
G03*
X127770000Y-105810000I-500000J0D01*
G01*
D11*
X118695238Y-117657618D02*
X116695238Y-117657618D01*
X116695238Y-116324285D02*
X116695238Y-115943332D01*
X116695238Y-115943332D02*
X116790476Y-115752856D01*
X116790476Y-115752856D02*
X116980952Y-115562380D01*
X116980952Y-115562380D02*
X117361904Y-115467142D01*
X117361904Y-115467142D02*
X118028571Y-115467142D01*
X118028571Y-115467142D02*
X118409523Y-115562380D01*
X118409523Y-115562380D02*
X118600000Y-115752856D01*
X118600000Y-115752856D02*
X118695238Y-115943332D01*
X118695238Y-115943332D02*
X118695238Y-116324285D01*
X118695238Y-116324285D02*
X118600000Y-116514761D01*
X118600000Y-116514761D02*
X118409523Y-116705237D01*
X118409523Y-116705237D02*
X118028571Y-116800475D01*
X118028571Y-116800475D02*
X117361904Y-116800475D01*
X117361904Y-116800475D02*
X116980952Y-116705237D01*
X116980952Y-116705237D02*
X116790476Y-116514761D01*
X116790476Y-116514761D02*
X116695238Y-116324285D01*
X118695238Y-114609999D02*
X116695238Y-114609999D01*
X116695238Y-113276666D02*
X116695238Y-112895713D01*
X116695238Y-112895713D02*
X116790476Y-112705237D01*
X116790476Y-112705237D02*
X116980952Y-112514761D01*
X116980952Y-112514761D02*
X117361904Y-112419523D01*
X117361904Y-112419523D02*
X118028571Y-112419523D01*
X118028571Y-112419523D02*
X118409523Y-112514761D01*
X118409523Y-112514761D02*
X118600000Y-112705237D01*
X118600000Y-112705237D02*
X118695238Y-112895713D01*
X118695238Y-112895713D02*
X118695238Y-113276666D01*
X118695238Y-113276666D02*
X118600000Y-113467142D01*
X118600000Y-113467142D02*
X118409523Y-113657618D01*
X118409523Y-113657618D02*
X118028571Y-113752856D01*
X118028571Y-113752856D02*
X117361904Y-113752856D01*
X117361904Y-113752856D02*
X116980952Y-113657618D01*
X116980952Y-113657618D02*
X116790476Y-113467142D01*
X116790476Y-113467142D02*
X116695238Y-113276666D01*
X118695238Y-111562380D02*
X116695238Y-111562380D01*
D12*
X121248571Y-96684095D02*
X120791428Y-96684095D01*
X121020000Y-96684095D02*
X121020000Y-95884095D01*
X121020000Y-95884095D02*
X120943809Y-95998380D01*
X120943809Y-95998380D02*
X120867619Y-96074571D01*
X120867619Y-96074571D02*
X120791428Y-96112666D01*
X120791428Y-97256285D02*
X120829524Y-97218190D01*
X120829524Y-97218190D02*
X120905714Y-97180095D01*
X120905714Y-97180095D02*
X121096190Y-97180095D01*
X121096190Y-97180095D02*
X121172381Y-97218190D01*
X121172381Y-97218190D02*
X121210476Y-97256285D01*
X121210476Y-97256285D02*
X121248571Y-97332476D01*
X121248571Y-97332476D02*
X121248571Y-97408666D01*
X121248571Y-97408666D02*
X121210476Y-97522952D01*
X121210476Y-97522952D02*
X120753333Y-97980095D01*
X120753333Y-97980095D02*
X121248571Y-97980095D01*
X120753333Y-98476095D02*
X121248571Y-98476095D01*
X121248571Y-98476095D02*
X120981905Y-98780857D01*
X120981905Y-98780857D02*
X121096190Y-98780857D01*
X121096190Y-98780857D02*
X121172381Y-98818952D01*
X121172381Y-98818952D02*
X121210476Y-98857047D01*
X121210476Y-98857047D02*
X121248571Y-98933238D01*
X121248571Y-98933238D02*
X121248571Y-99123714D01*
X121248571Y-99123714D02*
X121210476Y-99199904D01*
X121210476Y-99199904D02*
X121172381Y-99238000D01*
X121172381Y-99238000D02*
X121096190Y-99276095D01*
X121096190Y-99276095D02*
X120867619Y-99276095D01*
X120867619Y-99276095D02*
X120791428Y-99238000D01*
X120791428Y-99238000D02*
X120753333Y-99199904D01*
D11*
X118695238Y-87562380D02*
X116695238Y-87562380D01*
X116885714Y-86705237D02*
X116790476Y-86609999D01*
X116790476Y-86609999D02*
X116695238Y-86419523D01*
X116695238Y-86419523D02*
X116695238Y-85943332D01*
X116695238Y-85943332D02*
X116790476Y-85752856D01*
X116790476Y-85752856D02*
X116885714Y-85657618D01*
X116885714Y-85657618D02*
X117076190Y-85562380D01*
X117076190Y-85562380D02*
X117266666Y-85562380D01*
X117266666Y-85562380D02*
X117552380Y-85657618D01*
X117552380Y-85657618D02*
X118695238Y-86800475D01*
X118695238Y-86800475D02*
X118695238Y-85562380D01*
X118504761Y-83562380D02*
X118600000Y-83657618D01*
X118600000Y-83657618D02*
X118695238Y-83943332D01*
X118695238Y-83943332D02*
X118695238Y-84133808D01*
X118695238Y-84133808D02*
X118600000Y-84419523D01*
X118600000Y-84419523D02*
X118409523Y-84609999D01*
X118409523Y-84609999D02*
X118219047Y-84705237D01*
X118219047Y-84705237D02*
X117838095Y-84800475D01*
X117838095Y-84800475D02*
X117552380Y-84800475D01*
X117552380Y-84800475D02*
X117171428Y-84705237D01*
X117171428Y-84705237D02*
X116980952Y-84609999D01*
X116980952Y-84609999D02*
X116790476Y-84419523D01*
X116790476Y-84419523D02*
X116695238Y-84133808D01*
X116695238Y-84133808D02*
X116695238Y-83943332D01*
X116695238Y-83943332D02*
X116790476Y-83657618D01*
X116790476Y-83657618D02*
X116885714Y-83562380D01*
X129639047Y-124785238D02*
X128686666Y-124785238D01*
X128686666Y-124785238D02*
X128591428Y-125737619D01*
X128591428Y-125737619D02*
X128686666Y-125642380D01*
X128686666Y-125642380D02*
X128877142Y-125547142D01*
X128877142Y-125547142D02*
X129353333Y-125547142D01*
X129353333Y-125547142D02*
X129543809Y-125642380D01*
X129543809Y-125642380D02*
X129639047Y-125737619D01*
X129639047Y-125737619D02*
X129734285Y-125928095D01*
X129734285Y-125928095D02*
X129734285Y-126404285D01*
X129734285Y-126404285D02*
X129639047Y-126594761D01*
X129639047Y-126594761D02*
X129543809Y-126690000D01*
X129543809Y-126690000D02*
X129353333Y-126785238D01*
X129353333Y-126785238D02*
X128877142Y-126785238D01*
X128877142Y-126785238D02*
X128686666Y-126690000D01*
X128686666Y-126690000D02*
X128591428Y-126594761D01*
X130305714Y-124785238D02*
X130972380Y-126785238D01*
X130972380Y-126785238D02*
X131639047Y-124785238D01*
D13*
X157627143Y-119625357D02*
X157484286Y-119553928D01*
X157484286Y-119553928D02*
X157270000Y-119553928D01*
X157270000Y-119553928D02*
X157055714Y-119625357D01*
X157055714Y-119625357D02*
X156912857Y-119768214D01*
X156912857Y-119768214D02*
X156841428Y-119911071D01*
X156841428Y-119911071D02*
X156770000Y-120196785D01*
X156770000Y-120196785D02*
X156770000Y-120411071D01*
X156770000Y-120411071D02*
X156841428Y-120696785D01*
X156841428Y-120696785D02*
X156912857Y-120839642D01*
X156912857Y-120839642D02*
X157055714Y-120982500D01*
X157055714Y-120982500D02*
X157270000Y-121053928D01*
X157270000Y-121053928D02*
X157412857Y-121053928D01*
X157412857Y-121053928D02*
X157627143Y-120982500D01*
X157627143Y-120982500D02*
X157698571Y-120911071D01*
X157698571Y-120911071D02*
X157698571Y-120411071D01*
X157698571Y-120411071D02*
X157412857Y-120411071D01*
X158341428Y-121053928D02*
X158341428Y-119553928D01*
X158341428Y-119553928D02*
X159198571Y-121053928D01*
X159198571Y-121053928D02*
X159198571Y-119553928D01*
X159912857Y-121053928D02*
X159912857Y-119553928D01*
X159912857Y-119553928D02*
X160270000Y-119553928D01*
X160270000Y-119553928D02*
X160484286Y-119625357D01*
X160484286Y-119625357D02*
X160627143Y-119768214D01*
X160627143Y-119768214D02*
X160698572Y-119911071D01*
X160698572Y-119911071D02*
X160770000Y-120196785D01*
X160770000Y-120196785D02*
X160770000Y-120411071D01*
X160770000Y-120411071D02*
X160698572Y-120696785D01*
X160698572Y-120696785D02*
X160627143Y-120839642D01*
X160627143Y-120839642D02*
X160484286Y-120982500D01*
X160484286Y-120982500D02*
X160270000Y-121053928D01*
X160270000Y-121053928D02*
X159912857Y-121053928D01*
D12*
X121248571Y-101684095D02*
X120791428Y-101684095D01*
X121020000Y-101684095D02*
X121020000Y-100884095D01*
X121020000Y-100884095D02*
X120943809Y-100998380D01*
X120943809Y-100998380D02*
X120867619Y-101074571D01*
X120867619Y-101074571D02*
X120791428Y-101112666D01*
X120791428Y-102256285D02*
X120829524Y-102218190D01*
X120829524Y-102218190D02*
X120905714Y-102180095D01*
X120905714Y-102180095D02*
X121096190Y-102180095D01*
X121096190Y-102180095D02*
X121172381Y-102218190D01*
X121172381Y-102218190D02*
X121210476Y-102256285D01*
X121210476Y-102256285D02*
X121248571Y-102332476D01*
X121248571Y-102332476D02*
X121248571Y-102408666D01*
X121248571Y-102408666D02*
X121210476Y-102522952D01*
X121210476Y-102522952D02*
X120753333Y-102980095D01*
X120753333Y-102980095D02*
X121248571Y-102980095D01*
X120753333Y-103476095D02*
X121248571Y-103476095D01*
X121248571Y-103476095D02*
X120981905Y-103780857D01*
X120981905Y-103780857D02*
X121096190Y-103780857D01*
X121096190Y-103780857D02*
X121172381Y-103818952D01*
X121172381Y-103818952D02*
X121210476Y-103857047D01*
X121210476Y-103857047D02*
X121248571Y-103933238D01*
X121248571Y-103933238D02*
X121248571Y-104123714D01*
X121248571Y-104123714D02*
X121210476Y-104199904D01*
X121210476Y-104199904D02*
X121172381Y-104238000D01*
X121172381Y-104238000D02*
X121096190Y-104276095D01*
X121096190Y-104276095D02*
X120867619Y-104276095D01*
X120867619Y-104276095D02*
X120791428Y-104238000D01*
X120791428Y-104238000D02*
X120753333Y-104199904D01*
D11*
X118695238Y-104419524D02*
X118695238Y-105371905D01*
X118695238Y-105371905D02*
X116695238Y-105371905D01*
X118695238Y-103467143D02*
X118600000Y-103657619D01*
X118600000Y-103657619D02*
X118504761Y-103752857D01*
X118504761Y-103752857D02*
X118314285Y-103848095D01*
X118314285Y-103848095D02*
X117742857Y-103848095D01*
X117742857Y-103848095D02*
X117552380Y-103752857D01*
X117552380Y-103752857D02*
X117457142Y-103657619D01*
X117457142Y-103657619D02*
X117361904Y-103467143D01*
X117361904Y-103467143D02*
X117361904Y-103181428D01*
X117361904Y-103181428D02*
X117457142Y-102990952D01*
X117457142Y-102990952D02*
X117552380Y-102895714D01*
X117552380Y-102895714D02*
X117742857Y-102800476D01*
X117742857Y-102800476D02*
X118314285Y-102800476D01*
X118314285Y-102800476D02*
X118504761Y-102895714D01*
X118504761Y-102895714D02*
X118600000Y-102990952D01*
X118600000Y-102990952D02*
X118695238Y-103181428D01*
X118695238Y-103181428D02*
X118695238Y-103467143D01*
X118695238Y-100800476D02*
X117742857Y-101467143D01*
X118695238Y-101943333D02*
X116695238Y-101943333D01*
X116695238Y-101943333D02*
X116695238Y-101181428D01*
X116695238Y-101181428D02*
X116790476Y-100990952D01*
X116790476Y-100990952D02*
X116885714Y-100895714D01*
X116885714Y-100895714D02*
X117076190Y-100800476D01*
X117076190Y-100800476D02*
X117361904Y-100800476D01*
X117361904Y-100800476D02*
X117552380Y-100895714D01*
X117552380Y-100895714D02*
X117647619Y-100990952D01*
X117647619Y-100990952D02*
X117742857Y-101181428D01*
X117742857Y-101181428D02*
X117742857Y-101943333D01*
X118695238Y-99086190D02*
X117647619Y-99086190D01*
X117647619Y-99086190D02*
X117457142Y-99181428D01*
X117457142Y-99181428D02*
X117361904Y-99371904D01*
X117361904Y-99371904D02*
X117361904Y-99752857D01*
X117361904Y-99752857D02*
X117457142Y-99943333D01*
X118600000Y-99086190D02*
X118695238Y-99276666D01*
X118695238Y-99276666D02*
X118695238Y-99752857D01*
X118695238Y-99752857D02*
X118600000Y-99943333D01*
X118600000Y-99943333D02*
X118409523Y-100038571D01*
X118409523Y-100038571D02*
X118219047Y-100038571D01*
X118219047Y-100038571D02*
X118028571Y-99943333D01*
X118028571Y-99943333D02*
X117933333Y-99752857D01*
X117933333Y-99752857D02*
X117933333Y-99276666D01*
X117933333Y-99276666D02*
X117838095Y-99086190D01*
X118695238Y-95467142D02*
X117742857Y-96133809D01*
X118695238Y-96609999D02*
X116695238Y-96609999D01*
X116695238Y-96609999D02*
X116695238Y-95848094D01*
X116695238Y-95848094D02*
X116790476Y-95657618D01*
X116790476Y-95657618D02*
X116885714Y-95562380D01*
X116885714Y-95562380D02*
X117076190Y-95467142D01*
X117076190Y-95467142D02*
X117361904Y-95467142D01*
X117361904Y-95467142D02*
X117552380Y-95562380D01*
X117552380Y-95562380D02*
X117647619Y-95657618D01*
X117647619Y-95657618D02*
X117742857Y-95848094D01*
X117742857Y-95848094D02*
X117742857Y-96609999D01*
X117647619Y-93943332D02*
X117647619Y-94609999D01*
X118695238Y-94609999D02*
X116695238Y-94609999D01*
X116695238Y-94609999D02*
X116695238Y-93657618D01*
D14*
X150639048Y-126155952D02*
X150829524Y-126822619D01*
X150829524Y-126822619D02*
X151020000Y-126346428D01*
X151020000Y-126346428D02*
X151210476Y-126822619D01*
X151210476Y-126822619D02*
X151400952Y-126155952D01*
X151686667Y-126155952D02*
X151877143Y-126822619D01*
X151877143Y-126822619D02*
X152067619Y-126346428D01*
X152067619Y-126346428D02*
X152258095Y-126822619D01*
X152258095Y-126822619D02*
X152448571Y-126155952D01*
X152734286Y-126155952D02*
X152924762Y-126822619D01*
X152924762Y-126822619D02*
X153115238Y-126346428D01*
X153115238Y-126346428D02*
X153305714Y-126822619D01*
X153305714Y-126822619D02*
X153496190Y-126155952D01*
X153877143Y-126727380D02*
X153924762Y-126775000D01*
X153924762Y-126775000D02*
X153877143Y-126822619D01*
X153877143Y-126822619D02*
X153829524Y-126775000D01*
X153829524Y-126775000D02*
X153877143Y-126727380D01*
X153877143Y-126727380D02*
X153877143Y-126822619D01*
X154305714Y-126775000D02*
X154400952Y-126822619D01*
X154400952Y-126822619D02*
X154591428Y-126822619D01*
X154591428Y-126822619D02*
X154686666Y-126775000D01*
X154686666Y-126775000D02*
X154734285Y-126679761D01*
X154734285Y-126679761D02*
X154734285Y-126632142D01*
X154734285Y-126632142D02*
X154686666Y-126536904D01*
X154686666Y-126536904D02*
X154591428Y-126489285D01*
X154591428Y-126489285D02*
X154448571Y-126489285D01*
X154448571Y-126489285D02*
X154353333Y-126441666D01*
X154353333Y-126441666D02*
X154305714Y-126346428D01*
X154305714Y-126346428D02*
X154305714Y-126298809D01*
X154305714Y-126298809D02*
X154353333Y-126203571D01*
X154353333Y-126203571D02*
X154448571Y-126155952D01*
X154448571Y-126155952D02*
X154591428Y-126155952D01*
X154591428Y-126155952D02*
X154686666Y-126203571D01*
X155067619Y-126155952D02*
X155258095Y-126822619D01*
X155258095Y-126822619D02*
X155448571Y-126346428D01*
X155448571Y-126346428D02*
X155639047Y-126822619D01*
X155639047Y-126822619D02*
X155829523Y-126155952D01*
X156210476Y-126822619D02*
X156210476Y-126155952D01*
X156210476Y-125822619D02*
X156162857Y-125870238D01*
X156162857Y-125870238D02*
X156210476Y-125917857D01*
X156210476Y-125917857D02*
X156258095Y-125870238D01*
X156258095Y-125870238D02*
X156210476Y-125822619D01*
X156210476Y-125822619D02*
X156210476Y-125917857D01*
X156639047Y-126775000D02*
X156734285Y-126822619D01*
X156734285Y-126822619D02*
X156924761Y-126822619D01*
X156924761Y-126822619D02*
X157019999Y-126775000D01*
X157019999Y-126775000D02*
X157067618Y-126679761D01*
X157067618Y-126679761D02*
X157067618Y-126632142D01*
X157067618Y-126632142D02*
X157019999Y-126536904D01*
X157019999Y-126536904D02*
X156924761Y-126489285D01*
X156924761Y-126489285D02*
X156781904Y-126489285D01*
X156781904Y-126489285D02*
X156686666Y-126441666D01*
X156686666Y-126441666D02*
X156639047Y-126346428D01*
X156639047Y-126346428D02*
X156639047Y-126298809D01*
X156639047Y-126298809D02*
X156686666Y-126203571D01*
X156686666Y-126203571D02*
X156781904Y-126155952D01*
X156781904Y-126155952D02*
X156924761Y-126155952D01*
X156924761Y-126155952D02*
X157019999Y-126203571D01*
X157448571Y-126775000D02*
X157543809Y-126822619D01*
X157543809Y-126822619D02*
X157734285Y-126822619D01*
X157734285Y-126822619D02*
X157829523Y-126775000D01*
X157829523Y-126775000D02*
X157877142Y-126679761D01*
X157877142Y-126679761D02*
X157877142Y-126632142D01*
X157877142Y-126632142D02*
X157829523Y-126536904D01*
X157829523Y-126536904D02*
X157734285Y-126489285D01*
X157734285Y-126489285D02*
X157591428Y-126489285D01*
X157591428Y-126489285D02*
X157496190Y-126441666D01*
X157496190Y-126441666D02*
X157448571Y-126346428D01*
X157448571Y-126346428D02*
X157448571Y-126298809D01*
X157448571Y-126298809D02*
X157496190Y-126203571D01*
X157496190Y-126203571D02*
X157591428Y-126155952D01*
X157591428Y-126155952D02*
X157734285Y-126155952D01*
X157734285Y-126155952D02*
X157829523Y-126203571D01*
X158305714Y-126441666D02*
X159067619Y-126441666D01*
X159972380Y-126822619D02*
X159972380Y-126298809D01*
X159972380Y-126298809D02*
X159924761Y-126203571D01*
X159924761Y-126203571D02*
X159829523Y-126155952D01*
X159829523Y-126155952D02*
X159639047Y-126155952D01*
X159639047Y-126155952D02*
X159543809Y-126203571D01*
X159972380Y-126775000D02*
X159877142Y-126822619D01*
X159877142Y-126822619D02*
X159639047Y-126822619D01*
X159639047Y-126822619D02*
X159543809Y-126775000D01*
X159543809Y-126775000D02*
X159496190Y-126679761D01*
X159496190Y-126679761D02*
X159496190Y-126584523D01*
X159496190Y-126584523D02*
X159543809Y-126489285D01*
X159543809Y-126489285D02*
X159639047Y-126441666D01*
X159639047Y-126441666D02*
X159877142Y-126441666D01*
X159877142Y-126441666D02*
X159972380Y-126394047D01*
X160448571Y-126822619D02*
X160448571Y-126155952D01*
X160448571Y-126346428D02*
X160496190Y-126251190D01*
X160496190Y-126251190D02*
X160543809Y-126203571D01*
X160543809Y-126203571D02*
X160639047Y-126155952D01*
X160639047Y-126155952D02*
X160734285Y-126155952D01*
X160924762Y-126155952D02*
X161305714Y-126155952D01*
X161067619Y-125822619D02*
X161067619Y-126679761D01*
X161067619Y-126679761D02*
X161115238Y-126775000D01*
X161115238Y-126775000D02*
X161210476Y-126822619D01*
X161210476Y-126822619D02*
X161305714Y-126822619D01*
X162067619Y-126155952D02*
X162067619Y-126965476D01*
X162067619Y-126965476D02*
X162020000Y-127060714D01*
X162020000Y-127060714D02*
X161972381Y-127108333D01*
X161972381Y-127108333D02*
X161877143Y-127155952D01*
X161877143Y-127155952D02*
X161734286Y-127155952D01*
X161734286Y-127155952D02*
X161639048Y-127108333D01*
X162067619Y-126775000D02*
X161972381Y-126822619D01*
X161972381Y-126822619D02*
X161781905Y-126822619D01*
X161781905Y-126822619D02*
X161686667Y-126775000D01*
X161686667Y-126775000D02*
X161639048Y-126727380D01*
X161639048Y-126727380D02*
X161591429Y-126632142D01*
X161591429Y-126632142D02*
X161591429Y-126346428D01*
X161591429Y-126346428D02*
X161639048Y-126251190D01*
X161639048Y-126251190D02*
X161686667Y-126203571D01*
X161686667Y-126203571D02*
X161781905Y-126155952D01*
X161781905Y-126155952D02*
X161972381Y-126155952D01*
X161972381Y-126155952D02*
X162067619Y-126203571D01*
X162543810Y-126727380D02*
X162591429Y-126775000D01*
X162591429Y-126775000D02*
X162543810Y-126822619D01*
X162543810Y-126822619D02*
X162496191Y-126775000D01*
X162496191Y-126775000D02*
X162543810Y-126727380D01*
X162543810Y-126727380D02*
X162543810Y-126822619D01*
X163448571Y-126775000D02*
X163353333Y-126822619D01*
X163353333Y-126822619D02*
X163162857Y-126822619D01*
X163162857Y-126822619D02*
X163067619Y-126775000D01*
X163067619Y-126775000D02*
X163020000Y-126727380D01*
X163020000Y-126727380D02*
X162972381Y-126632142D01*
X162972381Y-126632142D02*
X162972381Y-126346428D01*
X162972381Y-126346428D02*
X163020000Y-126251190D01*
X163020000Y-126251190D02*
X163067619Y-126203571D01*
X163067619Y-126203571D02*
X163162857Y-126155952D01*
X163162857Y-126155952D02*
X163353333Y-126155952D01*
X163353333Y-126155952D02*
X163448571Y-126203571D01*
X163877143Y-126822619D02*
X163877143Y-125822619D01*
X164305714Y-126822619D02*
X164305714Y-126298809D01*
X164305714Y-126298809D02*
X164258095Y-126203571D01*
X164258095Y-126203571D02*
X164162857Y-126155952D01*
X164162857Y-126155952D02*
X164020000Y-126155952D01*
X164020000Y-126155952D02*
X163924762Y-126203571D01*
X163924762Y-126203571D02*
X163877143Y-126251190D01*
D13*
X117548572Y-78553928D02*
X116691429Y-78553928D01*
X117120000Y-78553928D02*
X117120000Y-77053928D01*
X117120000Y-77053928D02*
X116977143Y-77268214D01*
X116977143Y-77268214D02*
X116834286Y-77411071D01*
X116834286Y-77411071D02*
X116691429Y-77482500D01*
X154234286Y-119553928D02*
X153520000Y-119553928D01*
X153520000Y-119553928D02*
X153448572Y-120268214D01*
X153448572Y-120268214D02*
X153520000Y-120196785D01*
X153520000Y-120196785D02*
X153662858Y-120125357D01*
X153662858Y-120125357D02*
X154020000Y-120125357D01*
X154020000Y-120125357D02*
X154162858Y-120196785D01*
X154162858Y-120196785D02*
X154234286Y-120268214D01*
X154234286Y-120268214D02*
X154305715Y-120411071D01*
X154305715Y-120411071D02*
X154305715Y-120768214D01*
X154305715Y-120768214D02*
X154234286Y-120911071D01*
X154234286Y-120911071D02*
X154162858Y-120982500D01*
X154162858Y-120982500D02*
X154020000Y-121053928D01*
X154020000Y-121053928D02*
X153662858Y-121053928D01*
X153662858Y-121053928D02*
X153520000Y-120982500D01*
X153520000Y-120982500D02*
X153448572Y-120911071D01*
X154734286Y-119553928D02*
X155234286Y-121053928D01*
X155234286Y-121053928D02*
X155734286Y-119553928D01*
X116563928Y-90881427D02*
X116563928Y-91738570D01*
X116563928Y-91309999D02*
X115063928Y-91309999D01*
X115063928Y-91309999D02*
X115278214Y-91452856D01*
X115278214Y-91452856D02*
X115421071Y-91595713D01*
X115421071Y-91595713D02*
X115492500Y-91738570D01*
X116563928Y-119931427D02*
X116563928Y-120788570D01*
X116563928Y-120359999D02*
X115063928Y-120359999D01*
X115063928Y-120359999D02*
X115278214Y-120502856D01*
X115278214Y-120502856D02*
X115421071Y-120645713D01*
X115421071Y-120645713D02*
X115492500Y-120788570D01*
D14*
%TO.C,J6*%
X121536136Y-116371764D02*
X121536136Y-117087186D01*
X121536136Y-117087186D02*
X121488442Y-117230271D01*
X121488442Y-117230271D02*
X121393052Y-117325661D01*
X121393052Y-117325661D02*
X121249968Y-117373355D01*
X121249968Y-117373355D02*
X121154578Y-117373355D01*
X122442338Y-116371764D02*
X122251559Y-116371764D01*
X122251559Y-116371764D02*
X122156169Y-116419459D01*
X122156169Y-116419459D02*
X122108474Y-116467154D01*
X122108474Y-116467154D02*
X122013085Y-116610238D01*
X122013085Y-116610238D02*
X121965390Y-116801018D01*
X121965390Y-116801018D02*
X121965390Y-117182576D01*
X121965390Y-117182576D02*
X122013085Y-117277966D01*
X122013085Y-117277966D02*
X122060779Y-117325661D01*
X122060779Y-117325661D02*
X122156169Y-117373355D01*
X122156169Y-117373355D02*
X122346948Y-117373355D01*
X122346948Y-117373355D02*
X122442338Y-117325661D01*
X122442338Y-117325661D02*
X122490033Y-117277966D01*
X122490033Y-117277966D02*
X122537727Y-117182576D01*
X122537727Y-117182576D02*
X122537727Y-116944102D01*
X122537727Y-116944102D02*
X122490033Y-116848712D01*
X122490033Y-116848712D02*
X122442338Y-116801018D01*
X122442338Y-116801018D02*
X122346948Y-116753323D01*
X122346948Y-116753323D02*
X122156169Y-116753323D01*
X122156169Y-116753323D02*
X122060779Y-116801018D01*
X122060779Y-116801018D02*
X122013085Y-116848712D01*
X122013085Y-116848712D02*
X121965390Y-116944102D01*
%TO.C,D1*%
X140901905Y-119852619D02*
X140901905Y-118852619D01*
X140901905Y-118852619D02*
X141140000Y-118852619D01*
X141140000Y-118852619D02*
X141282857Y-118900238D01*
X141282857Y-118900238D02*
X141378095Y-118995476D01*
X141378095Y-118995476D02*
X141425714Y-119090714D01*
X141425714Y-119090714D02*
X141473333Y-119281190D01*
X141473333Y-119281190D02*
X141473333Y-119424047D01*
X141473333Y-119424047D02*
X141425714Y-119614523D01*
X141425714Y-119614523D02*
X141378095Y-119709761D01*
X141378095Y-119709761D02*
X141282857Y-119805000D01*
X141282857Y-119805000D02*
X141140000Y-119852619D01*
X141140000Y-119852619D02*
X140901905Y-119852619D01*
X142425714Y-119852619D02*
X141854286Y-119852619D01*
X142140000Y-119852619D02*
X142140000Y-118852619D01*
X142140000Y-118852619D02*
X142044762Y-118995476D01*
X142044762Y-118995476D02*
X141949524Y-119090714D01*
X141949524Y-119090714D02*
X141854286Y-119138333D01*
X133758095Y-120972619D02*
X133758095Y-119972619D01*
X134329523Y-120972619D02*
X133900952Y-120401190D01*
X134329523Y-119972619D02*
X133758095Y-120544047D01*
%TO.C,R5*%
X167402619Y-86186666D02*
X166926428Y-86519999D01*
X167402619Y-86758094D02*
X166402619Y-86758094D01*
X166402619Y-86758094D02*
X166402619Y-86377142D01*
X166402619Y-86377142D02*
X166450238Y-86281904D01*
X166450238Y-86281904D02*
X166497857Y-86234285D01*
X166497857Y-86234285D02*
X166593095Y-86186666D01*
X166593095Y-86186666D02*
X166735952Y-86186666D01*
X166735952Y-86186666D02*
X166831190Y-86234285D01*
X166831190Y-86234285D02*
X166878809Y-86281904D01*
X166878809Y-86281904D02*
X166926428Y-86377142D01*
X166926428Y-86377142D02*
X166926428Y-86758094D01*
X166402619Y-85281904D02*
X166402619Y-85758094D01*
X166402619Y-85758094D02*
X166878809Y-85805713D01*
X166878809Y-85805713D02*
X166831190Y-85758094D01*
X166831190Y-85758094D02*
X166783571Y-85662856D01*
X166783571Y-85662856D02*
X166783571Y-85424761D01*
X166783571Y-85424761D02*
X166831190Y-85329523D01*
X166831190Y-85329523D02*
X166878809Y-85281904D01*
X166878809Y-85281904D02*
X166974047Y-85234285D01*
X166974047Y-85234285D02*
X167212142Y-85234285D01*
X167212142Y-85234285D02*
X167307380Y-85281904D01*
X167307380Y-85281904D02*
X167355000Y-85329523D01*
X167355000Y-85329523D02*
X167402619Y-85424761D01*
X167402619Y-85424761D02*
X167402619Y-85662856D01*
X167402619Y-85662856D02*
X167355000Y-85758094D01*
X167355000Y-85758094D02*
X167307380Y-85805713D01*
%TO.C,JP2*%
X121936666Y-94072619D02*
X121936666Y-94786904D01*
X121936666Y-94786904D02*
X121889047Y-94929761D01*
X121889047Y-94929761D02*
X121793809Y-95025000D01*
X121793809Y-95025000D02*
X121650952Y-95072619D01*
X121650952Y-95072619D02*
X121555714Y-95072619D01*
X122412857Y-95072619D02*
X122412857Y-94072619D01*
X122412857Y-94072619D02*
X122793809Y-94072619D01*
X122793809Y-94072619D02*
X122889047Y-94120238D01*
X122889047Y-94120238D02*
X122936666Y-94167857D01*
X122936666Y-94167857D02*
X122984285Y-94263095D01*
X122984285Y-94263095D02*
X122984285Y-94405952D01*
X122984285Y-94405952D02*
X122936666Y-94501190D01*
X122936666Y-94501190D02*
X122889047Y-94548809D01*
X122889047Y-94548809D02*
X122793809Y-94596428D01*
X122793809Y-94596428D02*
X122412857Y-94596428D01*
X123365238Y-94167857D02*
X123412857Y-94120238D01*
X123412857Y-94120238D02*
X123508095Y-94072619D01*
X123508095Y-94072619D02*
X123746190Y-94072619D01*
X123746190Y-94072619D02*
X123841428Y-94120238D01*
X123841428Y-94120238D02*
X123889047Y-94167857D01*
X123889047Y-94167857D02*
X123936666Y-94263095D01*
X123936666Y-94263095D02*
X123936666Y-94358333D01*
X123936666Y-94358333D02*
X123889047Y-94501190D01*
X123889047Y-94501190D02*
X123317619Y-95072619D01*
X123317619Y-95072619D02*
X123936666Y-95072619D01*
%TO.C,SW5*%
X174435000Y-87693332D02*
X174482619Y-87550475D01*
X174482619Y-87550475D02*
X174482619Y-87312380D01*
X174482619Y-87312380D02*
X174435000Y-87217142D01*
X174435000Y-87217142D02*
X174387380Y-87169523D01*
X174387380Y-87169523D02*
X174292142Y-87121904D01*
X174292142Y-87121904D02*
X174196904Y-87121904D01*
X174196904Y-87121904D02*
X174101666Y-87169523D01*
X174101666Y-87169523D02*
X174054047Y-87217142D01*
X174054047Y-87217142D02*
X174006428Y-87312380D01*
X174006428Y-87312380D02*
X173958809Y-87502856D01*
X173958809Y-87502856D02*
X173911190Y-87598094D01*
X173911190Y-87598094D02*
X173863571Y-87645713D01*
X173863571Y-87645713D02*
X173768333Y-87693332D01*
X173768333Y-87693332D02*
X173673095Y-87693332D01*
X173673095Y-87693332D02*
X173577857Y-87645713D01*
X173577857Y-87645713D02*
X173530238Y-87598094D01*
X173530238Y-87598094D02*
X173482619Y-87502856D01*
X173482619Y-87502856D02*
X173482619Y-87264761D01*
X173482619Y-87264761D02*
X173530238Y-87121904D01*
X173482619Y-86788570D02*
X174482619Y-86550475D01*
X174482619Y-86550475D02*
X173768333Y-86359999D01*
X173768333Y-86359999D02*
X174482619Y-86169523D01*
X174482619Y-86169523D02*
X173482619Y-85931428D01*
X173482619Y-85074285D02*
X173482619Y-85550475D01*
X173482619Y-85550475D02*
X173958809Y-85598094D01*
X173958809Y-85598094D02*
X173911190Y-85550475D01*
X173911190Y-85550475D02*
X173863571Y-85455237D01*
X173863571Y-85455237D02*
X173863571Y-85217142D01*
X173863571Y-85217142D02*
X173911190Y-85121904D01*
X173911190Y-85121904D02*
X173958809Y-85074285D01*
X173958809Y-85074285D02*
X174054047Y-85026666D01*
X174054047Y-85026666D02*
X174292142Y-85026666D01*
X174292142Y-85026666D02*
X174387380Y-85074285D01*
X174387380Y-85074285D02*
X174435000Y-85121904D01*
X174435000Y-85121904D02*
X174482619Y-85217142D01*
X174482619Y-85217142D02*
X174482619Y-85455237D01*
X174482619Y-85455237D02*
X174435000Y-85550475D01*
X174435000Y-85550475D02*
X174387380Y-85598094D01*
%TO.C,C1*%
X134087380Y-83026666D02*
X134135000Y-83074285D01*
X134135000Y-83074285D02*
X134182619Y-83217142D01*
X134182619Y-83217142D02*
X134182619Y-83312380D01*
X134182619Y-83312380D02*
X134135000Y-83455237D01*
X134135000Y-83455237D02*
X134039761Y-83550475D01*
X134039761Y-83550475D02*
X133944523Y-83598094D01*
X133944523Y-83598094D02*
X133754047Y-83645713D01*
X133754047Y-83645713D02*
X133611190Y-83645713D01*
X133611190Y-83645713D02*
X133420714Y-83598094D01*
X133420714Y-83598094D02*
X133325476Y-83550475D01*
X133325476Y-83550475D02*
X133230238Y-83455237D01*
X133230238Y-83455237D02*
X133182619Y-83312380D01*
X133182619Y-83312380D02*
X133182619Y-83217142D01*
X133182619Y-83217142D02*
X133230238Y-83074285D01*
X133230238Y-83074285D02*
X133277857Y-83026666D01*
X134182619Y-82074285D02*
X134182619Y-82645713D01*
X134182619Y-82359999D02*
X133182619Y-82359999D01*
X133182619Y-82359999D02*
X133325476Y-82455237D01*
X133325476Y-82455237D02*
X133420714Y-82550475D01*
X133420714Y-82550475D02*
X133468333Y-82645713D01*
%TO.C,R4*%
X167372619Y-100176666D02*
X166896428Y-100509999D01*
X167372619Y-100748094D02*
X166372619Y-100748094D01*
X166372619Y-100748094D02*
X166372619Y-100367142D01*
X166372619Y-100367142D02*
X166420238Y-100271904D01*
X166420238Y-100271904D02*
X166467857Y-100224285D01*
X166467857Y-100224285D02*
X166563095Y-100176666D01*
X166563095Y-100176666D02*
X166705952Y-100176666D01*
X166705952Y-100176666D02*
X166801190Y-100224285D01*
X166801190Y-100224285D02*
X166848809Y-100271904D01*
X166848809Y-100271904D02*
X166896428Y-100367142D01*
X166896428Y-100367142D02*
X166896428Y-100748094D01*
X166705952Y-99319523D02*
X167372619Y-99319523D01*
X166325000Y-99557618D02*
X167039285Y-99795713D01*
X167039285Y-99795713D02*
X167039285Y-99176666D01*
%TO.C,R2*%
X156202619Y-86166666D02*
X155726428Y-86499999D01*
X156202619Y-86738094D02*
X155202619Y-86738094D01*
X155202619Y-86738094D02*
X155202619Y-86357142D01*
X155202619Y-86357142D02*
X155250238Y-86261904D01*
X155250238Y-86261904D02*
X155297857Y-86214285D01*
X155297857Y-86214285D02*
X155393095Y-86166666D01*
X155393095Y-86166666D02*
X155535952Y-86166666D01*
X155535952Y-86166666D02*
X155631190Y-86214285D01*
X155631190Y-86214285D02*
X155678809Y-86261904D01*
X155678809Y-86261904D02*
X155726428Y-86357142D01*
X155726428Y-86357142D02*
X155726428Y-86738094D01*
X155297857Y-85785713D02*
X155250238Y-85738094D01*
X155250238Y-85738094D02*
X155202619Y-85642856D01*
X155202619Y-85642856D02*
X155202619Y-85404761D01*
X155202619Y-85404761D02*
X155250238Y-85309523D01*
X155250238Y-85309523D02*
X155297857Y-85261904D01*
X155297857Y-85261904D02*
X155393095Y-85214285D01*
X155393095Y-85214285D02*
X155488333Y-85214285D01*
X155488333Y-85214285D02*
X155631190Y-85261904D01*
X155631190Y-85261904D02*
X156202619Y-85833332D01*
X156202619Y-85833332D02*
X156202619Y-85214285D01*
%TO.C,J2*%
X125482619Y-94193333D02*
X126196904Y-94193333D01*
X126196904Y-94193333D02*
X126339761Y-94240952D01*
X126339761Y-94240952D02*
X126435000Y-94336190D01*
X126435000Y-94336190D02*
X126482619Y-94479047D01*
X126482619Y-94479047D02*
X126482619Y-94574285D01*
X125577857Y-93764761D02*
X125530238Y-93717142D01*
X125530238Y-93717142D02*
X125482619Y-93621904D01*
X125482619Y-93621904D02*
X125482619Y-93383809D01*
X125482619Y-93383809D02*
X125530238Y-93288571D01*
X125530238Y-93288571D02*
X125577857Y-93240952D01*
X125577857Y-93240952D02*
X125673095Y-93193333D01*
X125673095Y-93193333D02*
X125768333Y-93193333D01*
X125768333Y-93193333D02*
X125911190Y-93240952D01*
X125911190Y-93240952D02*
X126482619Y-93812380D01*
X126482619Y-93812380D02*
X126482619Y-93193333D01*
%TO.C,SW1*%
X163185000Y-115193332D02*
X163232619Y-115050475D01*
X163232619Y-115050475D02*
X163232619Y-114812380D01*
X163232619Y-114812380D02*
X163185000Y-114717142D01*
X163185000Y-114717142D02*
X163137380Y-114669523D01*
X163137380Y-114669523D02*
X163042142Y-114621904D01*
X163042142Y-114621904D02*
X162946904Y-114621904D01*
X162946904Y-114621904D02*
X162851666Y-114669523D01*
X162851666Y-114669523D02*
X162804047Y-114717142D01*
X162804047Y-114717142D02*
X162756428Y-114812380D01*
X162756428Y-114812380D02*
X162708809Y-115002856D01*
X162708809Y-115002856D02*
X162661190Y-115098094D01*
X162661190Y-115098094D02*
X162613571Y-115145713D01*
X162613571Y-115145713D02*
X162518333Y-115193332D01*
X162518333Y-115193332D02*
X162423095Y-115193332D01*
X162423095Y-115193332D02*
X162327857Y-115145713D01*
X162327857Y-115145713D02*
X162280238Y-115098094D01*
X162280238Y-115098094D02*
X162232619Y-115002856D01*
X162232619Y-115002856D02*
X162232619Y-114764761D01*
X162232619Y-114764761D02*
X162280238Y-114621904D01*
X162232619Y-114288570D02*
X163232619Y-114050475D01*
X163232619Y-114050475D02*
X162518333Y-113859999D01*
X162518333Y-113859999D02*
X163232619Y-113669523D01*
X163232619Y-113669523D02*
X162232619Y-113431428D01*
X163232619Y-112526666D02*
X163232619Y-113098094D01*
X163232619Y-112812380D02*
X162232619Y-112812380D01*
X162232619Y-112812380D02*
X162375476Y-112907618D01*
X162375476Y-112907618D02*
X162470714Y-113002856D01*
X162470714Y-113002856D02*
X162518333Y-113098094D01*
%TO.C,R7*%
X154612619Y-99726666D02*
X154136428Y-100059999D01*
X154612619Y-100298094D02*
X153612619Y-100298094D01*
X153612619Y-100298094D02*
X153612619Y-99917142D01*
X153612619Y-99917142D02*
X153660238Y-99821904D01*
X153660238Y-99821904D02*
X153707857Y-99774285D01*
X153707857Y-99774285D02*
X153803095Y-99726666D01*
X153803095Y-99726666D02*
X153945952Y-99726666D01*
X153945952Y-99726666D02*
X154041190Y-99774285D01*
X154041190Y-99774285D02*
X154088809Y-99821904D01*
X154088809Y-99821904D02*
X154136428Y-99917142D01*
X154136428Y-99917142D02*
X154136428Y-100298094D01*
X153612619Y-99393332D02*
X153612619Y-98726666D01*
X153612619Y-98726666D02*
X154612619Y-99155237D01*
%TO.C,JP1*%
X121936666Y-104822619D02*
X121936666Y-105536904D01*
X121936666Y-105536904D02*
X121889047Y-105679761D01*
X121889047Y-105679761D02*
X121793809Y-105775000D01*
X121793809Y-105775000D02*
X121650952Y-105822619D01*
X121650952Y-105822619D02*
X121555714Y-105822619D01*
X122412857Y-105822619D02*
X122412857Y-104822619D01*
X122412857Y-104822619D02*
X122793809Y-104822619D01*
X122793809Y-104822619D02*
X122889047Y-104870238D01*
X122889047Y-104870238D02*
X122936666Y-104917857D01*
X122936666Y-104917857D02*
X122984285Y-105013095D01*
X122984285Y-105013095D02*
X122984285Y-105155952D01*
X122984285Y-105155952D02*
X122936666Y-105251190D01*
X122936666Y-105251190D02*
X122889047Y-105298809D01*
X122889047Y-105298809D02*
X122793809Y-105346428D01*
X122793809Y-105346428D02*
X122412857Y-105346428D01*
X123936666Y-105822619D02*
X123365238Y-105822619D01*
X123650952Y-105822619D02*
X123650952Y-104822619D01*
X123650952Y-104822619D02*
X123555714Y-104965476D01*
X123555714Y-104965476D02*
X123460476Y-105060714D01*
X123460476Y-105060714D02*
X123365238Y-105108333D01*
%TO.C,SW2*%
X163185000Y-87443332D02*
X163232619Y-87300475D01*
X163232619Y-87300475D02*
X163232619Y-87062380D01*
X163232619Y-87062380D02*
X163185000Y-86967142D01*
X163185000Y-86967142D02*
X163137380Y-86919523D01*
X163137380Y-86919523D02*
X163042142Y-86871904D01*
X163042142Y-86871904D02*
X162946904Y-86871904D01*
X162946904Y-86871904D02*
X162851666Y-86919523D01*
X162851666Y-86919523D02*
X162804047Y-86967142D01*
X162804047Y-86967142D02*
X162756428Y-87062380D01*
X162756428Y-87062380D02*
X162708809Y-87252856D01*
X162708809Y-87252856D02*
X162661190Y-87348094D01*
X162661190Y-87348094D02*
X162613571Y-87395713D01*
X162613571Y-87395713D02*
X162518333Y-87443332D01*
X162518333Y-87443332D02*
X162423095Y-87443332D01*
X162423095Y-87443332D02*
X162327857Y-87395713D01*
X162327857Y-87395713D02*
X162280238Y-87348094D01*
X162280238Y-87348094D02*
X162232619Y-87252856D01*
X162232619Y-87252856D02*
X162232619Y-87014761D01*
X162232619Y-87014761D02*
X162280238Y-86871904D01*
X162232619Y-86538570D02*
X163232619Y-86300475D01*
X163232619Y-86300475D02*
X162518333Y-86109999D01*
X162518333Y-86109999D02*
X163232619Y-85919523D01*
X163232619Y-85919523D02*
X162232619Y-85681428D01*
X162327857Y-85348094D02*
X162280238Y-85300475D01*
X162280238Y-85300475D02*
X162232619Y-85205237D01*
X162232619Y-85205237D02*
X162232619Y-84967142D01*
X162232619Y-84967142D02*
X162280238Y-84871904D01*
X162280238Y-84871904D02*
X162327857Y-84824285D01*
X162327857Y-84824285D02*
X162423095Y-84776666D01*
X162423095Y-84776666D02*
X162518333Y-84776666D01*
X162518333Y-84776666D02*
X162661190Y-84824285D01*
X162661190Y-84824285D02*
X163232619Y-85395713D01*
X163232619Y-85395713D02*
X163232619Y-84776666D01*
%TO.C,R1*%
X156122619Y-114176666D02*
X155646428Y-114509999D01*
X156122619Y-114748094D02*
X155122619Y-114748094D01*
X155122619Y-114748094D02*
X155122619Y-114367142D01*
X155122619Y-114367142D02*
X155170238Y-114271904D01*
X155170238Y-114271904D02*
X155217857Y-114224285D01*
X155217857Y-114224285D02*
X155313095Y-114176666D01*
X155313095Y-114176666D02*
X155455952Y-114176666D01*
X155455952Y-114176666D02*
X155551190Y-114224285D01*
X155551190Y-114224285D02*
X155598809Y-114271904D01*
X155598809Y-114271904D02*
X155646428Y-114367142D01*
X155646428Y-114367142D02*
X155646428Y-114748094D01*
X156122619Y-113224285D02*
X156122619Y-113795713D01*
X156122619Y-113509999D02*
X155122619Y-113509999D01*
X155122619Y-113509999D02*
X155265476Y-113605237D01*
X155265476Y-113605237D02*
X155360714Y-113700475D01*
X155360714Y-113700475D02*
X155408333Y-113795713D01*
%TO.C,R6*%
X151462619Y-99726666D02*
X150986428Y-100059999D01*
X151462619Y-100298094D02*
X150462619Y-100298094D01*
X150462619Y-100298094D02*
X150462619Y-99917142D01*
X150462619Y-99917142D02*
X150510238Y-99821904D01*
X150510238Y-99821904D02*
X150557857Y-99774285D01*
X150557857Y-99774285D02*
X150653095Y-99726666D01*
X150653095Y-99726666D02*
X150795952Y-99726666D01*
X150795952Y-99726666D02*
X150891190Y-99774285D01*
X150891190Y-99774285D02*
X150938809Y-99821904D01*
X150938809Y-99821904D02*
X150986428Y-99917142D01*
X150986428Y-99917142D02*
X150986428Y-100298094D01*
X150462619Y-98869523D02*
X150462619Y-99059999D01*
X150462619Y-99059999D02*
X150510238Y-99155237D01*
X150510238Y-99155237D02*
X150557857Y-99202856D01*
X150557857Y-99202856D02*
X150700714Y-99298094D01*
X150700714Y-99298094D02*
X150891190Y-99345713D01*
X150891190Y-99345713D02*
X151272142Y-99345713D01*
X151272142Y-99345713D02*
X151367380Y-99298094D01*
X151367380Y-99298094D02*
X151415000Y-99250475D01*
X151415000Y-99250475D02*
X151462619Y-99155237D01*
X151462619Y-99155237D02*
X151462619Y-98964761D01*
X151462619Y-98964761D02*
X151415000Y-98869523D01*
X151415000Y-98869523D02*
X151367380Y-98821904D01*
X151367380Y-98821904D02*
X151272142Y-98774285D01*
X151272142Y-98774285D02*
X151034047Y-98774285D01*
X151034047Y-98774285D02*
X150938809Y-98821904D01*
X150938809Y-98821904D02*
X150891190Y-98869523D01*
X150891190Y-98869523D02*
X150843571Y-98964761D01*
X150843571Y-98964761D02*
X150843571Y-99155237D01*
X150843571Y-99155237D02*
X150891190Y-99250475D01*
X150891190Y-99250475D02*
X150938809Y-99298094D01*
X150938809Y-99298094D02*
X151034047Y-99345713D01*
%TO.C,J4*%
X111232619Y-108443333D02*
X111946904Y-108443333D01*
X111946904Y-108443333D02*
X112089761Y-108490952D01*
X112089761Y-108490952D02*
X112185000Y-108586190D01*
X112185000Y-108586190D02*
X112232619Y-108729047D01*
X112232619Y-108729047D02*
X112232619Y-108824285D01*
X111565952Y-107538571D02*
X112232619Y-107538571D01*
X111185000Y-107776666D02*
X111899285Y-108014761D01*
X111899285Y-108014761D02*
X111899285Y-107395714D01*
%TO.C,R8*%
X145693333Y-84442619D02*
X145360000Y-83966428D01*
X145121905Y-84442619D02*
X145121905Y-83442619D01*
X145121905Y-83442619D02*
X145502857Y-83442619D01*
X145502857Y-83442619D02*
X145598095Y-83490238D01*
X145598095Y-83490238D02*
X145645714Y-83537857D01*
X145645714Y-83537857D02*
X145693333Y-83633095D01*
X145693333Y-83633095D02*
X145693333Y-83775952D01*
X145693333Y-83775952D02*
X145645714Y-83871190D01*
X145645714Y-83871190D02*
X145598095Y-83918809D01*
X145598095Y-83918809D02*
X145502857Y-83966428D01*
X145502857Y-83966428D02*
X145121905Y-83966428D01*
X146264762Y-83871190D02*
X146169524Y-83823571D01*
X146169524Y-83823571D02*
X146121905Y-83775952D01*
X146121905Y-83775952D02*
X146074286Y-83680714D01*
X146074286Y-83680714D02*
X146074286Y-83633095D01*
X146074286Y-83633095D02*
X146121905Y-83537857D01*
X146121905Y-83537857D02*
X146169524Y-83490238D01*
X146169524Y-83490238D02*
X146264762Y-83442619D01*
X146264762Y-83442619D02*
X146455238Y-83442619D01*
X146455238Y-83442619D02*
X146550476Y-83490238D01*
X146550476Y-83490238D02*
X146598095Y-83537857D01*
X146598095Y-83537857D02*
X146645714Y-83633095D01*
X146645714Y-83633095D02*
X146645714Y-83680714D01*
X146645714Y-83680714D02*
X146598095Y-83775952D01*
X146598095Y-83775952D02*
X146550476Y-83823571D01*
X146550476Y-83823571D02*
X146455238Y-83871190D01*
X146455238Y-83871190D02*
X146264762Y-83871190D01*
X146264762Y-83871190D02*
X146169524Y-83918809D01*
X146169524Y-83918809D02*
X146121905Y-83966428D01*
X146121905Y-83966428D02*
X146074286Y-84061666D01*
X146074286Y-84061666D02*
X146074286Y-84252142D01*
X146074286Y-84252142D02*
X146121905Y-84347380D01*
X146121905Y-84347380D02*
X146169524Y-84395000D01*
X146169524Y-84395000D02*
X146264762Y-84442619D01*
X146264762Y-84442619D02*
X146455238Y-84442619D01*
X146455238Y-84442619D02*
X146550476Y-84395000D01*
X146550476Y-84395000D02*
X146598095Y-84347380D01*
X146598095Y-84347380D02*
X146645714Y-84252142D01*
X146645714Y-84252142D02*
X146645714Y-84061666D01*
X146645714Y-84061666D02*
X146598095Y-83966428D01*
X146598095Y-83966428D02*
X146550476Y-83918809D01*
X146550476Y-83918809D02*
X146455238Y-83871190D01*
%TO.C,D2*%
X131692619Y-83578094D02*
X130692619Y-83578094D01*
X130692619Y-83578094D02*
X130692619Y-83339999D01*
X130692619Y-83339999D02*
X130740238Y-83197142D01*
X130740238Y-83197142D02*
X130835476Y-83101904D01*
X130835476Y-83101904D02*
X130930714Y-83054285D01*
X130930714Y-83054285D02*
X131121190Y-83006666D01*
X131121190Y-83006666D02*
X131264047Y-83006666D01*
X131264047Y-83006666D02*
X131454523Y-83054285D01*
X131454523Y-83054285D02*
X131549761Y-83101904D01*
X131549761Y-83101904D02*
X131645000Y-83197142D01*
X131645000Y-83197142D02*
X131692619Y-83339999D01*
X131692619Y-83339999D02*
X131692619Y-83578094D01*
X130787857Y-82625713D02*
X130740238Y-82578094D01*
X130740238Y-82578094D02*
X130692619Y-82482856D01*
X130692619Y-82482856D02*
X130692619Y-82244761D01*
X130692619Y-82244761D02*
X130740238Y-82149523D01*
X130740238Y-82149523D02*
X130787857Y-82101904D01*
X130787857Y-82101904D02*
X130883095Y-82054285D01*
X130883095Y-82054285D02*
X130978333Y-82054285D01*
X130978333Y-82054285D02*
X131121190Y-82101904D01*
X131121190Y-82101904D02*
X131692619Y-82673332D01*
X131692619Y-82673332D02*
X131692619Y-82054285D01*
%TO.C,SW4*%
X174435000Y-101193332D02*
X174482619Y-101050475D01*
X174482619Y-101050475D02*
X174482619Y-100812380D01*
X174482619Y-100812380D02*
X174435000Y-100717142D01*
X174435000Y-100717142D02*
X174387380Y-100669523D01*
X174387380Y-100669523D02*
X174292142Y-100621904D01*
X174292142Y-100621904D02*
X174196904Y-100621904D01*
X174196904Y-100621904D02*
X174101666Y-100669523D01*
X174101666Y-100669523D02*
X174054047Y-100717142D01*
X174054047Y-100717142D02*
X174006428Y-100812380D01*
X174006428Y-100812380D02*
X173958809Y-101002856D01*
X173958809Y-101002856D02*
X173911190Y-101098094D01*
X173911190Y-101098094D02*
X173863571Y-101145713D01*
X173863571Y-101145713D02*
X173768333Y-101193332D01*
X173768333Y-101193332D02*
X173673095Y-101193332D01*
X173673095Y-101193332D02*
X173577857Y-101145713D01*
X173577857Y-101145713D02*
X173530238Y-101098094D01*
X173530238Y-101098094D02*
X173482619Y-101002856D01*
X173482619Y-101002856D02*
X173482619Y-100764761D01*
X173482619Y-100764761D02*
X173530238Y-100621904D01*
X173482619Y-100288570D02*
X174482619Y-100050475D01*
X174482619Y-100050475D02*
X173768333Y-99859999D01*
X173768333Y-99859999D02*
X174482619Y-99669523D01*
X174482619Y-99669523D02*
X173482619Y-99431428D01*
X173815952Y-98621904D02*
X174482619Y-98621904D01*
X173435000Y-98859999D02*
X174149285Y-99098094D01*
X174149285Y-99098094D02*
X174149285Y-98479047D01*
%TO.C,J3*%
X111232619Y-79443333D02*
X111946904Y-79443333D01*
X111946904Y-79443333D02*
X112089761Y-79490952D01*
X112089761Y-79490952D02*
X112185000Y-79586190D01*
X112185000Y-79586190D02*
X112232619Y-79729047D01*
X112232619Y-79729047D02*
X112232619Y-79824285D01*
X111232619Y-79062380D02*
X111232619Y-78443333D01*
X111232619Y-78443333D02*
X111613571Y-78776666D01*
X111613571Y-78776666D02*
X111613571Y-78633809D01*
X111613571Y-78633809D02*
X111661190Y-78538571D01*
X111661190Y-78538571D02*
X111708809Y-78490952D01*
X111708809Y-78490952D02*
X111804047Y-78443333D01*
X111804047Y-78443333D02*
X112042142Y-78443333D01*
X112042142Y-78443333D02*
X112137380Y-78490952D01*
X112137380Y-78490952D02*
X112185000Y-78538571D01*
X112185000Y-78538571D02*
X112232619Y-78633809D01*
X112232619Y-78633809D02*
X112232619Y-78919523D01*
X112232619Y-78919523D02*
X112185000Y-79014761D01*
X112185000Y-79014761D02*
X112137380Y-79062380D01*
%TO.C,R3*%
X167372619Y-114176666D02*
X166896428Y-114509999D01*
X167372619Y-114748094D02*
X166372619Y-114748094D01*
X166372619Y-114748094D02*
X166372619Y-114367142D01*
X166372619Y-114367142D02*
X166420238Y-114271904D01*
X166420238Y-114271904D02*
X166467857Y-114224285D01*
X166467857Y-114224285D02*
X166563095Y-114176666D01*
X166563095Y-114176666D02*
X166705952Y-114176666D01*
X166705952Y-114176666D02*
X166801190Y-114224285D01*
X166801190Y-114224285D02*
X166848809Y-114271904D01*
X166848809Y-114271904D02*
X166896428Y-114367142D01*
X166896428Y-114367142D02*
X166896428Y-114748094D01*
X166372619Y-113843332D02*
X166372619Y-113224285D01*
X166372619Y-113224285D02*
X166753571Y-113557618D01*
X166753571Y-113557618D02*
X166753571Y-113414761D01*
X166753571Y-113414761D02*
X166801190Y-113319523D01*
X166801190Y-113319523D02*
X166848809Y-113271904D01*
X166848809Y-113271904D02*
X166944047Y-113224285D01*
X166944047Y-113224285D02*
X167182142Y-113224285D01*
X167182142Y-113224285D02*
X167277380Y-113271904D01*
X167277380Y-113271904D02*
X167325000Y-113319523D01*
X167325000Y-113319523D02*
X167372619Y-113414761D01*
X167372619Y-113414761D02*
X167372619Y-113700475D01*
X167372619Y-113700475D02*
X167325000Y-113795713D01*
X167325000Y-113795713D02*
X167277380Y-113843332D01*
%TO.C,SW3*%
X174435000Y-115333332D02*
X174482619Y-115190475D01*
X174482619Y-115190475D02*
X174482619Y-114952380D01*
X174482619Y-114952380D02*
X174435000Y-114857142D01*
X174435000Y-114857142D02*
X174387380Y-114809523D01*
X174387380Y-114809523D02*
X174292142Y-114761904D01*
X174292142Y-114761904D02*
X174196904Y-114761904D01*
X174196904Y-114761904D02*
X174101666Y-114809523D01*
X174101666Y-114809523D02*
X174054047Y-114857142D01*
X174054047Y-114857142D02*
X174006428Y-114952380D01*
X174006428Y-114952380D02*
X173958809Y-115142856D01*
X173958809Y-115142856D02*
X173911190Y-115238094D01*
X173911190Y-115238094D02*
X173863571Y-115285713D01*
X173863571Y-115285713D02*
X173768333Y-115333332D01*
X173768333Y-115333332D02*
X173673095Y-115333332D01*
X173673095Y-115333332D02*
X173577857Y-115285713D01*
X173577857Y-115285713D02*
X173530238Y-115238094D01*
X173530238Y-115238094D02*
X173482619Y-115142856D01*
X173482619Y-115142856D02*
X173482619Y-114904761D01*
X173482619Y-114904761D02*
X173530238Y-114761904D01*
X173482619Y-114428570D02*
X174482619Y-114190475D01*
X174482619Y-114190475D02*
X173768333Y-113999999D01*
X173768333Y-113999999D02*
X174482619Y-113809523D01*
X174482619Y-113809523D02*
X173482619Y-113571428D01*
X173482619Y-113285713D02*
X173482619Y-112666666D01*
X173482619Y-112666666D02*
X173863571Y-112999999D01*
X173863571Y-112999999D02*
X173863571Y-112857142D01*
X173863571Y-112857142D02*
X173911190Y-112761904D01*
X173911190Y-112761904D02*
X173958809Y-112714285D01*
X173958809Y-112714285D02*
X174054047Y-112666666D01*
X174054047Y-112666666D02*
X174292142Y-112666666D01*
X174292142Y-112666666D02*
X174387380Y-112714285D01*
X174387380Y-112714285D02*
X174435000Y-112761904D01*
X174435000Y-112761904D02*
X174482619Y-112857142D01*
X174482619Y-112857142D02*
X174482619Y-113142856D01*
X174482619Y-113142856D02*
X174435000Y-113238094D01*
X174435000Y-113238094D02*
X174387380Y-113285713D01*
D15*
%TO.C,J6*%
X118770000Y-127912500D02*
X124770000Y-127912500D01*
X124770000Y-127912500D02*
X124770000Y-118912500D01*
X118770000Y-118912500D02*
X118770000Y-127912500D01*
X118970000Y-118912500D02*
X118770000Y-118912500D01*
X120970000Y-118912500D02*
X120570000Y-118912500D01*
X122970000Y-118912500D02*
X122570000Y-118912500D01*
X124770000Y-118912500D02*
X124570000Y-118912500D01*
D16*
X122020000Y-117932500D02*
G75*
G03*
X122020000Y-117932500I-200000J0D01*
G01*
D10*
%TO.C,D1*%
X135860000Y-123110000D02*
X136770000Y-123110000D01*
X136770000Y-120390000D02*
X136770000Y-125830000D01*
X136770000Y-125830000D02*
X146510000Y-125830000D01*
X138195000Y-120390000D02*
X138195000Y-125830000D01*
X138315000Y-120390000D02*
X138315000Y-125830000D01*
X138435000Y-120390000D02*
X138435000Y-125830000D01*
X146510000Y-120390000D02*
X136770000Y-120390000D01*
X146510000Y-125830000D02*
X146510000Y-120390000D01*
X147420000Y-123110000D02*
X146510000Y-123110000D01*
%TO.C,R5*%
X165940000Y-82750000D02*
X165940000Y-89290000D01*
X165610000Y-82750000D02*
X165940000Y-82750000D01*
X163530000Y-82750000D02*
X163200000Y-82750000D01*
X163200000Y-82750000D02*
X163200000Y-89290000D01*
X165940000Y-89290000D02*
X165610000Y-89290000D01*
X163200000Y-89290000D02*
X163530000Y-89290000D01*
%TO.C,G\u002A\u002A\u002A*%
G36*
X165363900Y-119707006D02*
G01*
X165369361Y-119717138D01*
X165382969Y-119743922D01*
X165404041Y-119785970D01*
X165431897Y-119841899D01*
X165465857Y-119910321D01*
X165505238Y-119989852D01*
X165549360Y-120079105D01*
X165597541Y-120176696D01*
X165649102Y-120281238D01*
X165703359Y-120391346D01*
X165759633Y-120505634D01*
X165817242Y-120622717D01*
X165875505Y-120741209D01*
X165933741Y-120859723D01*
X165991270Y-120976876D01*
X166047409Y-121091281D01*
X166101478Y-121201551D01*
X166152795Y-121306303D01*
X166200681Y-121404150D01*
X166244452Y-121493706D01*
X166283429Y-121573586D01*
X166316931Y-121642404D01*
X166344275Y-121698774D01*
X166364782Y-121741312D01*
X166377770Y-121768630D01*
X166382557Y-121779345D01*
X166382569Y-121779421D01*
X166373148Y-121781937D01*
X166347480Y-121784000D01*
X166309462Y-121785402D01*
X166262989Y-121785932D01*
X166141266Y-121785932D01*
X166121012Y-121746231D01*
X166112067Y-121728361D01*
X166095071Y-121694079D01*
X166070845Y-121645054D01*
X166040211Y-121582955D01*
X166003988Y-121509455D01*
X165962999Y-121426222D01*
X165918064Y-121334928D01*
X165870004Y-121237242D01*
X165819641Y-121134835D01*
X165767795Y-121029377D01*
X165715289Y-120922538D01*
X165662942Y-120815989D01*
X165611576Y-120711400D01*
X165562011Y-120610441D01*
X165515070Y-120514782D01*
X165471573Y-120426094D01*
X165432342Y-120346047D01*
X165398196Y-120276312D01*
X165369958Y-120218558D01*
X165359927Y-120198009D01*
X165236274Y-119944543D01*
X165296091Y-119821145D01*
X165318336Y-119777018D01*
X165338023Y-119741241D01*
X165353367Y-119716819D01*
X165362583Y-119706759D01*
X165363900Y-119707006D01*
G37*
G36*
X164692468Y-121199042D02*
G01*
X164714223Y-121218038D01*
X164737542Y-121255574D01*
X164749956Y-121280190D01*
X164783907Y-121350370D01*
X164705953Y-121424634D01*
X164673217Y-121455390D01*
X164645573Y-121480564D01*
X164626415Y-121497113D01*
X164619594Y-121502058D01*
X164609901Y-121496256D01*
X164597127Y-121477894D01*
X164595233Y-121474362D01*
X164581966Y-121453606D01*
X164570622Y-121443655D01*
X164569590Y-121443505D01*
X164557792Y-121451754D01*
X164542070Y-121472286D01*
X164526218Y-121498778D01*
X164514029Y-121524906D01*
X164509294Y-121544019D01*
X164509915Y-121554938D01*
X164513974Y-121561133D01*
X164524772Y-121562423D01*
X164545604Y-121558633D01*
X164579770Y-121549583D01*
X164620352Y-121538025D01*
X164678395Y-121523268D01*
X164725206Y-121516174D01*
X164767733Y-121515734D01*
X164772007Y-121516017D01*
X164825051Y-121525043D01*
X164864548Y-121545337D01*
X164895392Y-121580057D01*
X164909631Y-121604853D01*
X164928623Y-121655253D01*
X164929511Y-121696848D01*
X164912243Y-121729774D01*
X164876765Y-121754165D01*
X164846685Y-121764768D01*
X164826017Y-121767933D01*
X164791229Y-121770587D01*
X164745550Y-121772714D01*
X164692207Y-121774299D01*
X164634426Y-121775327D01*
X164575434Y-121775783D01*
X164518459Y-121775651D01*
X164466727Y-121774916D01*
X164423466Y-121773563D01*
X164391903Y-121771576D01*
X164375264Y-121768942D01*
X164373834Y-121766997D01*
X164386682Y-121759382D01*
X164413588Y-121746003D01*
X164450092Y-121729022D01*
X164476589Y-121717193D01*
X164569777Y-121676252D01*
X164585115Y-121705913D01*
X164603792Y-121728896D01*
X164629020Y-121734819D01*
X164663842Y-121724380D01*
X164664373Y-121724139D01*
X164688004Y-121708583D01*
X164693875Y-121689100D01*
X164682971Y-121661585D01*
X164680419Y-121657280D01*
X164652981Y-121629953D01*
X164614211Y-121618655D01*
X164564929Y-121623349D01*
X164505954Y-121643997D01*
X164460644Y-121667182D01*
X164429647Y-121682670D01*
X164406922Y-121689908D01*
X164398089Y-121688826D01*
X164398301Y-121676109D01*
X164406764Y-121648778D01*
X164422012Y-121609869D01*
X164442582Y-121562414D01*
X164467009Y-121509447D01*
X164493830Y-121454000D01*
X164521581Y-121399108D01*
X164548797Y-121347803D01*
X164574014Y-121303119D01*
X164595768Y-121268088D01*
X164611214Y-121247278D01*
X164643502Y-121214264D01*
X164669740Y-121197985D01*
X164692468Y-121199042D01*
G37*
G36*
X165690493Y-119150979D02*
G01*
X165736683Y-119179596D01*
X165778287Y-119217892D01*
X165809581Y-119253648D01*
X165842638Y-119298233D01*
X165878385Y-119353239D01*
X165917750Y-119420261D01*
X165961662Y-119500891D01*
X166011049Y-119596722D01*
X166066839Y-119709348D01*
X166078275Y-119732851D01*
X166198758Y-119981078D01*
X166115216Y-120064187D01*
X166031673Y-120147296D01*
X165934127Y-119951923D01*
X165890508Y-119865243D01*
X165854457Y-119795292D01*
X165825054Y-119740536D01*
X165801378Y-119699438D01*
X165782509Y-119670460D01*
X165767527Y-119652068D01*
X165755512Y-119642725D01*
X165747698Y-119640730D01*
X165726412Y-119649597D01*
X165713624Y-119674009D01*
X165710677Y-119710679D01*
X165712391Y-119726964D01*
X165721797Y-119762173D01*
X165740114Y-119809211D01*
X165764944Y-119863242D01*
X165793888Y-119919428D01*
X165824548Y-119972931D01*
X165854525Y-120018914D01*
X165862624Y-120029987D01*
X165883784Y-120056151D01*
X165909397Y-120083950D01*
X165941495Y-120115232D01*
X165982106Y-120151844D01*
X166033259Y-120195634D01*
X166096984Y-120248448D01*
X166150928Y-120292400D01*
X166262266Y-120390347D01*
X166365641Y-120497755D01*
X166462586Y-120616691D01*
X166554631Y-120749221D01*
X166643310Y-120897410D01*
X166730154Y-121063325D01*
X166744813Y-121093377D01*
X166809516Y-121233437D01*
X166860976Y-121358428D01*
X166899193Y-121468459D01*
X166924164Y-121563642D01*
X166935889Y-121644086D01*
X166934366Y-121709901D01*
X166919594Y-121761197D01*
X166891570Y-121798085D01*
X166850294Y-121820675D01*
X166795764Y-121829076D01*
X166735067Y-121824553D01*
X166652549Y-121801766D01*
X166570820Y-121759418D01*
X166490611Y-121698092D01*
X166412655Y-121618370D01*
X166337683Y-121520834D01*
X166319575Y-121493862D01*
X166302677Y-121465694D01*
X166278852Y-121422774D01*
X166249848Y-121368528D01*
X166217410Y-121306385D01*
X166183285Y-121239772D01*
X166149221Y-121172115D01*
X166116962Y-121106843D01*
X166088257Y-121047383D01*
X166064851Y-120997162D01*
X166054040Y-120972800D01*
X166039983Y-120940200D01*
X166138663Y-120890681D01*
X166237343Y-120841161D01*
X166369585Y-121104565D01*
X166415460Y-121194809D01*
X166454103Y-121268100D01*
X166486463Y-121325892D01*
X166513488Y-121369639D01*
X166536126Y-121400796D01*
X166555324Y-121420816D01*
X166572031Y-121431155D01*
X166583959Y-121433434D01*
X166605274Y-121426168D01*
X166613827Y-121418789D01*
X166619690Y-121396978D01*
X166614522Y-121361243D01*
X166599281Y-121313847D01*
X166574924Y-121257051D01*
X166542409Y-121193119D01*
X166502694Y-121124313D01*
X166462733Y-121061805D01*
X166407318Y-120985982D01*
X166344809Y-120914725D01*
X166271667Y-120844433D01*
X166184356Y-120771510D01*
X166154832Y-120748553D01*
X166068412Y-120678042D01*
X165983886Y-120601101D01*
X165905004Y-120521555D01*
X165835520Y-120443229D01*
X165779185Y-120369948D01*
X165769536Y-120355797D01*
X165740976Y-120310192D01*
X165707771Y-120252978D01*
X165673677Y-120190852D01*
X165642448Y-120130512D01*
X165636814Y-120119120D01*
X165578896Y-119993069D01*
X165534481Y-119877995D01*
X165502683Y-119770778D01*
X165482618Y-119668297D01*
X165473401Y-119567432D01*
X165472657Y-119540016D01*
X165477058Y-119437093D01*
X165493976Y-119346421D01*
X165524342Y-119263777D01*
X165540352Y-119232221D01*
X165573902Y-119182481D01*
X165609707Y-119152385D01*
X165648369Y-119141896D01*
X165690493Y-119150979D01*
G37*
G36*
X165224274Y-120003901D02*
G01*
X165228776Y-120014352D01*
X165240317Y-120041848D01*
X165258247Y-120084813D01*
X165281915Y-120141677D01*
X165310669Y-120210866D01*
X165343858Y-120290806D01*
X165380832Y-120379925D01*
X165420938Y-120476650D01*
X165463526Y-120579407D01*
X165507944Y-120686625D01*
X165553542Y-120796730D01*
X165599668Y-120908148D01*
X165645671Y-121019308D01*
X165690900Y-121128635D01*
X165734703Y-121234558D01*
X165776431Y-121335502D01*
X165815430Y-121429896D01*
X165851051Y-121516166D01*
X165882642Y-121592739D01*
X165909552Y-121658042D01*
X165931129Y-121710503D01*
X165946724Y-121748547D01*
X165955683Y-121770604D01*
X165956883Y-121773619D01*
X165954891Y-121778695D01*
X165942619Y-121782084D01*
X165917668Y-121783956D01*
X165877641Y-121784477D01*
X165820138Y-121783817D01*
X165813223Y-121783690D01*
X165664507Y-121780896D01*
X165386804Y-121310618D01*
X165334512Y-121222173D01*
X165285350Y-121139232D01*
X165240255Y-121063365D01*
X165200167Y-120996139D01*
X165166023Y-120939123D01*
X165138761Y-120893886D01*
X165119320Y-120861994D01*
X165108638Y-120845018D01*
X165106833Y-120842609D01*
X165110026Y-120852109D01*
X165120048Y-120878499D01*
X165136194Y-120919990D01*
X165157756Y-120974794D01*
X165184028Y-121041121D01*
X165214302Y-121117181D01*
X165247871Y-121201187D01*
X165284029Y-121291348D01*
X165290355Y-121307089D01*
X165326977Y-121398362D01*
X165361206Y-121483983D01*
X165392321Y-121562135D01*
X165419605Y-121630995D01*
X165442339Y-121688744D01*
X165459804Y-121733561D01*
X165471282Y-121763627D01*
X165476053Y-121777121D01*
X165476146Y-121777616D01*
X165466677Y-121780612D01*
X165440680Y-121783128D01*
X165401766Y-121784950D01*
X165353547Y-121785865D01*
X165335840Y-121785932D01*
X165195535Y-121785932D01*
X165141091Y-121707879D01*
X165119256Y-121676423D01*
X165089892Y-121633896D01*
X165054531Y-121582536D01*
X165014708Y-121524584D01*
X164971955Y-121462281D01*
X164927806Y-121397867D01*
X164883795Y-121333581D01*
X164841454Y-121271664D01*
X164802317Y-121214356D01*
X164767918Y-121163898D01*
X164739789Y-121122529D01*
X164719465Y-121092489D01*
X164708478Y-121076020D01*
X164707118Y-121073869D01*
X164708703Y-121060864D01*
X164717887Y-121033433D01*
X164733283Y-120995182D01*
X164753503Y-120949712D01*
X164761410Y-120932870D01*
X164786059Y-120881863D01*
X164804005Y-120847057D01*
X164816695Y-120826233D01*
X164825576Y-120817172D01*
X164832097Y-120817656D01*
X164834721Y-120820498D01*
X164842321Y-120832882D01*
X164858587Y-120860711D01*
X164882309Y-120901874D01*
X164912279Y-120954258D01*
X164947289Y-121015754D01*
X164986130Y-121084247D01*
X165022934Y-121149370D01*
X165063637Y-121221360D01*
X165101129Y-121287396D01*
X165134288Y-121345522D01*
X165161992Y-121393782D01*
X165183118Y-121430222D01*
X165196545Y-121452886D01*
X165201141Y-121459886D01*
X165198149Y-121450381D01*
X165188800Y-121423953D01*
X165173803Y-121382539D01*
X165153870Y-121328077D01*
X165129713Y-121262506D01*
X165102041Y-121187764D01*
X165071565Y-121105788D01*
X165051856Y-121052934D01*
X164900614Y-120647814D01*
X164963995Y-120511877D01*
X164986499Y-120464338D01*
X165006215Y-120424055D01*
X165021535Y-120394208D01*
X165030850Y-120377981D01*
X165032709Y-120375963D01*
X165038495Y-120384497D01*
X165053163Y-120409010D01*
X165075788Y-120447888D01*
X165105449Y-120499515D01*
X165141222Y-120562275D01*
X165182185Y-120634552D01*
X165227416Y-120714731D01*
X165275991Y-120801195D01*
X165299744Y-120843596D01*
X165349482Y-120932355D01*
X165396210Y-121015520D01*
X165439018Y-121091486D01*
X165476994Y-121158650D01*
X165509230Y-121215407D01*
X165534815Y-121260153D01*
X165552839Y-121291282D01*
X165562392Y-121307191D01*
X165563700Y-121308952D01*
X165560301Y-121299532D01*
X165549722Y-121273191D01*
X165532641Y-121231555D01*
X165509734Y-121176249D01*
X165481678Y-121108899D01*
X165449151Y-121031132D01*
X165412829Y-120944572D01*
X165373391Y-120850846D01*
X165335047Y-120759947D01*
X165104140Y-120213196D01*
X165160260Y-120101296D01*
X165186342Y-120051125D01*
X165205396Y-120018810D01*
X165217956Y-120003535D01*
X165224274Y-120003901D01*
G37*
G36*
X166027993Y-118443802D02*
G01*
X166077405Y-118476428D01*
X166102974Y-118499471D01*
X166134605Y-118533003D01*
X166167225Y-118573350D01*
X166201734Y-118622029D01*
X166239032Y-118680558D01*
X166280017Y-118750454D01*
X166325590Y-118833235D01*
X166376650Y-118930419D01*
X166434096Y-119043523D01*
X166479359Y-119134538D01*
X166519097Y-119215193D01*
X166555915Y-119290276D01*
X166588880Y-119357859D01*
X166617060Y-119416016D01*
X166639525Y-119462821D01*
X166655342Y-119496347D01*
X166663579Y-119514668D01*
X166664568Y-119517486D01*
X166657996Y-119527455D01*
X166640571Y-119547203D01*
X166615728Y-119573329D01*
X166586902Y-119602433D01*
X166557530Y-119631114D01*
X166531045Y-119655972D01*
X166510884Y-119673605D01*
X166500482Y-119680615D01*
X166499904Y-119680478D01*
X166494568Y-119670718D01*
X166481306Y-119645064D01*
X166461194Y-119605641D01*
X166435310Y-119554572D01*
X166404732Y-119493982D01*
X166370537Y-119425995D01*
X166344373Y-119373838D01*
X166297952Y-119281883D01*
X166259148Y-119206740D01*
X166227047Y-119146971D01*
X166200739Y-119101138D01*
X166179312Y-119067806D01*
X166161856Y-119045535D01*
X166147458Y-119032888D01*
X166135207Y-119028429D01*
X166126262Y-119029821D01*
X166112409Y-119045269D01*
X166108837Y-119075400D01*
X166114782Y-119118049D01*
X166129481Y-119171054D01*
X166152171Y-119232251D01*
X166182089Y-119299478D01*
X166218472Y-119370570D01*
X166260556Y-119443365D01*
X166286694Y-119484623D01*
X166325625Y-119540475D01*
X166370152Y-119597045D01*
X166422651Y-119657007D01*
X166485500Y-119723034D01*
X166561079Y-119797798D01*
X166590508Y-119826075D01*
X166706687Y-119941927D01*
X166813480Y-120059242D01*
X166912901Y-120180848D01*
X167006960Y-120309573D01*
X167097668Y-120448247D01*
X167187036Y-120599697D01*
X167277076Y-120766753D01*
X167321634Y-120854330D01*
X167401669Y-121019395D01*
X167469264Y-121169702D01*
X167524396Y-121305149D01*
X167567041Y-121425636D01*
X167597174Y-121531065D01*
X167614771Y-121621335D01*
X167619810Y-121696345D01*
X167612266Y-121755997D01*
X167592114Y-121800190D01*
X167559332Y-121828824D01*
X167555176Y-121830914D01*
X167519088Y-121842833D01*
X167479185Y-121844247D01*
X167429316Y-121835222D01*
X167418333Y-121832366D01*
X167354865Y-121806840D01*
X167286884Y-121764096D01*
X167216406Y-121705968D01*
X167145452Y-121634293D01*
X167076041Y-121550905D01*
X167016133Y-121466716D01*
X166999744Y-121439935D01*
X166976714Y-121399528D01*
X166948212Y-121347763D01*
X166915405Y-121286907D01*
X166879459Y-121219227D01*
X166841543Y-121146991D01*
X166802825Y-121072466D01*
X166764470Y-120997918D01*
X166727648Y-120925617D01*
X166693525Y-120857828D01*
X166663269Y-120796820D01*
X166638047Y-120744860D01*
X166619028Y-120704214D01*
X166607377Y-120677151D01*
X166604140Y-120666576D01*
X166612523Y-120659387D01*
X166634631Y-120646077D01*
X166665905Y-120628972D01*
X166701782Y-120610398D01*
X166737703Y-120592679D01*
X166769105Y-120578142D01*
X166791430Y-120569111D01*
X166798855Y-120567296D01*
X166804507Y-120576016D01*
X166818007Y-120600871D01*
X166838355Y-120639900D01*
X166864550Y-120691143D01*
X166895590Y-120752639D01*
X166930476Y-120822427D01*
X166968206Y-120898548D01*
X166975182Y-120912689D01*
X167025840Y-121014709D01*
X167068970Y-121099739D01*
X167105406Y-121169115D01*
X167135978Y-121224172D01*
X167161520Y-121266249D01*
X167182862Y-121296680D01*
X167200836Y-121316801D01*
X167216276Y-121327950D01*
X167230011Y-121331463D01*
X167235583Y-121330961D01*
X167250835Y-121319019D01*
X167255197Y-121292212D01*
X167249334Y-121252177D01*
X167233908Y-121200550D01*
X167209582Y-121138968D01*
X167177019Y-121069068D01*
X167136881Y-120992485D01*
X167089832Y-120910858D01*
X167036533Y-120825821D01*
X167022145Y-120803973D01*
X166994654Y-120763652D01*
X166966902Y-120725421D01*
X166937096Y-120687266D01*
X166903439Y-120647172D01*
X166864138Y-120603127D01*
X166817398Y-120553117D01*
X166761423Y-120495128D01*
X166694419Y-120427147D01*
X166618201Y-120350761D01*
X166520533Y-120250391D01*
X166435514Y-120156128D01*
X166360192Y-120063862D01*
X166291615Y-119969482D01*
X166226832Y-119868879D01*
X166162890Y-119757943D01*
X166096838Y-119632564D01*
X166083696Y-119606550D01*
X166010287Y-119453334D01*
X165949505Y-119310500D01*
X165899828Y-119174092D01*
X165859737Y-119040152D01*
X165847199Y-118991126D01*
X165833815Y-118919611D01*
X165825946Y-118840788D01*
X165823606Y-118760261D01*
X165826814Y-118683631D01*
X165835586Y-118616501D01*
X165845954Y-118575374D01*
X165873350Y-118509866D01*
X165905355Y-118463925D01*
X165941865Y-118437581D01*
X165982779Y-118430863D01*
X166027993Y-118443802D01*
G37*
G36*
X163634291Y-122321122D02*
G01*
X163675049Y-122321122D01*
X163683129Y-122324446D01*
X163707613Y-122327181D01*
X163744763Y-122329051D01*
X163790843Y-122329784D01*
X163793388Y-122329786D01*
X163915083Y-122329786D01*
X163915083Y-122246193D01*
X163916297Y-122208929D01*
X163985583Y-122208929D01*
X163985583Y-122329786D01*
X164146725Y-122329786D01*
X164146725Y-122208929D01*
X163985583Y-122208929D01*
X163916297Y-122208929D01*
X163916604Y-122199507D01*
X163920886Y-122166404D01*
X163927169Y-122150515D01*
X163944210Y-122144373D01*
X163980964Y-122140393D01*
X164037567Y-122138564D01*
X164062413Y-122138430D01*
X164121230Y-122138840D01*
X164162870Y-122141494D01*
X164190299Y-122148528D01*
X164206484Y-122162078D01*
X164214390Y-122184281D01*
X164216982Y-122217273D01*
X164217224Y-122249934D01*
X164217224Y-122329786D01*
X164458937Y-122329786D01*
X164458937Y-122246193D01*
X164460151Y-122208929D01*
X164529437Y-122208929D01*
X164529437Y-122329786D01*
X165053148Y-122329786D01*
X165053148Y-122208929D01*
X164529437Y-122208929D01*
X164460151Y-122208929D01*
X164460458Y-122199507D01*
X164464740Y-122166404D01*
X164471023Y-122150515D01*
X164484496Y-122146898D01*
X164515063Y-122143871D01*
X164559684Y-122141436D01*
X164615318Y-122139591D01*
X164678926Y-122138337D01*
X164747467Y-122137673D01*
X164817900Y-122137601D01*
X164887187Y-122138119D01*
X164952286Y-122139228D01*
X165010157Y-122140928D01*
X165057761Y-122143219D01*
X165092057Y-122146101D01*
X165110004Y-122149573D01*
X165111562Y-122150515D01*
X165118092Y-122167561D01*
X165122259Y-122201349D01*
X165123648Y-122246193D01*
X165123648Y-122329786D01*
X165264647Y-122329786D01*
X165264647Y-122240221D01*
X165265119Y-122208929D01*
X165335147Y-122208929D01*
X165335147Y-122329786D01*
X165617145Y-122329786D01*
X165617145Y-122208929D01*
X165335147Y-122208929D01*
X165265119Y-122208929D01*
X165265320Y-122195562D01*
X165267759Y-122167249D01*
X165272588Y-122151516D01*
X165280437Y-122144598D01*
X165280578Y-122144543D01*
X165298856Y-122141437D01*
X165332253Y-122139309D01*
X165376866Y-122138099D01*
X165428793Y-122137748D01*
X165484131Y-122138197D01*
X165538979Y-122139388D01*
X165589434Y-122141261D01*
X165631593Y-122143757D01*
X165661554Y-122146818D01*
X165675415Y-122150383D01*
X165675559Y-122150515D01*
X165682089Y-122167561D01*
X165686256Y-122201349D01*
X165687645Y-122246193D01*
X165687645Y-122329786D01*
X165848787Y-122329786D01*
X165848787Y-122240221D01*
X165849259Y-122208929D01*
X165919286Y-122208929D01*
X165919286Y-122329786D01*
X166060285Y-122329786D01*
X166060285Y-122208929D01*
X165919286Y-122208929D01*
X165849259Y-122208929D01*
X165849460Y-122195562D01*
X165851898Y-122167249D01*
X165856728Y-122151516D01*
X165864576Y-122144598D01*
X165864717Y-122144543D01*
X165884927Y-122140809D01*
X165918459Y-122138648D01*
X165960309Y-122137941D01*
X166005476Y-122138572D01*
X166048955Y-122140421D01*
X166085743Y-122143373D01*
X166110838Y-122147309D01*
X166118699Y-122150515D01*
X166125230Y-122167561D01*
X166129396Y-122201349D01*
X166130785Y-122246193D01*
X166130785Y-122329786D01*
X166271784Y-122329786D01*
X166271784Y-122249934D01*
X166272945Y-122208929D01*
X166342284Y-122208929D01*
X166342284Y-122329786D01*
X166876067Y-122329786D01*
X166876067Y-122208929D01*
X166342284Y-122208929D01*
X166272945Y-122208929D01*
X166273084Y-122204020D01*
X166277407Y-122174244D01*
X166285394Y-122156746D01*
X166287611Y-122154256D01*
X166294343Y-122149730D01*
X166305903Y-122146139D01*
X166324427Y-122143380D01*
X166352050Y-122141350D01*
X166390905Y-122139944D01*
X166443129Y-122139058D01*
X166510857Y-122138589D01*
X166596222Y-122138433D01*
X166612916Y-122138430D01*
X166707959Y-122138667D01*
X166784290Y-122139413D01*
X166843337Y-122140722D01*
X166886525Y-122142647D01*
X166915281Y-122145242D01*
X166931031Y-122148562D01*
X166934481Y-122150515D01*
X166941011Y-122167561D01*
X166945177Y-122201349D01*
X166946566Y-122246193D01*
X166946566Y-122329786D01*
X167087565Y-122329786D01*
X167087565Y-122249934D01*
X167088210Y-122208929D01*
X167158065Y-122208929D01*
X167158065Y-122329786D01*
X167299064Y-122329786D01*
X167299064Y-122208929D01*
X167158065Y-122208929D01*
X167088210Y-122208929D01*
X167088251Y-122206348D01*
X167092353Y-122175917D01*
X167102937Y-122156277D01*
X167123068Y-122145069D01*
X167155813Y-122139928D01*
X167204237Y-122138495D01*
X167232305Y-122138430D01*
X167292354Y-122139610D01*
X167333523Y-122143117D01*
X167355300Y-122148901D01*
X167357478Y-122150515D01*
X167364008Y-122167561D01*
X167368175Y-122201349D01*
X167369564Y-122246193D01*
X167369564Y-122329786D01*
X167510563Y-122329786D01*
X167510563Y-122235185D01*
X167511045Y-122198858D01*
X167581063Y-122198858D01*
X167581063Y-122329786D01*
X168074560Y-122329786D01*
X168074560Y-122198858D01*
X167581063Y-122198858D01*
X167511045Y-122198858D01*
X167511173Y-122189208D01*
X167513392Y-122159664D01*
X167517802Y-122142868D01*
X167524987Y-122135137D01*
X167526494Y-122134472D01*
X167540387Y-122132889D01*
X167571698Y-122131458D01*
X167617703Y-122130235D01*
X167675677Y-122129274D01*
X167742897Y-122128632D01*
X167816638Y-122128363D01*
X167827916Y-122128358D01*
X167912802Y-122128485D01*
X167979775Y-122128944D01*
X168031063Y-122129852D01*
X168068893Y-122131327D01*
X168095494Y-122133484D01*
X168113094Y-122136441D01*
X168123920Y-122140316D01*
X168129233Y-122144185D01*
X168137756Y-122158733D01*
X168142771Y-122184005D01*
X168144888Y-122223879D01*
X168145059Y-122244899D01*
X168145059Y-122329786D01*
X168261720Y-122329786D01*
X168307752Y-122329057D01*
X168344399Y-122327067D01*
X168368000Y-122324108D01*
X168375022Y-122320713D01*
X168369570Y-122308766D01*
X168355812Y-122279758D01*
X168334187Y-122234597D01*
X168305138Y-122174189D01*
X168269105Y-122099442D01*
X168226527Y-122011263D01*
X168177847Y-121910557D01*
X168123504Y-121798233D01*
X168063938Y-121675197D01*
X167999592Y-121542356D01*
X167930904Y-121400617D01*
X167858317Y-121250888D01*
X167782270Y-121094074D01*
X167703204Y-120931083D01*
X167621559Y-120762822D01*
X167537777Y-120590198D01*
X167452297Y-120414117D01*
X167365561Y-120235487D01*
X167278009Y-120055215D01*
X167190081Y-119874207D01*
X167102219Y-119693371D01*
X167014862Y-119513614D01*
X166928452Y-119335841D01*
X166843429Y-119160961D01*
X166760233Y-118989881D01*
X166679306Y-118823506D01*
X166601087Y-118662745D01*
X166526018Y-118508504D01*
X166454538Y-118361690D01*
X166387090Y-118223209D01*
X166324112Y-118093970D01*
X166266047Y-117974879D01*
X166213333Y-117866842D01*
X166166413Y-117770768D01*
X166125726Y-117687562D01*
X166091713Y-117618131D01*
X166064816Y-117563383D01*
X166045473Y-117524225D01*
X166034127Y-117501563D01*
X166031104Y-117495921D01*
X166026422Y-117504845D01*
X166013357Y-117530971D01*
X165992352Y-117573393D01*
X165963850Y-117631204D01*
X165928292Y-117703499D01*
X165886120Y-117789372D01*
X165837778Y-117887918D01*
X165783706Y-117998231D01*
X165724349Y-118119406D01*
X165660146Y-118250535D01*
X165591542Y-118390715D01*
X165518978Y-118539038D01*
X165442896Y-118694600D01*
X165363739Y-118856495D01*
X165281948Y-119023816D01*
X165197967Y-119195659D01*
X165112237Y-119371117D01*
X165025201Y-119549285D01*
X164937300Y-119729258D01*
X164848978Y-119910128D01*
X164760676Y-120090992D01*
X164672836Y-120270942D01*
X164585901Y-120449074D01*
X164500313Y-120624481D01*
X164416515Y-120796259D01*
X164334947Y-120963500D01*
X164256054Y-121125300D01*
X164180277Y-121280753D01*
X164108057Y-121428952D01*
X164039839Y-121568993D01*
X163976062Y-121699970D01*
X163917171Y-121820977D01*
X163863607Y-121931108D01*
X163815813Y-122029457D01*
X163774230Y-122115119D01*
X163739301Y-122187188D01*
X163711468Y-122244759D01*
X163691173Y-122286926D01*
X163678859Y-122312782D01*
X163675049Y-122321122D01*
X163634291Y-122321122D01*
X163648368Y-122291332D01*
X163676092Y-122233154D01*
X163710907Y-122160443D01*
X163752379Y-122074091D01*
X163800073Y-121974993D01*
X163853556Y-121864041D01*
X163912393Y-121742128D01*
X163976152Y-121610148D01*
X164044398Y-121468995D01*
X164116698Y-121319560D01*
X164192617Y-121162739D01*
X164271722Y-120999423D01*
X164353579Y-120830506D01*
X164437755Y-120656881D01*
X164523814Y-120479442D01*
X164611325Y-120299082D01*
X164699852Y-120116693D01*
X164788962Y-119933170D01*
X164878221Y-119749405D01*
X164967195Y-119566292D01*
X165055451Y-119384725D01*
X165142554Y-119205595D01*
X165228071Y-119029797D01*
X165311568Y-118858223D01*
X165392612Y-118691767D01*
X165470767Y-118531323D01*
X165545602Y-118377783D01*
X165616681Y-118232041D01*
X165683570Y-118094989D01*
X165745837Y-117967522D01*
X165803047Y-117850532D01*
X165854767Y-117744913D01*
X165900562Y-117651558D01*
X165939999Y-117571360D01*
X165972644Y-117505212D01*
X165998063Y-117454008D01*
X166015823Y-117418641D01*
X166025489Y-117400004D01*
X166026901Y-117397566D01*
X166032130Y-117405252D01*
X166045935Y-117430801D01*
X166068174Y-117473921D01*
X166098703Y-117534317D01*
X166137376Y-117611696D01*
X166184052Y-117705765D01*
X166238585Y-117816231D01*
X166300832Y-117942799D01*
X166370649Y-118085176D01*
X166447892Y-118243069D01*
X166532418Y-118416184D01*
X166624082Y-118604228D01*
X166722741Y-118806908D01*
X166828251Y-119023929D01*
X166940468Y-119254999D01*
X167059249Y-119499824D01*
X167184448Y-119758110D01*
X167239769Y-119872303D01*
X168444431Y-122359396D01*
X168403013Y-122440197D01*
X168361594Y-122520998D01*
X168253327Y-122521070D01*
X168145059Y-122521142D01*
X168145059Y-122360000D01*
X168074560Y-122360000D01*
X168074560Y-122463735D01*
X168075832Y-122519722D01*
X168079562Y-122558327D01*
X168085622Y-122578317D01*
X168086646Y-122579556D01*
X168103982Y-122585833D01*
X168140934Y-122589852D01*
X168197099Y-122591574D01*
X168213377Y-122591642D01*
X168259110Y-122592385D01*
X168295297Y-122594416D01*
X168318283Y-122597435D01*
X168324666Y-122600742D01*
X168319261Y-122612574D01*
X168305554Y-122641465D01*
X168283990Y-122686499D01*
X168255013Y-122746762D01*
X168219066Y-122821340D01*
X168176595Y-122909317D01*
X168128043Y-123009779D01*
X168073854Y-123121812D01*
X168014473Y-123244500D01*
X167950344Y-123376929D01*
X167881911Y-123518184D01*
X167809619Y-123667350D01*
X167733911Y-123823513D01*
X167655231Y-123985758D01*
X167574025Y-124153171D01*
X167490735Y-124324836D01*
X167405807Y-124499839D01*
X167319684Y-124677265D01*
X167232811Y-124856199D01*
X167145632Y-125035728D01*
X167058592Y-125214935D01*
X166972133Y-125392907D01*
X166886701Y-125568729D01*
X166802740Y-125741485D01*
X166720693Y-125910262D01*
X166641006Y-126074144D01*
X166564122Y-126232217D01*
X166490485Y-126383566D01*
X166420541Y-126527277D01*
X166354732Y-126662434D01*
X166293503Y-126788124D01*
X166237299Y-126903430D01*
X166186563Y-127007440D01*
X166141740Y-127099237D01*
X166103274Y-127177908D01*
X166071609Y-127242536D01*
X166047190Y-127292209D01*
X166030460Y-127326011D01*
X166021863Y-127343027D01*
X166020761Y-127344966D01*
X166015945Y-127335985D01*
X166002758Y-127309604D01*
X165981564Y-127266576D01*
X165952726Y-127207652D01*
X165916608Y-127133583D01*
X165873574Y-127045120D01*
X165823988Y-126943015D01*
X165768214Y-126828020D01*
X165706615Y-126700885D01*
X165639555Y-126562363D01*
X165567397Y-126413203D01*
X165490506Y-126254159D01*
X165409246Y-126085980D01*
X165323980Y-125909419D01*
X165235071Y-125725227D01*
X165142884Y-125534155D01*
X165047783Y-125336954D01*
X164950131Y-125134376D01*
X164871233Y-124970641D01*
X163897389Y-122949302D01*
X164378366Y-122949302D01*
X164382671Y-122958775D01*
X164395289Y-122985459D01*
X164415773Y-123028427D01*
X164443678Y-123086751D01*
X164478558Y-123159506D01*
X164519966Y-123245762D01*
X164567457Y-123344592D01*
X164620585Y-123455070D01*
X164678903Y-123576268D01*
X164741966Y-123707259D01*
X164809327Y-123847114D01*
X164880542Y-123994908D01*
X164955162Y-124149712D01*
X165032744Y-124310599D01*
X165112840Y-124476641D01*
X165135186Y-124522954D01*
X165217113Y-124692749D01*
X165297380Y-124859111D01*
X165375485Y-125020997D01*
X165450926Y-125177367D01*
X165523200Y-125327179D01*
X165591804Y-125469391D01*
X165656237Y-125602961D01*
X165715995Y-125726848D01*
X165770577Y-125840011D01*
X165819479Y-125941407D01*
X165862200Y-126029995D01*
X165898237Y-126104734D01*
X165927087Y-126164581D01*
X165948249Y-126208495D01*
X165961219Y-126235436D01*
X165962201Y-126237478D01*
X166032398Y-126383513D01*
X166160950Y-126114119D01*
X165964583Y-125710639D01*
X165923853Y-125626757D01*
X165885980Y-125548380D01*
X165851852Y-125477375D01*
X165822359Y-125415611D01*
X165798389Y-125364956D01*
X165780833Y-125327277D01*
X165770579Y-125304442D01*
X165768216Y-125298200D01*
X165773972Y-125286410D01*
X165789186Y-125263464D01*
X165810769Y-125233969D01*
X165814639Y-125228909D01*
X165838509Y-125198698D01*
X165853743Y-125182559D01*
X165863499Y-125178232D01*
X165870934Y-125183460D01*
X165873399Y-125186870D01*
X165881333Y-125199485D01*
X165898435Y-125227264D01*
X165923442Y-125268138D01*
X165955093Y-125320037D01*
X165992127Y-125380893D01*
X166033281Y-125448637D01*
X166074974Y-125517375D01*
X166118782Y-125589472D01*
X166159643Y-125656376D01*
X166196306Y-125716066D01*
X166227520Y-125766519D01*
X166252033Y-125805710D01*
X166268595Y-125831619D01*
X166275850Y-125842116D01*
X166284639Y-125839040D01*
X166299318Y-125820712D01*
X166318210Y-125790545D01*
X166339639Y-125751955D01*
X166361929Y-125708356D01*
X166383404Y-125663163D01*
X166402388Y-125619790D01*
X166417205Y-125581653D01*
X166426177Y-125552166D01*
X166427630Y-125534743D01*
X166427248Y-125533687D01*
X166420898Y-125522946D01*
X166404430Y-125496097D01*
X166378437Y-125454091D01*
X166343514Y-125397878D01*
X166300254Y-125328408D01*
X166249251Y-125246632D01*
X166191099Y-125153500D01*
X166126391Y-125049963D01*
X166055722Y-124936971D01*
X165979685Y-124815475D01*
X165898874Y-124686424D01*
X165813883Y-124550771D01*
X165725306Y-124409463D01*
X165633735Y-124263454D01*
X165612109Y-124228981D01*
X164807216Y-122946021D01*
X165047911Y-122946021D01*
X165052205Y-122955134D01*
X165065706Y-122980623D01*
X165087753Y-123021303D01*
X165117686Y-123075991D01*
X165154842Y-123143502D01*
X165198561Y-123222654D01*
X165248181Y-123312261D01*
X165303041Y-123411140D01*
X165362480Y-123518108D01*
X165425836Y-123631979D01*
X165492448Y-123751570D01*
X165561655Y-123875698D01*
X165632796Y-124003178D01*
X165705210Y-124132826D01*
X165778234Y-124263459D01*
X165851208Y-124393892D01*
X165923471Y-124522942D01*
X165994361Y-124649425D01*
X166063217Y-124772156D01*
X166129377Y-124889951D01*
X166192181Y-125001628D01*
X166250968Y-125106001D01*
X166305075Y-125201888D01*
X166353842Y-125288103D01*
X166396607Y-125363464D01*
X166432710Y-125426785D01*
X166461488Y-125476884D01*
X166461492Y-125476891D01*
X166467413Y-125471523D01*
X166480364Y-125450572D01*
X166498874Y-125416715D01*
X166521476Y-125372631D01*
X166544389Y-125325820D01*
X166621583Y-125164877D01*
X166598499Y-125124592D01*
X166511797Y-124973283D01*
X166434571Y-124838489D01*
X166366292Y-124719240D01*
X166306430Y-124614569D01*
X166254457Y-124523508D01*
X166209842Y-124445089D01*
X166172056Y-124378344D01*
X166140569Y-124322305D01*
X166114853Y-124276004D01*
X166094377Y-124238473D01*
X166078612Y-124208744D01*
X166067029Y-124185850D01*
X166059097Y-124168821D01*
X166054289Y-124156691D01*
X166052073Y-124148492D01*
X166051921Y-124143254D01*
X166053303Y-124140011D01*
X166055690Y-124137795D01*
X166057839Y-124136209D01*
X166092159Y-124118592D01*
X166127540Y-124118944D01*
X166165245Y-124137705D01*
X166206538Y-124175309D01*
X166222060Y-124192990D01*
X166236720Y-124213223D01*
X166259646Y-124248367D01*
X166289222Y-124295782D01*
X166323833Y-124352828D01*
X166361862Y-124416865D01*
X166401693Y-124485251D01*
X166413169Y-124505202D01*
X166467887Y-124600048D01*
X166514254Y-124679030D01*
X166553485Y-124744012D01*
X166586795Y-124796858D01*
X166615399Y-124839430D01*
X166640513Y-124873592D01*
X166663352Y-124901206D01*
X166685130Y-124924136D01*
X166688599Y-124927496D01*
X166724662Y-124962042D01*
X166876788Y-124643750D01*
X166829879Y-124595978D01*
X166811124Y-124576439D01*
X166794103Y-124557297D01*
X166777324Y-124536298D01*
X166759294Y-124511188D01*
X166738521Y-124479712D01*
X166713512Y-124439618D01*
X166682777Y-124388649D01*
X166644822Y-124324554D01*
X166602550Y-124252573D01*
X166564752Y-124188888D01*
X166527121Y-124126931D01*
X166491836Y-124070187D01*
X166461078Y-124022137D01*
X166437027Y-123986265D01*
X166427891Y-123973574D01*
X166374017Y-123909997D01*
X166322068Y-123865658D01*
X166270822Y-123839900D01*
X166219059Y-123832066D01*
X166176601Y-123838224D01*
X166151011Y-123844423D01*
X166135493Y-123846981D01*
X166133681Y-123846745D01*
X166136378Y-123837256D01*
X166145827Y-123815628D01*
X166153234Y-123800227D01*
X166174757Y-123734123D01*
X166178707Y-123658674D01*
X166165129Y-123574303D01*
X166134066Y-123481428D01*
X166114827Y-123437885D01*
X166065684Y-123345425D01*
X166008445Y-123257357D01*
X165945748Y-123176821D01*
X165880234Y-123106962D01*
X165814540Y-123050922D01*
X165761306Y-123016910D01*
X165716633Y-122994678D01*
X165673970Y-122977129D01*
X165630071Y-122963724D01*
X165581687Y-122953923D01*
X165525570Y-122947189D01*
X165465744Y-122943436D01*
X165879001Y-122943436D01*
X165883804Y-122954938D01*
X165896691Y-122979722D01*
X165915376Y-123013800D01*
X165937575Y-123053184D01*
X165961003Y-123093888D01*
X165983374Y-123131922D01*
X166002404Y-123163300D01*
X166015808Y-123184034D01*
X166020001Y-123189505D01*
X166033015Y-123191666D01*
X166061279Y-123190247D01*
X166100283Y-123185587D01*
X166126119Y-123181523D01*
X166167734Y-123174743D01*
X166201008Y-123169916D01*
X166221591Y-123167640D01*
X166226093Y-123167798D01*
X166231536Y-123176678D01*
X166246586Y-123201419D01*
X166270415Y-123240658D01*
X166302196Y-123293026D01*
X166341098Y-123357160D01*
X166386295Y-123431691D01*
X166436957Y-123515256D01*
X166492256Y-123606487D01*
X166551364Y-123704019D01*
X166605038Y-123792600D01*
X166666759Y-123894414D01*
X166725398Y-123991041D01*
X166780128Y-124081123D01*
X166830120Y-124163303D01*
X166874546Y-124236221D01*
X166912578Y-124298521D01*
X166943389Y-124348843D01*
X166966149Y-124385829D01*
X166980031Y-124408122D01*
X166984242Y-124414507D01*
X166989424Y-124406109D01*
X167001601Y-124383313D01*
X167018851Y-124349783D01*
X167035678Y-124316364D01*
X167059512Y-124267950D01*
X167083295Y-124218526D01*
X167103491Y-124175485D01*
X167111984Y-124156774D01*
X167139280Y-124095381D01*
X166831589Y-123608046D01*
X166764952Y-123502333D01*
X166708506Y-123412369D01*
X166661549Y-123336960D01*
X166623378Y-123274910D01*
X166593291Y-123225026D01*
X166570586Y-123186113D01*
X166554559Y-123156977D01*
X166544510Y-123136425D01*
X166539735Y-123123260D01*
X166539531Y-123116290D01*
X166541359Y-123114567D01*
X166559341Y-123110012D01*
X166590938Y-123103583D01*
X166629870Y-123096541D01*
X166636872Y-123095356D01*
X166673578Y-123087891D01*
X166700868Y-123079813D01*
X166714041Y-123072589D01*
X166714579Y-123071125D01*
X166710584Y-123061819D01*
X166786101Y-123061819D01*
X166796084Y-123110833D01*
X166799329Y-123119065D01*
X166809500Y-123137984D01*
X166829427Y-123170561D01*
X166857227Y-123214017D01*
X166891014Y-123265573D01*
X166928904Y-123322449D01*
X166969013Y-123381865D01*
X167009455Y-123441043D01*
X167048347Y-123497202D01*
X167083803Y-123547564D01*
X167113940Y-123589348D01*
X167136872Y-123619775D01*
X167147816Y-123633036D01*
X167188743Y-123671114D01*
X167227001Y-123690265D01*
X167264925Y-123691075D01*
X167304848Y-123674129D01*
X167306818Y-123672902D01*
X167338896Y-123643855D01*
X167373346Y-123596310D01*
X167409414Y-123531667D01*
X167446348Y-123451328D01*
X167483397Y-123356693D01*
X167496724Y-123319089D01*
X167512721Y-123275119D01*
X167527359Y-123239133D01*
X167539008Y-123214867D01*
X167545999Y-123206055D01*
X167552947Y-123197657D01*
X167566743Y-123175101D01*
X167585325Y-123142292D01*
X167606629Y-123103134D01*
X167628591Y-123061533D01*
X167649149Y-123021395D01*
X167666239Y-122986625D01*
X167677798Y-122961127D01*
X167681776Y-122949073D01*
X167672674Y-122946349D01*
X167649232Y-122944558D01*
X167627372Y-122944140D01*
X167608240Y-122944498D01*
X167591547Y-122946611D01*
X167574439Y-122952038D01*
X167554065Y-122962337D01*
X167527571Y-122979068D01*
X167492107Y-123003787D01*
X167444819Y-123038055D01*
X167413355Y-123061084D01*
X167363654Y-123097589D01*
X167319318Y-123130324D01*
X167282996Y-123157319D01*
X167257339Y-123176603D01*
X167244998Y-123186205D01*
X167244556Y-123186596D01*
X167244268Y-123199564D01*
X167255354Y-123223079D01*
X167263861Y-123236277D01*
X167292353Y-123277391D01*
X167334537Y-123235990D01*
X167376722Y-123194589D01*
X167404048Y-123227065D01*
X167422441Y-123254198D01*
X167426452Y-123277506D01*
X167425035Y-123285643D01*
X167413316Y-123316638D01*
X167395098Y-123347431D01*
X167374478Y-123372464D01*
X167355550Y-123386181D01*
X167350114Y-123387280D01*
X167335224Y-123378832D01*
X167309681Y-123353636D01*
X167273686Y-123311909D01*
X167227442Y-123253872D01*
X167227413Y-123253834D01*
X167190331Y-123206089D01*
X167155220Y-123160967D01*
X167124956Y-123122160D01*
X167102415Y-123093356D01*
X167093753Y-123082359D01*
X167076179Y-123058881D01*
X167070239Y-123044744D01*
X167074484Y-123033975D01*
X167080457Y-123027502D01*
X167103438Y-123015510D01*
X167142716Y-123010396D01*
X167153661Y-123010140D01*
X167187567Y-123011013D01*
X167209438Y-123016497D01*
X167227321Y-123029669D01*
X167240055Y-123043178D01*
X167260901Y-123062417D01*
X167278428Y-123071736D01*
X167283354Y-123071657D01*
X167296644Y-123063973D01*
X167322263Y-123047149D01*
X167356224Y-123023858D01*
X167385974Y-123002896D01*
X167475313Y-122939231D01*
X167409849Y-122931694D01*
X167369306Y-122928852D01*
X167315843Y-122927766D01*
X167253165Y-122928246D01*
X167184972Y-122930106D01*
X167114966Y-122933156D01*
X167046849Y-122937208D01*
X166984324Y-122942074D01*
X166931091Y-122947566D01*
X166890853Y-122953494D01*
X166868325Y-122959241D01*
X166822370Y-122985678D01*
X166794913Y-123019986D01*
X166786101Y-123061819D01*
X166710584Y-123061819D01*
X166708915Y-123057931D01*
X166694307Y-123033546D01*
X166673781Y-123002980D01*
X166671347Y-122999532D01*
X166628461Y-122939104D01*
X166253731Y-122936463D01*
X166152807Y-122936006D01*
X166065968Y-122936136D01*
X165994313Y-122936833D01*
X165938945Y-122938077D01*
X165900963Y-122939847D01*
X165881470Y-122942122D01*
X165879001Y-122943436D01*
X165465744Y-122943436D01*
X165458475Y-122942980D01*
X165377152Y-122940760D01*
X165298220Y-122940047D01*
X165230128Y-122940059D01*
X165168812Y-122940597D01*
X165117119Y-122941592D01*
X165077897Y-122942977D01*
X165053993Y-122944684D01*
X165047911Y-122946021D01*
X164807216Y-122946021D01*
X164806400Y-122944720D01*
X164592383Y-122944430D01*
X164529179Y-122944575D01*
X164473376Y-122945146D01*
X164427899Y-122946076D01*
X164395672Y-122947297D01*
X164379622Y-122948745D01*
X164378366Y-122949302D01*
X163897389Y-122949302D01*
X163727501Y-122596677D01*
X163843953Y-122591642D01*
X163891235Y-122588968D01*
X163931608Y-122585515D01*
X163960519Y-122581747D01*
X163972994Y-122578458D01*
X163979475Y-122565680D01*
X163983564Y-122536375D01*
X163985426Y-122489074D01*
X163985583Y-122465155D01*
X163985583Y-122459994D01*
X163985583Y-122360000D01*
X164136653Y-122360000D01*
X164136653Y-122459994D01*
X164137436Y-122509905D01*
X164140124Y-122543472D01*
X164145231Y-122564445D01*
X164152480Y-122575815D01*
X164161557Y-122581793D01*
X164176952Y-122586100D01*
X164201594Y-122588988D01*
X164238414Y-122590705D01*
X164290341Y-122591500D01*
X164338446Y-122591642D01*
X164400973Y-122591490D01*
X164446353Y-122590821D01*
X164477583Y-122589311D01*
X164497658Y-122586637D01*
X164509573Y-122582475D01*
X164516324Y-122576502D01*
X164519011Y-122572161D01*
X164523571Y-122553877D01*
X164527119Y-122521069D01*
X164529149Y-122479351D01*
X164529344Y-122463735D01*
X164529437Y-122456340D01*
X164529437Y-122360000D01*
X165053148Y-122360000D01*
X165053148Y-122463735D01*
X165054420Y-122519722D01*
X165058151Y-122558327D01*
X165064210Y-122578317D01*
X165065234Y-122579556D01*
X165082026Y-122586064D01*
X165113600Y-122590321D01*
X165154730Y-122592405D01*
X165200191Y-122592393D01*
X165244756Y-122590360D01*
X165283201Y-122586385D01*
X165310299Y-122580544D01*
X165319320Y-122575815D01*
X165327096Y-122563097D01*
X165331983Y-122541225D01*
X165334494Y-122506449D01*
X165335094Y-122463735D01*
X165335147Y-122459994D01*
X165335147Y-122360000D01*
X165617145Y-122360000D01*
X165617145Y-122463735D01*
X165618417Y-122519722D01*
X165622148Y-122558327D01*
X165628207Y-122578317D01*
X165629231Y-122579556D01*
X165645630Y-122585530D01*
X165681089Y-122589470D01*
X165736004Y-122591410D01*
X165769876Y-122591642D01*
X165823314Y-122591387D01*
X165860117Y-122590297D01*
X165883788Y-122587879D01*
X165897832Y-122583643D01*
X165905752Y-122577098D01*
X165908861Y-122572161D01*
X165913420Y-122553877D01*
X165916968Y-122521069D01*
X165918998Y-122479351D01*
X165919193Y-122463735D01*
X165919286Y-122456340D01*
X165919286Y-122360000D01*
X166060285Y-122360000D01*
X166060285Y-122463735D01*
X166061558Y-122519722D01*
X166065288Y-122558327D01*
X166071348Y-122578317D01*
X166072371Y-122579556D01*
X166086556Y-122584098D01*
X166115865Y-122587737D01*
X166155296Y-122590355D01*
X166199844Y-122591835D01*
X166244507Y-122592058D01*
X166284283Y-122590906D01*
X166314167Y-122588264D01*
X166326353Y-122585528D01*
X166333558Y-122579520D01*
X166338273Y-122565799D01*
X166340972Y-122540909D01*
X166342130Y-122501393D01*
X166342284Y-122469708D01*
X166342284Y-122463735D01*
X166342284Y-122360000D01*
X166876067Y-122360000D01*
X166876067Y-122463735D01*
X166877339Y-122519722D01*
X166881069Y-122558327D01*
X166887129Y-122578317D01*
X166888152Y-122579556D01*
X166902337Y-122584098D01*
X166931646Y-122587737D01*
X166971077Y-122590355D01*
X167015625Y-122591835D01*
X167060288Y-122592058D01*
X167100064Y-122590906D01*
X167129948Y-122588264D01*
X167142134Y-122585528D01*
X167149340Y-122579520D01*
X167154054Y-122565799D01*
X167156753Y-122540909D01*
X167157911Y-122501393D01*
X167158065Y-122469708D01*
X167158065Y-122463735D01*
X167158065Y-122360000D01*
X167299064Y-122360000D01*
X167299064Y-122463735D01*
X167300336Y-122519722D01*
X167304067Y-122558327D01*
X167310126Y-122578317D01*
X167311150Y-122579556D01*
X167328489Y-122585813D01*
X167365592Y-122589824D01*
X167422201Y-122591564D01*
X167440063Y-122591642D01*
X167501697Y-122590495D01*
X167543890Y-122587072D01*
X167566388Y-122581396D01*
X167568977Y-122579556D01*
X167575351Y-122562263D01*
X167579415Y-122526180D01*
X167581038Y-122472545D01*
X167581063Y-122463735D01*
X167581063Y-122360000D01*
X167510563Y-122360000D01*
X167510563Y-122521142D01*
X167369564Y-122521142D01*
X167369564Y-122360000D01*
X167299064Y-122360000D01*
X167158065Y-122360000D01*
X167087565Y-122360000D01*
X167087565Y-122521142D01*
X166946566Y-122521142D01*
X166946566Y-122360000D01*
X166876067Y-122360000D01*
X166342284Y-122360000D01*
X166271784Y-122360000D01*
X166271784Y-122521142D01*
X166130785Y-122521142D01*
X166130785Y-122360000D01*
X166060285Y-122360000D01*
X165919286Y-122360000D01*
X165848787Y-122360000D01*
X165848787Y-122521142D01*
X165687645Y-122521142D01*
X165687645Y-122360000D01*
X165617145Y-122360000D01*
X165335147Y-122360000D01*
X165264647Y-122360000D01*
X165264647Y-122521142D01*
X165123648Y-122521142D01*
X165123648Y-122360000D01*
X165053148Y-122360000D01*
X164529437Y-122360000D01*
X164458937Y-122360000D01*
X164458937Y-122521142D01*
X164207153Y-122521142D01*
X164207153Y-122360000D01*
X164136653Y-122360000D01*
X163985583Y-122360000D01*
X163915083Y-122360000D01*
X163915083Y-122521142D01*
X163693766Y-122521142D01*
X163657107Y-122448124D01*
X163639035Y-122413443D01*
X163623608Y-122386205D01*
X163613530Y-122371116D01*
X163612073Y-122369733D01*
X163615924Y-122360515D01*
X163628167Y-122334083D01*
X163634291Y-122321122D01*
G37*
%TO.C,JP2*%
X123070000Y-99660000D02*
X122470000Y-99660000D01*
X124270000Y-99110000D02*
X124270000Y-98510000D01*
X121770000Y-99010000D02*
X121770000Y-96210000D01*
X123970000Y-98810000D02*
X124270000Y-99110000D01*
X123970000Y-98810000D02*
X124270000Y-98510000D01*
X123770000Y-96210000D02*
X123770000Y-99010000D01*
X122470000Y-95560000D02*
X123070000Y-95560000D01*
X121770000Y-98960000D02*
G75*
G03*
X122470000Y-99660000I699999J-1D01*
G01*
X123070000Y-99660000D02*
G75*
G03*
X123770000Y-98960000I1J699999D01*
G01*
X122470000Y-95560000D02*
G75*
G03*
X121770000Y-96260000I0J-700000D01*
G01*
X123770000Y-96260000D02*
G75*
G03*
X123070000Y-95560000I-700000J0D01*
G01*
%TO.C,SW5*%
X169270000Y-89500000D02*
X170770000Y-89500000D01*
X173270000Y-88250000D02*
X173270000Y-83750000D01*
X166770000Y-83750000D02*
X166770000Y-88250000D01*
X170770000Y-82500000D02*
X169270000Y-82500000D01*
%TO.C,C1*%
X134850000Y-84880000D02*
X135475000Y-84880000D01*
X134850000Y-84880000D02*
X134850000Y-80840000D01*
X137065000Y-84880000D02*
X137690000Y-84880000D01*
X137690000Y-84880000D02*
X137690000Y-80840000D01*
X134850000Y-80840000D02*
X135475000Y-80840000D01*
X137065000Y-80840000D02*
X137690000Y-80840000D01*
%TO.C,R4*%
X165910000Y-96740000D02*
X165910000Y-103280000D01*
X165580000Y-96740000D02*
X165910000Y-96740000D01*
X163500000Y-96740000D02*
X163170000Y-96740000D01*
X163170000Y-96740000D02*
X163170000Y-103280000D01*
X165910000Y-103280000D02*
X165580000Y-103280000D01*
X163170000Y-103280000D02*
X163500000Y-103280000D01*
%TO.C,R2*%
X154740000Y-82730000D02*
X154740000Y-89270000D01*
X154410000Y-82730000D02*
X154740000Y-82730000D01*
X152330000Y-82730000D02*
X152000000Y-82730000D01*
X152000000Y-82730000D02*
X152000000Y-89270000D01*
X154740000Y-89270000D02*
X154410000Y-89270000D01*
X152000000Y-89270000D02*
X152330000Y-89270000D01*
%TO.C,J2*%
X124420000Y-87550000D02*
X124420000Y-111660000D01*
X124690000Y-94870000D02*
X127350000Y-94870000D01*
X124690000Y-105150000D02*
X124690000Y-94870000D01*
X124690000Y-105150000D02*
X127350000Y-105150000D01*
X126420000Y-85550000D02*
X149620000Y-85550000D01*
X126420000Y-113660000D02*
X149620000Y-113660000D01*
X127350000Y-94870000D02*
X127350000Y-105150000D01*
X151620000Y-87550000D02*
X151620000Y-111660000D01*
X126420000Y-85550000D02*
G75*
G03*
X124420000Y-87550000I-1J-1999999D01*
G01*
X124420000Y-111660000D02*
G75*
G03*
X126420000Y-113660000I1999999J-1D01*
G01*
X151620000Y-87550000D02*
G75*
G03*
X149620000Y-85550000I-2000000J0D01*
G01*
X149620000Y-113660000D02*
G75*
G03*
X151620000Y-111660000I0J2000000D01*
G01*
%TO.C,SW1*%
X158020000Y-117500000D02*
X159520000Y-117500000D01*
X162020000Y-116250000D02*
X162020000Y-111750000D01*
X155520000Y-111750000D02*
X155520000Y-116250000D01*
X159520000Y-110500000D02*
X158020000Y-110500000D01*
%TO.C,R7*%
X155150000Y-102830000D02*
X155150000Y-96290000D01*
X155480000Y-102830000D02*
X155150000Y-102830000D01*
X157560000Y-102830000D02*
X157890000Y-102830000D01*
X157890000Y-102830000D02*
X157890000Y-96290000D01*
X155150000Y-96290000D02*
X155480000Y-96290000D01*
X157890000Y-96290000D02*
X157560000Y-96290000D01*
%TO.C,JP1*%
X123070000Y-104560000D02*
X122470000Y-104560000D01*
X124270000Y-104010000D02*
X124270000Y-103410000D01*
X121770000Y-103910000D02*
X121770000Y-101110000D01*
X123970000Y-103710000D02*
X124270000Y-104010000D01*
X123970000Y-103710000D02*
X124270000Y-103410000D01*
X123770000Y-101110000D02*
X123770000Y-103910000D01*
X122470000Y-100460000D02*
X123070000Y-100460000D01*
X121770000Y-103860000D02*
G75*
G03*
X122470000Y-104560000I699999J-1D01*
G01*
X123070000Y-104560000D02*
G75*
G03*
X123770000Y-103860000I1J699999D01*
G01*
X122470000Y-100460000D02*
G75*
G03*
X121770000Y-101160000I0J-700000D01*
G01*
X123770000Y-101160000D02*
G75*
G03*
X123070000Y-100460000I-700000J0D01*
G01*
%TO.C,SW2*%
X158020000Y-89500000D02*
X159520000Y-89500000D01*
X162020000Y-88250000D02*
X162020000Y-83750000D01*
X155520000Y-83750000D02*
X155520000Y-88250000D01*
X159520000Y-82500000D02*
X158020000Y-82500000D01*
%TO.C,R1*%
X154660000Y-110740000D02*
X154660000Y-117280000D01*
X154330000Y-110740000D02*
X154660000Y-110740000D01*
X152250000Y-110740000D02*
X151920000Y-110740000D01*
X151920000Y-110740000D02*
X151920000Y-117280000D01*
X154660000Y-117280000D02*
X154330000Y-117280000D01*
X151920000Y-117280000D02*
X152250000Y-117280000D01*
%TO.C,R6*%
X152000000Y-102830000D02*
X152000000Y-96290000D01*
X152330000Y-102830000D02*
X152000000Y-102830000D01*
X154410000Y-102830000D02*
X154740000Y-102830000D01*
X154740000Y-102830000D02*
X154740000Y-96290000D01*
X152000000Y-96290000D02*
X152330000Y-96290000D01*
X154740000Y-96290000D02*
X154410000Y-96290000D01*
%TO.C,J4*%
X115815000Y-119680000D02*
X114545000Y-119680000D01*
X115815000Y-118410000D02*
X115815000Y-119680000D01*
X113502071Y-116250000D02*
X113105000Y-116250000D01*
X113502071Y-115490000D02*
X113105000Y-115490000D01*
X113502071Y-113710000D02*
X113105000Y-113710000D01*
X113502071Y-112950000D02*
X113105000Y-112950000D01*
X113502071Y-111170000D02*
X113105000Y-111170000D01*
X113502071Y-110410000D02*
X113105000Y-110410000D01*
X113435000Y-118790000D02*
X113105000Y-118790000D01*
X113435000Y-118030000D02*
X113105000Y-118030000D01*
X113105000Y-119740000D02*
X113105000Y-109460000D01*
X113105000Y-117140000D02*
X110445000Y-117140000D01*
X113105000Y-114600000D02*
X110445000Y-114600000D01*
X113105000Y-112060000D02*
X110445000Y-112060000D01*
X113105000Y-109460000D02*
X110445000Y-109460000D01*
X110445000Y-119740000D02*
X113105000Y-119740000D01*
X110445000Y-118790000D02*
X104445000Y-118790000D01*
X110445000Y-118730000D02*
X104445000Y-118730000D01*
X110445000Y-118610000D02*
X104445000Y-118610000D01*
X110445000Y-118490000D02*
X104445000Y-118490000D01*
X110445000Y-118370000D02*
X104445000Y-118370000D01*
X110445000Y-118250000D02*
X104445000Y-118250000D01*
X110445000Y-118130000D02*
X104445000Y-118130000D01*
X110445000Y-116250000D02*
X104445000Y-116250000D01*
X110445000Y-113710000D02*
X104445000Y-113710000D01*
X110445000Y-111170000D02*
X104445000Y-111170000D01*
X110445000Y-109460000D02*
X110445000Y-119740000D01*
X104445000Y-118790000D02*
X104445000Y-118030000D01*
X104445000Y-118030000D02*
X110445000Y-118030000D01*
X104445000Y-116250000D02*
X104445000Y-115490000D01*
X104445000Y-115490000D02*
X110445000Y-115490000D01*
X104445000Y-113710000D02*
X104445000Y-112950000D01*
X104445000Y-112950000D02*
X110445000Y-112950000D01*
X104445000Y-111170000D02*
X104445000Y-110410000D01*
X104445000Y-110410000D02*
X110445000Y-110410000D01*
%TO.C,R8*%
X149130000Y-82980000D02*
X142590000Y-82980000D01*
X149130000Y-82650000D02*
X149130000Y-82980000D01*
X149130000Y-80570000D02*
X149130000Y-80240000D01*
X149130000Y-80240000D02*
X142590000Y-80240000D01*
X142590000Y-82980000D02*
X142590000Y-82650000D01*
X142590000Y-80240000D02*
X142590000Y-80570000D01*
%TO.C,D2*%
X129506000Y-81280000D02*
X129350000Y-81280000D01*
X127190000Y-81280000D02*
X127034000Y-81280000D01*
X129348608Y-84512334D02*
G75*
G03*
X129505515Y-81280001I-1078608J1672334D01*
G01*
X129349836Y-83881129D02*
G75*
G03*
X129349999Y-81799040I-1079836J1041129D01*
G01*
X127190001Y-81799040D02*
G75*
G03*
X127190164Y-83881129I1079999J-1040960D01*
G01*
X127034485Y-81280001D02*
G75*
G03*
X127191392Y-84512334I1235515J-1559999D01*
G01*
%TO.C,SW4*%
X169270000Y-103500000D02*
X170770000Y-103500000D01*
X173270000Y-102250000D02*
X173270000Y-97750000D01*
X166770000Y-97750000D02*
X166770000Y-102250000D01*
X170770000Y-96500000D02*
X169270000Y-96500000D01*
%TO.C,J3*%
X115790000Y-90630000D02*
X114520000Y-90630000D01*
X115790000Y-89360000D02*
X115790000Y-90630000D01*
X113477071Y-87200000D02*
X113080000Y-87200000D01*
X113477071Y-86440000D02*
X113080000Y-86440000D01*
X113477071Y-84660000D02*
X113080000Y-84660000D01*
X113477071Y-83900000D02*
X113080000Y-83900000D01*
X113477071Y-82120000D02*
X113080000Y-82120000D01*
X113477071Y-81360000D02*
X113080000Y-81360000D01*
X113410000Y-89740000D02*
X113080000Y-89740000D01*
X113410000Y-88980000D02*
X113080000Y-88980000D01*
X113080000Y-90690000D02*
X113080000Y-80410000D01*
X113080000Y-88090000D02*
X110420000Y-88090000D01*
X113080000Y-85550000D02*
X110420000Y-85550000D01*
X113080000Y-83010000D02*
X110420000Y-83010000D01*
X113080000Y-80410000D02*
X110420000Y-80410000D01*
X110420000Y-90690000D02*
X113080000Y-90690000D01*
X110420000Y-89740000D02*
X104420000Y-89740000D01*
X110420000Y-89680000D02*
X104420000Y-89680000D01*
X110420000Y-89560000D02*
X104420000Y-89560000D01*
X110420000Y-89440000D02*
X104420000Y-89440000D01*
X110420000Y-89320000D02*
X104420000Y-89320000D01*
X110420000Y-89200000D02*
X104420000Y-89200000D01*
X110420000Y-89080000D02*
X104420000Y-89080000D01*
X110420000Y-87200000D02*
X104420000Y-87200000D01*
X110420000Y-84660000D02*
X104420000Y-84660000D01*
X110420000Y-82120000D02*
X104420000Y-82120000D01*
X110420000Y-80410000D02*
X110420000Y-90690000D01*
X104420000Y-89740000D02*
X104420000Y-88980000D01*
X104420000Y-88980000D02*
X110420000Y-88980000D01*
X104420000Y-87200000D02*
X104420000Y-86440000D01*
X104420000Y-86440000D02*
X110420000Y-86440000D01*
X104420000Y-84660000D02*
X104420000Y-83900000D01*
X104420000Y-83900000D02*
X110420000Y-83900000D01*
X104420000Y-82120000D02*
X104420000Y-81360000D01*
X104420000Y-81360000D02*
X110420000Y-81360000D01*
%TO.C,R3*%
X165910000Y-110740000D02*
X165910000Y-117280000D01*
X165580000Y-110740000D02*
X165910000Y-110740000D01*
X163500000Y-110740000D02*
X163170000Y-110740000D01*
X163170000Y-110740000D02*
X163170000Y-117280000D01*
X165910000Y-117280000D02*
X165580000Y-117280000D01*
X163170000Y-117280000D02*
X163500000Y-117280000D01*
%TO.C,SW3*%
X169270000Y-117500000D02*
X170770000Y-117500000D01*
X173270000Y-116250000D02*
X173270000Y-111750000D01*
X166770000Y-111750000D02*
X166770000Y-116250000D01*
X170770000Y-110500000D02*
X169270000Y-110500000D01*
%TO.C,G\u002A\u002A\u002A*%
G36*
X126678493Y-125224799D02*
G01*
X126724446Y-125252806D01*
X126747672Y-125277606D01*
X126775000Y-125313427D01*
X126780524Y-126326265D01*
X126757524Y-126360395D01*
X126717396Y-126404422D01*
X126670059Y-126431426D01*
X126618909Y-126441329D01*
X126567347Y-126434054D01*
X126518771Y-126409524D01*
X126476579Y-126367662D01*
X126475919Y-126366776D01*
X126471194Y-126359912D01*
X126467227Y-126352009D01*
X126463941Y-126341341D01*
X126461258Y-126326179D01*
X126459102Y-126304796D01*
X126457393Y-126275464D01*
X126456055Y-126236456D01*
X126455010Y-126186044D01*
X126454181Y-126122499D01*
X126453490Y-126044095D01*
X126452859Y-125949103D01*
X126452229Y-125838858D01*
X126451579Y-125720421D01*
X126451180Y-125620296D01*
X126451224Y-125536796D01*
X126451903Y-125468233D01*
X126453411Y-125412920D01*
X126455940Y-125369167D01*
X126459682Y-125335289D01*
X126464830Y-125309598D01*
X126471578Y-125290404D01*
X126480116Y-125276022D01*
X126490639Y-125264764D01*
X126503338Y-125254940D01*
X126518407Y-125244865D01*
X126520161Y-125243707D01*
X126572479Y-125219672D01*
X126626547Y-125213562D01*
X126678493Y-125224799D01*
G37*
G36*
X126678507Y-119414805D02*
G01*
X126724469Y-119442815D01*
X126747672Y-119467579D01*
X126757559Y-119481104D01*
X126764779Y-119494095D01*
X126769822Y-119509909D01*
X126773175Y-119531906D01*
X126775329Y-119563442D01*
X126776773Y-119607877D01*
X126777996Y-119668567D01*
X126778144Y-119676687D01*
X126781289Y-119850000D01*
X126943144Y-119850165D01*
X127004481Y-119850426D01*
X127049476Y-119851338D01*
X127081783Y-119853313D01*
X127105060Y-119856764D01*
X127122960Y-119862101D01*
X127139141Y-119869736D01*
X127144796Y-119872869D01*
X127186135Y-119906943D01*
X127214612Y-119952374D01*
X127228426Y-120004121D01*
X127225776Y-120057143D01*
X127218765Y-120079995D01*
X127194082Y-120119717D01*
X127156040Y-120154894D01*
X127135000Y-120168126D01*
X127117871Y-120174806D01*
X127092590Y-120179851D01*
X127056149Y-120183575D01*
X127005541Y-120186291D01*
X126942500Y-120188204D01*
X126780000Y-120192056D01*
X126780000Y-120354549D01*
X126779832Y-120415623D01*
X126779057Y-120460208D01*
X126777268Y-120491817D01*
X126774059Y-120513960D01*
X126769022Y-120530149D01*
X126761750Y-120543896D01*
X126757262Y-120550784D01*
X126717234Y-120594637D01*
X126669949Y-120621504D01*
X126618821Y-120631309D01*
X126567267Y-120623982D01*
X126518700Y-120599447D01*
X126476537Y-120557634D01*
X126475919Y-120556804D01*
X126468148Y-120544711D01*
X126462450Y-120530331D01*
X126458421Y-120510356D01*
X126455658Y-120481479D01*
X126453759Y-120440392D01*
X126452318Y-120383789D01*
X126451841Y-120359304D01*
X126448683Y-120190000D01*
X126311841Y-120189762D01*
X126238217Y-120188718D01*
X126181371Y-120185551D01*
X126138145Y-120179773D01*
X126105386Y-120170894D01*
X126079936Y-120158426D01*
X126071391Y-120152546D01*
X126032254Y-120112503D01*
X126009089Y-120065420D01*
X126001652Y-120015144D01*
X126009701Y-119965519D01*
X126032993Y-119920388D01*
X126071284Y-119883598D01*
X126089072Y-119872938D01*
X126107344Y-119864198D01*
X126125675Y-119858001D01*
X126147875Y-119853916D01*
X126177756Y-119851509D01*
X126219128Y-119850351D01*
X126275802Y-119850009D01*
X126291572Y-119850000D01*
X126450000Y-119850000D01*
X126450000Y-119689012D01*
X126450691Y-119617192D01*
X126453342Y-119562202D01*
X126458815Y-119520902D01*
X126467973Y-119490150D01*
X126481679Y-119466808D01*
X126500797Y-119447735D01*
X126520161Y-119433707D01*
X126572479Y-119409674D01*
X126626552Y-119403565D01*
X126678507Y-119414805D01*
G37*
G36*
X126544110Y-123408854D02*
G01*
X126460416Y-123388407D01*
X126381397Y-123353557D01*
X126309323Y-123304887D01*
X126246464Y-123242977D01*
X126195090Y-123168409D01*
X126157470Y-123081763D01*
X126153815Y-123070000D01*
X126141709Y-123007731D01*
X126137965Y-122936395D01*
X126142413Y-122864419D01*
X126154888Y-122800227D01*
X126159441Y-122785808D01*
X126197304Y-122703687D01*
X126249729Y-122628855D01*
X126313362Y-122565196D01*
X126384844Y-122516595D01*
X126397761Y-122510000D01*
X126449222Y-122485000D01*
X126450000Y-121100382D01*
X126422500Y-121094440D01*
X126281690Y-121056912D01*
X126155020Y-121007607D01*
X126039417Y-120944932D01*
X125931807Y-120867293D01*
X125858231Y-120801886D01*
X125759980Y-120694233D01*
X125677753Y-120576154D01*
X125612225Y-120449477D01*
X125564072Y-120316029D01*
X125533970Y-120177638D01*
X125522597Y-120036132D01*
X125524590Y-119994365D01*
X125861793Y-119994365D01*
X125862709Y-120053967D01*
X125878097Y-120178492D01*
X125911439Y-120294618D01*
X125962130Y-120401406D01*
X126029567Y-120497917D01*
X126113146Y-120583210D01*
X126212264Y-120656345D01*
X126271385Y-120690113D01*
X126377286Y-120734528D01*
X126489581Y-120762024D01*
X126604965Y-120772555D01*
X126720136Y-120766074D01*
X126831789Y-120742534D01*
X126936621Y-120701890D01*
X126941435Y-120699503D01*
X127051141Y-120634549D01*
X127145017Y-120557468D01*
X127223413Y-120467884D01*
X127286679Y-120365425D01*
X127316909Y-120299135D01*
X127340344Y-120234383D01*
X127355807Y-120173264D01*
X127364347Y-120109227D01*
X127367011Y-120035721D01*
X127366382Y-119990000D01*
X127364253Y-119932512D01*
X127360671Y-119888502D01*
X127354603Y-119851451D01*
X127345015Y-119814842D01*
X127332700Y-119777388D01*
X127304700Y-119704998D01*
X127273434Y-119643072D01*
X127235221Y-119585877D01*
X127186381Y-119527677D01*
X127144076Y-119483447D01*
X127102403Y-119442503D01*
X127068281Y-119412278D01*
X127035938Y-119388579D01*
X126999596Y-119367212D01*
X126953482Y-119343985D01*
X126949074Y-119341861D01*
X126882298Y-119311344D01*
X126825557Y-119289947D01*
X126772207Y-119276170D01*
X126715608Y-119268510D01*
X126649119Y-119265466D01*
X126610000Y-119265206D01*
X126549958Y-119266065D01*
X126503688Y-119268897D01*
X126465001Y-119274427D01*
X126427708Y-119283380D01*
X126410000Y-119288637D01*
X126293989Y-119334054D01*
X126189047Y-119394631D01*
X126104886Y-119462040D01*
X126018893Y-119554429D01*
X125951718Y-119653536D01*
X125903230Y-119759681D01*
X125873299Y-119873185D01*
X125861793Y-119994365D01*
X125524590Y-119994365D01*
X125528573Y-119910889D01*
X125554192Y-119763139D01*
X125597518Y-119623536D01*
X125657533Y-119493204D01*
X125733218Y-119373265D01*
X125823555Y-119264842D01*
X125927526Y-119169056D01*
X126044113Y-119087030D01*
X126172296Y-119019886D01*
X126311058Y-118968748D01*
X126405000Y-118944925D01*
X126511058Y-118930033D01*
X126626659Y-118926910D01*
X126745507Y-118935117D01*
X126861304Y-118954211D01*
X126967754Y-118983751D01*
X126970000Y-118984535D01*
X127104924Y-119041971D01*
X127228634Y-119114903D01*
X127340230Y-119201841D01*
X127438815Y-119301297D01*
X127523489Y-119411781D01*
X127593354Y-119531805D01*
X127647512Y-119659879D01*
X127685065Y-119794515D01*
X127705114Y-119934223D01*
X127706761Y-120077515D01*
X127695332Y-120186743D01*
X127663616Y-120326631D01*
X127613208Y-120461118D01*
X127545105Y-120588308D01*
X127460304Y-120706304D01*
X127371710Y-120801942D01*
X127269484Y-120890184D01*
X127162174Y-120962478D01*
X127046472Y-121020540D01*
X126919071Y-121066082D01*
X126807500Y-121094440D01*
X126780000Y-121100382D01*
X126780388Y-121792691D01*
X126780777Y-122485000D01*
X126832238Y-122510000D01*
X126910256Y-122558674D01*
X126976522Y-122621936D01*
X127029381Y-122697112D01*
X127067176Y-122781525D01*
X127088251Y-122872499D01*
X127092188Y-122930000D01*
X127084698Y-123027995D01*
X127060279Y-123116114D01*
X127018163Y-123196265D01*
X126957580Y-123270356D01*
X126953275Y-123274717D01*
X126880248Y-123334998D01*
X126800549Y-123377971D01*
X126716447Y-123404218D01*
X126630210Y-123414318D01*
X126604965Y-123412716D01*
X126544110Y-123408854D01*
G37*
G36*
X126590527Y-126940008D02*
G01*
X126510446Y-126936926D01*
X126440281Y-126929693D01*
X126419124Y-126926127D01*
X126274102Y-126888447D01*
X126137736Y-126832793D01*
X126010653Y-126759503D01*
X125893480Y-126668910D01*
X125835615Y-126614000D01*
X125740679Y-126503704D01*
X125662289Y-126383545D01*
X125600867Y-126255354D01*
X125556833Y-126120960D01*
X125530611Y-125982195D01*
X125523134Y-125850001D01*
X125860000Y-125850001D01*
X125869672Y-125970362D01*
X125897860Y-126085987D01*
X125943317Y-126194939D01*
X126004798Y-126295282D01*
X126081057Y-126385081D01*
X126170847Y-126462399D01*
X126272924Y-126525299D01*
X126304206Y-126540367D01*
X126374944Y-126569202D01*
X126441354Y-126588396D01*
X126510682Y-126599433D01*
X126590176Y-126603797D01*
X126615000Y-126604024D01*
X126677187Y-126603106D01*
X126726437Y-126599609D01*
X126769731Y-126592745D01*
X126814051Y-126581728D01*
X126815000Y-126581459D01*
X126931343Y-126538449D01*
X127036578Y-126479258D01*
X127129759Y-126404931D01*
X127209943Y-126316512D01*
X127276185Y-126215045D01*
X127327540Y-126101575D01*
X127363065Y-125977145D01*
X127363514Y-125975000D01*
X127367492Y-125940818D01*
X127369019Y-125892975D01*
X127368292Y-125837633D01*
X127365510Y-125780956D01*
X127360870Y-125729106D01*
X127354567Y-125688247D01*
X127354294Y-125686975D01*
X127343014Y-125647232D01*
X127325072Y-125597246D01*
X127303260Y-125544398D01*
X127287352Y-125510000D01*
X127261634Y-125459530D01*
X127238168Y-125420238D01*
X127212197Y-125385519D01*
X127178965Y-125348766D01*
X127150558Y-125320000D01*
X127068064Y-125246735D01*
X126983372Y-125190050D01*
X126891194Y-125146769D01*
X126825000Y-125124390D01*
X126779549Y-125111991D01*
X126739344Y-125104058D01*
X126697167Y-125099677D01*
X126645795Y-125097930D01*
X126615000Y-125097759D01*
X126556468Y-125098546D01*
X126510677Y-125101519D01*
X126470406Y-125107593D01*
X126428434Y-125117684D01*
X126405000Y-125124390D01*
X126291063Y-125168047D01*
X126187725Y-125227590D01*
X126096237Y-125301349D01*
X126017853Y-125387658D01*
X125953825Y-125484849D01*
X125905406Y-125591254D01*
X125873848Y-125705204D01*
X125860404Y-125825033D01*
X125860000Y-125850001D01*
X125523134Y-125850001D01*
X125522619Y-125840888D01*
X125533281Y-125698871D01*
X125563018Y-125557973D01*
X125579959Y-125503477D01*
X125635844Y-125369060D01*
X125708021Y-125244499D01*
X125795005Y-125131139D01*
X125895309Y-125030327D01*
X126007445Y-124943409D01*
X126129926Y-124871730D01*
X126261267Y-124816638D01*
X126373599Y-124784990D01*
X126450238Y-124767940D01*
X126445000Y-124017966D01*
X126354416Y-123995071D01*
X126232931Y-123957639D01*
X126121478Y-123908285D01*
X126018423Y-123847724D01*
X125901515Y-123759396D01*
X125797920Y-123656833D01*
X125708906Y-123541752D01*
X125635745Y-123415871D01*
X125579703Y-123280905D01*
X125565221Y-123234796D01*
X125534325Y-123093348D01*
X125522693Y-122951217D01*
X125529733Y-122810145D01*
X125554856Y-122671870D01*
X125597470Y-122538135D01*
X125656988Y-122410678D01*
X125732817Y-122291240D01*
X125824368Y-122181562D01*
X125931051Y-122083384D01*
X125964397Y-122057564D01*
X126008901Y-122025711D01*
X126050982Y-121997880D01*
X126087035Y-121976265D01*
X126113455Y-121963064D01*
X126124534Y-121960000D01*
X126130553Y-121968399D01*
X126143390Y-121991144D01*
X126161193Y-122024562D01*
X126182109Y-122064976D01*
X126204284Y-122108711D01*
X126225866Y-122152093D01*
X126245000Y-122191446D01*
X126259834Y-122223096D01*
X126268514Y-122243366D01*
X126270000Y-122248475D01*
X126262169Y-122257630D01*
X126241383Y-122274138D01*
X126211704Y-122294843D01*
X126203074Y-122300497D01*
X126106255Y-122374569D01*
X126024439Y-122461183D01*
X125958378Y-122558849D01*
X125908826Y-122666076D01*
X125876535Y-122781373D01*
X125862258Y-122903250D01*
X125862465Y-122975000D01*
X125877526Y-123096016D01*
X125910729Y-123210046D01*
X125961022Y-123315717D01*
X126027349Y-123411657D01*
X126108658Y-123496490D01*
X126203895Y-123568844D01*
X126312005Y-123627346D01*
X126385000Y-123656045D01*
X126418307Y-123666850D01*
X126447482Y-123674388D01*
X126477433Y-123679246D01*
X126513073Y-123682013D01*
X126559311Y-123683280D01*
X126615000Y-123683624D01*
X126674912Y-123683448D01*
X126719706Y-123682290D01*
X126754259Y-123679571D01*
X126783447Y-123674713D01*
X126812149Y-123667137D01*
X126845000Y-123656348D01*
X126961152Y-123606413D01*
X127065524Y-123541168D01*
X127156925Y-123461819D01*
X127234164Y-123369572D01*
X127296052Y-123265632D01*
X127340219Y-123155000D01*
X127357508Y-123079568D01*
X127367009Y-122993249D01*
X127368514Y-122903665D01*
X127361814Y-122818436D01*
X127351030Y-122760967D01*
X127311064Y-122641122D01*
X127254326Y-122531881D01*
X127181460Y-122434119D01*
X127093114Y-122348715D01*
X126997500Y-122281071D01*
X126974651Y-122265297D01*
X126961366Y-122252367D01*
X126960000Y-122249052D01*
X126964304Y-122236057D01*
X126975962Y-122209791D01*
X126993096Y-122173922D01*
X127013824Y-122132118D01*
X127036267Y-122088046D01*
X127058545Y-122045374D01*
X127078777Y-122007771D01*
X127095084Y-121978904D01*
X127105585Y-121962442D01*
X127108155Y-121960000D01*
X127122225Y-121965340D01*
X127148348Y-121979586D01*
X127182262Y-122000079D01*
X127219702Y-122024158D01*
X127256406Y-122049164D01*
X127287065Y-122071628D01*
X127334827Y-122112362D01*
X127387840Y-122163895D01*
X127440521Y-122220299D01*
X127487286Y-122275643D01*
X127517407Y-122316230D01*
X127591543Y-122442522D01*
X127647942Y-122575860D01*
X127686151Y-122714252D01*
X127705717Y-122855703D01*
X127706186Y-122998220D01*
X127695044Y-123096717D01*
X127661595Y-123243746D01*
X127610965Y-123381586D01*
X127544126Y-123509170D01*
X127462051Y-123625430D01*
X127365711Y-123729301D01*
X127256079Y-123819717D01*
X127134127Y-123895610D01*
X127000827Y-123955914D01*
X126876179Y-123994920D01*
X126785000Y-124017966D01*
X126782380Y-124392953D01*
X126779761Y-124767940D01*
X126856400Y-124784990D01*
X126993721Y-124825390D01*
X127122129Y-124882649D01*
X127240594Y-124955257D01*
X127348087Y-125041706D01*
X127443577Y-125140484D01*
X127526033Y-125250081D01*
X127594427Y-125368988D01*
X127647727Y-125495694D01*
X127684903Y-125628689D01*
X127704926Y-125766463D01*
X127706764Y-125907506D01*
X127695516Y-126015000D01*
X127663530Y-126157193D01*
X127613927Y-126291841D01*
X127547993Y-126417606D01*
X127467016Y-126533153D01*
X127372286Y-126637144D01*
X127265089Y-126728242D01*
X127146715Y-126805111D01*
X127018450Y-126866413D01*
X126881584Y-126910812D01*
X126819098Y-126924624D01*
X126751970Y-126933830D01*
X126673407Y-126938967D01*
X126615000Y-126939701D01*
X126590527Y-126940008D01*
G37*
%TD*%
M02*
